<svg width="24" height="24" viewBox="0 0 24 24" fill="none" xmlns="http://www.w3.org/2000/svg">
<path fill-rule="evenodd" clip-rule="evenodd" d="M6.5 8.5C6.5 5.46244 8.96244 3 12 3C15.0376 3 17.5 5.46244 17.5 8.5C17.5 11.1961 15.5601 13.4391 13 13.9093V16C13 16.5523 12.5523 17 12 17C11.4477 17 11 16.5523 11 16V13C11 12.4477 11.4477 12 12 12C13.933 12 15.5 10.433 15.5 8.5C15.5 6.56701 13.933 5 12 5C10.067 5 8.5 6.56701 8.5 8.5C8.5 9.05229 8.05228 9.5 7.5 9.5C6.94772 9.5 6.5 9.05229 6.5 8.5ZM12 21C12.8284 21 13.5 20.3284 13.5 19.5C13.5 18.6716 12.8284 18 12 18C11.1716 18 10.5 18.6716 10.5 19.5C10.5 20.3284 11.1716 21 12 21Z" fill="#05080D"/>
</svg>
