<svg width="24" height="24" viewBox="0 0 24 24" fill="none" xmlns="http://www.w3.org/2000/svg">
<path fill-rule="evenodd" clip-rule="evenodd" d="M13.725 1.75943C14.1434 1.88936 14.4284 2.2764 14.4284 2.71443V8.85729H18.4284C18.7998 8.85729 19.1406 9.06308 19.3135 9.39174C19.4863 9.7204 19.4629 10.1178 19.2525 10.4238L11.3953 21.8524C11.1472 22.2133 10.693 22.3708 10.2747 22.2409C9.85636 22.1109 9.57129 21.7239 9.57129 21.2859V15.143H5.57129C5.19993 15.143 4.85916 14.9372 4.68627 14.6086C4.51338 14.2799 4.53686 13.8825 4.74725 13.5765L12.6044 2.1479C12.8525 1.78695 13.3067 1.62951 13.725 1.75943ZM7.47232 13.143H10.5713C11.1236 13.143 11.5713 13.5907 11.5713 14.143V18.0662L16.5274 10.8573H13.4284C12.8762 10.8573 12.4284 10.4096 12.4284 9.85729V5.93411L7.47232 13.143Z" fill="#05080D"/>
</svg>
