<svg width="24" height="24" viewBox="0 0 24 24" fill="none" xmlns="http://www.w3.org/2000/svg">
<path d="M2.5 5.56619C2.5 5.21493 2.6843 4.88942 2.9855 4.7087L6.74275 2.45435C7.07601 2.25439 7.5 2.49445 7.5 2.8831V18.7169C7.5 18.8925 7.40785 19.0553 7.25725 19.1457L4.0145 21.0913C3.34797 21.4912 2.5 21.0111 2.5 20.2338V5.56619Z" fill="#FFC630"/>
<path d="M16.5 6.24031C16.5 6.08842 16.569 5.94476 16.6877 5.84988L19.8753 3.29976C20.5301 2.77595 21.5 3.24212 21.5 4.08062V18.5194C21.5 18.8232 21.3619 19.1105 21.1247 19.3002L17.3123 22.3501C16.985 22.612 16.5 22.3789 16.5 21.9597V6.24031Z" fill="#8230FF"/>
<path d="M9.5 2.88309C9.5 2.49445 9.92399 2.25439 10.2572 2.45435L14.2572 4.85435C14.4079 4.94471 14.5 5.10746 14.5 5.2831V21.1169C14.5 21.5056 14.076 21.7456 13.7428 21.5457L9.74275 19.1457C9.59215 19.0553 9.5 18.8925 9.5 18.7169V2.88309Z" fill="#3164FF"/>
</svg>
