<svg width="24" height="24" viewBox="0 0 24 24" fill="none" xmlns="http://www.w3.org/2000/svg">
<path fill-rule="evenodd" clip-rule="evenodd" d="M21 11C21.1356 11 21.2649 10.973 21.3828 10.9241C21.4999 10.8757 21.6096 10.804 21.705 10.7092L21.7092 10.705C21.9031 10.51 22 10.255 22 10L21.3828 10.9241L22 9.997C21.9996 9.8625 21.9727 9.73425 21.9241 9.61722C21.8753 9.49927 21.803 9.38877 21.7071 9.29289L15.7071 3.29289C15.3166 2.90237 14.6834 2.90237 14.2929 3.29289C13.9024 3.68342 13.9024 4.31658 14.2929 4.70711L18.5858 9L3 9C2.44772 9 2 9.44771 2 10C2 10.5523 2.44772 11 3 11L21 11ZM3 13C2.86441 13 2.73513 13.027 2.61722 13.0759C2.50014 13.1243 2.3904 13.196 2.29502 13.2908L2.29078 13.295C2.09693 13.49 2 13.745 2 14L2.61722 13.0759L2.00001 14.003C2.0004 14.1375 2.02735 14.2657 2.07588 14.3828C2.12468 14.5007 2.19702 14.6112 2.2929 14.7071L8.29288 20.7071C8.6834 21.0976 9.31657 21.0976 9.70709 20.7071C10.0976 20.3166 10.0976 19.6834 9.7071 19.2929L5.41421 15H21C21.5523 15 22 14.5523 22 14C22 13.4477 21.5523 13 21 13H3Z" fill="#05080D"/>
</svg>
