<svg width="24" height="24" viewBox="0 0 24 24" fill="none" xmlns="http://www.w3.org/2000/svg">
<path fill-rule="evenodd" clip-rule="evenodd" d="M9.5 2C7.01471 2 5 4.01472 5 6.5C5 8.98528 7.01472 11 9.5 11C11.9853 11 14 8.98528 14 6.5C14 4.01472 11.9853 2 9.5 2ZM7 6.5C7 5.11929 8.11929 4 9.5 4C10.8807 4 12 5.11929 12 6.5C12 7.88072 10.8807 9 9.5 9C8.11928 9 7 7.88072 7 6.5ZM16.82 2.64338C16.3469 2.35834 15.7324 2.51075 15.4473 2.98379C15.1623 3.45684 15.3147 4.07139 15.7877 4.35643C16.5164 4.79547 17.0001 5.5917 17.0001 6.49991C17.0001 7.40811 16.5164 8.20434 15.7877 8.64338C15.3147 8.92842 15.1623 9.54297 15.4473 10.016C15.7324 10.4891 16.3469 10.6415 16.82 10.3564C18.1242 9.57057 19.0001 8.138 19.0001 6.49991C19.0001 4.86181 18.1242 3.42924 16.82 2.64338ZM8.49911 13H10.5009C11.4312 13 12.1988 13 12.8241 13.0589C13.4766 13.1204 14.0671 13.2524 14.6139 13.5739C15.4628 14.0729 16.1277 14.8534 16.537 15.7801C16.7926 16.3591 16.8994 16.9835 16.9503 17.7022C17 18.4046 17 19.2741 17 20.3622V20.3622V20.3623V21C17 21.5523 16.5523 22 16 22H3C2.44772 22 2 21.5523 2 21V20.3623C1.99999 19.2742 1.99999 18.4046 2.04973 17.7022C2.10062 16.9835 2.20739 16.3591 2.46307 15.7801C2.87227 14.8534 3.53715 14.073 4.38602 13.5739C4.93287 13.2524 5.52342 13.1204 6.17592 13.0589C6.80115 13 7.56879 13 8.49911 13ZM5.39962 15.298C4.94391 15.566 4.54813 16.0094 4.29263 16.588C4.17045 16.8647 4.08831 17.2281 4.04473 17.8435C4.00596 18.391 4.00079 19.0736 4.0001 20H14.9999C14.9992 19.0736 14.994 18.391 14.9553 17.8434C14.9117 17.2281 14.8296 16.8647 14.7074 16.588C14.4519 16.0094 14.0561 15.566 13.6004 15.298C13.4057 15.1836 13.14 15.0976 12.6364 15.0501C12.1161 15.001 11.4431 15 10.4533 15H8.54667C7.55691 15 6.88392 15.001 6.36363 15.0501C5.86001 15.0976 5.59434 15.1836 5.39962 15.298ZM19.2699 13.545C18.7778 13.2943 18.1756 13.4899 17.9249 13.982C17.6741 14.4741 17.8698 15.0763 18.3619 15.327C18.8791 15.5905 19.2044 15.8796 19.4227 16.1773C19.6424 16.4769 19.7889 16.8335 19.8815 17.2811C20.0342 18.0193 20.0232 18.853 20.0091 19.9183L20.0091 19.9188C20.0047 20.2548 19.9999 20.6137 19.9999 21C19.9999 21.5523 20.4476 22 20.9999 22.0001C21.5522 22.0001 21.9999 21.5524 21.9999 21.0001C21.9999 20.704 22.0043 20.4029 22.0087 20.1005L22.0087 20.1002C22.0249 18.9843 22.0414 17.8493 21.8401 16.8759C21.7042 16.2194 21.4636 15.5784 21.0356 14.9946C20.6061 14.409 20.0232 13.9288 19.2699 13.545Z" fill="#0F1A26"/>
</svg>
