<svg width="24" height="24" viewBox="0 0 24 24" fill="none" xmlns="http://www.w3.org/2000/svg">
<path fill-rule="evenodd" clip-rule="evenodd" d="M9.20711 1.79289C8.81658 1.40237 8.18342 1.40237 7.79289 1.79289C7.40237 2.18342 7.40237 2.81658 7.79289 3.20711L9.58579 5H4C2.89543 5 2 5.89543 2 7V9C2 10.1046 2.89543 11 4 11L4 19C4 20.6569 5.34315 22 7 22H17C18.6569 22 20 20.6569 20 19V11C21.1046 11 22 10.1046 22 9V7C22 5.89543 21.1046 5 20 5H14.4142L16.2071 3.20711C16.5976 2.81658 16.5976 2.18342 16.2071 1.79289C15.8166 1.40237 15.1834 1.40237 14.7929 1.79289L12 4.58579L9.20711 1.79289ZM13 11H18V19C18 19.5523 17.5523 20 17 20H13V11ZM6 11H11V20H7C6.44772 20 6 19.5523 6 19V11ZM20 9H4V7H20V9Z" fill="#181F26"/>
</svg>
