<svg width="24" height="24" viewBox="0 0 24 24" fill="none" xmlns="http://www.w3.org/2000/svg">
<rect x="2" y="2" width="9" height="9" rx="2.76923" fill="#3164FF"/>
<rect x="2" y="13" width="9" height="9" rx="2.76923" fill="#8230FF"/>
<rect x="13" y="2" width="9" height="9" rx="2.76923" fill="#F26661"/>
<path d="M17.5 13C18.3284 13 19 13.6716 19 14.5V16H20.5C21.3284 16 22 16.6716 22 17.5C22 18.3284 21.3284 19 20.5 19H19V20.5C19 21.3284 18.3284 22 17.5 22C16.6716 22 16 21.3284 16 20.5V19H14.5C13.6716 19 13 18.3284 13 17.5C13 16.6716 13.6716 16 14.5 16H16V14.5C16 13.6716 16.6716 13 17.5 13Z" fill="#FFC630"/>
</svg>
