<svg width="24" height="24" viewBox="0 0 24 24" fill="none" xmlns="http://www.w3.org/2000/svg">
<path d="M14 2C14.5523 2 15 2.44772 15 3V7C15 7.55228 14.5523 8 14 8C13.4477 8 13 7.55228 13 7V6H3C2.44772 6 2 5.55228 2 5C2 4.44772 2.44772 4 3 4H13V3C13 2.44772 13.4477 2 14 2Z" fill="#333333"/>
<path d="M17 5C17 4.44772 17.4477 4 18 4H21C21.5523 4 22 4.44772 22 5C22 5.55228 21.5523 6 21 6H18C17.4477 6 17 5.55228 17 5Z" fill="#333333"/>
<path d="M2 12C2 11.4477 2.44772 11 3 11H7C7.55228 11 8 11.4477 8 12C8 12.5523 7.55228 13 7 13H3C2.44772 13 2 12.5523 2 12Z" fill="#333333"/>
<path d="M12 10C12 9.44772 11.5523 9 11 9C10.4477 9 10 9.44772 10 10V14C10 14.5523 10.4477 15 11 15C11.5523 15 12 14.5523 12 14V13H22C22.5523 13 23 12.5523 23 12C23 11.4477 22.5523 11 22 11H12V10Z" fill="#333333"/>
<path d="M18 18C17.4477 18 17 18.4477 17 19C17 19.5523 17.4477 20 18 20H21C21.5523 20 22 19.5523 22 19C22 18.4477 21.5523 18 21 18H18Z" fill="#333333"/>
<path d="M14 16C14.5523 16 15 16.4477 15 17V21C15 21.5523 14.5523 22 14 22C13.4477 22 13 21.5523 13 21V20H3C2.44772 20 2 19.5523 2 19C2 18.4477 2.44772 18 3 18H13V17C13 16.4477 13.4477 16 14 16Z" fill="#333333"/>
</svg>
