<svg width="24" height="24" viewBox="0 0 24 24" fill="none" xmlns="http://www.w3.org/2000/svg">
<path fill-rule="evenodd" clip-rule="evenodd" d="M5 6.5C5 4.01472 7.01471 2 9.5 2C11.9853 2 14 4.01472 14 6.5C14 8.98528 11.9853 11 9.5 11C7.01472 11 5 8.98528 5 6.5ZM9.5 4C8.11929 4 7 5.11929 7 6.5C7 7.88072 8.11928 9 9.5 9C10.8807 9 12 7.88072 12 6.5C12 5.11929 10.8807 4 9.5 4ZM18 13.5C18.5523 13.5 19 13.9477 19 14.5V16.5H21C21.5523 16.5 22 16.9477 22 17.5C22 18.0523 21.5523 18.5 21 18.5H19V20.5C19 21.0523 18.5523 21.5 18 21.5C17.4477 21.5 17 21.0523 17 20.5V18.5H15C14.4477 18.5 14 18.0523 14 17.5C14 16.9477 14.4477 16.5 15 16.5H17V14.5C17 13.9477 17.4477 13.5 18 13.5ZM6 13C3.79086 13 2 14.7909 2 17V21C2 21.5523 2.44772 22 3 22H14C14.5523 22 15 21.5523 15 21C15 20.4477 14.5523 20 14 20H4V17C4 15.8954 4.89543 15 6 15H14C14.5523 15 15 14.5523 15 14C15 13.4477 14.5523 13 14 13H6Z" fill="#181F26"/>
</svg>
