<svg width="24" height="24" viewBox="0 0 24 24" fill="none" xmlns="http://www.w3.org/2000/svg">
<path fill-rule="evenodd" clip-rule="evenodd" d="M12.2929 6.29289C12.6834 5.90237 13.3166 5.90237 13.7071 6.29289L17.2071 9.79289C17.4931 10.0789 17.5787 10.509 17.4239 10.8827C17.2691 11.2564 16.9045 11.5 16.5 11.5H7.5C6.94772 11.5 6.5 11.0523 6.5 10.5C6.5 9.94772 6.94772 9.5 7.5 9.5H14.0858L12.2929 7.70711C11.9024 7.31658 11.9024 6.68342 12.2929 6.29289Z" fill="#181F26"/>
<path fill-rule="evenodd" clip-rule="evenodd" d="M11.7071 17.7071C11.3166 18.0976 10.6834 18.0976 10.2929 17.7071L6.79289 14.2071C6.5069 13.9211 6.42134 13.491 6.57612 13.1173C6.7309 12.7436 7.09554 12.5 7.5 12.5H16.5C17.0523 12.5 17.5 12.9477 17.5 13.5C17.5 14.0523 17.0523 14.5 16.5 14.5H9.91421L11.7071 16.2929C12.0976 16.6834 12.0976 17.3166 11.7071 17.7071Z" fill="#181F26"/>
<path fill-rule="evenodd" clip-rule="evenodd" d="M2 6C2 3.79086 3.79086 2 6 2H18C20.2091 2 22 3.79086 22 6V18C22 20.2091 20.2091 22 18 22H6C3.79086 22 2 20.2091 2 18V6ZM6 4C4.89543 4 4 4.89543 4 6V18C4 19.1046 4.89543 20 6 20H18C19.1046 20 20 19.1046 20 18V6C20 4.89543 19.1046 4 18 4H6Z" fill="#181F26"/>
</svg>
