<svg width="24" height="24" viewBox="0 0 24 24" fill="none" xmlns="http://www.w3.org/2000/svg">
<path fill-rule="evenodd" clip-rule="evenodd" d="M6 3C3.79086 3 2 4.79086 2 7V10V17C2 19.2091 3.79086 21 6 21H18C20.2091 21 22 19.2091 22 17V10V7C22 4.79086 20.2091 3 18 3H6ZM20 9V7C20 5.89543 19.1046 5 18 5H6C4.89543 5 4 5.89543 4 7V9H20ZM4 11H20V17C20 18.1046 19.1046 19 18 19H6C4.89543 19 4 18.1046 4 17V11ZM5 15C5 14.4477 5.44772 14 6 14H8C8.55228 14 9 14.4477 9 15C9 15.5523 8.55228 16 8 16H6C5.44772 16 5 15.5523 5 15ZM11 14C10.4477 14 10 14.4477 10 15C10 15.5523 10.4477 16 11 16H16C16.5523 16 17 15.5523 17 15C17 14.4477 16.5523 14 16 14H11Z" fill="#0F1A26"/>
</svg>
