<svg width="24" height="24" viewBox="0 0 24 24" fill="none" xmlns="http://www.w3.org/2000/svg">
<path fill-rule="evenodd" clip-rule="evenodd" d="M13 6C13 5.44772 12.5523 5 12 5C11.4477 5 11 5.44772 11 6V6.53745C9.30494 6.61699 8.11169 8.13746 8.11169 9.78757C8.11169 11.4377 9.30494 12.9581 11 13.0377V15.5473H9.56265C9.01036 15.5473 8.56262 15.995 8.56262 16.5473C8.56262 17.0996 9.01057 17.5473 9.56285 17.5473H11V18C11 18.5523 11.4477 19 12 19C12.5523 19 13 18.5523 13 18V17.5468C14.7387 17.5135 15.9707 15.9706 15.9707 14.2939C15.9707 12.6172 14.7387 11.0743 13 11.0411V8.53418H14.5198C15.0721 8.53418 15.5198 8.08646 15.5198 7.53418C15.5198 6.98189 15.0719 6.53418 14.5196 6.53418H13V6ZM11 8.54718C10.5651 8.62698 10.1117 9.07105 10.1117 9.78757C10.1117 10.5041 10.5651 10.9481 11 11.028V8.54718ZM13 15.5451C13.4579 15.5098 13.9707 15.0559 13.9707 14.2939C13.9707 13.5319 13.4579 13.0781 13 13.0428V15.5451Z" fill="#05080D"/>
<path fill-rule="evenodd" clip-rule="evenodd" d="M12 2C6.47715 2 2 6.47715 2 12C2 17.5228 6.47715 22 12 22C17.5228 22 22 17.5228 22 12C22 6.47715 17.5228 2 12 2ZM4 12C4 7.58172 7.58172 4 12 4C16.4183 4 20 7.58172 20 12C20 16.4183 16.4183 20 12 20C7.58172 20 4 16.4183 4 12Z" fill="#05080D"/>
</svg>
