<svg width="24" height="24" viewBox="0 0 24 24" fill="none" xmlns="http://www.w3.org/2000/svg">
<path fill-rule="evenodd" clip-rule="evenodd" d="M9 6C9 4.89543 9.89543 4 11 4C12.1046 4 13 4.89543 13 6C13 6.23555 12.9597 6.45952 12.8865 6.66675C12.7024 7.18747 12.9753 7.75879 13.496 7.94284C13.6351 7.99199 13.7778 8.00855 13.9158 7.9965C13.9435 7.99882 13.9716 8 14 8H16C16.5523 8 17 8.44772 17 9V11C17 11.0284 17.0012 11.0565 17.0035 11.0842C16.9914 11.2222 17.008 11.3649 17.0572 11.504C17.2412 12.0247 17.8125 12.2976 18.3332 12.1135C18.5405 12.0403 18.7645 12 19 12C20.1046 12 21 12.8954 21 14C21 15.1046 20.1046 16 19 16C18.7645 16 18.5405 15.9597 18.3332 15.8865C17.8125 15.7024 17.2412 15.9753 17.0572 16.496C17.008 16.6351 16.9914 16.7778 17.0035 16.9158C17.0012 16.9435 17 16.9716 17 17V19C17 19.5523 16.5523 20 16 20H6C5.44772 20 5 19.5523 5 19L5 18C7.20914 18 9 16.2091 9 14C9 11.7909 7.20914 10 5 10L5 9C5 8.44772 5.44772 8 6 8H8C8.02837 8 8.05647 7.99882 8.08425 7.9965C8.2222 8.00855 8.36488 7.99199 8.50395 7.94284C9.02467 7.75879 9.29759 7.18747 9.11355 6.66675C9.0403 6.45952 9 6.23555 9 6ZM3.0035 11.0842C3.00118 11.0565 3 11.0284 3 11V9C3 7.34315 4.34315 6 6 6H7C7 3.79086 8.79086 2 11 2C13.2091 2 15 3.79086 15 6H16C17.6569 6 19 7.34315 19 9L19 10C21.2091 10 23 11.7909 23 14C23 16.2091 21.2091 18 19 18L19 19C19 20.6569 17.6569 22 16 22H6C4.34315 22 3 20.6569 3 19V17C3 16.9716 3.00118 16.9435 3.0035 16.9158C2.99144 16.7778 3.008 16.6351 3.05716 16.496C3.2412 15.9753 3.81253 15.7024 4.33324 15.8865C4.54048 15.9597 4.76445 16 5 16C6.10457 16 7 15.1046 7 14C7 12.8954 6.10457 12 5 12C4.76445 12 4.54048 12.0403 4.33324 12.1135C3.81253 12.2976 3.2412 12.0247 3.05716 11.504C3.008 11.3649 2.99144 11.2222 3.0035 11.0842Z" fill="#181F26"/>
</svg>
