<svg width="24" height="24" viewBox="0 0 24 24" fill="none" xmlns="http://www.w3.org/2000/svg">
<path fill-rule="evenodd" clip-rule="evenodd" d="M12 2C9.51471 2 7.5 4.01472 7.5 6.5C7.5 8.98528 9.51472 11 12 11C14.4853 11 16.5 8.98528 16.5 6.5C16.5 4.01472 14.4853 2 12 2ZM9.5 6.5C9.5 5.11929 10.6193 4 12 4C13.3807 4 14.5 5.11929 14.5 6.5C14.5 7.88072 13.3807 9 12 9C10.6193 9 9.5 7.88072 9.5 6.5ZM7 13C4.23858 13 2 15.2386 2 18V21C2 21.5523 2.44772 22 3 22H21C21.5523 22 22 21.5523 22 21V18C22 15.2386 19.7614 13 17 13H7ZM4 18C4 16.3431 5.34315 15 7 15H17C18.6569 15 20 16.3431 20 18V20H4V18Z" fill="#0F1A26"/>
</svg>
