<svg width="24" height="24" viewBox="0 0 24 24" fill="none" xmlns="http://www.w3.org/2000/svg">
<path fill-rule="evenodd" clip-rule="evenodd" d="M2 7C2 5.89543 2.89543 5 4 5H6C7.10457 5 8 5.89543 8 7V9C8 10.1046 7.10457 11 6 11H4C2.89543 11 2 10.1046 2 9V7ZM6 7H4V9H6V7Z" fill="#05080D"/>
<path fill-rule="evenodd" clip-rule="evenodd" d="M2 15C2 13.8954 2.89543 13 4 13H6C7.10457 13 8 13.8954 8 15V17C8 18.1046 7.10457 19 6 19H4C2.89543 19 2 18.1046 2 17V15ZM6 15H4V17H6V15Z" fill="#05080D"/>
<path fill-rule="evenodd" clip-rule="evenodd" d="M9 7C9 5.89543 9.89543 5 11 5H13C14.1046 5 15 5.89543 15 7V9C15 10.1046 14.1046 11 13 11H11C9.89543 11 9 10.1046 9 9V7ZM13 7H11V9H13V7Z" fill="#05080D"/>
<path fill-rule="evenodd" clip-rule="evenodd" d="M9 15C9 13.8954 9.89543 13 11 13H13C14.1046 13 15 13.8954 15 15V17C15 18.1046 14.1046 19 13 19H11C9.89543 19 9 18.1046 9 17V15ZM13 15H11V17H13V15Z" fill="#05080D"/>
<path fill-rule="evenodd" clip-rule="evenodd" d="M16 7C16 5.89543 16.8954 5 18 5H20C21.1046 5 22 5.89543 22 7V9C22 10.1046 21.1046 11 20 11H18C16.8954 11 16 10.1046 16 9V7ZM20 7H18V9H20V7Z" fill="#05080D"/>
<path fill-rule="evenodd" clip-rule="evenodd" d="M16 15C16 13.8954 16.8954 13 18 13H20C21.1046 13 22 13.8954 22 15V17C22 18.1046 21.1046 19 20 19H18C16.8954 19 16 18.1046 16 17V15ZM20 15H18V17H20V15Z" fill="#05080D"/>
</svg>
