<svg width="24" height="24" viewBox="0 0 24 24" fill="none" xmlns="http://www.w3.org/2000/svg">
<path fill-rule="evenodd" clip-rule="evenodd" d="M21.5257 2.14935C21.2309 1.96714 20.8628 1.95058 20.5528 2.10557L15 4.88197L9.46526 2.11459C9.32628 2.04142 9.16798 2 9 2C8.83202 2 8.67372 2.04142 8.53474 2.11459L2.55279 5.10557C2.214 5.27497 2 5.62123 2 6V21C2 21.3466 2.17945 21.6684 2.47427 21.8507C2.76908 22.0329 3.13723 22.0494 3.44721 21.8944L8.99984 19.1181L14.5483 21.8943C14.8298 22.0351 15.1612 22.0352 15.4428 21.8946L21.447 18.8946C21.7859 18.7252 22 18.3789 22 18V3C22 2.65342 21.8205 2.33156 21.5257 2.14935ZM8 4.61803L4 6.61804V19.382L8 17.382V4.61803ZM10 17.3822L14 19.3836V6.61804L10 4.61803V17.3822ZM20 4.61804V17.3818L16 19.3804V6.61804L20 4.61804Z" fill="#0F1A26"/>
</svg>
