<svg width="24" height="24" viewBox="0 0 24 24" fill="none" xmlns="http://www.w3.org/2000/svg">
<path d="M13 3C13 2.44772 12.5523 2 12 2C11.4477 2 11 2.44772 11 3L11 13.5858L8.20711 10.7929C7.81658 10.4024 7.18342 10.4024 6.79289 10.7929C6.40237 11.1834 6.40237 11.8166 6.79289 12.2071L11.2929 16.7071C11.3888 16.803 11.4993 16.8753 11.6172 16.9241C11.7343 16.9727 11.8625 16.9996 11.997 17L12 17L12.003 17C12.2746 16.9992 12.5208 16.8901 12.7006 16.7136C12.7031 16.7111 12.7056 16.7086 12.7081 16.7061L17.2071 12.2071C17.5976 11.8166 17.5976 11.1834 17.2071 10.7929C16.8166 10.4024 16.1834 10.4024 15.7929 10.7929L13 13.5858L13 3Z" fill="#05080D"/>
<path d="M21 11C21.5523 11 22 11.4477 22 12V19C22 20.6569 20.6569 22 19 22H5C3.34315 22 2 20.6569 2 19V12.0042C2 11.4519 2.44772 11.0042 3 11.0042C3.55228 11.0042 4 11.4519 4 12.0042V19C4 19.5523 4.44772 20 5 20H19C19.5523 20 20 19.5523 20 19V12C20 11.4477 20.4477 11 21 11Z" fill="#05080D"/>
</svg>
