<svg width="24" height="24" viewBox="0 0 24 24" fill="none" xmlns="http://www.w3.org/2000/svg">
<path fill-rule="evenodd" clip-rule="evenodd" d="M2 6C2 4.34315 3.34315 3 5 3H19C20.6569 3 22 4.34315 22 6V16C22 17.6569 20.6569 19 19 19H7.66667C7.4503 19 7.23976 19.0702 7.06667 19.2L5.2 20.6C3.88153 21.5889 2 20.6481 2 19V6ZM5 5C4.44772 5 4 5.44772 4 6V19L5.86667 17.6C6.38595 17.2105 7.01756 17 7.66667 17H19C19.5523 17 20 16.5523 20 16V6C20 5.44772 19.5523 5 19 5H5ZM12 6.5C12.5523 6.5 13 6.94772 13 7.5V11.5C13 12.0523 12.5523 12.5 12 12.5C11.4477 12.5 11 12.0523 11 11.5V7.5C11 6.94772 11.4477 6.5 12 6.5ZM12 15.5C12.5523 15.5 13 15.0523 13 14.5C13 13.9477 12.5523 13.5 12 13.5C11.4477 13.5 11 13.9477 11 14.5C11 15.0523 11.4477 15.5 12 15.5Z" fill="#181F26"/>
</svg>
