<svg width="24" height="24" viewBox="0 0 24 24" fill="none" xmlns="http://www.w3.org/2000/svg">
<path fill-rule="evenodd" clip-rule="evenodd" d="M3.00353 11.0842C3.00121 11.0565 3.00003 11.0284 3.00003 11V9C3.00003 7.34315 4.34318 6 6.00003 6H7.00003C7.00003 3.79086 8.79089 2 11 2C13.2092 2 15 3.79086 15 6H16C17.6569 6 19 7.34315 19 9L19 10C21.2092 10 23 11.7909 23 14C23 16.2091 21.2092 18 19 18L19 19C19 20.6569 17.6569 22 16 22H6.00003C4.34318 22 3.00003 20.6569 3.00003 19V17C3.00003 16.9716 3.00121 16.9435 3.00353 16.9158C2.99147 16.7778 3.00803 16.6351 3.05719 16.496C3.24124 15.9753 3.81256 15.7024 4.33327 15.8865C4.54051 15.9597 4.76448 16 5.00003 16C6.1046 16 7.00003 15.1046 7.00003 14C7.00003 12.8954 6.1046 12 5.00003 12C4.76448 12 4.54051 12.0403 4.33327 12.1135C3.81256 12.2976 3.24124 12.0247 3.05719 11.504C3.00803 11.3649 2.99147 11.2222 3.00353 11.0842ZM9.00003 6C9.00003 4.89543 9.89546 4 11 4C12.1046 4 13 4.89543 13 6C13 6.23555 12.9597 6.45952 12.8865 6.66675C12.7024 7.18747 12.9754 7.75879 13.4961 7.94284C13.6352 7.99199 13.7778 8.00855 13.9158 7.9965C13.9436 7.99882 13.9717 8 14 8H16C16.5523 8 17 8.44772 17 9V11C17 11.0284 17.0012 11.0565 17.0035 11.0842C16.9915 11.2222 17.008 11.3649 17.0572 11.504C17.2412 12.0247 17.8126 12.2976 18.3333 12.1135C18.5405 12.0403 18.7645 12 19 12C20.1046 12 21 12.8954 21 14C21 15.1046 20.1046 16 19 16C18.7645 16 18.5405 15.9597 18.3333 15.8865C17.8126 15.7024 17.2412 15.9753 17.0572 16.496C17.008 16.6351 16.9915 16.7778 17.0035 16.9158C17.0012 16.9435 17 16.9716 17 17V19C17 19.5523 16.5523 20 16 20H6.00003C5.44775 20 5.00003 19.5523 5.00003 19L5.00003 18C7.20917 18 9.00003 16.2091 9.00003 14C9.00003 11.7909 7.20917 10 5.00003 10L5.00003 9C5.00003 8.44772 5.44775 8 6.00003 8H8.00003C8.0284 8 8.0565 7.99882 8.08428 7.9965C8.22223 8.00855 8.36491 7.99199 8.50398 7.94284C9.0247 7.75879 9.29762 7.18747 9.11358 6.66675C9.04033 6.45952 9.00003 6.23555 9.00003 6Z" fill="#05080D"/>
</svg>
