<svg width="24" height="24" viewBox="0 0 24 24" fill="none" xmlns="http://www.w3.org/2000/svg">
<path fill-rule="evenodd" clip-rule="evenodd" d="M2 6.02148C2 4.91692 2.89543 4.02148 4 4.02148H20C21.1046 4.02148 22 4.91691 22 6.02148V9.3164C22 10.178 21.4531 10.7944 21.0101 11.1337C20.6335 11.4223 20.3636 11.9194 20.3636 12.5107C20.3636 13.102 20.6335 13.5991 21.0101 13.8876C21.4531 14.227 22 14.8433 22 15.705V18.9999C22 20.1044 21.1046 20.9999 20 20.9999H4C2.89543 20.9999 2 20.1044 2 18.9999V15.705C2 14.8433 2.54693 14.227 2.98988 13.8876C3.36646 13.5991 3.63636 13.102 3.63636 12.5107C3.63636 11.9194 3.36646 11.4222 2.98988 11.1337C2.54693 10.7944 2 10.178 2 9.3164V6.02148ZM20 6.02148L4 6.02148V9.31207C4.00164 9.31789 4.00701 9.33254 4.02249 9.35719C4.05403 9.40741 4.1137 9.47524 4.2062 9.54611C5.08604 10.2202 5.63636 11.3088 5.63636 12.5107C5.63636 13.7125 5.08604 14.8012 4.2062 15.4752C4.1137 15.5461 4.05403 15.614 4.02249 15.6642C4.00701 15.6888 4.00164 15.7035 4 15.7093V18.9999H20V15.7093C19.9984 15.7035 19.993 15.6888 19.9775 15.6642C19.946 15.614 19.8863 15.5461 19.7938 15.4752C18.914 14.8012 18.3636 13.7126 18.3636 12.5107C18.3636 11.3088 18.914 10.2202 19.7938 9.54611C19.8863 9.47525 19.946 9.40741 19.9775 9.35719C19.993 9.33255 19.9984 9.3179 20 9.31208V6.02148ZM20.0006 9.30916L20 9.31208L20.0006 9.30916ZM20.0006 15.7122L20.0003 15.7104L20.0006 15.7122ZM3.99937 15.7122L3.99972 15.7103L3.99937 15.7122ZM3.99937 9.30915L3.99972 9.31103L3.99937 9.30915Z" fill="#05080D"/>
<path fill-rule="evenodd" clip-rule="evenodd" d="M12.9937 7.77405C12.9378 7.27475 12.5142 6.8866 12 6.8866C11.4834 6.8866 11.0583 7.27833 11.0055 7.78096C9.46861 7.8903 8.40381 9.28001 8.40381 10.771C8.40381 12.2603 9.46607 13.6484 11 13.7607V15.7619H9.80337C9.25108 15.7619 8.80334 16.2096 8.80334 16.7619C8.80334 17.3142 9.25143 17.7619 9.80371 17.7619H11.0062C11.062 18.2614 11.4857 18.6497 12 18.6497C12.5167 18.6497 12.9419 18.2578 12.9945 17.755C14.5314 17.6456 15.5961 16.2559 15.5961 14.7649C15.5961 13.2757 14.5339 11.8876 13 11.7753V9.77405H14.1966C14.7488 9.77405 15.1966 9.32633 15.1966 8.77405C15.1966 8.22176 14.7485 7.77405 14.1962 7.77405H12.9937ZM11 9.8101C10.7033 9.91399 10.4038 10.2409 10.4038 10.771C10.4038 11.3012 10.7033 11.6281 11 11.732V9.8101ZM13 13.804V15.7259C13.2967 15.6219 13.5961 15.295 13.5961 14.7649C13.5961 14.2349 13.2967 13.9079 13 13.804Z" fill="#05080D"/>
</svg>
