<svg width="24" height="24" viewBox="0 0 24 24" fill="none" xmlns="http://www.w3.org/2000/svg">
<path fill-rule="evenodd" clip-rule="evenodd" d="M10.3871 2.54543C10.1712 2.12225 9.68735 1.90938 9.2295 2.03612C7.60521 2.48575 6.14234 3.32018 4.94475 4.43375C4.62122 4.73458 4.53343 5.21206 4.72879 5.6083C4.84694 5.84793 4.91381 6.1181 4.91381 6.40673C4.91381 7.40582 4.10389 8.21574 3.1048 8.21574L3.07965 8.21556C2.63757 8.20925 2.24382 8.49399 2.11133 8.91579C1.80265 9.89849 1.63663 10.9432 1.63663 12.0248C1.63663 12.7386 1.70895 13.4366 1.84698 14.1114C1.94962 14.6132 2.41478 14.9563 2.92449 14.9062C2.98342 14.9004 3.04356 14.8974 3.1048 14.8974C4.10389 14.8974 4.91381 15.7074 4.91381 16.7064C4.91381 17.1515 4.7544 17.5567 4.4884 17.8719C4.1581 18.2634 4.17699 18.8412 4.53216 19.2102C5.755 20.4809 7.30045 21.4411 9.03851 21.9585C9.56035 22.1139 10.1106 21.8232 10.2764 21.3046C10.5099 20.5742 11.1947 20.0473 12 20.0473C12.8053 20.0473 13.4901 20.5742 13.7236 21.3046C13.8894 21.8232 14.4397 22.1139 14.9615 21.9585C16.6996 21.4411 18.245 20.4809 19.4678 19.2102C19.823 18.8412 19.8419 18.2634 19.5116 17.872C19.2456 17.5567 19.0862 17.1515 19.0862 16.7064C19.0862 15.7074 19.8961 14.8974 20.8952 14.8974C20.9565 14.8974 21.0166 14.9004 21.0755 14.9062C21.5852 14.9563 22.0504 14.6132 22.153 14.1114C22.2911 13.4366 22.3634 12.7386 22.3634 12.0248C22.3634 10.9432 22.1973 9.89848 21.8887 8.9158C21.7562 8.49399 21.3624 8.20925 20.9204 8.21556L20.8952 8.21574C19.8961 8.21574 19.0862 7.40582 19.0862 6.40673C19.0862 6.1181 19.1531 5.84793 19.2712 5.6083C19.4666 5.21206 19.3788 4.73458 19.0553 4.43375C17.8577 3.32018 16.3948 2.48575 14.7705 2.03612C14.3127 1.90938 13.8288 2.12225 13.613 2.54543C13.3125 3.13432 12.7021 3.53406 12 3.53406C11.2979 3.53406 10.6875 3.13432 10.3871 2.54543ZM6.91381 6.40673C6.91381 6.08595 6.87395 5.77368 6.79878 5.47499C7.48358 4.93036 8.2552 4.49122 9.08911 4.18159C9.78706 5.00779 10.8316 5.53406 12 5.53406C13.1685 5.53406 14.213 5.00779 14.9109 4.18159C15.7448 4.49122 16.5164 4.93036 17.2012 5.47499C17.1261 5.77368 17.0862 6.08596 17.0862 6.40673C17.0862 8.25573 18.4037 9.79703 20.1511 10.1431C20.2899 10.7472 20.3634 11.3769 20.3634 12.0248C20.3634 12.3348 20.3465 12.6407 20.3138 12.9415C18.4861 13.2215 17.0862 14.8005 17.0862 16.7064C17.0862 17.2976 17.2214 17.8583 17.4623 18.3582C16.7871 18.9411 16.0182 19.4175 15.1817 19.7619C14.5009 18.7294 13.3309 18.0473 12 18.0473C10.6691 18.0473 9.49914 18.7294 8.81827 19.7619C7.98181 19.4175 7.21293 18.9411 6.53774 18.3582C6.77862 17.8583 6.91381 17.2976 6.91381 16.7064C6.91381 14.8005 5.51391 13.2215 3.68621 12.9415C3.65346 12.6407 3.63663 12.3348 3.63663 12.0248C3.63663 11.3769 3.71012 10.7472 3.84893 10.1431C5.59634 9.79703 6.91381 8.25573 6.91381 6.40673ZM12 8C9.79086 8 8 9.79086 8 12C8 14.2091 9.79086 16 12 16C14.2091 16 16 14.2091 16 12C16 9.79086 14.2091 8 12 8ZM10 12C10 10.8954 10.8954 10 12 10C13.1046 10 14 10.8954 14 12C14 13.1046 13.1046 14 12 14C10.8954 14 10 13.1046 10 12Z" fill="#0F1A26"/>
</svg>
