<svg width="24" height="24" viewBox="0 0 24 24" fill="none" xmlns="http://www.w3.org/2000/svg">
<path fill-rule="evenodd" clip-rule="evenodd" d="M12.3748 1.57535C12.1344 1.47814 11.8656 1.47814 11.6252 1.57535L3.62132 4.81143C3.24348 4.96419 2.99615 5.33097 2.99615 5.73852V12.6423C2.99615 15.5231 3.89508 17.5011 5.526 19.01C7.07885 20.4466 9.25131 21.4051 11.6052 22.4167C11.8568 22.5248 12.1418 22.525 12.3936 22.4172C14.811 21.382 17.042 20.4061 18.6054 18.5827C20.2096 16.7116 21.0038 14.0985 21.0038 10.0431V5.73852C21.0038 5.33097 20.7565 4.96419 20.3787 4.81143L12.3748 1.57535ZM4.99615 12.6423V6.41285L12 3.58108L19.0038 6.41285V10.0431C19.0038 13.8571 18.2552 15.9184 17.087 17.2809C15.9426 18.6157 14.2945 19.4189 12.0006 20.4092C9.76837 19.4435 8.06917 18.6382 6.88422 17.5419C5.70853 16.4542 4.99615 15.0317 4.99615 12.6423ZM16.0802 9.96746C16.4396 9.54813 16.3911 8.91683 15.9718 8.55741C15.5524 8.19799 14.9211 8.24655 14.5617 8.66588L11.1848 12.6056L9.9086 11.3293C9.51807 10.9388 8.88491 10.9388 8.49438 11.3293C8.10386 11.7199 8.10386 12.353 8.49438 12.7435L10.5342 14.7834C10.7312 14.9803 11.0014 15.0862 11.2797 15.0755C11.558 15.0648 11.8193 14.9385 12.0006 14.7271L16.0802 9.96746Z" fill="#181F26"/>
</svg>
