<svg width="24" height="24" viewBox="0 0 24 24" fill="none" xmlns="http://www.w3.org/2000/svg">
<path fill-rule="evenodd" clip-rule="evenodd" d="M9.20711 1.79289C8.81658 1.40237 8.18342 1.40237 7.79289 1.79289C7.40237 2.18342 7.40237 2.81658 7.79289 3.20711L9.58579 5H3C2.44772 5 2 5.44772 2 6V10C2 10.5523 2.44772 11 3 11H4V21C4 21.5523 4.44772 22 5 22H12H19C19.5523 22 20 21.5523 20 21V11H21C21.5523 11 22 10.5523 22 10V6C22 5.44772 21.5523 5 21 5H14.4142L16.2071 3.20711C16.5976 2.81658 16.5976 2.18342 16.2071 1.79289C15.8166 1.40237 15.1834 1.40237 14.7929 1.79289L12 4.58579L9.20711 1.79289ZM13 11H18V20H13V11ZM6 11H11V20H6V11ZM20 9H19H12H5H4V7H20V9Z" fill="#0F1A26"/>
</svg>
