<svg width="24" height="24" viewBox="0 0 24 24" fill="none" xmlns="http://www.w3.org/2000/svg">
<path d="M12 5.3125C9.79086 5.3125 8 7.10337 8 9.3125C8 9.86479 8.44772 10.3125 9 10.3125C9.55228 10.3125 10 9.86479 10 9.3125C10 8.20794 10.8954 7.3125 12 7.3125C13.1046 7.3125 14 8.20794 14 9.3125C14 10.4171 13.1046 11.3125 12 11.3125C11.4477 11.3125 11 11.7602 11 12.3125V14.3125C11 14.8648 11.4477 15.3125 12 15.3125C12.5523 15.3125 13 14.8648 13 14.3125V13.1865C14.7252 12.7424 16 11.1763 16 9.3125C16 7.10337 14.2091 5.3125 12 5.3125Z" fill="#0F1A26"/>
<path d="M12 18.8125C12.6903 18.8125 13.25 18.2528 13.25 17.5625C13.25 16.8722 12.6903 16.3125 12 16.3125C11.3097 16.3125 10.75 16.8722 10.75 17.5625C10.75 18.2528 11.3097 18.8125 12 18.8125Z" fill="#0F1A26"/>
<path fill-rule="evenodd" clip-rule="evenodd" d="M12 2C6.47715 2 2 6.47715 2 12C2 17.5228 6.47715 22 12 22C17.5228 22 22 17.5228 22 12C22 6.47715 17.5228 2 12 2ZM4 12C4 7.58172 7.58172 4 12 4C16.4183 4 20 7.58172 20 12C20 16.4183 16.4183 20 12 20C7.58172 20 4 16.4183 4 12Z" fill="#0F1A26"/>
</svg>
