<svg width="24" height="24" viewBox="0 0 24 24" fill="none" xmlns="http://www.w3.org/2000/svg">
<path fill-rule="evenodd" clip-rule="evenodd" d="M10.3871 2.54567C10.1712 2.1225 9.68735 1.90962 9.2295 2.03636C7.60521 2.48599 6.14234 3.32043 4.94475 4.43399C4.62122 4.73482 4.53343 5.2123 4.72879 5.60854C4.84694 5.84817 4.91381 6.11835 4.91381 6.40697C4.91381 7.40606 4.10389 8.21599 3.1048 8.21599L3.07965 8.21581C2.63757 8.2095 2.24382 8.49423 2.11133 8.91603C1.80265 9.89873 1.63663 10.9434 1.63663 12.025C1.63663 12.7388 1.70895 13.4368 1.84698 14.1117C1.94962 14.6134 2.41478 14.9565 2.92449 14.9065C2.98342 14.9007 3.04356 14.8977 3.1048 14.8977C4.10389 14.8977 4.91381 15.7076 4.91381 16.7067C4.91381 17.1517 4.7544 17.5569 4.4884 17.8722C4.1581 18.2637 4.17699 18.8414 4.53216 19.2105C5.755 20.4811 7.30045 21.4413 9.03851 21.9588C9.56035 22.1142 10.1106 21.8235 10.2764 21.3048C10.5099 20.5744 11.1947 20.0475 12 20.0475C12.8053 20.0475 13.4901 20.5744 13.7236 21.3048C13.8894 21.8235 14.4397 22.1142 14.9615 21.9588C16.6996 21.4413 18.245 20.4811 19.4678 19.2105C19.823 18.8414 19.8419 18.2637 19.5116 17.8722C19.2456 17.5569 19.0862 17.1517 19.0862 16.7067C19.0862 15.7076 19.8961 14.8977 20.8952 14.8977C20.9565 14.8977 21.0166 14.9007 21.0755 14.9065C21.5852 14.9565 22.0504 14.6134 22.153 14.1117C22.2911 13.4368 22.3634 12.7388 22.3634 12.025C22.3634 10.9434 22.1973 9.89873 21.8887 8.91604C21.7562 8.49423 21.3624 8.20949 20.9204 8.21581L20.8952 8.21599C19.8961 8.21599 19.0862 7.40606 19.0862 6.40697C19.0862 6.11834 19.1531 5.84817 19.2712 5.60854C19.4666 5.2123 19.3788 4.73482 19.0553 4.43399C17.8577 3.32043 16.3948 2.48599 14.7705 2.03636C14.3127 1.90962 13.8288 2.1225 13.613 2.54567C13.3125 3.13457 12.7021 3.5343 12 3.5343C11.2979 3.5343 10.6875 3.13457 10.3871 2.54567ZM6.91381 6.40697C6.91381 6.0862 6.87395 5.77393 6.79878 5.47523C7.48358 4.9306 8.2552 4.49147 9.08911 4.18184C9.78706 5.00803 10.8316 5.5343 12 5.5343C13.1685 5.5343 14.213 5.00803 14.9109 4.18184C15.7448 4.49147 16.5164 4.9306 17.2012 5.47524C17.1261 5.77393 17.0862 6.0862 17.0862 6.40697C17.0862 8.25597 18.4037 9.79727 20.1511 10.1433C20.2899 10.7474 20.3634 11.3771 20.3634 12.025C20.3634 12.3351 20.3465 12.641 20.3138 12.9418C18.4861 13.2217 17.0862 14.8007 17.0862 16.7067C17.0862 17.2979 17.2214 17.8585 17.4623 18.3584C16.7871 18.9414 16.0182 19.4178 15.1817 19.7622C14.5009 18.7297 13.3309 18.0475 12 18.0475C10.6691 18.0475 9.49914 18.7297 8.81827 19.7622C7.98181 19.4178 7.21293 18.9414 6.53774 18.3584C6.77862 17.8585 6.91381 17.2979 6.91381 16.7067C6.91381 14.8007 5.51391 13.2217 3.68621 12.9418C3.65346 12.641 3.63663 12.3351 3.63663 12.025C3.63663 11.3771 3.71012 10.7474 3.84893 10.1433C5.59634 9.79727 6.91381 8.25598 6.91381 6.40697ZM12 8.00024C9.79086 8.00024 8 9.7911 8 12.0002C8 14.2094 9.79086 16.0002 12 16.0002C14.2091 16.0002 16 14.2094 16 12.0002C16 9.7911 14.2091 8.00024 12 8.00024ZM10 12.0002C10 10.8957 10.8954 10.0002 12 10.0002C13.1046 10.0002 14 10.8957 14 12.0002C14 13.1048 13.1046 14.0002 12 14.0002C10.8954 14.0002 10 13.1048 10 12.0002Z" fill="#05080D"/>
</svg>
