<svg width="24" height="24" viewBox="0 0 24 24" fill="none" xmlns="http://www.w3.org/2000/svg">
<path fill-rule="evenodd" clip-rule="evenodd" d="M2 4C2 3.44772 2.44772 3 3 3H21C21.5523 3 22 3.44772 22 4V18C22 18.5523 21.5523 19 21 19H7.33333L3.6 21.8C3.29698 22.0273 2.89157 22.0638 2.55279 21.8944C2.214 21.725 2 21.3788 2 21V4ZM4 5V19L6.4 17.2C6.5731 17.0702 6.78363 17 7 17H20V5H4ZM12 6.5C12.5523 6.5 13 6.94772 13 7.5V11.5C13 12.0523 12.5523 12.5 12 12.5C11.4477 12.5 11 12.0523 11 11.5V7.5C11 6.94772 11.4477 6.5 12 6.5ZM12 15.5C12.5523 15.5 13 15.0523 13 14.5C13 13.9477 12.5523 13.5 12 13.5C11.4477 13.5 11 13.9477 11 14.5C11 15.0523 11.4477 15.5 12 15.5Z" fill="#0F1A26"/>
</svg>
