<svg width="24" height="24" viewBox="0 0 24 24" fill="none" xmlns="http://www.w3.org/2000/svg">
<path fill-rule="evenodd" clip-rule="evenodd" d="M6 6.5C6 4.01472 8.01471 2 10.5 2C12.9853 2 15 4.01472 15 6.5C15 8.98528 12.9853 11 10.5 11C8.01472 11 6 8.98528 6 6.5ZM10.5 4C9.11929 4 8 5.11929 8 6.5C8 7.88072 9.11928 9 10.5 9C11.8807 9 13 7.88072 13 6.5C13 5.11929 11.8807 4 10.5 4Z" fill="#05080D"/>
<path d="M19.5 7C20.0523 7 20.5 7.44772 20.5 8V9.5H22C22.5523 9.5 23 9.94772 23 10.5C23 11.0523 22.5523 11.5 22 11.5H20.5V13C20.5 13.5523 20.0523 14 19.5 14C18.9477 14 18.5 13.5523 18.5 13V11.5H17C16.4477 11.5 16 11.0523 16 10.5C16 9.94772 16.4477 9.5 17 9.5H18.5V8C18.5 7.44772 18.9477 7 19.5 7Z" fill="#05080D"/>
<path fill-rule="evenodd" clip-rule="evenodd" d="M9 12C5.13401 12 2 15.134 2 19V21C2 21.5523 2.44772 22 3 22H18C18.5523 22 19 21.5523 19 21V19C19 15.134 15.866 12 12 12H9ZM4 19C4 16.2386 6.23858 14 9 14H12C14.7614 14 17 16.2386 17 19V20H4V19Z" fill="#05080D"/>
</svg>
