<svg width="24" height="24" viewBox="0 0 24 24" fill="none" xmlns="http://www.w3.org/2000/svg">
<g filter="url(#filter0_i_4561_117)">
<path fill-rule="evenodd" clip-rule="evenodd" d="M1 6.5C1 4.29086 2.79086 2.5 5 2.5H9.13268C9.76182 2.5 10.375 2.69779 10.8856 3.0654L12.3546 4.12307C12.695 4.36814 13.1038 4.5 13.5232 4.5H19C21.2091 4.5 23 6.29086 23 8.5V17.5C23 19.7091 21.2091 21.5 19 21.5H5C2.79086 21.5 1 19.7091 1 17.5V6.5ZM11.768 14.7488L11.3669 15.6676C11.2127 16.0208 10.724 16.0208 10.5698 15.6676L10.1686 14.7488C9.8116 13.9312 9.16902 13.2803 8.36748 12.9245L7.2633 12.4343C6.91223 12.2785 6.91224 11.7678 7.2633 11.612L8.33299 11.1372C9.15514 10.7722 9.80925 10.0972 10.1602 9.25168L10.5665 8.27252C10.7173 7.90916 11.2194 7.90916 11.3702 8.27252L11.7765 9.25169C12.1274 10.0972 12.7815 10.7722 13.6037 11.1372L14.6734 11.612C15.0244 11.7678 15.0244 12.2785 14.6734 12.4343L13.5692 12.9245C12.7676 13.2803 12.1251 13.9312 11.768 14.7488ZM15.4961 17.6462L15.3833 17.9047C15.3007 18.094 15.0386 18.094 14.9561 17.9047L14.8432 17.6462C14.6421 17.1851 14.2799 16.8181 13.8279 16.6173L13.4803 16.4628C13.2924 16.3793 13.2924 16.1061 13.4803 16.0226L13.8085 15.8768C14.2721 15.6708 14.6408 15.2902 14.8385 14.8135L14.9543 14.5341C15.0351 14.3393 15.3043 14.3393 15.385 14.5341L15.5009 14.8135C15.6986 15.2902 16.0673 15.6708 16.5309 15.8768L16.859 16.0226C17.047 16.1061 17.047 16.3793 16.859 16.4628L16.5114 16.6173C16.0595 16.8181 15.6972 17.1851 15.4961 17.6462Z" fill="url(#paint0_radial_4561_117)"/>
<path fill-rule="evenodd" clip-rule="evenodd" d="M1 6.5C1 4.29086 2.79086 2.5 5 2.5H9.13268C9.76182 2.5 10.375 2.69779 10.8856 3.0654L12.3546 4.12307C12.695 4.36814 13.1038 4.5 13.5232 4.5H19C21.2091 4.5 23 6.29086 23 8.5V17.5C23 19.7091 21.2091 21.5 19 21.5H5C2.79086 21.5 1 19.7091 1 17.5V6.5ZM11.768 14.7488L11.3669 15.6676C11.2127 16.0208 10.724 16.0208 10.5698 15.6676L10.1686 14.7488C9.8116 13.9312 9.16902 13.2803 8.36748 12.9245L7.2633 12.4343C6.91223 12.2785 6.91224 11.7678 7.2633 11.612L8.33299 11.1372C9.15514 10.7722 9.80925 10.0972 10.1602 9.25168L10.5665 8.27252C10.7173 7.90916 11.2194 7.90916 11.3702 8.27252L11.7765 9.25169C12.1274 10.0972 12.7815 10.7722 13.6037 11.1372L14.6734 11.612C15.0244 11.7678 15.0244 12.2785 14.6734 12.4343L13.5692 12.9245C12.7676 13.2803 12.1251 13.9312 11.768 14.7488ZM15.4961 17.6462L15.3833 17.9047C15.3007 18.094 15.0386 18.094 14.9561 17.9047L14.8432 17.6462C14.6421 17.1851 14.2799 16.8181 13.8279 16.6173L13.4803 16.4628C13.2924 16.3793 13.2924 16.1061 13.4803 16.0226L13.8085 15.8768C14.2721 15.6708 14.6408 15.2902 14.8385 14.8135L14.9543 14.5341C15.0351 14.3393 15.3043 14.3393 15.385 14.5341L15.5009 14.8135C15.6986 15.2902 16.0673 15.6708 16.5309 15.8768L16.859 16.0226C17.047 16.1061 17.047 16.3793 16.859 16.4628L16.5114 16.6173C16.0595 16.8181 15.6972 17.1851 15.4961 17.6462Z" fill="url(#paint1_radial_4561_117)"/>
<path fill-rule="evenodd" clip-rule="evenodd" d="M1 6.5C1 4.29086 2.79086 2.5 5 2.5H9.13268C9.76182 2.5 10.375 2.69779 10.8856 3.0654L12.3546 4.12307C12.695 4.36814 13.1038 4.5 13.5232 4.5H19C21.2091 4.5 23 6.29086 23 8.5V17.5C23 19.7091 21.2091 21.5 19 21.5H5C2.79086 21.5 1 19.7091 1 17.5V6.5ZM11.768 14.7488L11.3669 15.6676C11.2127 16.0208 10.724 16.0208 10.5698 15.6676L10.1686 14.7488C9.8116 13.9312 9.16902 13.2803 8.36748 12.9245L7.2633 12.4343C6.91223 12.2785 6.91224 11.7678 7.2633 11.612L8.33299 11.1372C9.15514 10.7722 9.80925 10.0972 10.1602 9.25168L10.5665 8.27252C10.7173 7.90916 11.2194 7.90916 11.3702 8.27252L11.7765 9.25169C12.1274 10.0972 12.7815 10.7722 13.6037 11.1372L14.6734 11.612C15.0244 11.7678 15.0244 12.2785 14.6734 12.4343L13.5692 12.9245C12.7676 13.2803 12.1251 13.9312 11.768 14.7488ZM15.4961 17.6462L15.3833 17.9047C15.3007 18.094 15.0386 18.094 14.9561 17.9047L14.8432 17.6462C14.6421 17.1851 14.2799 16.8181 13.8279 16.6173L13.4803 16.4628C13.2924 16.3793 13.2924 16.1061 13.4803 16.0226L13.8085 15.8768C14.2721 15.6708 14.6408 15.2902 14.8385 14.8135L14.9543 14.5341C15.0351 14.3393 15.3043 14.3393 15.385 14.5341L15.5009 14.8135C15.6986 15.2902 16.0673 15.6708 16.5309 15.8768L16.859 16.0226C17.047 16.1061 17.047 16.3793 16.859 16.4628L16.5114 16.6173C16.0595 16.8181 15.6972 17.1851 15.4961 17.6462Z" fill="url(#paint2_radial_4561_117)" fill-opacity="0.2"/>
</g>
<defs>
<filter id="filter0_i_4561_117" x="1" y="2.5" width="22" height="19" filterUnits="userSpaceOnUse" color-interpolation-filters="sRGB">
<feFlood flood-opacity="0" result="BackgroundImageFix"/>
<feBlend mode="normal" in="SourceGraphic" in2="BackgroundImageFix" result="shape"/>
<feColorMatrix in="SourceAlpha" type="matrix" values="0 0 0 0 0 0 0 0 0 0 0 0 0 0 0 0 0 0 127 0" result="hardAlpha"/>
<feOffset/>
<feGaussianBlur stdDeviation="4.0625"/>
<feComposite in2="hardAlpha" operator="arithmetic" k2="-1" k3="1"/>
<feColorMatrix type="matrix" values="0 0 0 0 1 0 0 0 0 1 0 0 0 0 1 0 0 0 0.5 0"/>
<feBlend mode="normal" in2="shape" result="effect1_innerShadow_4561_117"/>
</filter>
<radialGradient id="paint0_radial_4561_117" cx="0" cy="0" r="1" gradientTransform="matrix(-1.25 -19 -15.1313 5.61516 10.625 24.1719)" gradientUnits="userSpaceOnUse">
<stop stop-color="#EB00FF"/>
<stop offset="0.8" stop-color="#62B3FD"/>
</radialGradient>
<radialGradient id="paint1_radial_4561_117" cx="0" cy="0" r="1" gradientTransform="matrix(13 18.4062 7.85256 -31.2836 0.125 4.875)" gradientUnits="userSpaceOnUse">
<stop offset="0.196529" stop-color="#FF33BA"/>
<stop offset="1" stop-color="#ED42B3" stop-opacity="0"/>
</radialGradient>
<radialGradient id="paint2_radial_4561_117" cx="0" cy="0" r="1" gradientTransform="matrix(11.375 10.9844 -12.7187 74.293 6.625 9.03125)" gradientUnits="userSpaceOnUse">
<stop stop-color="white"/>
<stop offset="1" stop-color="white" stop-opacity="0"/>
</radialGradient>
</defs>
</svg>
