<svg width="24" height="24" viewBox="0 0 24 24" fill="none" xmlns="http://www.w3.org/2000/svg">
<g filter="url(#filter0_i_4561_135)">
<path fill-rule="evenodd" clip-rule="evenodd" d="M3.1001 6C3.1001 4.89543 3.99553 4 5.1001 4H8.36688C8.60359 4 8.83261 4.08396 9.01323 4.23695L10.1145 5.16983C10.837 5.78179 11.7531 6.11765 12.6999 6.11765H17.1001C18.2047 6.11765 19.1001 7.01308 19.1001 8.11765C19.1001 8.60496 18.7051 9 18.2177 9H5.31125C4.37137 9 3.5583 9.65444 3.35745 10.5726C3.32415 10.7248 3.1001 10.7006 3.1001 10.5448V6ZM21.1001 8.11765C21.1001 8.62369 21.507 9.02618 21.9393 9.28922C22.6186 9.70252 23.0244 10.5067 22.8696 11.3578L21.2333 20.3578C21.0604 21.3088 20.2321 22 19.2655 22H17.1001H5.1001H4.5849C4.46895 22 4.35481 21.9935 4.24276 21.9809C2.42154 21.776 1.1001 19.8327 1.1001 18V6C1.1001 3.79086 2.89096 2 5.1001 2H8.36688C9.07699 2 9.76407 2.25189 10.3059 2.71086L11.4072 3.64374C11.7685 3.94972 12.2265 4.11765 12.6999 4.11765H17.1001C19.3092 4.11765 21.1001 5.90851 21.1001 8.11765ZM11.7511 17.3144L11.2918 18.0461C11.1152 18.3273 10.7195 18.3273 10.6464 18.0461L10.4561 17.3144C10.2868 16.6634 9.86188 16.1451 9.26503 15.8618L8.44281 15.4715C8.1814 15.3474 8.25618 14.9407 8.56323 14.8167L9.49883 14.4386C10.2179 14.148 10.8463 13.6105 11.2543 12.9372L11.7266 12.1575C11.9019 11.8682 12.3084 11.8682 12.3773 12.1575L12.5629 12.9372C12.7232 13.6105 13.1539 14.148 13.7661 14.4386L14.5627 14.8167C14.8241 14.9407 14.7493 15.3474 14.4423 15.4715L13.4765 15.8618C12.7755 16.1451 12.1599 16.6634 11.7511 17.3144ZM14.3452 19.6216L14.216 19.8275C14.1214 19.9782 13.9092 19.9782 13.8701 19.8275L13.8166 19.6216C13.7213 19.2545 13.4818 18.9622 13.1452 18.8023L12.8864 18.6793C12.7465 18.6128 12.7865 18.3952 12.9509 18.3288L13.2379 18.2126C13.6434 18.0486 13.9977 17.7455 14.2275 17.3659L14.3622 17.1435C14.4561 16.9884 14.6741 16.9884 14.711 17.1435L14.7639 17.3659C14.8541 17.7455 15.0969 18.0486 15.4421 18.2126L15.6864 18.3288C15.8264 18.3952 15.7864 18.6128 15.6219 18.6793L15.3179 18.8023C14.9226 18.9622 14.5755 19.2545 14.3452 19.6216Z" fill="url(#paint0_radial_4561_135)"/>
<path fill-rule="evenodd" clip-rule="evenodd" d="M3.1001 6C3.1001 4.89543 3.99553 4 5.1001 4H8.36688C8.60359 4 8.83261 4.08396 9.01323 4.23695L10.1145 5.16983C10.837 5.78179 11.7531 6.11765 12.6999 6.11765H17.1001C18.2047 6.11765 19.1001 7.01308 19.1001 8.11765C19.1001 8.60496 18.7051 9 18.2177 9H5.31125C4.37137 9 3.5583 9.65444 3.35745 10.5726C3.32415 10.7248 3.1001 10.7006 3.1001 10.5448V6ZM21.1001 8.11765C21.1001 8.62369 21.507 9.02618 21.9393 9.28922C22.6186 9.70252 23.0244 10.5067 22.8696 11.3578L21.2333 20.3578C21.0604 21.3088 20.2321 22 19.2655 22H17.1001H5.1001H4.5849C4.46895 22 4.35481 21.9935 4.24276 21.9809C2.42154 21.776 1.1001 19.8327 1.1001 18V6C1.1001 3.79086 2.89096 2 5.1001 2H8.36688C9.07699 2 9.76407 2.25189 10.3059 2.71086L11.4072 3.64374C11.7685 3.94972 12.2265 4.11765 12.6999 4.11765H17.1001C19.3092 4.11765 21.1001 5.90851 21.1001 8.11765ZM11.7511 17.3144L11.2918 18.0461C11.1152 18.3273 10.7195 18.3273 10.6464 18.0461L10.4561 17.3144C10.2868 16.6634 9.86188 16.1451 9.26503 15.8618L8.44281 15.4715C8.1814 15.3474 8.25618 14.9407 8.56323 14.8167L9.49883 14.4386C10.2179 14.148 10.8463 13.6105 11.2543 12.9372L11.7266 12.1575C11.9019 11.8682 12.3084 11.8682 12.3773 12.1575L12.5629 12.9372C12.7232 13.6105 13.1539 14.148 13.7661 14.4386L14.5627 14.8167C14.8241 14.9407 14.7493 15.3474 14.4423 15.4715L13.4765 15.8618C12.7755 16.1451 12.1599 16.6634 11.7511 17.3144ZM14.3452 19.6216L14.216 19.8275C14.1214 19.9782 13.9092 19.9782 13.8701 19.8275L13.8166 19.6216C13.7213 19.2545 13.4818 18.9622 13.1452 18.8023L12.8864 18.6793C12.7465 18.6128 12.7865 18.3952 12.9509 18.3288L13.2379 18.2126C13.6434 18.0486 13.9977 17.7455 14.2275 17.3659L14.3622 17.1435C14.4561 16.9884 14.6741 16.9884 14.711 17.1435L14.7639 17.3659C14.8541 17.7455 15.0969 18.0486 15.4421 18.2126L15.6864 18.3288C15.8264 18.3952 15.7864 18.6128 15.6219 18.6793L15.3179 18.8023C14.9226 18.9622 14.5755 19.2545 14.3452 19.6216Z" fill="url(#paint1_radial_4561_135)"/>
<path fill-rule="evenodd" clip-rule="evenodd" d="M3.1001 6C3.1001 4.89543 3.99553 4 5.1001 4H8.36688C8.60359 4 8.83261 4.08396 9.01323 4.23695L10.1145 5.16983C10.837 5.78179 11.7531 6.11765 12.6999 6.11765H17.1001C18.2047 6.11765 19.1001 7.01308 19.1001 8.11765C19.1001 8.60496 18.7051 9 18.2177 9H5.31125C4.37137 9 3.5583 9.65444 3.35745 10.5726C3.32415 10.7248 3.1001 10.7006 3.1001 10.5448V6ZM21.1001 8.11765C21.1001 8.62369 21.507 9.02618 21.9393 9.28922C22.6186 9.70252 23.0244 10.5067 22.8696 11.3578L21.2333 20.3578C21.0604 21.3088 20.2321 22 19.2655 22H17.1001H5.1001H4.5849C4.46895 22 4.35481 21.9935 4.24276 21.9809C2.42154 21.776 1.1001 19.8327 1.1001 18V6C1.1001 3.79086 2.89096 2 5.1001 2H8.36688C9.07699 2 9.76407 2.25189 10.3059 2.71086L11.4072 3.64374C11.7685 3.94972 12.2265 4.11765 12.6999 4.11765H17.1001C19.3092 4.11765 21.1001 5.90851 21.1001 8.11765ZM11.7511 17.3144L11.2918 18.0461C11.1152 18.3273 10.7195 18.3273 10.6464 18.0461L10.4561 17.3144C10.2868 16.6634 9.86188 16.1451 9.26503 15.8618L8.44281 15.4715C8.1814 15.3474 8.25618 14.9407 8.56323 14.8167L9.49883 14.4386C10.2179 14.148 10.8463 13.6105 11.2543 12.9372L11.7266 12.1575C11.9019 11.8682 12.3084 11.8682 12.3773 12.1575L12.5629 12.9372C12.7232 13.6105 13.1539 14.148 13.7661 14.4386L14.5627 14.8167C14.8241 14.9407 14.7493 15.3474 14.4423 15.4715L13.4765 15.8618C12.7755 16.1451 12.1599 16.6634 11.7511 17.3144ZM14.3452 19.6216L14.216 19.8275C14.1214 19.9782 13.9092 19.9782 13.8701 19.8275L13.8166 19.6216C13.7213 19.2545 13.4818 18.9622 13.1452 18.8023L12.8864 18.6793C12.7465 18.6128 12.7865 18.3952 12.9509 18.3288L13.2379 18.2126C13.6434 18.0486 13.9977 17.7455 14.2275 17.3659L14.3622 17.1435C14.4561 16.9884 14.6741 16.9884 14.711 17.1435L14.7639 17.3659C14.8541 17.7455 15.0969 18.0486 15.4421 18.2126L15.6864 18.3288C15.8264 18.3952 15.7864 18.6128 15.6219 18.6793L15.3179 18.8023C14.9226 18.9622 14.5755 19.2545 14.3452 19.6216Z" fill="url(#paint2_radial_4561_135)" fill-opacity="0.2"/>
</g>
<defs>
<filter id="filter0_i_4561_135" x="1.1001" y="2" width="21.8025" height="20" filterUnits="userSpaceOnUse" color-interpolation-filters="sRGB">
<feFlood flood-opacity="0" result="BackgroundImageFix"/>
<feBlend mode="normal" in="SourceGraphic" in2="BackgroundImageFix" result="shape"/>
<feColorMatrix in="SourceAlpha" type="matrix" values="0 0 0 0 0 0 0 0 0 0 0 0 0 0 0 0 0 0 127 0" result="hardAlpha"/>
<feOffset/>
<feGaussianBlur stdDeviation="4.0625"/>
<feComposite in2="hardAlpha" operator="arithmetic" k2="-1" k3="1"/>
<feColorMatrix type="matrix" values="0 0 0 0 1 0 0 0 0 1 0 0 0 0 1 0 0 0 0.5 0"/>
<feBlend mode="normal" in2="shape" result="effect1_innerShadow_4561_135"/>
</filter>
<radialGradient id="paint0_radial_4561_135" cx="0" cy="0" r="1" gradientTransform="matrix(-1.23877 -20 -14.9954 5.91069 10.6386 24.8125)" gradientUnits="userSpaceOnUse">
<stop stop-color="#EB00FF"/>
<stop offset="0.8" stop-color="#62B3FD"/>
</radialGradient>
<radialGradient id="paint1_radial_4561_135" cx="0" cy="0" r="1" gradientTransform="matrix(12.8832 19.375 7.78202 -32.9301 0.232958 4.5)" gradientUnits="userSpaceOnUse">
<stop offset="0.196529" stop-color="#FF33BA"/>
<stop offset="1" stop-color="#ED42B3" stop-opacity="0"/>
</radialGradient>
<radialGradient id="paint2_radial_4561_135" cx="0" cy="0" r="1" gradientTransform="matrix(9.44738 9.44738 -9.607 64.83 8.5 10.9901)" gradientUnits="userSpaceOnUse">
<stop stop-color="white"/>
<stop offset="1" stop-color="white" stop-opacity="0"/>
</radialGradient>
</defs>
</svg>
