<svg width="24" height="24" viewBox="0 0 24 24" fill="none" xmlns="http://www.w3.org/2000/svg">
<path d="M2.35421 5.604C2.35421 3.53294 4.03314 1.854 6.10421 1.854H14.1042C16.1753 1.854 17.8542 3.53294 17.8542 5.604V9.104C17.8542 9.51822 17.5184 9.854 17.1042 9.854C16.69 9.854 16.3542 9.51822 16.3542 9.104V5.604C16.3542 4.36136 15.3469 3.354 14.1042 3.354H6.10421C4.86157 3.354 3.85421 4.36136 3.85421 5.604V17.604C3.85421 18.8466 4.86157 19.854 6.10421 19.854H9.60421C10.0184 19.854 10.3542 20.1898 10.3542 20.604C10.3542 21.0182 10.0184 21.354 9.60421 21.354H6.10421C4.03314 21.354 2.35421 19.6751 2.35421 17.604V5.604Z" fill="black"/>
<path fill-rule="evenodd" clip-rule="evenodd" d="M7.10421 5.604C6.55193 5.604 6.10421 6.05172 6.10421 6.604V9.604C6.10421 10.1563 6.55193 10.604 7.10421 10.604H13.1042C13.6565 10.604 14.1042 10.1563 14.1042 9.604V6.604C14.1042 6.05172 13.6565 5.604 13.1042 5.604H7.10421ZM7.60421 7.104V9.104H12.6042V7.104H7.60421Z" fill="black"/>
<path fill-rule="evenodd" clip-rule="evenodd" d="M21.6458 16.604C21.6458 19.6646 19.1647 22.1457 16.1041 22.1457C13.0436 22.1457 10.5625 19.6646 10.5625 16.604C10.5625 13.5435 13.0436 11.0624 16.1041 11.0624C19.1647 11.0624 21.6458 13.5435 21.6458 16.604ZM19.1045 16.604C19.1045 16.3624 18.9086 16.1665 18.667 16.1665H16.5419L16.5419 14.0414C16.5419 13.7998 16.346 13.6039 16.1044 13.6039C15.8627 13.6039 15.6669 13.7998 15.6669 14.0414L15.6669 16.1665H13.5417C13.3001 16.1665 13.1042 16.3624 13.1042 16.604C13.1042 16.8456 13.3001 17.0415 13.5417 17.0415H15.6669V19.1666C15.6669 19.4082 15.8627 19.6041 16.1044 19.6041C16.346 19.6041 16.5419 19.4082 16.5419 19.1666V17.0415H18.667C18.9086 17.0415 19.1045 16.8456 19.1045 16.604Z" fill="black"/>
</svg>
