<svg width="24" height="24" viewBox="0 0 24 24" fill="none" xmlns="http://www.w3.org/2000/svg">
<path d="M9 6C9 5.44772 9.44772 5 10 5H14C14.5523 5 15 5.44772 15 6C15 6.55228 14.5523 7 14 7H10C9.44772 7 9 6.55228 9 6Z" fill="#15181C"/>
<path d="M7.59995 6.89998C8.09701 6.89998 8.49995 6.49703 8.49995 5.99998C8.49995 5.50292 8.09701 5.09998 7.59995 5.09998C7.1029 5.09998 6.69995 5.50292 6.69995 5.99998C6.69995 6.49703 7.1029 6.89998 7.59995 6.89998Z" fill="#15181C"/>
<path d="M17.3 5.99998C17.3 6.49703 16.8971 6.89998 16.4 6.89998C15.9029 6.89998 15.5 6.49703 15.5 5.99998C15.5 5.50292 15.9029 5.09998 16.4 5.09998C16.8971 5.09998 17.3 5.50292 17.3 5.99998Z" fill="#15181C"/>
<path fill-rule="evenodd" clip-rule="evenodd" d="M4 7.15547C4 5.47531 4 4.63523 4.32698 3.9935C4.6146 3.42901 5.07354 2.97007 5.63803 2.68245C6.27976 2.35547 7.11984 2.35547 8.8 2.35547H15.2C16.8802 2.35547 17.7202 2.35547 18.362 2.68245C18.9265 2.97007 19.3854 3.42901 19.673 3.9935C20 4.63523 20 5.47531 20 7.15547V16.845C20 18.5252 20 19.3653 19.673 20.007C19.3854 20.5715 18.9265 21.0304 18.362 21.318C17.7202 21.645 16.8802 21.645 15.2 21.645H8.8C7.11984 21.645 6.27976 21.645 5.63803 21.318C5.07354 21.0304 4.6146 20.5715 4.32698 20.007C4 19.3653 4 18.5252 4 16.845V7.15547ZM8.8 3.85547H15.2C16.0648 3.85547 16.6232 3.85664 17.0482 3.89136C17.4557 3.92465 17.6068 3.98117 17.681 4.01896C17.9632 4.16277 18.1927 4.39224 18.3365 4.67448C18.3743 4.74865 18.4308 4.89973 18.4641 5.30722C18.4988 5.73223 18.5 6.29064 18.5 7.15547V16.845C18.5 17.7098 18.4988 18.2683 18.4641 18.6933C18.4308 19.1008 18.3743 19.2518 18.3365 19.326C18.1927 19.6082 17.9632 19.8377 17.681 19.9815C17.6068 20.0193 17.4557 20.0758 17.0482 20.1091C16.6232 20.1439 16.0648 20.145 15.2 20.145H8.8C7.93517 20.145 7.37676 20.1439 6.95175 20.1091C6.54426 20.0758 6.39318 20.0193 6.31901 19.9815C6.03677 19.8377 5.8073 19.6082 5.66349 19.326C5.6257 19.2518 5.56918 19.1008 5.53589 18.6933C5.50117 18.2683 5.5 17.7098 5.5 16.845V7.15547C5.5 6.29064 5.50117 5.73223 5.53589 5.30722C5.56918 4.89973 5.6257 4.74865 5.66349 4.67448C5.8073 4.39224 6.03677 4.16277 6.31901 4.01896C6.39318 3.98117 6.54426 3.92465 6.95175 3.89136C7.37676 3.85664 7.93517 3.85547 8.8 3.85547Z" fill="#15181C"/>
</svg>
