<svg width="24" height="24" viewBox="0 0 24 24" fill="none" xmlns="http://www.w3.org/2000/svg">
<path fill-rule="evenodd" clip-rule="evenodd" d="M9.64219 2.75003C9.68178 2.75005 9.72189 2.75006 9.76257 2.75006H14.2376C14.2783 2.75006 14.3184 2.75005 14.358 2.75003C15.2588 2.74968 15.8816 2.74943 16.4529 2.93681C16.9359 3.09522 17.3817 3.35016 17.7631 3.68615C18.2142 4.08359 18.5298 4.62051 18.9862 5.39717C19.0063 5.4313 19.0266 5.46589 19.0472 5.50095L21.206 9.17095C21.2272 9.20702 21.2482 9.24258 21.2688 9.27767C21.7381 10.0747 22.0624 10.6256 22.1891 11.228C22.2963 11.7371 22.2963 12.263 22.1891 12.7721C22.0624 13.3745 21.7381 13.9254 21.2688 14.7225C21.2482 14.7575 21.2272 14.7931 21.206 14.8292L19.0472 18.4992C19.0266 18.5342 19.0063 18.5688 18.9862 18.6029C18.5298 19.3796 18.2143 19.9165 17.7631 20.314C17.3817 20.65 16.9359 20.9049 16.4529 21.0633C15.8816 21.2507 15.2589 21.2504 14.358 21.2501C14.3184 21.2501 14.2783 21.2501 14.2376 21.2501H9.76257C9.72189 21.2501 9.68177 21.2501 9.64218 21.2501C8.74135 21.2504 8.11859 21.2507 7.54729 21.0633C7.06431 20.9049 6.61858 20.65 6.23717 20.314C5.78601 19.9166 5.47046 19.3797 5.01402 18.6031C4.99396 18.5689 4.97363 18.5343 4.953 18.4993L2.79414 14.8293C2.77292 14.7932 2.75197 14.7576 2.73131 14.7225C2.26203 13.9255 1.93766 13.3746 1.81091 12.7722C1.70378 12.263 1.70378 11.7371 1.81091 11.228C1.93766 10.6255 2.26203 10.0746 2.73131 9.27758C2.75197 9.24249 2.77292 9.20692 2.79414 9.17085L4.953 5.50085C4.97363 5.46579 4.99396 5.4312 5.01401 5.39707C5.47046 4.62044 5.786 4.08354 6.23717 3.68611C6.61858 3.35014 7.06431 3.0952 7.54729 2.93681C8.1186 2.74943 8.74136 2.74968 9.64219 2.75003ZM9.76257 4.25006C8.69424 4.25006 8.32936 4.25892 8.01474 4.36211C7.72496 4.45715 7.45752 4.61011 7.22867 4.81169C6.98021 5.03055 6.78757 5.34056 6.2459 6.26139L4.08703 9.93139C3.53062 10.8773 3.34856 11.2051 3.27877 11.5368C3.21449 11.8423 3.21449 12.1578 3.27877 12.4633C3.34856 12.795 3.53062 13.1228 4.08703 14.0687L6.2459 17.7387C6.78757 18.6596 6.98021 18.9696 7.22867 19.1884C7.45752 19.39 7.72496 19.543 8.01474 19.638C8.32936 19.7412 8.69424 19.7501 9.76257 19.7501H14.2376C15.306 19.7501 15.6709 19.7412 15.9855 19.638C16.2753 19.543 16.5427 19.39 16.7716 19.1884C17.02 18.9695 17.2127 18.6595 17.7543 17.7387L19.9131 14.0687C20.4695 13.1228 20.6515 12.795 20.7213 12.4633C20.7856 12.1578 20.7856 11.8423 20.7213 11.5368C20.6515 11.2051 20.4695 10.8773 19.9131 9.93147L17.7543 6.26147C17.2127 5.3406 17.02 5.03059 16.7716 4.81171C16.5427 4.61012 16.2753 4.45716 15.9855 4.36211C15.6709 4.25892 15.306 4.25006 14.2376 4.25006H9.76257ZM8.75 12.0001C8.75 10.2051 10.2051 8.75006 12 8.75006C13.7949 8.75006 15.25 10.2051 15.25 12.0001C15.25 13.795 13.7949 15.2501 12 15.2501C10.2051 15.2501 8.75 13.795 8.75 12.0001ZM12 10.2501C11.0335 10.2501 10.25 11.0336 10.25 12.0001C10.25 12.9665 11.0335 13.7501 12 13.7501C12.9665 13.7501 13.75 12.9665 13.75 12.0001C13.75 11.0336 12.9665 10.2501 12 10.2501Z" fill="black"/>
</svg>
