<svg width="24" height="24" viewBox="0 0 24 24" fill="none" xmlns="http://www.w3.org/2000/svg">
<path fill-rule="evenodd" clip-rule="evenodd" d="M3.39535 12C3.39535 7.24778 7.24778 3.39535 12 3.39535C16.7522 3.39535 20.6047 7.24778 20.6047 12C20.6047 16.7522 16.7522 20.6047 12 20.6047C7.24778 20.6047 3.39535 16.7522 3.39535 12ZM12 2C6.47715 2 2 6.47715 2 12C2 17.5228 6.47715 22 12 22C17.5228 22 22 17.5228 22 12C22 6.47715 17.5228 2 12 2ZM7.77173 10.0836C7.77173 7.68596 9.58909 5.74231 11.8309 5.74231C14.0727 5.74231 15.8901 7.68595 15.8901 10.0836C15.8901 11.3321 15.3522 12.3007 14.6264 13.0498C13.9153 13.7839 12.9935 14.3407 12.1392 14.7975C11.7987 14.9796 11.3846 14.832 11.2144 14.4678C11.0441 14.1037 11.1822 13.6609 11.5227 13.4788C12.3533 13.0346 13.1165 12.5593 13.669 11.989C14.207 11.4337 14.5115 10.8254 14.5115 10.0836C14.5115 8.50025 13.3114 7.2167 11.8309 7.2167C10.3505 7.2167 9.15032 8.50024 9.15032 10.0836C9.15032 10.4907 8.84171 10.8208 8.46103 10.8208C8.08034 10.8208 7.77173 10.4907 7.77173 10.0836ZM11.831 16.9051C12.3914 16.9051 12.8458 17.3544 12.8458 17.9086V17.9311C12.8458 18.4853 12.3914 18.9347 11.831 18.9347C11.2705 18.9347 10.8162 18.4853 10.8162 17.9311V17.9086C10.8162 17.3544 11.2705 16.9051 11.831 16.9051Z" fill="black"/>
</svg>
