<svg width="24" height="24" viewBox="0 0 24 24" fill="none" xmlns="http://www.w3.org/2000/svg">
<path d="M8.89939 2.3877C9.3136 2.3877 9.64939 2.72348 9.64939 3.1377V4.16014H14.374V3.1377C14.374 2.72348 14.7098 2.3877 15.124 2.3877C15.5382 2.3877 15.874 2.72348 15.874 3.1377V4.16014H17.3285C19.2111 4.16014 20.7372 5.68626 20.7372 7.56882V10.3782C20.7372 10.7924 20.4014 11.1282 19.9872 11.1282C19.573 11.1282 19.2372 10.7924 19.2372 10.3782V7.56882C19.2372 6.51469 18.3827 5.66014 17.3285 5.66014H15.874V6.6826C15.874 7.09682 15.5382 7.4326 15.124 7.4326C14.7098 7.4326 14.374 7.09682 14.374 6.6826V5.66014H9.64939V6.6826C9.64939 7.09682 9.3136 7.4326 8.89939 7.4326C8.48517 7.4326 8.14939 7.09682 8.14939 6.6826V5.66014H6.69381C5.63968 5.66014 4.78513 6.51469 4.78513 7.56882V11.25H5.80759C6.2218 11.25 6.55759 11.5857 6.55759 12C6.55759 12.4142 6.2218 12.75 5.80759 12.75H4.78513V14.7189C4.78513 16.6323 6.26938 18.1992 8.14939 18.3308V17.3173C8.14939 16.9031 8.48517 16.5673 8.89939 16.5673C9.3136 16.5673 9.64939 16.9031 9.64939 17.3173V18.3398L15.3733 18.3398C15.7875 18.3398 16.1233 18.6756 16.1233 19.0898C16.1233 19.504 15.7875 19.8398 15.3733 19.8398L9.64939 19.8398V20.8622C9.64939 21.2764 9.3136 21.6122 8.89939 21.6122C8.48517 21.6122 8.14939 21.2764 8.14939 20.8622V19.8335C5.44042 19.6997 3.28513 17.461 3.28513 14.7189V12.75H2.26268C1.84847 12.75 1.51268 12.4142 1.51268 12C1.51268 11.5857 1.84847 11.25 2.26268 11.25H3.28513V7.56882C3.28513 5.68626 4.81125 4.16014 6.69381 4.16014H8.14939V3.1377C8.14939 2.72348 8.48517 2.3877 8.89939 2.3877Z" fill="black"/>
<path fill-rule="evenodd" clip-rule="evenodd" d="M9.35301 9.49663C8.86356 9.49663 8.46679 9.8934 8.46679 10.3829V13.9278C8.46679 14.4172 8.86356 14.814 9.35301 14.814H14.6704C15.1598 14.814 15.5566 14.4172 15.5566 13.9278V10.3829C15.5566 9.8934 15.1598 9.49663 14.6704 9.49663H9.35301ZM9.96679 10.9966V13.314H14.0566V10.9966H9.96679Z" fill="black"/>
<path d="M21.17 16.5245L19.8174 14.9603V20.8622C19.8174 21.2764 19.4816 21.6122 19.0674 21.6122C18.6532 21.6122 18.3174 21.2764 18.3174 20.8622V14.9728L16.9755 16.5245C16.7046 16.8378 16.2309 16.8721 15.9176 16.6012C15.6043 16.3303 15.57 15.8566 15.8409 15.5433L18.0614 12.9756C18.6057 12.3461 19.5398 12.3461 20.0841 12.9756L22.3046 15.5433C22.5755 15.8566 22.5412 16.3303 22.2279 16.6012C21.9146 16.8721 21.4409 16.8378 21.17 16.5245Z" fill="black"/>
</svg>
