<svg width="24" height="24" viewBox="0 0 24 24" fill="none" xmlns="http://www.w3.org/2000/svg">
<path opacity="0.2" fill-rule="evenodd" clip-rule="evenodd" d="M3 13.5005C4.25349 14.4421 5.81159 15 7.5 15C10.7655 15 13.5436 12.913 14.5732 10H21V20H3V13.5005Z" fill="#F59230"/>
<path fill-rule="evenodd" clip-rule="evenodd" d="M2 12.5991V16.2413V16.2413V16.2414C1.99999 17.0463 1.99998 17.7106 2.0442 18.2518C2.09012 18.8139 2.18869 19.3306 2.43598 19.816C2.81947 20.5686 3.43139 21.1805 4.18404 21.564C4.66938 21.8113 5.18608 21.9099 5.74818 21.9558C6.28937 22 6.95372 22 7.75868 22H16.2413C17.0463 22 17.7106 22 18.2518 21.9558C18.8139 21.9099 19.3306 21.8113 19.816 21.564C20.5686 21.1805 21.1805 20.5686 21.564 19.816C21.8113 19.3306 21.9099 18.8139 21.9558 18.2518C22 17.7106 22 17.0463 22 16.2413V11V9.75868C22 8.95372 22 8.28936 21.9558 7.74817C21.9099 7.18608 21.8113 6.66937 21.564 6.18404C21.1805 5.43139 20.5686 4.81947 19.816 4.43597C19.3306 4.18868 18.8139 4.09012 18.2518 4.04419C17.891 4.01472 17.4755 4.00489 17 4.00163V3C17 2.44772 16.5523 2 16 2C15.4477 2 15 2.44772 15 3V4V6C15 6.55228 15.4477 7 16 7C16.5517 7 16.999 6.55324 17 6.00176C17.4455 6.00489 17.7954 6.01357 18.089 6.03755C18.5274 6.07337 18.7516 6.1383 18.908 6.21799C19.2843 6.40973 19.5903 6.7157 19.782 7.09202C19.8617 7.24842 19.9266 7.47262 19.9624 7.91104C19.9992 8.36113 20 8.94342 20 9.8V10H14.5732C14.3173 10.7242 13.9533 11.3973 13.5006 12H20V16.2C20 17.0566 19.9992 17.6389 19.9624 18.089C19.9266 18.5274 19.8617 18.7516 19.782 18.908C19.5903 19.2843 19.2843 19.5903 18.908 19.782C18.7516 19.8617 18.5274 19.9266 18.089 19.9624C17.6389 19.9992 17.0566 20 16.2 20H7.8C6.94342 20 6.36113 19.9992 5.91104 19.9624C5.47262 19.9266 5.24842 19.8617 5.09202 19.782C4.7157 19.5903 4.40974 19.2843 4.21799 18.908C4.1383 18.7516 4.07337 18.5274 4.03755 18.089C4.00078 17.6389 4 17.0566 4 16.2L4 14.135C3.24868 13.7378 2.57295 13.2168 2 12.5991ZM17 13C16.4477 13 16 13.4477 16 14C16 14.5523 16.4477 15 17 15C17.5523 15 18 14.5523 18 14C18 13.4477 17.5523 13 17 13ZM7 17C6.44772 17 6 17.4477 6 18C6 18.5523 6.44772 19 7 19C7.55229 19 8 18.5523 8 18C8 17.4477 7.55229 17 7 17ZM11 18C11 17.4477 11.4477 17 12 17C12.5523 17 13 17.4477 13 18C13 18.5523 12.5523 19 12 19C11.4477 19 11 18.5523 11 18ZM17 17C16.4477 17 16 17.4477 16 18C16 18.5523 16.4477 19 17 19C17.5523 19 18 18.5523 18 18C18 17.4477 17.5523 17 17 17Z" fill="#F59230"/>
<path fill-rule="evenodd" clip-rule="evenodd" d="M2 7.5C2 4.46243 4.46243 2 7.5 2C10.5376 2 13 4.46243 13 7.5C13 10.5376 10.5376 13 7.5 13C4.46243 13 2 10.5376 2 7.5ZM6.5 5C6.5 4.44772 6.94772 4 7.5 4C8.05228 4 8.5 4.44772 8.5 5V7C8.5 7.55228 8.05228 8 7.5 8C6.94772 8 6.5 7.55228 6.5 7V5ZM6.5 10C6.5 9.44772 6.94772 9 7.5 9C8.05228 9 8.5 9.44772 8.5 10C8.5 10.5523 8.05228 11 7.5 11C6.94772 11 6.5 10.5523 6.5 10Z" fill="#F59230"/>
</svg>
