<svg width="24" height="24" viewBox="0 0 24 24" fill="none" xmlns="http://www.w3.org/2000/svg">
<path d="M15.1719 2C15.9674 2.00008 16.7304 2.31637 17.293 2.87891L20.1211 5.70703C20.6836 6.26957 20.9999 7.03259 21 7.82812V19C21 20.6569 19.6569 22 18 22H6C4.34315 22 3 20.6569 3 19V5C3 3.34315 4.34315 2 6 2H15.1719ZM6 4C5.44772 4 5 4.44772 5 5V19C5 19.5523 5.44772 20 6 20H18C18.5523 20 19 19.5523 19 19V9H18C16.3431 9 15 7.65685 15 6V4H6ZM16 16H10V19H8V10H16V16ZM10 14H14V12H10V14ZM17 6C17 6.55228 17.4477 7 18 7H18.5859L17 5.41406V6Z" fill="black"/>
</svg>
