<svg width="24" height="24" viewBox="0 0 24 24" fill="none" xmlns="http://www.w3.org/2000/svg">
<path d="M14.6279 6C14.6279 7.6567 15.9713 8.99975 17.6279 9H21V19C21 20.6569 19.6569 22 18 22H6C4.34315 22 3 20.6569 3 19V5C3 3.34315 4.34315 2 6 2H14.6279V6ZM9 9C8.44772 9 8 9.44772 8 10C8 10.5523 8.44772 11 9 11H11V17C11 17.5523 11.4477 18 12 18C12.5523 18 13 17.5523 13 17V11H15C15.5523 11 16 10.5523 16 10C16 9.44772 15.5523 9 15 9H9ZM15.959 2.51953C15.9591 2.05439 16.4875 1.8235 16.79 2.15918C17.4906 2.93559 18.5258 4.08429 19.46 5.12109L20.8633 6.67871C21.1587 7.00689 20.9426 7.55068 20.5166 7.55176C19.6849 7.55392 18.7053 7.5516 17.999 7.54297C16.881 7.5429 15.959 6.56013 15.959 5.36621V2.51953Z" fill="#05080D"/>
</svg>
