<svg width="24" height="24" viewBox="0 0 24 24" fill="none" xmlns="http://www.w3.org/2000/svg">
<path d="M14.6279 6C14.6279 7.6567 15.9713 8.99975 17.6279 9H21V19C21 20.6569 19.6569 22 18 22H6C4.34315 22 3 20.6569 3 19V5C3 3.34315 4.34315 2 6 2H14.6279V6ZM10.5 7.5C10.5 9.07742 10.0446 10.9373 9.27539 12.6533C8.50333 14.3756 7.46119 15.8498 6.375 16.7188L7.55469 18.332C10.482 16.3804 13.7233 15.0424 16.8584 15.4902L17.3164 13.5518C14.6438 12.6609 12.5 9.98994 12.5 7.5H10.5ZM11.8037 11.6289C12.2754 12.3534 12.855 13.0187 13.5098 13.5957C12.5282 13.7715 11.5668 14.0599 10.6357 14.4277C10.8004 14.1145 10.9547 13.7948 11.0996 13.4717C11.3668 12.8754 11.6043 12.2566 11.8037 11.6289ZM15.959 2.51953C15.9591 2.05439 16.4875 1.8235 16.79 2.15918C17.4906 2.93559 18.5258 4.08429 19.46 5.12109L20.8633 6.67871C21.1587 7.00689 20.9426 7.55068 20.5166 7.55176C19.6849 7.55392 18.7053 7.5516 17.999 7.54297C16.881 7.5429 15.959 6.56013 15.959 5.36621V2.51953Z" fill="black"/>
</svg>
