<svg width="24" height="24" viewBox="0 0 24 24" fill="none" xmlns="http://www.w3.org/2000/svg">
<path d="M18 2C20.2091 2 22 3.79086 22 6V18C22 20.2091 20.2091 22 18 22H6C3.79086 22 2 20.2091 2 18V6C2 3.79086 3.79086 2 6 2H18ZM11.2471 17.1641C11.0641 17.3699 10.8046 17.4919 10.5293 17.5C10.2541 17.5081 9.98769 17.4017 9.79297 17.207L7.97266 15.3857L4.2002 18.8672C4.52345 19.5368 5.20658 20 6 20H18C18.7548 20 19.4105 19.5811 19.751 18.9639L14.5254 13.4756L11.2471 17.1641ZM6 4C4.89543 4 4 4.89543 4 6V16.3311L7.32129 13.2656C7.69105 12.9243 8.25244 12.9128 8.63379 13.2256L8.70703 13.293L10.458 15.043L13.7529 11.3359C13.9386 11.127 14.203 11.0049 14.4824 11C14.762 10.9952 15.0317 11.108 15.2246 11.3105L20 16.3242V6C20 4.89543 19.1046 4 18 4H6ZM8.5 7C9.32843 7 10 7.67157 10 8.5C10 9.32843 9.32843 10 8.5 10C7.67157 10 7 9.32843 7 8.5C7 7.67157 7.67157 7 8.5 7Z" fill="#05080D"/>
</svg>
