<svg width="24" height="24" viewBox="0 0 24 24" fill="none" xmlns="http://www.w3.org/2000/svg">
<path d="M15.1719 2C15.9674 2.00008 16.7304 2.31637 17.293 2.87891L20.1211 5.70703C20.6836 6.26957 20.9999 7.03259 21 7.82812V19C21 20.6569 19.6569 22 18 22H6C4.34315 22 3 20.6569 3 19V5C3 3.34315 4.34315 2 6 2H15.1719ZM6 4C5.44772 4 5 4.44772 5 5V19C5 19.5523 5.44772 20 6 20H18C18.5523 20 19 19.5523 19 19V9H18C16.3431 9 15 7.65685 15 6V4H6ZM12.5 7.5C12.5 9.98994 14.6438 12.6609 17.3164 13.5518L16.8584 15.4902C13.7233 15.0424 10.482 16.3804 7.55469 18.332L6.375 16.7188C7.46119 15.8498 8.50333 14.3756 9.27539 12.6533C10.0446 10.9373 10.5 9.07742 10.5 7.5H12.5ZM11.8037 11.6289C11.6043 12.2566 11.3668 12.8754 11.0996 13.4717C10.9547 13.7948 10.8004 14.1145 10.6357 14.4277C11.5668 14.0599 12.5282 13.7715 13.5098 13.5957C12.855 13.0187 12.2754 12.3534 11.8037 11.6289ZM17 6C17 6.55228 17.4477 7 18 7H18.5859L17 5.41406V6Z" fill="black"/>
</svg>
