<svg width="24" height="24" viewBox="0 0 24 24" fill="none" xmlns="http://www.w3.org/2000/svg">
<path d="M14.6279 6C14.6279 7.6567 15.9713 8.99975 17.6279 9H21V19C21 20.6569 19.6569 22 18 22H6C4.34315 22 3 20.6569 3 19V5C3 3.34315 4.34315 2 6 2H14.6279V6ZM6 11V17H7.71387V13.5713L9.42871 15.2861L11.1426 13.5713V17H12.8574V11H11.1426L9.42871 12.7139L7.71387 11H6ZM15.4287 11V14.4287H13.7139L16.2861 17L18.8574 14.4287H17.1426V11H15.4287ZM15.959 2.51953C15.9591 2.05439 16.4875 1.8235 16.79 2.15918C17.4906 2.93559 18.5258 4.08429 19.46 5.12109L20.8633 6.67871C21.1587 7.00689 20.9426 7.55068 20.5166 7.55176C19.6849 7.55392 18.7053 7.5516 17.999 7.54297C16.881 7.5429 15.959 6.56013 15.959 5.36621V2.51953Z" fill="#05080D"/>
</svg>
