<svg width="24" height="24" viewBox="0 0 24 24" fill="none" xmlns="http://www.w3.org/2000/svg">
<path d="M14.6279 6C14.6279 7.6567 15.9713 8.99975 17.6279 9H21V19C21 20.6569 19.6569 22 18 22H6C4.34315 22 3 20.6569 3 19V5C3 3.34315 4.34315 2 6 2H14.6279V6ZM7.90918 16C7.4071 16 7 16.4477 7 17C7 17.5523 7.4071 18 7.90918 18H16.0908C16.5929 18 17 17.5523 17 17C17 16.4477 16.5929 16 16.0908 16H7.90918ZM7.85742 12C7.38404 12 7 12.4477 7 13C7 13.5523 7.38404 14 7.85742 14H12.1426C12.616 14 13 13.5523 13 13C13 12.4477 12.616 12 12.1426 12H7.85742ZM15.959 2.51953C15.9591 2.05439 16.4875 1.8235 16.79 2.15918C17.4906 2.93559 18.5258 4.08429 19.46 5.12109L20.8633 6.67871C21.1587 7.00689 20.9426 7.55068 20.5166 7.55176C19.6849 7.55392 18.7053 7.5516 17.999 7.54297C16.881 7.5429 15.959 6.56013 15.959 5.36621V2.51953Z" fill="black"/>
</svg>
