<svg width="24" height="24" viewBox="0 0 24 24" fill="none" xmlns="http://www.w3.org/2000/svg">
<path d="M21.4414 20.7383C20.8975 21.5009 20.0081 22 19 22H5C3.89669 22 2.93518 21.4028 2.41406 20.5156L7.97266 15.3857L9.79297 17.207C9.98769 17.4017 10.2541 17.5081 10.5293 17.5C10.8046 17.4919 11.0641 17.3699 11.2471 17.1641L14.5254 13.4756L21.4414 20.7383ZM19 2C20.6569 2 22 3.34315 22 5V18.4238L15.2246 11.3105C15.0317 11.108 14.762 10.9952 14.4824 11C14.203 11.0049 13.9386 11.127 13.7529 11.3359L10.458 15.043L8.70703 13.293L8.63379 13.2256C8.25244 12.9128 7.69105 12.9243 7.32129 13.2656L2 18.1768V5C2 3.34315 3.34315 2 5 2H19ZM8.5 7C7.67157 7 7 7.67157 7 8.5C7 9.32843 7.67157 10 8.5 10C9.32843 10 10 9.32843 10 8.5C10 7.67157 9.32843 7 8.5 7Z" fill="#05080D"/>
</svg>
