<svg width="24" height="24" viewBox="0 0 24 24" fill="none" xmlns="http://www.w3.org/2000/svg">
<path d="M15.1719 2C15.9674 2.00008 16.7304 2.31637 17.293 2.87891L20.1211 5.70703C20.6836 6.26957 20.9999 7.03259 21 7.82812V19C21 20.6569 19.6569 22 18 22H6C4.34315 22 3 20.6569 3 19V5C3 3.34315 4.34315 2 6 2H15.1719ZM6 4C5.44772 4 5 4.44772 5 5V19C5 19.5523 5.44772 20 6 20H18C18.5523 20 19 19.5523 19 19V9H18C16.3431 9 15 7.65685 15 6V4H6ZM16.0908 15C16.5929 15 17 15.4477 17 16C17 16.5523 16.5929 17 16.0908 17H7.90918C7.4071 17 7 16.5523 7 16C7 15.4477 7.4071 15 7.90918 15H16.0908ZM12.1426 11C12.616 11 13 11.4477 13 12C13 12.5523 12.616 13 12.1426 13H7.85742C7.38404 13 7 12.5523 7 12C7 11.4477 7.38404 11 7.85742 11H12.1426ZM17 6C17 6.55228 17.4477 7 18 7H18.5859L17 5.41406V6Z" fill="black"/>
</svg>
