<svg width="24" height="24" viewBox="0 0 24 24" fill="none" xmlns="http://www.w3.org/2000/svg">
<path fill-rule="evenodd" clip-rule="evenodd" d="M12.0001 3.25C9.82338 3.25 8.05876 5.01461 8.05876 7.19136V10.1944H15.9415V7.19136C15.9415 5.01461 14.1768 3.25 12.0001 3.25ZM17.4415 10.1944V7.19136C17.4415 4.18618 15.0053 1.75 12.0001 1.75C8.99496 1.75 6.55876 4.18618 6.55876 7.19136V10.1944H4.49383C3.54562 10.1944 2.80556 10.9758 2.80556 11.904V20.5404C2.80556 21.4686 3.54562 22.25 4.49383 22.25H19.5062C20.4544 22.25 21.1944 21.4686 21.1944 20.5404V11.904C21.1944 10.9758 20.4544 10.1944 19.5062 10.1944H17.4415ZM4.49383 11.6944C4.40565 11.6944 4.30556 11.7723 4.30556 11.904V20.5404C4.30556 20.6721 4.40565 20.75 4.49383 20.75H19.5062C19.5944 20.75 19.6944 20.6721 19.6944 20.5404V11.904C19.6944 11.7723 19.5944 11.6944 19.5062 11.6944H4.49383ZM12 14.4167C12.4142 14.4167 12.75 14.7525 12.75 15.1667V17.2778C12.75 17.692 12.4142 18.0278 12 18.0278C11.5858 18.0278 11.25 17.692 11.25 17.2778V15.1667C11.25 14.7525 11.5858 14.4167 12 14.4167Z" fill="#0F1A26"/>
</svg>
