<svg width="24" height="24" viewBox="0 0 24 24" fill="none" xmlns="http://www.w3.org/2000/svg">
<path fill-rule="evenodd" clip-rule="evenodd" d="M6 3.5C3.79086 3.5 2 5.29086 2 7.5V16.5C2 18.7091 3.79086 20.5 6 20.5H18C20.2091 20.5 22 18.7091 22 16.5V7.5C22 5.29086 20.2091 3.5 18 3.5H6ZM5.67623 5.52607C5.78162 5.50892 5.88977 5.5 6 5.5H18C18.2148 5.5 18.4216 5.53385 18.6156 5.59652L12.0175 11.629L5.67623 5.52607ZM4.12324 6.80723C4.04353 7.02308 4 7.25646 4 7.5V16.5C4 17.6046 4.89543 18.5 6 18.5H18C19.1046 18.5 20 17.6046 20 16.5V7.5C20 7.35625 19.9848 7.21604 19.956 7.08088L13.3671 13.105C12.5885 13.8169 11.3908 13.8016 10.6307 13.07L4.12324 6.80723Z" fill="#05080D"/>
</svg>
