<svg width="24" height="24" viewBox="0 0 24 24" fill="none" xmlns="http://www.w3.org/2000/svg">
<path fill-rule="evenodd" clip-rule="evenodd" d="M4 4.25C3.0335 4.25 2.25 5.0335 2.25 6V18C2.25 18.9665 3.0335 19.75 4 19.75H20C20.9665 19.75 21.75 18.9665 21.75 18V6C21.75 5.0335 20.9665 4.25 20 4.25H4ZM3.75 6.29367V18C3.75 18.1381 3.86193 18.25 4 18.25H20C20.1381 18.25 20.25 18.1381 20.25 18V6.29368L12.513 13.5472C12.2245 13.8176 11.7755 13.8176 11.487 13.5472L3.75 6.29367ZM18.6368 5.75H5.36325L12 11.972L18.6368 5.75Z" fill="#0F1A26"/>
</svg>
