<svg width="24" height="24" viewBox="0 0 24 24" fill="none" xmlns="http://www.w3.org/2000/svg">
<path fill-rule="evenodd" clip-rule="evenodd" d="M7 3.75C6.86193 3.75 6.75 3.86193 6.75 4V21C6.75 21.1381 6.86193 21.25 7 21.25H17C17.1381 21.25 17.25 21.1381 17.25 21V4C17.25 3.86193 17.1381 3.75 17 3.75H7ZM5.25 4C5.25 3.0335 6.0335 2.25 7 2.25H17C17.9665 2.25 18.75 3.0335 18.75 4V21C18.75 21.9665 17.9665 22.75 17 22.75H7C6.0335 22.75 5.25 21.9665 5.25 21V4Z" fill="#181F26"/>
<path fill-rule="evenodd" clip-rule="evenodd" d="M11.4697 17.4697C11.7626 17.1768 12.2374 17.1768 12.5303 17.4697L12.5464 17.4858C12.8393 17.7787 12.8393 18.2535 12.5464 18.5464C12.2535 18.8393 11.7787 18.8393 11.4858 18.5464L11.4697 18.5303C11.1768 18.2374 11.1768 17.7626 11.4697 17.4697Z" fill="#181F26"/>
</svg>
