<svg width="24" height="24" viewBox="0 0 24 24" fill="none" xmlns="http://www.w3.org/2000/svg">
<path fill-rule="evenodd" clip-rule="evenodd" d="M12 8.5C10.067 8.5 8.5 10.067 8.5 12C8.5 13.933 10.067 15.5 12 15.5C13.933 15.5 15.5 13.933 15.5 12C15.5 10.067 13.933 8.5 12 8.5ZM10.5 12C10.5 11.1716 11.1716 10.5 12 10.5C12.8284 10.5 13.5 11.1716 13.5 12C13.5 12.8284 12.8284 13.5 12 13.5C11.1716 13.5 10.5 12.8284 10.5 12Z" fill="#05080D"/>
<path fill-rule="evenodd" clip-rule="evenodd" d="M12 4C8.60677 4 5.86468 5.97111 4.0429 7.79289C3.11931 8.71648 2.39675 9.63659 1.90502 10.325C1.65853 10.6701 1.46842 10.9592 1.33852 11.1646C1.27353 11.2673 1.22349 11.3492 1.1889 11.4069C1.1716 11.4357 1.15814 11.4585 1.1486 11.4748L1.13723 11.4944L1.13375 11.5004L1.13212 11.5032C0.956444 11.8107 0.956085 12.1887 1.13176 12.4961L2 12C1.13176 12.4961 1.13257 12.4976 1.13257 12.4976L1.13375 12.4996L1.13723 12.5056L1.1486 12.5252C1.15814 12.5415 1.1716 12.5643 1.1889 12.5931C1.22349 12.6508 1.27353 12.7327 1.33852 12.8354C1.46842 13.0408 1.65853 13.3299 1.90502 13.675C2.39675 14.3634 3.11931 15.2835 4.0429 16.2071C5.86468 18.0289 8.60677 20 12 20C15.3932 20 18.1353 18.0289 19.9571 16.2071C20.8807 15.2835 21.6033 14.3634 22.095 13.675C22.3415 13.3299 22.5316 13.0408 22.6615 12.8354C22.7265 12.7327 22.7765 12.6508 22.8111 12.5931C22.8284 12.5643 22.8419 12.5415 22.8514 12.5252L22.8628 12.5056L22.8663 12.4996L22.8679 12.4968C23.0436 12.1893 23.0439 11.8113 22.8682 11.5039L22 12C22.8682 11.5039 22.8674 11.5024 22.8674 11.5024L22.8663 11.5004L22.8628 11.4944L22.8514 11.4748C22.8419 11.4585 22.8284 11.4357 22.8111 11.4069C22.7765 11.3492 22.7265 11.2673 22.6615 11.1646C22.5316 10.9592 22.3415 10.6701 22.095 10.325C21.6033 9.63659 20.8807 8.71648 19.9571 7.79289C18.1353 5.97111 15.3932 4 12 4ZM22 12L22.8679 12.4968C22.8679 12.4968 22.8682 12.4961 22 12ZM2 12L1.13212 11.5032C1.13212 11.5032 1.13176 11.5039 2 12ZM3.53249 12.5125C3.39413 12.3188 3.27631 12.1458 3.17998 12C3.27631 11.8542 3.39413 11.6812 3.53249 11.4875C3.97826 10.8634 4.63069 10.0335 5.45711 9.20711C7.13533 7.52889 9.39324 6 12 6C14.6068 6 16.8647 7.52889 18.5429 9.20711C19.3693 10.0335 20.0217 10.8634 20.4675 11.4875C20.6059 11.6812 20.7237 11.8542 20.82 12C20.7237 12.1458 20.6059 12.3188 20.4675 12.5125C20.0217 13.1366 19.3693 13.9665 18.5429 14.7929C16.8647 16.4711 14.6068 18 12 18C9.39324 18 7.13533 16.4711 5.45711 14.7929C4.63069 13.9665 3.97826 13.1366 3.53249 12.5125Z" fill="#05080D"/>
</svg>
