<svg width="24" height="24" viewBox="0 0 24 24" fill="none" xmlns="http://www.w3.org/2000/svg">
<path fill-rule="evenodd" clip-rule="evenodd" d="M3.70711 2.29289C3.31658 1.90237 2.68342 1.90237 2.29289 2.29289C1.90237 2.68342 1.90237 3.31658 2.29289 3.70711L8.92081 10.335C8.65263 10.8302 8.5 11.3978 8.5 11.9999C8.5 13.9329 10.067 15.4999 12 15.4999C12.6023 15.4999 13.1697 15.3472 13.6649 15.0791L20.2929 21.7071C20.6834 22.0976 21.3166 22.0976 21.7071 21.7071C22.0976 21.3166 22.0976 20.6834 21.7071 20.2929L3.70711 2.29289ZM12.0834 13.4976L10.5023 11.9165C10.5008 11.9441 10.5 11.9719 10.5 11.9999C10.5 12.8283 11.1716 13.4999 12 13.4999C12.028 13.4999 12.0558 13.4991 12.0834 13.4976Z" fill="#05080D"/>
<path d="M12 6C11.4254 6 10.8558 6.08952 10.2941 6.25219C9.76359 6.40583 9.209 6.10034 9.05536 5.56985C8.90172 5.03937 9.20721 4.48478 9.7377 4.33114C10.4586 4.12235 11.216 4 12 4C15.3932 4 18.1353 5.97111 19.9571 7.79289C20.8807 8.71648 21.6032 9.63659 22.095 10.325C22.3415 10.6701 22.5316 10.9592 22.6615 11.1646C22.7265 11.2673 22.7765 11.3492 22.8111 11.4069C22.8284 11.4357 22.8418 11.4585 22.8514 11.4748L22.8628 11.4944L22.8662 11.5004L22.8674 11.5024C22.8674 11.5024 22.8682 11.5039 22 12L22.8423 12.5391L22.8416 12.5401L22.8404 12.5419L22.8368 12.5476L22.8245 12.5664C22.8142 12.5823 22.7996 12.6045 22.7807 12.6329C22.743 12.6895 22.6883 12.7704 22.6176 12.872C22.4762 13.0752 22.2701 13.3619 22.006 13.7044C21.4791 14.3878 20.7148 15.3016 19.7662 16.2189C19.3692 16.6028 18.7361 16.5922 18.3522 16.1952C17.9683 15.7981 17.9789 15.1651 18.3759 14.7811C19.237 13.9484 19.9371 13.1122 20.4222 12.4831C20.5702 12.2913 20.6975 12.1195 20.8027 11.9738C20.7097 11.8336 20.5977 11.6697 20.4675 11.4875C20.0217 10.8634 19.3693 10.0335 18.5429 9.20711C16.8647 7.52889 14.6067 6 12 6Z" fill="#05080D"/>
<path d="M22.8423 12.5391C23.0427 12.2257 23.0528 11.8268 22.8682 11.5039L22 12C22.8424 12.5388 22.8423 12.5391 22.8423 12.5391Z" fill="#05080D"/>
<path d="M5.64777 7.80484C6.0317 8.20185 6.02109 8.83493 5.62408 9.21885C4.763 10.0516 4.06287 10.8878 3.57775 11.5169C3.42982 11.7087 3.30249 11.8805 3.19728 12.0262C3.2903 12.1664 3.4023 12.3303 3.53247 12.5125C3.97824 13.1366 4.63068 13.9665 5.45709 14.7929C7.13531 16.4711 9.39322 18 12 18C12.5793 18 13.1537 17.909 13.7198 17.7438C14.25 17.589 14.8052 17.8934 14.9599 18.4236C15.1147 18.9537 14.8103 19.5089 14.2801 19.6637C13.5539 19.8756 12.7905 20 12 20C8.60675 20 5.86466 18.0289 4.04288 16.2071C3.1193 15.2835 2.39673 14.3634 1.905 13.675C1.65852 13.3299 1.46841 13.0408 1.3385 12.8354C1.27351 12.7327 1.22348 12.6508 1.18888 12.5931C1.17158 12.5643 1.15813 12.5415 1.14859 12.5252L1.13721 12.5056L1.13374 12.4996L1.13256 12.4976C1.13256 12.4976 1.13174 12.4961 1.99999 12L1.15772 11.4609L1.15957 11.4581L1.16322 11.4524L1.17544 11.4336C1.18576 11.4178 1.2004 11.3955 1.21927 11.3671C1.25699 11.3105 1.31163 11.2296 1.38236 11.128C1.52374 10.9248 1.72982 10.6381 1.99392 10.2956C2.52086 9.61225 3.2852 8.69844 4.23375 7.78115C4.63077 7.39722 5.26384 7.40783 5.64777 7.80484Z" fill="#05080D"/>
<path d="M1.15772 11.4609C0.957313 11.7743 0.947207 12.1732 1.13174 12.4961L1.99999 12C1.15756 11.4612 1.15772 11.4609 1.15772 11.4609Z" fill="#05080D"/>
</svg>
