<svg width="24" height="24" viewBox="0 0 24 24" fill="none" xmlns="http://www.w3.org/2000/svg">
<path d="M14.597 2C13.4274 2.00105 12.2747 2.27859 11.2329 2.80996C10.1911 3.34134 9.28981 4.11148 8.60258 5.0575C7.91534 6.00353 7.46167 7.09862 7.27859 8.25336C7.09552 9.40811 7.18823 10.5898 7.54916 11.7019L2.21674 17.0315C2.14795 17.1003 2.0934 17.182 2.05622 17.272C2.01903 17.3619 1.99992 17.4583 2 17.5556V21.2593C2 21.4557 2.07807 21.6441 2.21703 21.783C2.356 21.922 2.54447 22 2.741 22H6.446C6.64253 22 6.831 21.922 6.96997 21.783C7.10893 21.6441 7.187 21.4557 7.187 21.2593V19.7778H8.669C8.86552 19.7778 9.054 19.6997 9.19297 19.5608C9.33193 19.4219 9.41 19.2335 9.41 19.037V17.5556H10.892C10.9893 17.5556 11.0857 17.5365 11.1757 17.4994C11.2656 17.4622 11.3474 17.4077 11.4163 17.3389L12.3018 16.4528C13.3202 16.7833 14.3982 16.8893 15.4615 16.7634C16.5248 16.6375 17.5483 16.2827 18.4613 15.7235C19.3743 15.1643 20.1552 14.4139 20.7503 13.5241C21.3454 12.6342 21.7405 11.626 21.9083 10.5688C22.0762 9.51167 22.0129 8.4307 21.7228 7.40035C21.4327 6.37 20.9226 5.41474 20.2277 4.60036C19.5329 3.78597 18.6697 3.1318 17.6976 2.6829C16.7256 2.23399 15.6678 2.00101 14.597 2ZM16.4495 9.03704C16.1564 9.03704 15.8699 8.95015 15.6261 8.78736C15.3824 8.62457 15.1925 8.3932 15.0803 8.12249C14.9681 7.85179 14.9388 7.55391 14.996 7.26653C15.0532 6.97915 15.1943 6.71518 15.4016 6.50799C15.6088 6.3008 15.8729 6.1597 16.1604 6.10254C16.4479 6.04538 16.7458 6.07472 17.0166 6.18684C17.2874 6.29897 17.5189 6.48886 17.6817 6.73249C17.8446 6.97612 17.9315 7.26255 17.9315 7.55556C17.9315 7.94847 17.7754 8.32529 17.4974 8.60312C17.2195 8.88095 16.8425 9.03704 16.4495 9.03704Z" fill="#05080D"/>
</svg>
