<svg width="24" height="24" viewBox="0 0 24 24" fill="none" xmlns="http://www.w3.org/2000/svg">
<path fill-rule="evenodd" clip-rule="evenodd" d="M1.46967 1.46967C1.76256 1.17678 2.23744 1.17678 2.53033 1.46967L22.5303 21.4697C22.8232 21.7626 22.8232 22.2374 22.5303 22.5303C22.2374 22.8232 21.7626 22.8232 21.4697 22.5303L17.1783 18.239C15.73 19.1185 13.994 19.75 12 19.75C8.52965 19.75 5.84778 17.842 4.07637 16.0233C3.18483 15.108 2.50349 14.1952 2.04482 13.5116C1.81503 13.1692 1.63992 12.8824 1.52115 12.6792C1.46174 12.5775 1.41634 12.4966 1.38517 12.4399C1.36958 12.4116 1.35754 12.3893 1.34908 12.3734L1.33907 12.3546L1.33609 12.3489L1.3351 12.347C1.33495 12.3467 1.33445 12.3457 2 12C1.33445 11.6543 1.33453 11.6541 1.33463 11.6539L1.33541 11.6524L1.33699 11.6494L1.342 11.6399L1.35939 11.6074C1.37425 11.5798 1.39565 11.5407 1.42352 11.4911C1.47925 11.3918 1.56093 11.2504 1.66805 11.0754C1.8821 10.7256 2.19875 10.24 2.61393 9.68783C3.31301 8.75806 4.30401 7.62261 5.56955 6.63021L1.46967 2.53033C1.17678 2.23744 1.17678 1.76256 1.46967 1.46967ZM6.63313 7.70394C5.43801 8.61367 4.48845 9.69073 3.81285 10.5893C3.43084 11.0973 3.14079 11.5425 2.94745 11.8584C2.91644 11.9091 2.88795 11.9563 2.86199 12C2.96527 12.1737 3.10848 12.4047 3.2904 12.6759C3.71241 13.3048 4.3379 14.142 5.1509 14.9767C6.78858 16.658 9.10671 18.25 12 18.25C13.5215 18.25 14.8818 17.8112 16.0709 17.1484L14.0584 15.1345C13.4676 15.5231 12.7598 15.7496 12 15.7496C9.92889 15.7496 8.25 14.0707 8.25 11.9996C8.25 11.2388 8.47712 10.5302 8.86656 9.93895L6.63313 7.70394ZM9.96497 11.0381C9.82698 11.3296 9.75 11.6554 9.75 11.9996C9.75 13.2423 10.7573 14.2496 12 14.2496C12.3438 14.2496 12.669 14.1729 12.96 14.0353L9.96497 11.0381ZM2 12L1.33463 11.6539C1.22203 11.8707 1.22185 12.129 1.33445 12.3457L2 12ZM12 5.75C11.6884 5.75 11.3841 5.76838 11.0872 5.80313C10.6758 5.85129 10.3032 5.55682 10.2551 5.14542C10.2069 4.73401 10.5014 4.36146 10.9128 4.31331C11.2667 4.27188 11.6292 4.25 12 4.25C15.4703 4.25 18.1522 6.15805 19.9236 7.97669C20.8152 8.89201 21.4965 9.80479 21.9552 10.4884C22.185 10.8308 22.3601 11.1176 22.4788 11.3208C22.5383 11.4225 22.5837 11.5034 22.6148 11.5601C22.6304 11.5884 22.6425 11.6107 22.6509 11.6266L22.6609 11.6454L22.6639 11.6511L22.6649 11.653C22.6651 11.6533 22.6656 11.6543 22 12C22.6656 12.3457 22.6655 12.3459 22.6654 12.346L22.6642 12.3483L22.6618 12.3529L22.654 12.3677C22.6501 12.375 22.6452 12.3841 22.6394 12.3948C22.6354 12.4022 22.631 12.4104 22.6261 12.4194C22.602 12.4634 22.5672 12.5262 22.5216 12.6055C22.4305 12.7639 22.2964 12.9884 22.1205 13.2607C21.7691 13.8044 21.248 14.5427 20.5655 15.3261C20.2935 15.6385 19.8197 15.6711 19.5074 15.399C19.195 15.127 19.1624 14.6532 19.4345 14.3409C20.0602 13.6225 20.5391 12.9441 20.8607 12.4465C20.9727 12.2732 21.0653 12.1223 21.138 12C21.0347 11.8263 20.8915 11.5953 20.7096 11.3241C20.2876 10.6952 19.6621 9.85799 18.8491 9.02331C17.2114 7.34195 14.8933 5.75 12 5.75ZM22 12L22.6654 12.346C22.778 12.1292 22.7781 11.871 22.6656 11.6543L22 12ZM2.66524 11.6537C2.66519 11.6536 2.66519 11.6536 2.66524 11.6537V11.6537Z" fill="#0F1A26"/>
</svg>
