<svg width="24" height="24" viewBox="0 0 24 24" fill="none" xmlns="http://www.w3.org/2000/svg">
<path fill-rule="evenodd" clip-rule="evenodd" d="M13 10C13 11.6569 11.6569 13 10 13C8.34315 13 7 11.6569 7 10C7 8.34315 8.34315 7 10 7C11.6569 7 13 8.34315 13 10ZM11 10C11 10.5523 10.5523 11 10 11C9.44772 11 9 10.5523 9 10C9 9.44772 9.44772 9 10 9C10.5523 9 11 9.44772 11 10Z" fill="#05080D"/>
<path fill-rule="evenodd" clip-rule="evenodd" d="M5 20C3.34315 20 2 18.6569 2 17V7C2 5.34315 3.34315 4 5 4H19C20.6569 4 22 5.34315 22 7V17C22 18.6569 20.6569 20 19 20H5ZM5 6H19C19.5523 6 20 6.44771 20 7V17C20 17.5523 19.5523 18 19 18H18.5V13.5C18.5 13.2348 18.3946 12.9804 18.2071 12.7929L16.7071 11.2929C16.3166 10.9024 15.6834 10.9024 15.2929 11.2929C14.9024 11.6834 14.9024 12.3166 15.2929 12.7071L16.5 13.9142V18H15V17C15 15.3431 13.6569 14 12 14H8C6.34315 14 5 15.3431 5 17L5 18C4.44772 18 4 17.5523 4 17V7C4 6.44772 4.44772 6 5 6ZM7 18H13V17C13 16.4477 12.5523 16 12 16H8C7.44772 16 7 16.4477 7 17V18Z" fill="#05080D"/>
</svg>
