<svg width="24" height="24" viewBox="0 0 24 24" fill="none" xmlns="http://www.w3.org/2000/svg">
<path fill-rule="evenodd" clip-rule="evenodd" d="M9 9C9.40826 9 9.79747 8.91845 10.1522 8.77075C10.4362 7.64733 11.1005 6.67532 12 5.99964C11.9998 4.34295 10.6567 3 9 3C7.34315 3 6 4.34315 6 6C6 7.65685 7.34315 9 9 9ZM9 7C9.55228 7 10 6.55228 10 6C10 5.44772 9.55228 5 9 5C8.44772 5 8 5.44772 8 6C8 6.55228 8.44772 7 9 7Z" fill="#05080D"/>
<path d="M7 10H10C10 10.7111 10.1484 11.3875 10.416 12H7C6.44772 12 6 12.4477 6 13V14H11.9995C10.3639 14.0002 8.91175 14.7857 7.99963 16H3C2.44772 16 2 15.5523 2 15C2 14.4477 2.44772 14 3 14H4V13C4 11.3431 5.34315 10 7 10Z" fill="#05080D"/>
<path d="M22 15C22 15.2611 21.8999 15.4989 21.736 15.677C20.8203 14.6482 19.4861 14.0001 18.0005 14H21C21.5523 14 22 14.4477 22 15Z" fill="#05080D"/>
<path fill-rule="evenodd" clip-rule="evenodd" d="M15 14C17.2091 14 19 12.2091 19 10C19 7.79086 17.2091 6 15 6C12.7909 6 11 7.79086 11 10C11 12.2091 12.7909 14 15 14ZM15 12C16.1046 12 17 11.1046 17 10C17 8.89543 16.1046 8 15 8C13.8954 8 13 8.89543 13 10C13 11.1046 13.8954 12 15 12Z" fill="#05080D"/>
<path fill-rule="evenodd" clip-rule="evenodd" d="M8 19C8 16.7909 9.79086 15 12 15H18C20.2091 15 22 16.7909 22 19V21C22 21.5523 21.5523 22 21 22H9C8.44772 22 8 21.5523 8 21V19ZM12 17C10.8954 17 10 17.8954 10 19V20H20V19C20 17.8954 19.1046 17 18 17H12Z" fill="#05080D"/>
</svg>
