<svg width="24" height="24" viewBox="0 0 24 24" fill="none" xmlns="http://www.w3.org/2000/svg">
<path d="M5 5H16C16.5523 5 17 5.44772 17 6V6.10002C17.7389 6.25 18.4186 6.56292 19 6.99963V6C19 4.34315 17.6569 3 16 3H5C3.34315 3 2 4.34315 2 6V13C2 14.6569 3.34315 16 5 16H10.3542C11.0592 15.3777 11.9853 15.0001 12.9995 15C12.6209 14.7156 12.284 14.3786 11.9996 14H5C4.44772 14 4 13.5523 4 13V6C4 5.44772 4.44772 5 5 5Z" fill="#05080D"/>
<path d="M13.1402 6.73178C13.1767 6.76224 13.2106 6.79476 13.2417 6.82903C11.9272 7.70009 11.0483 9.17592 11.0019 10.8597L10.7682 11.1402C10.4274 11.5492 9.8259 11.6194 9.4 11.3L8.17539 10.3815L6.78087 12.1247C6.43586 12.556 5.80657 12.6259 5.3753 12.2809C4.94404 11.9359 4.87412 11.3066 5.21913 10.8753L7.21913 8.37531C7.55654 7.95354 8.1679 7.87593 8.6 8.2L9.83997 9.12998L11.7318 6.85982C12.0853 6.43554 12.7159 6.37821 13.1402 6.73178Z" fill="#05080D"/>
<path fill-rule="evenodd" clip-rule="evenodd" d="M16 15C18.2091 15 20 13.2091 20 11C20 8.79086 18.2091 7 16 7C13.7909 7 12 8.79086 12 11C12 13.2091 13.7909 15 16 15ZM16 13C17.1046 13 18 12.1046 18 11C18 9.89543 17.1046 9 16 9C14.8954 9 14 9.89543 14 11C14 12.1046 14.8954 13 16 13Z" fill="#05080D"/>
<path fill-rule="evenodd" clip-rule="evenodd" d="M10 19C10 17.3431 11.3431 16 13 16H19C20.6569 16 22 17.3431 22 19V21C22 21.5523 21.5523 22 21 22H11C10.4477 22 10 21.5523 10 21V19ZM13 18C12.4477 18 12 18.4477 12 19V20H20V19C20 18.4477 19.5523 18 19 18H13Z" fill="#05080D"/>
</svg>
