<svg width="24" height="24" viewBox="0 0 24 24" fill="none" xmlns="http://www.w3.org/2000/svg">
<path fill-rule="evenodd" clip-rule="evenodd" d="M8.677 2.56875C10.6951 1.85772 12.8881 1.81277 14.9337 2.44051C16.9793 3.06825 18.7696 4.33558 20.0415 6.05626C21.3134 7.77693 21.9999 9.86022 22 12V13.2857C22 14.2329 21.6237 15.1413 20.954 15.8111C20.2842 16.4809 19.3758 16.8572 18.4286 16.8572C17.4814 16.8572 16.573 16.4809 15.9032 15.8111C15.7603 15.6682 15.6307 15.5144 15.5154 15.3517C15.4882 15.3802 15.4607 15.4084 15.4328 15.4362C14.5217 16.3465 13.2863 16.8576 11.9984 16.8572C10.7105 16.8567 9.47545 16.3448 8.56491 15.434C7.65437 14.5231 7.14286 13.2879 7.14286 12C7.14286 10.7121 7.65437 9.47691 8.56491 8.56606C9.47545 7.65522 10.7105 7.1433 11.9984 7.14287C13.0329 7.14252 14.0336 7.47224 14.8595 8.07377C14.895 7.55372 15.3281 7.14287 15.8571 7.14287C16.4094 7.14287 16.8571 7.59058 16.8571 8.14287L16.8571 11.9968L16.8571 12.0026V13.2857C16.8571 13.7025 17.0227 14.1022 17.3174 14.3969C17.6121 14.6916 18.0118 14.8572 18.4286 14.8572C18.8453 14.8572 19.245 14.6916 19.5397 14.3969C19.8344 14.1022 20 13.7025 20 13.2857V12.0001C20 12 20 12.0001 20 12.0001C19.9999 10.2883 19.4507 8.62163 18.4332 7.2451C17.4157 5.86856 15.9835 4.8547 14.347 4.3525C12.7105 3.85031 10.9561 3.88627 9.3416 4.4551C7.72708 5.02393 6.33759 6.09563 5.37733 7.51271C4.41706 8.92979 3.93665 10.6175 4.00671 12.3279C4.07676 14.0382 4.69358 15.681 5.76652 17.0148C6.83946 18.3486 8.31193 19.3031 9.96756 19.738C11.6232 20.1729 13.3747 20.0653 14.9646 19.4309C15.4775 19.2263 16.0593 19.4762 16.2639 19.9892C16.4686 20.5021 16.2187 21.0839 15.7057 21.2885C13.7183 22.0815 11.529 22.216 9.45945 21.6724C7.38991 21.1288 5.54932 19.9357 4.20814 18.2684C2.86697 16.6012 2.09595 14.5477 2.00838 12.4097C1.92081 10.2718 2.52132 8.16212 3.72166 6.39077C4.92199 4.61942 6.65885 3.27979 8.677 2.56875ZM14.8571 12.0019V11.9981C14.8566 11.2405 14.5553 10.5141 14.0193 9.97869C13.4833 9.44326 12.7566 9.14261 11.999 9.14287C11.2415 9.14312 10.515 9.44425 9.97936 9.98004C9.44375 10.5158 9.14286 11.2424 9.14286 12C9.14286 12.7576 9.44375 13.4842 9.97936 14.02C10.515 14.5558 11.2415 14.8569 11.999 14.8572C12.7566 14.8574 13.4833 14.5568 14.0193 14.0213C14.5553 13.4859 14.8566 12.7595 14.8571 12.0019Z" fill="#05080D"/>
</svg>
