<svg width="24" height="24" viewBox="0 0 24 24" fill="none" xmlns="http://www.w3.org/2000/svg">
<path d="M19.6 8.89932C19.6 8.01566 18.8836 7.29932 18 7.29932C17.1163 7.29932 16.4 8.01566 16.4 8.89932C16.4 9.78297 17.1163 10.4993 18 10.4993C18.8836 10.4993 19.6 9.78297 19.6 8.89932Z" fill="#05080D"/>
<path d="M13.6 8.89932C13.6 8.01566 12.8836 7.29932 12 7.29932C11.1163 7.29932 10.4 8.01566 10.4 8.89932C10.4 9.78297 11.1163 10.4993 12 10.4993C12.8836 10.4993 13.6 9.78297 13.6 8.89932Z" fill="#05080D"/>
<path d="M5.99998 7.29932C6.88363 7.29932 7.59998 8.01566 7.59998 8.89932C7.59998 9.78297 6.88363 10.4993 5.99998 10.4993C5.11632 10.4993 4.39997 9.78297 4.39997 8.89932C4.39997 8.01566 5.11632 7.29932 5.99998 7.29932Z" fill="#05080D"/>
<path d="M19.6 15.1007C19.6 14.217 18.8836 13.5007 18 13.5007C17.1163 13.5007 16.4 14.217 16.4 15.1007C16.4 15.9843 17.1163 16.7007 18 16.7007C18.8836 16.7007 19.6 15.9843 19.6 15.1007Z" fill="#05080D"/>
<path d="M12 13.5007C12.8836 13.5007 13.6 14.217 13.6 15.1007C13.6 15.9843 12.8836 16.7007 12 16.7007C11.1163 16.7007 10.4 15.9843 10.4 15.1007C10.4 14.217 11.1163 13.5007 12 13.5007Z" fill="#05080D"/>
<path d="M7.59998 15.1007C7.59998 14.217 6.88363 13.5007 5.99997 13.5007C5.11632 13.5007 4.39997 14.217 4.39997 15.1007C4.39997 15.9843 5.11632 16.7007 5.99997 16.7007C6.88363 16.7007 7.59998 15.9843 7.59998 15.1007Z" fill="#05080D"/>
</svg>
