<svg width="24" height="24" viewBox="0 0 24 24" fill="none" xmlns="http://www.w3.org/2000/svg">
<path d="M7 6C7 5.44772 6.55228 5 6 5H3C2.44772 5 2 5.44772 2 6C2 6.55228 2.44772 7 3 7H5V12H3C2.44772 12 2 12.4477 2 13C2 13.5523 2.44772 14 3 14H9C9.55228 14 10 13.5523 10 13C10 12.4477 9.55228 12 9 12H7V6Z" fill="#05080D"/>
<path d="M13 9C12.4477 9 12 9.44772 12 10C12 10.5523 12.4477 11 13 11H21C21.5523 11 22 10.5523 22 10C22 9.44772 21.5523 9 21 9H13Z" fill="#05080D"/>
<path d="M13 15C12.4477 15 12 15.4477 12 16C12 16.5523 12.4477 17 13 17H18C18.5523 17 19 16.5523 19 16C19 15.4477 18.5523 15 18 15H13Z" fill="#05080D"/>
</svg>
