<svg width="24" height="24" viewBox="0 0 24 24" fill="none" xmlns="http://www.w3.org/2000/svg">
<path fill-rule="evenodd" clip-rule="evenodd" d="M4 3C2.89543 3 2 3.89543 2 5V17C2 18.1046 2.89543 19 4 19H8.17157L10.5858 21.4142C11.3668 22.1953 12.6332 22.1953 13.4142 21.4142L15.8284 19H20C21.1046 19 22 18.1046 22 17V5C22 3.89543 21.1046 3 20 3H4ZM12 20L9 17H4V5H20V17H15L12 20ZM7 9C7 9.55228 7.44772 10 8 10L16 10C16.5523 10 17 9.55229 17 9C17 8.44772 16.5523 8 16 8L8 8C7.44772 8 7 8.44771 7 9ZM7 13C7 13.5523 7.44772 14 8 14H14C14.5523 14 15 13.5523 15 13C15 12.4477 14.5523 12 14 12H8C7.44772 12 7 12.4477 7 13Z" fill="black"/>
</svg>
