<svg width="24" height="24" viewBox="0 0 24 24" fill="none" xmlns="http://www.w3.org/2000/svg">
<path d="M4 3H20C20.2652 3 20.5196 3.10536 20.7071 3.29289C20.8946 3.48043 21 3.73478 21 4V20C21 20.2652 20.8946 20.5196 20.7071 20.7071C20.5196 20.8946 20.2652 21 20 21H4C3.73478 21 3.48043 20.8946 3.29289 20.7071C3.10536 20.5196 3 20.2652 3 20V4C3 3.73478 3.10536 3.48043 3.29289 3.29289C3.48043 3.10536 3.73478 3 4 3ZM10.2958 15.2928C10.6864 15.6834 11.3196 15.6834 11.7101 15.2928L17.3661 9.63599C17.7565 9.24552 17.7565 8.6125 17.3661 8.22206C16.9756 7.83157 16.3425 7.8316 15.952 8.22212L11.003 13.172L8.881 11.05C8.49053 10.6595 7.85747 10.6595 7.467 11.05C7.07653 11.4405 7.07654 12.0735 7.467 12.464L10.2958 15.2928Z" fill="#05080D"/>
</svg>
