<svg width="24" height="24" viewBox="0 0 24 24" fill="none" xmlns="http://www.w3.org/2000/svg">
<path fill-rule="evenodd" clip-rule="evenodd" d="M6 22C3.79086 22 2 20.2091 2 18V6C2 3.79086 3.79086 2 6 2H15.4203C16.5433 2 17.6146 2.47209 18.3724 3.30091L20.9521 6.12245C21.6262 6.85972 22 7.82255 22 8.82154V18C22 20.2091 20.2091 22 18 22H6ZM7 20H6C4.89543 20 4 19.1046 4 18V6C4 4.89543 4.89543 4 6 4H15.4203C15.9818 4 16.5174 4.23604 16.8963 4.65045L19.4761 7.47199C19.8131 7.84063 20 8.32205 20 8.82154V18C20 19.1046 19.1046 20 18 20H17V16C17 14.8954 16.1046 14 15 14H9C7.89543 14 7 14.8954 7 16V20ZM9 20H15V16H9V20Z" fill="#05080D"/>
</svg>
