<svg width="24" height="24" viewBox="0 0 24 24" fill="none" xmlns="http://www.w3.org/2000/svg">
<path d="M4 3H20C20.2652 3 20.5196 3.10536 20.7071 3.29289C20.8946 3.48043 21 3.73478 21 4V20C21 20.2652 20.8946 20.5196 20.7071 20.7071C20.5196 20.8946 20.2652 21 20 21H4C3.73478 21 3.48043 20.8946 3.29289 20.7071C3.10536 20.5196 3 20.2652 3 20V4C3 3.73478 3.10536 3.48043 3.29289 3.29289C3.48043 3.10536 3.73478 3 4 3ZM5 5V19H19V5H5ZM11.7101 15.2929C11.3196 15.6834 10.6864 15.6834 10.2959 15.2929L7.467 12.464C7.07654 12.0735 7.07653 11.4405 7.467 11.05C7.85747 10.6595 8.49053 10.6595 8.881 11.05L11.003 13.172L15.9521 8.22198C16.3426 7.8315 16.9757 7.83147 17.3663 8.22178C17.757 8.61227 17.7573 9.24573 17.3666 9.63636L11.7101 15.2929Z" fill="#05080D"/>
</svg>
