<svg width="24" height="24" viewBox="0 0 24 24" fill="none" xmlns="http://www.w3.org/2000/svg">
<path fill-rule="evenodd" clip-rule="evenodd" d="M4 4C3.44772 4 3 4.44772 3 5C3 5.55228 3.44772 6 4 6H20C20.5523 6 21 5.55228 21 5C21 4.44772 20.5523 4 20 4H4ZM3 10C3 9.44771 3.44772 9 4 9H20C20.5523 9 21 9.44771 21 10C21 10.5523 20.5523 11 20 11H4C3.44772 11 3 10.5523 3 10ZM4 14C3.44772 14 3 14.4477 3 15C3 15.5523 3.44772 16 4 16H20C20.5523 16 21 15.5523 21 15C21 14.4477 20.5523 14 20 14H4ZM4 19C3.44772 19 3 19.4477 3 20C3 20.5523 3.44772 21 4 21H15C15.5523 21 16 20.5523 16 20C16 19.4477 15.5523 19 15 19H4Z" fill="black"/>
</svg>
