<svg width="24" height="24" viewBox="0 0 24 24" fill="none" xmlns="http://www.w3.org/2000/svg">
<path fill-rule="evenodd" clip-rule="evenodd" d="M12 22C17.5228 22 22 17.5228 22 12C22 6.47715 17.5228 2 12 2C6.47715 2 2 6.47715 2 12C2 17.5228 6.47715 22 12 22ZM16.5858 11.5858C16.1952 11.9763 15.5621 11.9763 15.1716 11.5858L13 9.41421L13 17C13 17.5523 12.5523 18 12 18C11.4477 18 11 17.5523 11 17L11 9.41421L8.82841 11.5858C8.43788 11.9763 7.80472 11.9763 7.41419 11.5858C7.02367 11.1952 7.02367 10.5621 7.4142 10.1716L11.2929 6.29289C11.3888 6.19702 11.4993 6.12468 11.6172 6.07588C11.7351 6.02699 11.8644 6 12 6C12.2559 6 12.5118 6.09763 12.7071 6.29289L16.5858 10.1716C16.9763 10.5621 16.9763 11.1952 16.5858 11.5858Z" fill="#05080D"/>
</svg>
