<svg width="24" height="24" viewBox="0 0 24 24" fill="none" xmlns="http://www.w3.org/2000/svg">
<path d="M10 11V5C10 4.44772 10.4477 4 11 4C11.5523 4 12 4.44772 12 5V20C12 20.5523 11.5523 21 11 21C10.4477 21 10 20.5523 10 20V13H4V20C4 20.5523 3.55228 21 3 21C2.44772 21 2 20.5523 2 20V5C2 4.44772 2.44772 4 3 4C3.55228 4 4 4.44772 4 5V11H10Z" fill="#05080D"/>
<path fill-rule="evenodd" clip-rule="evenodd" d="M19.9179 5.0915C20.2727 5.25469 20.5 5.60948 20.5 6.00001V20C20.5 20.5523 20.0523 21 19.5 21C18.9477 21 18.5 20.5523 18.5 20V8.17423L16.6508 9.75927C16.2315 10.1187 15.6002 10.0701 15.2408 9.65081C14.8813 9.23148 14.9299 8.60018 15.3492 8.24076L18.8492 5.24076C19.1457 4.9866 19.5631 4.92832 19.9179 5.0915Z" fill="#05080D"/>
</svg>
