<svg width="24" height="24" viewBox="0 0 24 24" fill="none" xmlns="http://www.w3.org/2000/svg">
<path fill-rule="evenodd" clip-rule="evenodd" d="M4 4C3.44772 4 3 4.44772 3 5C3 5.55228 3.44772 6 4 6H20C20.5523 6 21 5.55228 21 5C21 4.44772 20.5523 4 20 4H4ZM14 19C13.4477 19 13 19.4477 13 20C13 20.5523 13.4477 21 14 21H20C20.5523 21 21 20.5523 21 20C21 19.4477 20.5523 19 20 19H14ZM14 14C13.4477 14 13 14.4477 13 15C13 15.5523 13.4477 16 14 16H20C20.5523 16 21 15.5523 21 15C21 14.4477 20.5523 14 20 14H14ZM4 9C3.44772 9 3 9.44772 3 10C3 10.5523 3.44772 11 4 11H20C20.5523 11 21 10.5523 21 10C21 9.44772 20.5523 9 20 9H4ZM4.05078 12.8203C4.60307 12.8203 5.05078 13.268 5.05078 13.8203V16.8203H8.6703L8.61125 16.7613C8.22073 16.3707 8.22073 15.7376 8.61125 15.3471C9.00178 14.9565 9.63494 14.9565 10.0255 15.3471L11.7932 17.1148C12.1838 17.5053 12.1838 18.1385 11.7932 18.529L10.0255 20.2968C9.63494 20.6873 9.00178 20.6873 8.61125 20.2968C8.22073 19.9063 8.22073 19.2731 8.61125 18.8826L8.67353 18.8203H4.05078C3.4985 18.8203 3.05078 18.3726 3.05078 17.8203V13.8203C3.05078 13.268 3.4985 12.8203 4.05078 12.8203Z" fill="black"/>
</svg>
