<svg width="24" height="24" viewBox="0 0 24 24" fill="none" xmlns="http://www.w3.org/2000/svg">
<path d="M6 14C4.93913 14 3.92172 13.5786 3.17157 12.8284C2.42143 12.0783 2 11.0609 2 10C2 8.93913 2.42143 7.92172 3.17157 7.17157C3.92172 6.42143 4.93913 6 6 6C7.06087 6 8.07828 6.42143 8.82843 7.17157C9.57857 7.92172 10 8.93913 10 10C10 11.0609 9.57857 12.0783 8.82843 12.8284C8.07828 13.5786 7.06087 14 6 14Z" fill="#05080D"/>
<path d="M13 9C12.4477 9 12 9.44772 12 10C12 10.5523 12.4477 11 13 11H21C21.5523 11 22 10.5523 22 10C22 9.44772 21.5523 9 21 9H13Z" fill="#05080D"/>
<path d="M13 15C12.4477 15 12 15.4477 12 16C12 16.5523 12.4477 17 13 17H17C17.5523 17 18 16.5523 18 16C18 15.4477 17.5523 15 17 15H13Z" fill="#05080D"/>
</svg>
