<svg width="24" height="24" viewBox="0 0 24 24" fill="none" xmlns="http://www.w3.org/2000/svg">
<path d="M12 22C6.477 22 2 17.523 2 12C2 6.477 6.477 2 12 2C17.523 2 22 6.477 22 12C22 17.523 17.523 22 12 22ZM12 20C14.1217 20 16.1566 19.1571 17.6569 17.6569C19.1571 16.1566 20 14.1217 20 12C20 9.87827 19.1571 7.84344 17.6569 6.34315C16.1566 4.84285 14.1217 4 12 4C9.87827 4 7.84344 4.84285 6.34315 6.34315C4.84285 7.84344 4 9.87827 4 12C4 14.1217 4.84285 16.1566 6.34315 17.6569C7.84344 19.1571 9.87827 20 12 20ZM11.7101 15.2929C11.3196 15.6834 10.6864 15.6834 10.2959 15.2929L7.467 12.464C7.07654 12.0735 7.07653 11.4405 7.467 11.05C7.85747 10.6595 8.49053 10.6595 8.881 11.05L11.003 13.172L15.9521 8.22198C16.3426 7.8315 16.9757 7.83147 17.3663 8.22178C17.757 8.61227 17.7573 9.24573 17.3666 9.63636L11.7101 15.2929Z" fill="#05080D"/>
</svg>
