<svg width="24" height="24" viewBox="0 0 24 24" fill="none" xmlns="http://www.w3.org/2000/svg">
<path d="M10 11V5C10 4.44772 10.4477 4 11 4C11.5523 4 12 4.44772 12 5V20C12 20.5523 11.5523 21 11 21C10.4477 21 10 20.5523 10 20V13H4V20C4 20.5523 3.55228 21 3 21C2.44772 21 2 20.5523 2 20V5C2 4.44772 2.44772 4 3 4C3.55228 4 4 4.44772 4 5V11H10Z" fill="#05080D"/>
<path d="M14.5964 6.80267C14.3511 7.29749 14.5534 7.89748 15.0482 8.14277C15.543 8.38807 16.143 8.18579 16.3883 7.69097L14.5964 6.80267ZM17 12.5L16.7242 11.5388C16.2491 11.6751 15.9449 12.138 16.0082 12.6281C16.0716 13.1182 16.4834 13.4886 16.9775 13.4998L17 12.5ZM15.8575 17.9855C15.5733 17.5119 14.9591 17.3584 14.4855 17.6425C14.0119 17.9267 13.8584 18.5409 14.1425 19.0145L15.8575 17.9855ZM16.3883 7.69097C16.6243 7.21486 17.3259 6.87603 18.1212 7.04004C18.487 7.11548 18.8031 7.29174 19.0254 7.55114C19.2401 7.80184 19.4156 8.18591 19.4156 8.77404H21.4156C21.4156 7.75559 21.0987 6.89719 20.5442 6.24995C19.9972 5.61141 19.2671 5.23427 18.5252 5.08126C17.105 4.78839 15.345 5.29252 14.5964 6.80267L16.3883 7.69097ZM19.4156 8.77404C19.4156 9.67416 18.8686 10.3415 18.1405 10.8432C17.7851 11.088 17.4227 11.2657 17.1457 11.3823C17.0087 11.44 16.8963 11.4811 16.8211 11.507C16.7837 11.5199 16.7557 11.5289 16.739 11.5342C16.7306 11.5368 16.725 11.5385 16.7225 11.5393C16.7221 11.5394 16.7228 11.5392 16.7225 11.5393C16.7227 11.5392 16.7241 11.5388 16.7242 11.5388C16.7245 11.5387 16.7241 11.5388 17 12.5C17.2759 13.4612 17.2762 13.4611 17.2766 13.461C17.2763 13.4611 17.2767 13.4609 17.2766 13.461C17.2772 13.4608 17.2786 13.4604 17.2793 13.4602C17.2806 13.4598 17.2822 13.4594 17.284 13.4588C17.2875 13.4578 17.2919 13.4565 17.2971 13.4549C17.3075 13.4518 17.3211 13.4477 17.3377 13.4424C17.371 13.432 17.4165 13.4173 17.4724 13.398C17.584 13.3596 17.7385 13.3027 17.9217 13.2256C18.2851 13.0726 18.7766 12.8336 19.2751 12.4902C20.2547 11.8153 21.4156 10.6197 21.4156 8.77404H19.4156ZM17 12.5C16.9775 13.4998 16.9779 13.4998 16.9775 13.4998C16.9773 13.4997 16.976 13.4997 16.9758 13.4997C16.9753 13.4997 16.9748 13.4997 16.9744 13.4997C16.9775 13.4998 16.9846 13.5001 16.9952 13.5007C17.0165 13.5019 17.052 13.5042 17.0997 13.5086C17.1953 13.5175 17.3373 13.5346 17.5082 13.5669C17.8563 13.6327 18.2921 13.7554 18.6973 13.9763C19.0975 14.1945 19.4424 14.4936 19.6677 14.9097C19.8894 15.3194 20.0414 15.9272 19.9169 16.8482L21.8989 17.1161C22.0704 15.8468 21.882 14.7991 21.4265 13.9577C20.9746 13.1227 20.3055 12.5751 19.6546 12.2203C19.0089 11.8683 18.3567 11.6918 17.8795 11.6017C17.6379 11.556 17.4329 11.531 17.2847 11.5172C17.2105 11.5103 17.1499 11.5062 17.1055 11.5037C17.0833 11.5025 17.0651 11.5017 17.0512 11.5012C17.0442 11.5009 17.0383 11.5007 17.0336 11.5005C17.0312 11.5005 17.029 11.5004 17.0272 11.5004C17.0263 11.5003 17.0254 11.5003 17.0247 11.5003C17.0243 11.5003 17.0237 11.5003 17.0235 11.5003C17.023 11.5003 17.0225 11.5002 17 12.5ZM19.9169 16.8482C19.7744 17.9025 19.012 18.6137 18.1172 18.8411C17.2251 19.0678 16.3398 18.7893 15.8575 17.9855L14.1425 19.0145C15.1602 20.7107 17.0249 21.1822 18.6098 20.7795C20.192 20.3774 21.6335 19.0796 21.8989 17.1161L19.9169 16.8482Z" fill="#05080D"/>
</svg>
