<svg width="24" height="24" viewBox="0 0 24 24" fill="none" xmlns="http://www.w3.org/2000/svg">
<path d="M8.89932 4.3999C8.01566 4.3999 7.29932 5.11625 7.29932 5.9999C7.29932 6.88356 8.01566 7.5999 8.89932 7.5999C9.78297 7.5999 10.4993 6.88356 10.4993 5.9999C10.4993 5.11625 9.78297 4.3999 8.89932 4.3999Z" fill="#05080D"/>
<path d="M8.89932 10.3999C8.01566 10.3999 7.29932 11.1162 7.29932 11.9999C7.29932 12.8836 8.01566 13.5999 8.89932 13.5999C9.78297 13.5999 10.4993 12.8836 10.4993 11.9999C10.4993 11.1162 9.78297 10.3999 8.89932 10.3999Z" fill="#05080D"/>
<path d="M7.29932 17.9999C7.29932 17.1162 8.01566 16.3999 8.89932 16.3999C9.78297 16.3999 10.4993 17.1162 10.4993 17.9999C10.4993 18.8836 9.78297 19.5999 8.89932 19.5999C8.01566 19.5999 7.29932 18.8836 7.29932 17.9999Z" fill="#05080D"/>
<path d="M15.1007 4.3999C14.217 4.3999 13.5007 5.11625 13.5007 5.9999C13.5007 6.88356 14.217 7.5999 15.1007 7.5999C15.9843 7.5999 16.7007 6.88356 16.7007 5.9999C16.7007 5.11625 15.9843 4.3999 15.1007 4.3999Z" fill="#05080D"/>
<path d="M13.5007 11.9999C13.5007 11.1162 14.217 10.3999 15.1007 10.3999C15.9843 10.3999 16.7007 11.1162 16.7007 11.9999C16.7007 12.8836 15.9843 13.5999 15.1007 13.5999C14.217 13.5999 13.5007 12.8836 13.5007 11.9999Z" fill="#05080D"/>
<path d="M15.1007 16.3999C14.217 16.3999 13.5007 17.1162 13.5007 17.9999C13.5007 18.8836 14.217 19.5999 15.1007 19.5999C15.9843 19.5999 16.7007 18.8836 16.7007 17.9999C16.7007 17.1162 15.9843 16.3999 15.1007 16.3999Z" fill="#05080D"/>
</svg>
