<svg width="24" height="24" viewBox="0 0 24 24" fill="none" xmlns="http://www.w3.org/2000/svg">
<path d="M10 11V5C10 4.44772 10.4477 4 11 4C11.5523 4 12 4.44772 12 5V20C12 20.5523 11.5523 21 11 21C10.4477 21 10 20.5523 10 20V13H4V20C4 20.5523 3.55228 21 3 21C2.44772 21 2 20.5523 2 20V5C2 4.44772 2.44772 4 3 4C3.55228 4 4 4.44772 4 5V11H10Z" fill="#05080D"/>
<path d="M14.0186 8.14212C13.913 8.68422 14.2669 9.20928 14.809 9.31488C15.3511 9.42049 15.8761 9.06664 15.9817 8.52454L14.0186 8.14212ZM15.0002 20L14.0002 19.9924C13.9982 20.2589 14.1026 20.5152 14.2904 20.7044C14.4781 20.8936 14.7336 21 15.0002 21V20ZM20.9547 21C21.507 21 21.9547 20.5522 21.9547 20C21.9547 19.4477 21.507 19 20.9547 19V21ZM15.0002 8.33333C15.9817 8.52454 15.9818 8.52406 15.9817 8.52454C15.9817 8.52469 15.9814 8.52613 15.9814 8.52642C15.9812 8.52702 15.9811 8.52758 15.981 8.5281C15.9808 8.52916 15.9806 8.53008 15.9805 8.53087C15.9802 8.53246 15.9799 8.53354 15.9798 8.53411C15.9796 8.53526 15.9799 8.53354 15.9805 8.53087C15.9817 8.5255 15.9846 8.51377 15.9897 8.49494C16 8.45705 16.0183 8.39558 16.0471 8.31854C16.1056 8.16177 16.2013 7.95658 16.3474 7.75655C16.6188 7.38505 17.0768 7 17.9547 7V5C16.3327 5 15.3134 5.78161 14.7325 6.57678C14.4525 6.96008 14.2783 7.33823 14.1734 7.61896C14.1205 7.76067 14.0838 7.88149 14.0595 7.97121C14.0473 8.01618 14.0381 8.05369 14.0315 8.0825C14.0281 8.09692 14.0254 8.10919 14.0233 8.11917C14.0223 8.12416 14.0214 8.12858 14.0206 8.13241C14.0202 8.13433 14.0198 8.13609 14.0195 8.13771C14.0193 8.13852 14.0192 8.1393 14.019 8.14003C14.019 8.1404 14.0189 8.14092 14.0188 8.1411C14.0187 8.14162 14.0186 8.14212 15.0002 8.33333ZM15.0002 21H20.9547V19H15.0002V21ZM17.9547 7C19.1891 7 19.9547 7.84313 19.9547 9H21.9547C21.9547 6.80079 20.3549 5 17.9547 5V7ZM19.9547 9C19.9547 10.7447 18.8758 11.6905 17.2985 13.2195C15.7701 14.701 14.0261 16.5725 14.0002 19.9924L16.0001 20.0075C16.0197 17.4275 17.253 16.049 18.6905 14.6555C20.0791 13.3095 21.9547 11.7553 21.9547 9H19.9547Z" fill="#05080D"/>
</svg>
