<svg width="24" height="24" viewBox="0 0 24 24" fill="none" xmlns="http://www.w3.org/2000/svg">
<path d="M11 14V16C7.68629 16 5 18.6863 5 22H3C3 17.5817 6.58172 14 11 14ZM11 13C7.685 13 5 10.315 5 7C5 3.685 7.685 1 11 1C14.315 1 17 3.685 17 7C17 10.315 14.315 13 11 13ZM11 11C13.21 11 15 9.21 15 7C15 4.79 13.21 3 11 3C8.79 3 7 4.79 7 7C7 9.21 8.79 11 11 11ZM13.5946 18.8115C13.5327 18.5511 13.5 18.2794 13.5 18C13.5 17.7207 13.5327 17.449 13.5945 17.1886L12.6029 16.6161L13.6029 14.884L14.5952 15.4569C14.9883 15.0851 15.4676 14.8034 16 14.6449V13.5H18V14.6449C18.5324 14.8034 19.0116 15.0851 19.4047 15.4569L20.3971 14.8839L21.3972 16.616L20.4055 17.1885C20.4673 17.449 20.5 17.7207 20.5 18C20.5 18.2793 20.4673 18.551 20.4055 18.8114L21.3972 19.3839L20.3972 21.116L19.4048 20.543C19.0117 20.9149 18.5325 21.1966 18.0001 21.355V22.5H16.0001V21.3551C15.4677 21.1967 14.9884 20.915 14.5953 20.5431L13.603 21.1161L12.6029 19.384L13.5946 18.8115ZM17 19.5C17.8284 19.5 18.5 18.8284 18.5 18C18.5 17.1716 17.8284 16.5 17 16.5C16.1716 16.5 15.5 17.1716 15.5 18C15.5 18.8284 16.1716 19.5 17 19.5Z" fill="#05080D"/>
</svg>
