<svg width="24" height="24" viewBox="0 0 24 24" fill="none" xmlns="http://www.w3.org/2000/svg">
<path d="M5 20.1667C4.35567 20.1667 3.83333 19.6443 3.83333 19C3.83333 18.3557 4.35567 17.8333 5 17.8333C5.64433 17.8333 6.16667 18.3557 6.16667 19C6.16667 19.6443 5.64433 20.1667 5 20.1667ZM1.5 19C1.5 20.933 3.06701 22.5 5 22.5C6.93299 22.5 8.5 20.933 8.5 19C8.5 17.4761 7.52605 16.1796 6.16667 15.6992V15.5C6.16667 14.2113 7.21133 13.1667 8.5 13.1667H15.5C16.7887 13.1667 17.8333 14.2113 17.8333 15.5V15.6992C16.4739 16.1796 15.5 17.4761 15.5 19C15.5 20.933 17.0669 22.5 19 22.5C20.9331 22.5 22.5 20.933 22.5 19C22.5 17.4761 21.5261 16.1796 20.1667 15.6992V15.5C20.1667 12.9227 18.0773 10.8333 15.5 10.8333H13.1667V8.30085C14.5261 7.82042 15.5 6.5239 15.5 5C15.5 3.06695 13.933 1.5 12 1.5C10.0669 1.5 8.5 3.06695 8.5 5C8.5 6.5239 9.47394 7.82042 10.8333 8.30085V10.8333H8.5C5.92267 10.8333 3.83333 12.9227 3.83333 15.5V15.6992C2.47394 16.1796 1.5 17.4761 1.5 19ZM19 20.1667C18.3556 20.1667 17.8333 19.6443 17.8333 19C17.8333 18.3557 18.3556 17.8333 19 17.8333C19.6444 17.8333 20.1667 18.3557 20.1667 19C20.1667 19.6443 19.6444 20.1667 19 20.1667ZM12 6.16667C11.3556 6.16667 10.8333 5.64435 10.8333 5C10.8333 4.35565 11.3556 3.83333 12 3.83333C12.6444 3.83333 13.1667 4.35565 13.1667 5C13.1667 5.64435 12.6444 6.16667 12 6.16667Z" fill="#05080D"/>
</svg>
