<svg width="24" height="24" viewBox="0 0 24 24" fill="none" xmlns="http://www.w3.org/2000/svg">
<path fill-rule="evenodd" clip-rule="evenodd" d="M10 7C10 5.89543 10.8954 5 12 5C13.1046 5 14 5.89543 14 7C14 8.10457 13.1046 9 12 9C10.8954 9 10 8.10457 10 7ZM12 3C9.79086 3 8 4.79086 8 7C8 9.20914 9.79086 11 12 11C14.2091 11 16 9.20914 16 7C16 4.79086 14.2091 3 12 3ZM10 12C7.23858 12 5 14.2386 5 17V20C5 20.5523 5.44772 21 6 21H18C18.5523 21 19 20.5523 19 20V17C19 14.2386 16.7614 12 14 12H10ZM7 17C7 15.3431 8.34315 14 10 14H14C15.6569 14 17 15.3431 17 17V19H7V17ZM16.9033 10.4587C17.0103 10.3074 17.1104 10.151 17.2032 9.98977C18.2123 9.88795 19 9.03594 19 7.99996C19 7.24021 18.5764 6.57941 17.9524 6.24088C17.8507 5.43479 17.589 4.67853 17.2002 4.00489C19.3163 4.10917 21 5.85794 21 7.99996C21 9.57682 20.0876 10.9406 18.7619 11.592C18.2149 11.1167 17.5877 10.7312 16.9033 10.4587ZM7.09665 10.4587C6.41226 10.7312 5.78508 11.1167 5.23813 11.592C3.91243 10.9406 3 9.57682 3 7.99996C3 5.85794 4.6837 4.10916 6.79985 4.00488C6.41102 4.67853 6.14933 5.43479 6.04756 6.24088C5.42363 6.57941 5 7.24021 5 7.99996C5 9.03594 5.78767 9.88795 6.79681 9.98977C6.88963 10.151 6.98973 10.3074 7.09665 10.4587ZM4 13H4.02182C3.59873 13.6608 3.29195 14.4032 3.13033 15.1984C2.46139 15.522 2 16.2071 2 17V19H3V20C3 20.3506 3.06015 20.6872 3.17071 21H1C0.447715 21 0 20.5522 0 20V17C0 14.7908 1.79086 13 4 13ZM23 21H20.8293C20.9398 20.6872 21 20.3506 21 20V19H22V17C22 16.2071 21.5386 15.522 20.8697 15.1984C20.7081 14.4032 20.4013 13.6608 19.9782 13H20C22.2091 13 24 14.7908 24 17V20C24 20.5522 23.5523 21 23 21Z" fill="#0F1A26"/>
</svg>
