<svg width="24" height="24" viewBox="0 0 24 24" fill="none" xmlns="http://www.w3.org/2000/svg">
<path fill-rule="evenodd" clip-rule="evenodd" d="M5.13175 3.50386C5.30979 3.19229 5.64114 3 5.99999 3H18C18.3588 3 18.6902 3.19229 18.8682 3.50386L22.8682 10.5039C23.092 10.8954 23.026 11.3882 22.7071 11.7071L12.7071 21.7071C12.3166 22.0976 11.6834 22.0976 11.2929 21.7071L1.29289 11.7071C0.974016 11.3882 0.908016 10.8954 1.13175 10.5039L5.13175 3.50386ZM5.69057 6.55706L3.72317 10H6.67426L5.69057 6.55706ZM7.32296 12H4.41421L9.26213 16.8479L7.32296 12ZM14.7379 16.8479L19.5858 12H16.677L14.7379 16.8479ZM17.3257 10H20.2768L18.3094 6.55706L17.3257 10ZM16.6743 5H13.7232L15.6906 8.44294L16.6743 5ZM14.2768 10L12 6.01556L9.72317 10H14.2768ZM9.47703 12H14.523L12 18.3074L9.47703 12ZM8.30942 8.44294L10.2768 5H7.32572L8.30942 8.44294Z" fill="#181F26"/>
</svg>
