<svg width="24" height="24" viewBox="0 0 24 24" fill="none" xmlns="http://www.w3.org/2000/svg">
<path d="M5.5846 3L14.5819 12L5.58549 21C5.42551 20.9327 5.28899 20.8197 5.19309 20.6751C5.09719 20.5304 5.04619 20.3607 5.04651 20.1871V3.81288C5.04658 3.63954 5.09763 3.47006 5.19331 3.32552C5.28899 3.18098 5.42506 3.06777 5.5846 3ZM15.2066 12.6247L17.2406 14.6586L7.57704 20.2543L15.2066 12.6247ZM18.0332 9.79904L20.5133 11.2357C20.6472 11.3134 20.7584 11.4249 20.8356 11.559C20.9129 11.6931 20.9535 11.8452 20.9535 12C20.9535 12.1548 20.9129 12.3069 20.8356 12.441C20.7584 12.5751 20.6472 12.6866 20.5133 12.7643L18.0323 14.201L15.8313 12L18.0332 9.79904ZM7.57704 3.74573L17.2415 9.34047L15.2066 11.3753L7.57704 3.74573Z" fill="#181F26"/>
</svg>
