<svg width="24" height="24" viewBox="0 0 24 24" fill="none" xmlns="http://www.w3.org/2000/svg">
<path fill-rule="evenodd" clip-rule="evenodd" d="M18 5C18 5.55229 17.5523 6 17 6L3 6C2.44771 6 2 5.55228 2 5C2 4.44772 2.44771 4 3 4H17C17.5523 4 18 4.44772 18 5ZM10 13C10.5523 13 11 12.5523 11 12C11 11.4477 10.5523 11 10 11L3 11C2.44771 11 2 11.4477 2 12C2 12.5523 2.44771 13 3 13L10 13ZM8 20C8.55228 20 9 19.5523 9 19C9 18.4477 8.55228 18 8 18L3 18C2.44772 18 2 18.4477 2 19C2 19.5523 2.44772 20 3 20H8ZM17.0029 21.5C16.7473 21.5 16.514 21.404 16.3372 21.2462C16.3122 21.2239 16.2882 21.2003 16.2654 21.1753L16.258 21.1672L11.7596 16.169C11.3902 15.7585 11.4235 15.1262 11.834 14.7567C12.2445 14.3872 12.8768 14.4205 13.2462 14.831L16.0029 17.8941L16.0029 9.5C16.0029 8.94772 16.4507 8.5 17.0029 8.5C17.5552 8.5 18.0029 8.94772 18.0029 9.5V17.894L20.7596 14.831C21.1291 14.4205 21.7614 14.3872 22.1719 14.7567C22.5824 15.1262 22.6157 15.7585 22.2462 16.169L17.7502 21.1646C17.567 21.3704 17.3001 21.5 17.0029 21.5Z" fill="black"/>
</svg>
