<svg width="24" height="24" viewBox="0 0 24 24" fill="none" xmlns="http://www.w3.org/2000/svg">
<path d="M17.2929 14.2929C17.6834 13.9024 18.3166 13.9024 18.7071 14.2929C19.0976 14.6834 19.0976 15.3166 18.7071 15.7071L12.7071 21.7071C12.5118 21.9024 12.2559 22 12 22C11.8644 22 11.7351 21.973 11.6172 21.9241C11.4993 21.8753 11.3888 21.803 11.2929 21.7071L5.29289 15.7071C4.90237 15.3166 4.90237 14.6834 5.29289 14.2929C5.68342 13.9024 6.31658 13.9024 6.70711 14.2929L11 18.5858L11 3C11 2.44772 11.4477 2 12 2C12.5523 2 13 2.44772 13 3L13 18.5858L17.2929 14.2929Z" fill="#181F26"/>
</svg>
