<svg width="24" height="24" viewBox="0 0 24 24" fill="none" xmlns="http://www.w3.org/2000/svg">
<path d="M14.6722 4.82631L15.8036 3.69494C16.1996 3.29893 16.3976 3.10091 16.6259 3.02673C16.8268 2.96147 17.0431 2.96147 17.244 3.02673C17.4723 3.10091 17.6703 3.29892 18.0663 3.69492L20.2371 5.86576C20.6331 6.26178 20.8312 6.45978 20.9053 6.68811C20.9706 6.88896 20.9706 7.1053 20.9053 7.30615C20.8312 7.53447 20.6331 7.73248 20.2371 8.1285L19.1058 9.25987C18.9077 9.45788 18.8087 9.55688 18.6946 9.59398C18.5942 9.62661 18.486 9.62661 18.3856 9.59398C18.2714 9.55688 18.1724 9.45788 17.9744 9.25988L14.6722 5.95768C14.4742 5.75967 14.3752 5.66067 14.3381 5.54651C14.3055 5.44608 14.3055 5.33791 14.3381 5.23749C14.3752 5.12332 14.4742 5.02432 14.6722 4.82631Z" fill="#05080D"/>
<path d="M13.4829 7.25358C13.3187 7.08936 13.0961 6.99712 12.8639 6.99716C12.6317 6.99721 12.409 7.08954 12.245 7.25382L3.19085 16.3188C3.02698 16.4828 2.93494 16.7052 2.93494 16.9371V20.1222C2.93494 20.6054 3.32669 20.9972 3.80994 20.9972H7.01121C7.24334 20.9972 7.46596 20.9049 7.63006 20.7407L16.6788 11.688C17.0203 11.3464 17.0203 10.7926 16.6788 10.4509L13.4829 7.25358Z" fill="#05080D"/>
<path d="M18.5215 17.9621C18.9728 18.1125 18.9728 18.7508 18.5215 18.9013L18.4792 18.9154C17.7401 19.1617 17.1602 19.7416 16.9139 20.4806L16.8998 20.523C16.7494 20.9742 16.1111 20.9742 15.9606 20.523L15.9465 20.4806C15.7002 19.7416 15.1203 19.1617 14.3813 18.9154L14.3389 18.9013C13.8877 18.7508 13.8877 18.1125 14.3389 17.9621L14.3813 17.948C15.1203 17.7017 15.7002 17.1218 15.9465 16.3827L15.9606 16.3404C16.1111 15.8891 16.7494 15.8891 16.8998 16.3404L16.9139 16.3827C17.1602 17.1218 17.7401 17.7017 18.4792 17.948L18.5215 17.9621Z" fill="#05080D"/>
<path d="M6.52149 6.90125C6.97276 6.75083 6.97276 6.11253 6.52149 5.96211L6.47915 5.94799C5.74014 5.70166 5.16024 5.12175 4.9139 4.38274L4.89979 4.3404C4.74937 3.88914 4.11106 3.88914 3.96064 4.3404L3.94653 4.38274C3.70019 5.12175 3.12029 5.70166 2.38128 5.94799L2.33894 5.96211C1.88767 6.11253 1.88767 6.75083 2.33894 6.90125L2.38128 6.91537C3.12029 7.1617 3.70019 7.74161 3.94653 8.48062L3.96064 8.52296C4.11106 8.97422 4.74937 8.97422 4.89979 8.52296L4.9139 8.48062C5.16024 7.74161 5.74014 7.1617 6.47915 6.91537L6.52149 6.90125Z" fill="#05080D"/>
<path d="M20.7911 14.2121C21.0697 14.305 21.0697 14.699 20.7911 14.7919L20.765 14.8006C20.3087 14.9527 19.9507 15.3107 19.7987 15.7669L19.7899 15.7931C19.6971 16.0717 19.303 16.0717 19.2101 15.7931L19.2014 15.7669C19.0493 15.3107 18.6913 14.9527 18.2351 14.8006L18.2089 14.7919C17.9304 14.699 17.9304 14.305 18.2089 14.2121L18.2351 14.2034C18.6913 14.0513 19.0493 13.6933 19.2014 13.237L19.2101 13.2109C19.303 12.9323 19.6971 12.9323 19.7899 13.2109L19.7987 13.237C19.9507 13.6933 20.3087 14.0513 20.765 14.2034L20.7911 14.2121Z" fill="#05080D"/>
</svg>
