<svg width="24" height="24" viewBox="0 0 24 24" fill="none" xmlns="http://www.w3.org/2000/svg">
<path fill-rule="evenodd" clip-rule="evenodd" d="M9.99385 3.11052C10.0548 2.56161 9.6593 2.06719 9.1104 2.0062C8.56149 1.94521 8.06707 2.34075 8.00608 2.88966L7.54938 7H3C2.44772 7 2 7.44772 2 8C2 8.55228 2.44772 9 3 9H7.32716L6.66049 15H3C2.44772 15 2 15.4477 2 16C2 16.5523 2.44772 17 3 17H6.43827L6.00608 20.8897C5.94509 21.4386 6.34063 21.933 6.88953 21.994C7.43844 22.055 7.93286 21.6594 7.99385 21.1105L8.45057 17H14.4383L14.0061 20.8897C13.9451 21.4386 14.3406 21.933 14.8895 21.994C15.4384 22.055 15.9329 21.6594 15.9938 21.1105L16.4506 17H21C21.5523 17 22 16.5523 22 16C22 15.4477 21.5523 15 21 15H16.6728L17.3395 9H21C21.5523 9 22 8.55228 22 8C22 7.44772 21.5523 7 21 7H17.5617L17.9938 3.11052C18.0548 2.56161 17.6593 2.06719 17.1104 2.0062C16.5615 1.94521 16.0671 2.34075 16.0061 2.88966L15.5494 7H9.56169L9.99385 3.11052ZM14.6605 15L15.3272 9H9.33946L8.6728 15H14.6605Z" fill="#05080D"/>
</svg>
