<svg width="24" height="24" viewBox="0 0 24 24" fill="none" xmlns="http://www.w3.org/2000/svg">
<path fill-rule="evenodd" clip-rule="evenodd" d="M14.3448 3.04289C13.9543 3.43342 13.9543 4.06658 14.3448 4.45711L17.1377 7.25H10.4481C6.58216 7.25 3.44815 10.384 3.44815 14.25C3.44815 18.116 6.58216 21.25 10.4481 21.25H18.0376C18.5899 21.25 19.0376 20.8023 19.0376 20.25C19.0376 19.6977 18.5899 19.25 18.0376 19.25H10.4481C7.68673 19.25 5.44815 17.0114 5.44815 14.25C5.44815 11.4886 7.68673 9.25 10.4481 9.25H17.1377L14.3448 12.0429C13.9543 12.4334 13.9543 13.0666 14.3448 13.4571C14.7353 13.8476 15.3685 13.8476 15.759 13.4571L20.259 8.95711C20.4466 8.76957 20.5519 8.51522 20.5519 8.25C20.5519 7.98478 20.4466 7.73043 20.259 7.54289L15.759 3.04289C15.3685 2.65237 14.7353 2.65237 14.3448 3.04289Z" fill="#05080D"/>
</svg>
