<svg width="24" height="24" viewBox="0 0 24 24" fill="none" xmlns="http://www.w3.org/2000/svg">
<path fill-rule="evenodd" clip-rule="evenodd" d="M8.99999 3C8.4477 3 7.99999 3.44772 7.99999 4V12C7.99999 12.5523 8.4477 13 8.99999 13H14.1582C14.2505 13 14.3311 12.9371 14.3573 12.8487C14.4815 12.429 14.8931 11.2229 15.739 10.3341C16.4114 9.62767 17.1591 9.37781 17.6039 9.28944C17.8206 9.24638 18 9.06199 18 8.84107V4C18 3.44772 17.5523 3 17 3H8.99999ZM12.7818 13.9898C12.8993 13.9898 12.9911 14.0909 12.9759 14.2075C12.6237 16.9117 10.3113 19 7.51111 19C4.46734 19 1.99988 16.5325 1.99988 13.4888C1.99988 10.6886 4.08822 8.37615 6.79241 8.02397C6.90897 8.00879 7.01009 8.10053 7.01009 8.21808V12.9903C7.01009 13.5425 7.45741 13.9899 8.0097 13.9899L12.7818 13.9898ZM16.8288 11.3814C17.1616 10.8729 17.8383 10.8729 18.1711 11.3814L22.8368 18.511C23.241 19.1287 22.8482 20 22.1656 20H12.8343C12.1518 20 11.759 19.1287 12.1632 18.511L16.8288 11.3814Z" fill="#05080D"/>
</svg>
