<svg width="24" height="24" viewBox="0 0 24 24" fill="none" xmlns="http://www.w3.org/2000/svg">
<path fill-rule="evenodd" clip-rule="evenodd" d="M3.96528 2.64138C4.09222 2.61578 6.79202 2.3971 9.96784 2.15931C13.1372 1.91503 16.021 1.72236 16.3701 1.73496C17.2153 1.74797 17.3486 1.81869 19.235 3.15557C22.0553 5.16108 22.2714 5.32814 22.3919 5.56592C22.4936 5.7781 22.5 6.23416 22.4871 13.1823C22.471 20.1909 22.4919 20.7589 22.2201 21.0096C22.1741 21.052 22.1197 21.0854 22.0553 21.1394C22.0122 21.1768 21.9789 21.2092 21.9428 21.238C21.6811 21.4461 21.2664 21.4619 15.831 21.7958C14.3825 21.8791 11.9691 22.0271 10.4635 22.1234C8.9644 22.2132 7.57975 22.2775 7.39537 22.2584C6.76029 22.1941 6.63978 22.0718 4.96912 19.8801C4.12435 18.7684 3.34948 17.6884 3.23499 17.4572L3.03173 17.0393L3.01285 10.2968L3 3.55431L3.13336 3.27141C3.28561 2.94989 3.60937 2.70561 3.96528 2.64138ZM19.6098 4.80095C19.3242 4.53715 17.3739 3.16166 17.1072 3.03972C16.6947 2.85356 16.0274 2.84706 13.7984 3.02712C12.7693 3.11086 11.0797 3.2393 10.0506 3.31002C4.71447 3.69864 4.71448 3.70183 4.71484 3.91519C4.71484 3.91696 4.71485 3.91874 4.71485 3.92054C4.71485 4.00387 6.08664 5.14157 6.63938 5.52081C6.77274 5.61104 7.00774 5.70738 7.16641 5.73298C7.51548 5.7846 19.5845 5.05825 19.6733 4.98102C19.7114 4.9424 19.6861 4.87818 19.6098 4.80095ZM21.1342 6.98612C21.1089 6.81907 21.0326 6.6455 20.9438 6.55568C20.9265 6.53811 20.9108 6.52214 20.8937 6.50781C20.7238 6.36499 20.4172 6.38473 16.9429 6.6012C16.4511 6.63068 15.8475 6.66739 15.1947 6.70709C13.7142 6.79713 11.9807 6.90256 10.7242 6.97393C8.14534 7.12798 7.39577 7.1922 7.28129 7.26943C7.19854 7.32065 7.10334 7.47511 7.06518 7.60355C7.01416 7.77711 7.00131 9.7054 7.01416 14.0631L7.03304 20.272L7.18569 20.439C7.27446 20.5288 7.43996 20.6317 7.56047 20.6638C7.82077 20.741 20.4674 20.0147 20.7337 19.9053C20.8293 19.8732 20.9563 19.7639 21.0197 19.661C21.1278 19.494 21.1342 19.1338 21.1531 13.375C21.166 10.02 21.1531 7.14058 21.1342 6.98612ZM16.1797 8.83205C16.2496 8.79344 16.8593 8.72921 17.5454 8.6841C18.2251 8.63898 18.8795 8.60036 18.9931 8.59508C19.1836 8.58858 19.1964 8.60158 19.1964 8.80726C19.1964 9.12877 19.012 9.31494 18.6119 9.39217L18.2753 9.45639L18.2564 13.8463L18.2436 18.2296L18.0909 18.3259C17.5956 18.6536 16.6111 18.795 16.2234 18.5893C15.9121 18.4288 15.6579 18.0621 13.6317 14.8486L11.7007 11.7826V14.7458C11.7007 17.5098 11.7072 17.7089 11.8152 17.741C11.8723 17.754 12.1454 17.8183 12.4186 17.8825C12.6857 17.9467 12.9078 18.0239 12.9078 18.0495C12.9078 18.0817 12.8636 18.191 12.8126 18.2938C12.6411 18.6345 12.4571 18.6796 10.8246 18.7759C10.6824 18.7847 10.5434 18.7934 10.4105 18.8016C9.77198 18.8413 9.27474 18.8722 9.24315 18.8722C9.14152 18.8722 9.13509 18.6731 9.23672 18.4544C9.29376 18.3259 9.40825 18.2617 9.74487 18.1589L10.1767 18.0239V10.1311H9.90997C9.40182 10.1311 9.1604 10.0604 9.1604 9.92545C9.1604 9.70027 9.36366 9.35965 9.54804 9.26331C9.66252 9.19909 10.2277 9.13487 11.2569 9.06415C12.0952 9.00602 12.7938 8.96741 12.8066 8.98041C12.8195 8.99301 13.7088 10.3624 14.7822 12.0269C15.8559 13.6853 16.7577 15.0734 16.7894 15.112C16.8212 15.1441 16.8465 14.0641 16.8465 12.4317V9.68726L16.548 9.64865C15.8623 9.56491 15.7989 9.53931 15.8177 9.32713C15.843 9.12146 15.97 8.94139 16.1797 8.83205Z" fill="#181F26"/>
</svg>
