<svg width="24" height="24" viewBox="0 0 24 24" fill="none" xmlns="http://www.w3.org/2000/svg">
<path fill-rule="evenodd" clip-rule="evenodd" d="M12 22C17.5228 22 22 17.5228 22 12C22 6.47715 17.5228 2 12 2C6.47715 2 2 6.47715 2 12C2 17.5228 6.47715 22 12 22ZM13.25 7.75C13.25 8.44036 12.6904 9 12 9C11.3096 9 10.75 8.44036 10.75 7.75C10.75 7.05964 11.3096 6.5 12 6.5C12.6904 6.5 13.25 7.05964 13.25 7.75ZM12 10.0015C12.5523 10.0015 13 10.4492 13 11.0015V17.5001C13 18.0524 12.5523 18.5001 12 18.5001C11.4477 18.5001 11 18.0524 11 17.5001V11.0015C11 10.4492 11.4477 10.0015 12 10.0015Z" fill="#0F1A26"/>
</svg>
