<svg width="24" height="24" viewBox="0 0 24 24" fill="none" xmlns="http://www.w3.org/2000/svg">
<path d="M15.0721 3.0439C15.8482 2.23568 17.1363 2.22231 17.9286 3.01461L20.9999 6.0859C21.7808 6.86692 21.7808 8.13298 20.9999 8.91402L8.49988 21.414C8.12486 21.7889 7.61608 21.9999 7.08582 22H3.99988C2.8955 21.9998 2.00001 21.1043 1.99988 20V17.4648C1.99988 16.9486 2.20009 16.4525 2.5575 16.08L12.8153 5.39449L15.0721 3.0439ZM15.9608 16.3408C16.1112 15.8895 16.7498 15.8895 16.9003 16.3408L16.9139 16.3828C17.1603 17.1217 17.7404 17.7019 18.4794 17.9482L18.5214 17.9619C18.9726 18.1123 18.9726 18.7509 18.5214 18.9013L18.4794 18.915C17.7404 19.1613 17.1603 19.7415 16.9139 20.4804L16.9003 20.5224C16.7498 20.9737 16.1112 20.9737 15.9608 20.5224L15.9462 20.4804C15.6998 19.7416 15.1205 19.1614 14.3817 18.915L14.3387 18.9013C13.8877 18.7508 13.8877 18.1124 14.3387 17.9619L14.3817 17.9482C15.1205 17.7018 15.6998 17.1216 15.9462 16.3828L15.9608 16.3408ZM3.99988 17.4648V20H7.08582L16.4969 10.5879L13.538 7.5273L3.99988 17.4648ZM19.2098 13.2109C19.3027 12.9323 19.6971 12.9323 19.7899 13.2109L19.7987 13.2373C19.9508 13.6932 20.3086 14.0509 20.7645 14.2031L20.7909 14.2119C21.0695 14.3047 21.0695 14.6991 20.7909 14.792L20.7645 14.8007C20.3086 14.9529 19.9508 15.3106 19.7987 15.7666L19.7899 15.7929C19.6971 16.0715 19.3027 16.0715 19.2098 15.7929L19.201 15.7666C19.0489 15.3106 18.6913 14.9528 18.2352 14.8007L18.2089 14.792C17.9303 14.6991 17.9303 14.3048 18.2089 14.2119L18.2352 14.2031C18.6913 14.051 19.0489 13.6933 19.201 13.2373L19.2098 13.2109ZM14.9247 6.08394L17.912 9.17281L19.5858 7.49996L16.5145 4.42867L14.9247 6.08394ZM3.96082 4.34078C4.11124 3.88951 4.74985 3.88951 4.90027 4.34078L4.91394 4.38277C5.1603 5.12172 5.7404 5.70188 6.47937 5.9482L6.52136 5.96187C6.97263 6.1123 6.97263 6.7509 6.52136 6.90133L6.47937 6.915C5.74039 7.16133 5.16029 7.74146 4.91394 8.48043L4.90027 8.52242C4.74985 8.97369 4.11124 8.97369 3.96082 8.52242L3.94617 8.48043C3.69983 7.74161 3.12052 7.16137 2.38171 6.915L2.33875 6.90133C1.88766 6.75084 1.88767 6.11237 2.33875 5.96187L2.38171 5.9482C3.12051 5.70184 3.69982 5.12158 3.94617 4.38277L3.96082 4.34078Z" fill="black"/>
</svg>
