<svg width="24" height="24" viewBox="0 0 24 24" fill="none" xmlns="http://www.w3.org/2000/svg">
<path fill-rule="evenodd" clip-rule="evenodd" d="M0.998047 10.4922C0.998047 5.2455 5.25136 0.992188 10.498 0.992188C15.7447 0.992188 19.998 5.2455 19.998 10.4922C19.998 12.7553 19.2067 14.8336 17.8856 16.4655L21.5611 20.141C21.9516 20.5315 21.9516 21.1647 21.5611 21.5552C21.1706 21.9458 20.5374 21.9458 20.1469 21.5552L16.4714 17.8797C14.8395 19.2008 12.7612 19.9922 10.498 19.9922C5.25136 19.9922 0.998047 15.7389 0.998047 10.4922ZM10.498 2.99219C6.35593 2.99219 2.99805 6.35007 2.99805 10.4922C2.99805 14.6343 6.35593 17.9922 10.498 17.9922C14.6402 17.9922 17.998 14.6343 17.998 10.4922C17.998 6.35007 14.6402 2.99219 10.498 2.99219ZM6.5 10.5C6.5 9.94771 6.94772 9.5 7.5 9.5H13.5C14.0523 9.5 14.5 9.94771 14.5 10.5C14.5 11.0523 14.0523 11.5 13.5 11.5H7.5C6.94772 11.5 6.5 11.0523 6.5 10.5Z" fill="#05080D"/>
</svg>
