<svg width="24" height="24" viewBox="0 0 24 24" fill="none" xmlns="http://www.w3.org/2000/svg">
<path d="M8 2C8.55228 2 9 2.44772 9 3V3.5H12C12.5523 3.5 13 3.94772 13 4.5C13 5.05228 12.5523 5.5 12 5.5H10.8661C11.0138 5.75632 11.0469 6.0754 10.9285 6.37141C10.5008 7.44064 9.83507 8.56954 9.02929 9.61184C9.46731 9.93029 9.97036 10.2785 10.5547 10.6681C11.0142 10.9744 11.1384 11.5953 10.832 12.0548C10.5257 12.5143 9.90481 12.6385 9.44528 12.3322C8.77841 11.8876 8.20376 11.4883 7.70137 11.1184C6.70698 12.1056 5.56368 12.9516 4.37141 13.4285C3.85863 13.6336 3.27666 13.3842 3.07155 12.8714C2.86643 12.3586 3.11585 11.7767 3.62863 11.5715C4.45128 11.2425 5.31735 10.6352 6.13361 9.85385C5.30193 9.1003 4.73269 8.40194 4.16793 7.55481C3.86158 7.09528 3.98576 6.47441 4.44528 6.16806C4.90481 5.8617 5.52568 5.98588 5.83203 6.44541C6.28953 7.13165 6.74258 7.70537 7.4668 8.36294C8.16324 7.45774 8.72378 6.49803 9.07155 5.62863C9.08952 5.58369 9.11039 5.54077 9.13386 5.5H4C3.44772 5.5 3 5.05228 3 4.5C3 3.94772 3.44772 3.5 4 3.5H7V3C7 2.44772 7.44772 2 8 2Z" fill="#0F1A26"/>
<path d="M15 4C15 3.44772 15.4477 3 16 3H18C19.6569 3 21 4.34315 21 6V8C21 8.55228 20.5523 9 20 9C19.4477 9 19 8.55228 19 8V6C19 5.44772 18.5523 5 18 5H16C15.4477 5 15 4.55228 15 4Z" fill="#0F1A26"/>
<path d="M4 15C4.55228 15 5 15.4477 5 16V18C5 18.5523 5.44772 19 6 19H8C8.55228 19 9 19.4477 9 20C9 20.5523 8.55228 21 8 21H6C4.34315 21 3 19.6569 3 18V16C3 15.4477 3.44772 15 4 15Z" fill="#0F1A26"/>
<path fill-rule="evenodd" clip-rule="evenodd" d="M16 10C16.3952 10 16.7533 10.2327 16.9138 10.5939L20.9138 19.5939C21.1381 20.0985 20.9108 20.6895 20.4061 20.9138C19.9015 21.1381 19.3105 20.9108 19.0862 20.4061L18.239 18.5H13.761L12.9138 20.4061C12.6895 20.9108 12.0986 21.1381 11.5939 20.9138C11.0892 20.6895 10.8619 20.0985 11.0862 19.5939L15.0862 10.5939C15.2467 10.2327 15.6048 10 16 10ZM14.6499 16.5H17.3501L16 13.4622L14.6499 16.5Z" fill="#0F1A26"/>
</svg>
