<svg width="24" height="24" viewBox="0 0 24 24" fill="none" xmlns="http://www.w3.org/2000/svg">
<path d="M14.711 7.63009L17.015 5.32616C17.476 4.86515 18.2234 4.86515 18.6844 5.32616C19.1454 5.78717 19.1454 6.53461 18.6844 6.99561L16.4375 9.24251L8.96592 16.7141L6.99586 18.6842C6.53485 19.1452 5.78741 19.1452 5.3264 18.6842C4.86539 18.2232 4.86539 17.4757 5.3264 17.0147L7.26795 15.0732L14.711 7.63009Z" fill="#0F1A26"/>
<path d="M7.38804 9.05725L8.05166 9.72088C8.51267 10.1819 9.26011 10.1819 9.72112 9.72088C10.1821 9.25987 10.1821 8.51243 9.72112 8.05142L9.05749 7.38779L7.38804 5.71834L6.9849 5.3152C6.52389 4.85419 5.77645 4.85419 5.31544 5.3152C4.85443 5.7762 4.85443 6.52364 5.31544 6.98465L5.71858 7.38779L7.38804 9.05725Z" fill="#0F1A26"/>
<path d="M16.351 18.0202L17.0146 18.6838C17.4756 19.1448 18.223 19.1448 18.684 18.6838C19.145 18.2228 19.145 17.4754 18.684 17.0143L18.0204 16.3507L16.351 14.6813L15.9478 14.2781C15.4868 13.8171 14.7394 13.8171 14.2784 14.2781C13.8174 14.7391 13.8174 15.4866 14.2784 15.9476L14.6815 16.3507L16.351 18.0202Z" fill="#0F1A26"/>
</svg>
