<svg width="24" height="24" viewBox="0 0 24 24" fill="none" xmlns="http://www.w3.org/2000/svg">
<path d="M8 16C7.44772 16 7 16.4477 7 17C7 17.5523 7.44772 18 8 18H16C16.5523 18 17 17.5523 17 17C17 16.4477 16.5523 16 16 16H8Z" fill="#333333"/>
<path fill-rule="evenodd" clip-rule="evenodd" d="M7 3C7 2.44772 7.44772 2 8 2H16C16.5523 2 17 2.44772 17 3V6.5H21C21.2781 6.5 21.5436 6.61577 21.7328 6.81951C21.922 7.02326 22.0178 7.29658 21.9973 7.57387L20.9973 21.0739C20.9586 21.5961 20.5236 22 20 22H4C3.47638 22 3.04142 21.5961 3.00273 21.0739L2.00273 7.57387C1.98219 7.29658 2.07803 7.02326 2.26724 6.81951C2.45645 6.61577 2.72195 6.5 3 6.5H7V3ZM15 9.5V8.5H9V9.5C9 10.0523 8.55228 10.5 8 10.5C7.44772 10.5 7 10.0523 7 9.5V8.5H4.07682L4.92867 20H19.0713L19.9232 8.5H17V9.5C17 10.0523 16.5523 10.5 16 10.5C15.4477 10.5 15 10.0523 15 9.5ZM15 4V6.5H9V4H15Z" fill="#333333"/>
</svg>
