<svg width="24" height="24" viewBox="0 0 24 24" fill="none" xmlns="http://www.w3.org/2000/svg">
<path d="M12.0025 2C11.9026 2 11.8027 2 11.7029 2.00998V2H2V11.7004C2 11.7953 2 11.8952 2 12C2 17.5167 6.47441 22 12.0025 22C17.5306 22 22 17.5217 22 12C22 6.47828 17.5306 2 12.0025 2ZM12.0025 17.332C9.05618 17.332 6.66916 14.9406 6.66916 12C6.66916 9.05941 9.06117 6.66301 12.0025 6.66301C14.9438 6.66301 17.3358 9.05442 17.3358 12C17.3358 14.9456 14.9438 17.332 12.0025 17.332Z" fill="#05080D"/>
</svg>
