<svg width="24" height="24" viewBox="0 0 24 24" fill="none" xmlns="http://www.w3.org/2000/svg">
<path fill-rule="evenodd" clip-rule="evenodd" d="M10.5944 2.73571C7.85591 1.19072 4.38349 2.15821 2.8385 4.89666L2.14501 6.12585C1.8405 6.66558 2.03118 7.34999 2.57092 7.6545L10.0042 11.8482L8.13648 12.9238L2.57092 16.0638C2.03118 16.3683 1.8405 17.0527 2.14501 17.5925L2.8385 18.8216C4.38349 21.5601 7.85591 22.5276 10.5944 20.9826C13.3328 19.4376 14.3003 15.9652 12.7553 13.2267L12.4764 12.7324L22.0184 7.23742C21.4672 6.28022 20.2444 5.95112 19.2872 6.50235L12.9257 10.1658C14.2216 7.48342 13.2253 4.22004 10.5944 2.73571ZM4.31829 17.3743L9.01788 14.7229L9.01844 14.7238L9.12706 14.6613L10.7513 13.7449L11.0134 14.2095C12.0156 15.9859 11.388 18.2385 9.61161 19.2407C7.83518 20.2429 5.58263 19.6153 4.58039 17.8389L4.31829 17.3743ZM4.58039 5.87941C5.58263 4.10298 7.83518 3.47537 9.61161 4.47761C11.388 5.47984 12.0156 7.73239 11.0134 9.50882L10.7513 9.9734L4.31829 6.34399L4.58039 5.87941ZM15.9725 13.2114C15.4976 12.9294 14.8841 13.0857 14.602 13.5605C14.32 14.0354 14.4763 14.6489 14.9511 14.931L19.2496 17.4842C20.1992 18.0483 21.4264 17.7357 21.9905 16.786L15.9725 13.2114Z" fill="black"/>
</svg>
