<svg width="24" height="24" viewBox="0 0 24 24" fill="none" xmlns="http://www.w3.org/2000/svg">
<path fill-rule="evenodd" clip-rule="evenodd" d="M6.83634 4.35621C6.51223 4.47196 6.22495 4.59796 6 4.70575V5V12.5328C6.05357 12.5126 6.10814 12.4926 6.16366 12.4727C7.09504 12.1401 8.45093 11.8089 9.74254 12.1318C10.7609 12.3864 11.5724 12.8709 12.2198 13.2574C12.3183 13.3161 12.4129 13.3726 12.5039 13.4257C13.2202 13.8435 13.7771 14.102 14.5 14.102C15.3603 14.102 16.3793 13.8822 17.2253 13.6404C17.5184 13.5567 17.782 13.4729 18 13.3997V5.49764C17.9269 5.51949 17.8517 5.54149 17.7747 5.56349C16.8707 5.82178 15.6397 6.10197 14.5 6.10197C13.2229 6.10197 12.2798 5.61042 11.4961 5.15325C11.384 5.08784 11.2759 5.02378 11.1706 4.96142L11.1706 4.96142C10.5149 4.57305 9.96992 4.25023 9.25746 4.07211C8.54907 3.89501 7.65496 4.06384 6.83634 4.35621ZM6 14.7058C6.22495 14.598 6.51223 14.472 6.83634 14.3562C7.65496 14.0638 8.54907 13.895 9.25746 14.0721C9.96992 14.2502 10.5149 14.5731 11.1706 14.9614L11.1708 14.9615C11.276 15.0239 11.3841 15.0879 11.4961 15.1533C12.2798 15.6104 13.2229 16.102 14.5 16.102C15.6397 16.102 16.8707 15.8218 17.7747 15.5635C18.2357 15.4318 18.6304 15.3002 18.9109 15.2012C19.0514 15.1516 19.164 15.11 19.2426 15.0802C19.2819 15.0653 19.3128 15.0534 19.3345 15.045L19.3601 15.0349L19.3675 15.032L19.3699 15.031L19.3714 15.0304C19.751 14.8786 20 14.5109 20 14.102V4.10197C20 3.77014 19.8354 3.45993 19.5606 3.2739C19.2859 3.08792 18.9366 3.05036 18.6286 3.17349L18.6255 3.17474L18.6084 3.18142C18.5925 3.18761 18.5677 3.19718 18.5348 3.20965C18.4688 3.2346 18.3704 3.27107 18.2453 3.31523C17.9946 3.40373 17.6393 3.52216 17.2253 3.64044C16.3793 3.88216 15.3603 4.10197 14.5 4.10197C13.7771 4.10197 13.2202 3.84352 12.5039 3.42569C12.413 3.37267 12.3184 3.31624 12.2201 3.25755L12.2199 3.25738C11.5724 2.87088 10.7609 2.38642 9.74254 2.13183C8.45093 1.80892 7.09504 2.14009 6.16366 2.47272C5.67957 2.64561 5.2669 2.83486 4.97466 2.98098C4.82792 3.05435 4.70994 3.11765 4.62669 3.16378C4.58502 3.18686 4.55194 3.20571 4.52819 3.21944L4.49961 3.2361L4.49071 3.24136L4.48764 3.24319L4.4855 3.24448C4.1843 3.4252 4 3.75071 4 4.10197V5V14.102V21C4 21.5523 4.44772 22 5 22C5.55228 22 6 21.5523 6 21V14.7058Z" fill="#05080D"/>
</svg>
