<svg width="24" height="24" viewBox="0 0 24 24" fill="none" xmlns="http://www.w3.org/2000/svg">
<path d="M20 4C21.6569 4 23 5.34315 23 7V17C23 18.6569 21.6569 20 20 20H4C2.34315 20 1 18.6569 1 17V7C1 5.34315 2.34315 4 4 4H20ZM4 6C3.44772 6 3 6.44772 3 7V17C3 17.5523 3.44772 18 4 18H20C20.5523 18 21 17.5523 21 17V7C21 6.44772 20.5523 6 20 6H4ZM5.2168 9.58203L6.38965 12.8418L7.56348 9.58203L7.59277 9.5H8.67578V14.5H7.67969V12.1611L6.86816 14.418L6.83887 14.5H5.89844V14.3789L5.09473 12.1504V14.5H4.09961V9.5H5.18848L5.2168 9.58203ZM11.3516 9.58594L12.8652 14.2627L12.8721 14.2861V14.5H11.8711L11.8438 14.4131L11.5381 13.4385H10.165L9.85938 14.4131L9.83203 14.5H8.84863V14.2861L8.85547 14.2627L10.3701 9.58594L10.3984 9.5H11.3223L11.3516 9.58594ZM14.8477 9.5C15.2745 9.50014 15.6251 9.63996 15.8828 9.93555L15.9736 10.0508C16.1729 10.3306 16.2695 10.6846 16.2695 11.1016L16.2637 11.2754C16.2399 11.6172 16.1445 11.9114 15.9736 12.1514L15.8828 12.2666C15.7786 12.3861 15.6574 12.4784 15.5234 12.5479L16.2568 14.249L16.2695 14.2783V14.5H15.2607L15.2295 14.4258L14.4932 12.7021H14.0107V14.5H13.043V9.5H14.8477ZM17.6064 11.332L18.8984 9.5459L18.9326 9.5H20.0371V9.74023L20.0088 9.77832L18.6211 11.6504L20.0811 14.2363L20.0996 14.2705V14.5H19.0488L19.0146 14.4404L17.9502 12.5566L17.6064 13.0234V14.5H16.6113V9.5H17.6064V11.332ZM10.5205 12.3047H11.1826L10.8506 11.252L10.5205 12.3047ZM14.0107 11.6162H14.7734C14.9517 11.6161 15.0729 11.5642 15.1514 11.4824L15.2031 11.4102C15.2485 11.3313 15.2744 11.2309 15.2744 11.1016C15.2744 10.9292 15.2304 10.8104 15.1533 10.7285L15.1514 10.7275C15.0729 10.6414 14.9521 10.588 14.7734 10.5879H14.0107V11.6162Z" fill="black"/>
</svg>
