<svg width="24" height="24" viewBox="0 0 24 24" fill="none" xmlns="http://www.w3.org/2000/svg">
<path d="M4 6C4 4.89543 4.89543 4 6 4H9C9.55228 4 10 3.55228 10 3C10 2.44772 9.55228 2 9 2H6C3.79086 2 2 3.79086 2 6V18C2 20.2091 3.79086 22 6 22H18C20.2091 22 22 20.2091 22 18V14.5C22 13.9477 21.5523 13.5 21 13.5C20.4477 13.5 20 13.9477 20 14.5V18C20 19.1046 19.1046 20 18 20H6C4.89543 20 4 19.1046 4 18V6Z" fill="#181F26"/>
<path d="M14 2C13.4477 2 13 2.44772 13 3C13 3.55228 13.4477 4 14 4H18.5858L12.1929 10.3929C11.8024 10.7834 11.8024 11.4166 12.1929 11.8071C12.5834 12.1976 13.2166 12.1976 13.6071 11.8071L20 5.4142V10C20 10.5523 20.4477 11 21 11C21.5523 11 22 10.5523 22 10V4C22 2.89543 21.1046 2 20 2H14Z" fill="#181F26"/>
</svg>
