<svg width="24" height="24" viewBox="0 0 24 24" fill="none" xmlns="http://www.w3.org/2000/svg">
<path d="M6.20711 6.29289C5.81658 5.90237 5.18342 5.90237 4.79289 6.29289C4.40237 6.68342 4.40237 7.31658 4.79289 7.70711L11.2929 14.2071C11.6834 14.5976 12.3166 14.5976 12.7071 14.2071L19.2071 7.70711C19.5976 7.31658 19.5976 6.68342 19.2071 6.29289C18.8166 5.90237 18.1834 5.90237 17.7929 6.29289L12 12.0858L6.20711 6.29289Z" fill="#05080D"/>
<path d="M5 17C4.44772 17 4 17.4477 4 18C4 18.5523 4.44772 19 5 19H19C19.5523 19 20 18.5523 20 18C20 17.4477 19.5523 17 19 17H5Z" fill="#05080D"/>
</svg>
