<svg width="24" height="24" viewBox="0 0 24 24" fill="none" xmlns="http://www.w3.org/2000/svg">
<path fill-rule="evenodd" clip-rule="evenodd" d="M4 15.5V13H3C2.44772 13 2 12.5523 2 12C2 11.4477 2.44772 11 3 11H4V8.5H3C2.44772 8.5 2 8.05228 2 7.5C2 6.94772 2.44772 6.5 3 6.5H4.00877C4.02929 5.63476 4.09786 5.0877 4.32698 4.63803C4.6146 4.07354 5.07354 3.6146 5.63803 3.32698C6.27976 3 7.11984 3 8.8 3H16.2C17.8802 3 18.7202 3 19.362 3.32698C19.9265 3.6146 20.3854 4.07354 20.673 4.63803C21 5.27976 21 6.11984 21 7.8V16.2C21 17.8802 21 18.7202 20.673 19.362C20.3854 19.9265 19.9265 20.3854 19.362 20.673C18.7202 21 17.8802 21 16.2 21H8.396C6.98082 20.9979 6.22613 20.9727 5.63803 20.673C5.07354 20.3854 4.6146 19.9265 4.32698 19.362C4.09786 18.9123 4.02929 18.3652 4.00877 17.5H3C2.44772 17.5 2 17.0523 2 16.5C2 15.9477 2.44772 15.5 3 15.5H4ZM16.2 5H10.396V19H16.2C17.0731 19 17.6076 18.9984 18.0075 18.9658C18.1938 18.9505 18.3065 18.9314 18.375 18.9153C18.4076 18.9076 18.4276 18.9012 18.4384 18.8973C18.4457 18.8948 18.45 18.8929 18.4522 18.8919L18.454 18.891C18.6422 18.7951 18.7951 18.6422 18.891 18.454C18.8914 18.4532 18.8936 18.4488 18.8973 18.4384C18.9012 18.4276 18.9076 18.4076 18.9153 18.375C18.9314 18.3065 18.9505 18.1938 18.9658 18.0075C18.9984 17.6076 19 17.0731 19 16.2V7.8C19 6.92692 18.9984 6.39239 18.9658 5.99247C18.9505 5.80617 18.9314 5.69345 18.9153 5.625C18.9076 5.59244 18.9012 5.57241 18.8973 5.56158C18.8936 5.55118 18.8914 5.54681 18.891 5.54601C18.7951 5.35785 18.6422 5.20487 18.454 5.10899C18.4532 5.10858 18.4488 5.10636 18.4384 5.10265C18.4276 5.09879 18.4076 5.09236 18.375 5.08469C18.3065 5.06857 18.1938 5.04945 18.0075 5.03423C17.6076 5.00156 17.0731 5 16.2 5ZM6.99247 5.03423C7.32665 5.00693 7.75483 5.00135 8.396 5.00026V18.9997C7.75483 18.9986 7.32665 18.9931 6.99247 18.9658C6.80617 18.9505 6.69345 18.9314 6.625 18.9153C6.59244 18.9076 6.57241 18.9012 6.56158 18.8973C6.55118 18.8936 6.54681 18.8914 6.54601 18.891C6.35785 18.7951 6.20487 18.6422 6.10899 18.454C6.10858 18.4532 6.10636 18.4488 6.10265 18.4384C6.09879 18.4276 6.09236 18.4076 6.08469 18.375C6.06857 18.3065 6.04945 18.1938 6.03423 18.0075C6.00156 17.6076 6 17.0731 6 16.2V7.8C6 6.92692 6.00156 6.39239 6.03423 5.99247C6.04945 5.80617 6.06857 5.69345 6.08469 5.625C6.09236 5.59244 6.09879 5.57241 6.10265 5.56158C6.10636 5.55118 6.10858 5.54681 6.10899 5.54601C6.20487 5.35785 6.35785 5.20487 6.54601 5.10899C6.54681 5.10858 6.55118 5.10636 6.56158 5.10265C6.57241 5.09879 6.59244 5.09236 6.625 5.08469C6.69345 5.06857 6.80617 5.04945 6.99247 5.03423Z" fill="#05080D"/>
</svg>
