<svg width="24" height="24" viewBox="0 0 24 24" fill="none" xmlns="http://www.w3.org/2000/svg">
<path d="M14 6V10.5858L15.7659 12.3517C15.9174 11.9294 16 11.4744 16 11V6C16 3.79086 14.2091 2 12 2C10.2176 2 8.70755 3.16576 8.19061 4.7764L10 6.58579V6C10 4.89543 10.8954 4 12 4C13.1046 4 14 4.89543 14 6Z" fill="#05080D"/>
<path fill-rule="evenodd" clip-rule="evenodd" d="M8 9.41421L2.29289 3.70711C1.90237 3.31658 1.90237 2.68342 2.29289 2.29289C2.68342 1.90237 3.31658 1.90237 3.70711 2.29289L21.7071 20.2929C22.0976 20.6834 22.0976 21.3166 21.7071 21.7071C21.3166 22.0976 20.6834 22.0976 20.2929 21.7071L15.594 17.0082C14.8149 17.4752 13.9374 17.795 13 17.9291V20H15C15.5523 20 16 20.4477 16 21C16 21.5523 15.5523 22 15 22H9C8.44772 22 8 21.5523 8 21C8 20.4477 8.44772 20 9 20H11V17.9291C7.6077 17.4439 5 14.5265 5 11C5 10.4477 5.44772 10 6 10C6.55228 10 7 10.4477 7 11C7 13.7614 9.23856 16 12 16C12.7566 16 13.474 15.8319 14.1169 15.5311L13.3517 14.7659C12.9294 14.9174 12.4744 15 12 15C9.79086 15 8 13.2091 8 11V9.41421ZM11.5303 12.9445C10.803 12.7695 10.2305 12.197 10.0555 11.4697L11.5303 12.9445Z" fill="#05080D"/>
<path d="M16.5311 13.1169L18.0082 14.594C18.638 13.5434 19 12.314 19 11C19 10.4477 18.5523 10 18 10C17.4477 10 17 10.4477 17 11C17 11.7566 16.8319 12.474 16.5311 13.1169Z" fill="#05080D"/>
</svg>
