<svg width="24" height="24" viewBox="0 0 24 24" fill="none" xmlns="http://www.w3.org/2000/svg">
<path d="M5 21.7979C5 21.9091 4.90908 21.9996 4.79821 21.9913C3.36228 21.8844 2.17471 20.7861 1.97826 19.3338C1.97225 19.2894 1.96924 19.2446 1.96924 19.1998V12.8998C1.96924 12.8549 1.97225 12.8101 1.97826 12.7657C2.16663 11.3732 3.30935 10.1279 4.79789 10.0088C4.90883 9.99988 5 10.0905 5 10.2018V21.7979Z" fill="#05080D"/>
<path d="M7.00001 21.5305C7.00001 21.7897 7.21009 21.9998 7.46924 21.9998L7.47718 21.9997H17.9223C19.3155 22.0124 20.5065 20.9986 20.7159 19.6206L21.958 11.5198C22.0813 10.7076 21.8417 9.88223 21.3026 9.26231C20.765 8.64404 19.9835 8.2923 19.1643 8.29976H14.7693V5.69975C14.7693 3.65627 13.1128 1.99976 11.0693 1.99976C10.6741 1.99976 10.316 2.23249 10.1555 2.59362L7.17239 9.30567C7.05874 9.56139 7.00001 9.83811 7.00001 10.1179V21.5305Z" fill="#05080D"/>
</svg>
