<svg width="24" height="24" viewBox="0 0 24 24" fill="none" xmlns="http://www.w3.org/2000/svg">
<g clip-path="url(#clip0_3523_38)">
<path d="M17.364 14.1213C17.364 14.6736 17.8117 15.1213 18.364 15.1213C18.9163 15.1213 19.364 14.6736 19.364 14.1213L19.364 5.63602C19.364 5.35988 19.2521 5.10988 19.0711 4.92891C18.9753 4.83304 18.8647 4.7607 18.7468 4.7119C18.6289 4.66301 18.4996 4.63602 18.364 4.63602L9.87875 4.63601C9.32647 4.63601 8.87875 5.08372 8.87875 5.63601C8.87875 6.18829 9.32646 6.63601 9.87875 6.63601L15.9498 6.63602L4.92899 17.6568C4.53847 18.0474 4.53847 18.6805 4.92899 19.071C5.31952 19.4616 5.95268 19.4616 6.34321 19.071L17.364 8.05023L17.364 14.1213Z" fill="#05080D"/>
</g>
<defs>
<clipPath id="clip0_3523_38">
<rect width="24" height="24" fill="white"/>
</clipPath>
</defs>
</svg>
