<svg width="24" height="24" viewBox="0 0 24 24" fill="none" xmlns="http://www.w3.org/2000/svg">
<path fill-rule="evenodd" clip-rule="evenodd" d="M1.97826 19.3338C2.18717 20.8782 3.51691 22.0225 5.07423 21.9998H7.46924C7.47189 21.9998 7.47453 21.9998 7.47718 21.9997H17.9223C19.3155 22.0124 20.5065 20.9986 20.7159 19.6206L21.958 11.5198C22.0813 10.7076 21.8417 9.88223 21.3026 9.26231C20.765 8.64404 19.9835 8.2923 19.1643 8.29976H14.7693V5.69975C14.7693 3.65627 13.1128 1.99976 11.0693 1.99976C10.6741 1.99976 10.316 2.23249 10.1555 2.59362L6.86391 9.99976H5.07418C3.4524 9.9764 2.17813 11.2882 1.97826 12.7657C1.97225 12.8101 1.96924 12.8549 1.96924 12.8998V19.1998C1.96924 19.2446 1.97225 19.2894 1.97826 19.3338ZM5.04856 19.9999C4.52029 20.0093 4.06606 19.6354 3.96924 19.1215V12.9771C4.0754 12.3977 4.58137 11.9913 5.04855 11.9996L5.06624 11.9998H6.46924V19.9998H5.06624L5.04856 19.9999ZM18.7387 19.3198C18.6788 19.7142 18.3376 20.0043 17.9386 19.9998L17.9273 19.9997H8.46933V11.312L11.6706 4.10913C12.3128 4.35198 12.7693 4.97253 12.7693 5.69975V9.29976C12.7693 9.85204 13.2171 10.2998 13.7693 10.2998H19.1693L19.1807 10.2997C19.4154 10.297 19.6394 10.3976 19.7934 10.5747C19.9473 10.7516 20.0158 10.9872 19.9808 11.2191L18.7387 19.3198Z" fill="#05080D"/>
</svg>
