<svg width="24" height="24" viewBox="0 0 24 24" fill="none" xmlns="http://www.w3.org/2000/svg">
<path fill-rule="evenodd" clip-rule="evenodd" d="M12 2C6.47715 2 2 6.47715 2 12C2 17.5228 6.47715 22 12 22C17.5228 22 22 17.5228 22 12C22 6.47715 17.5228 2 12 2ZM10.75 16.25C10.75 15.5596 11.3096 15 12 15C12.6904 15 13.25 15.5596 13.25 16.25C13.25 16.9404 12.6904 17.5 12 17.5C11.3096 17.5 10.75 16.9404 10.75 16.25ZM12 13.9985C11.4477 13.9985 11 13.5508 11 12.9985L11 6.4999C11 5.94762 11.4477 5.4999 12 5.4999C12.5523 5.4999 13 5.94762 13 6.4999L13 12.9985C13 13.5508 12.5523 13.9985 12 13.9985Z" fill="#181F26"/>
</svg>
