<svg width="24" height="24" viewBox="0 0 24 24" fill="none" xmlns="http://www.w3.org/2000/svg">
<path fill-rule="evenodd" clip-rule="evenodd" d="M15.6667 2C15.1144 2 14.6667 2.44772 14.6667 3C14.6667 3.55228 15.1144 4 15.6667 4C16.5838 4 17.327 4.73924 17.3333 5.65484V5.66667V12H16.3333C15.781 12 15.3333 12.4477 15.3333 13C15.3333 13.5523 15.781 14 16.3333 14H17.3333V18.3333V18.3451C17.327 19.2607 16.5838 19.9999 15.6667 19.9999C15.1144 19.9999 14.6667 20.4476 14.6667 20.9999C14.6667 21.5522 15.1144 21.9999 15.6667 21.9999C16.7176 21.9999 17.6649 21.5583 18.3333 20.8503C19.0018 21.5582 19.9491 21.9999 21 21.9999C21.5523 21.9999 22 21.5522 22 20.9999C22 20.4476 21.5523 19.9999 21 19.9999C20.0818 19.9999 19.338 19.2589 19.3333 18.3418L19.3334 18.3333L19.3333 18.324V14H20.3333C20.8856 14 21.3333 13.5523 21.3333 13C21.3333 12.4477 20.8856 12 20.3333 12H19.3333V5.67592L19.3334 5.66667L19.3333 5.65807C19.338 4.74099 20.0818 4 21 4C21.5523 4 22 3.55228 22 3C22 2.44772 21.5523 2 21 2C19.9491 2 19.0018 2.44167 18.3333 3.14958C17.6649 2.44167 16.7176 2 15.6667 2ZM7.94003 4C7.5273 4 7.15697 4.25356 7.00771 4.63836L2.09438 17.305C1.89465 17.8199 2.15015 18.3993 2.66506 18.599C3.17996 18.7987 3.75929 18.5432 3.95901 18.0283L5.00441 15.3333H11.689L12.7344 18.0283C12.9341 18.5432 13.5134 18.7987 14.0283 18.599C14.5432 18.3993 14.7987 17.8199 14.599 17.305L9.68568 4.63836C9.53642 4.25356 9.16609 4 8.75336 4H7.94003ZM10.9132 13.3333L8.3467 6.71678L5.7802 13.3333H10.9132Z" fill="#212121"/>
</svg>
