<svg width="24" height="24" viewBox="0 0 24 24" fill="none" xmlns="http://www.w3.org/2000/svg">
<path fill-rule="evenodd" clip-rule="evenodd" d="M12.0001 4C11.4478 4 11.0001 3.55228 11.0001 3V1C11.0001 0.447715 11.4478 0 12.0001 0C12.5523 0 13.0001 0.447715 13.0001 1V3C13.0001 3.55228 12.5523 4 12.0001 4ZM19.0001 14V18H5.00006V14C5.00006 10.134 8.13407 7 12.0001 7C15.866 7 19.0001 10.134 19.0001 14ZM3.00006 14C3.00006 9.02944 7.0295 5 12.0001 5C16.9706 5 21.0001 9.02944 21.0001 14V19.1176C21.0001 19.605 20.605 20 20.1177 20H3.88241C3.3951 20 3.00006 19.605 3.00006 19.1176V14ZM9.00006 14C9.00006 12.7394 9.41063 12.0237 9.86023 11.6149C10.3335 11.1847 10.9549 11 11.5001 11C12.0523 11 12.5001 10.5523 12.5001 10C12.5001 9.44771 12.0523 9 11.5001 9C10.5452 9 9.41658 9.31534 8.51489 10.1351C7.58949 10.9763 7.00006 12.2606 7.00006 14C7.00006 14.5523 7.44777 15 8.00006 15C8.55234 15 9.00006 14.5523 9.00006 14ZM4.12129 5.79289C4.51182 6.18342 5.14498 6.18342 5.5355 5.79289C5.92603 5.40237 5.92603 4.7692 5.5355 4.37868L4.12129 2.96447C3.73077 2.57394 3.0976 2.57394 2.70708 2.96447C2.31655 3.35499 2.31655 3.98816 2.70708 4.37868L4.12129 5.79289ZM18.4141 5.79289C18.8047 6.18342 19.4378 6.18342 19.8284 5.79289L21.2426 4.37868C21.6331 3.98816 21.6331 3.35499 21.2426 2.96447C20.852 2.57394 20.2189 2.57394 19.8284 2.96447L18.4141 4.37868C18.0236 4.7692 18.0236 5.40237 18.4141 5.79289ZM4.00006 21C3.44777 21 3.00006 21.4477 3.00006 22C3.00006 22.5523 3.44777 23 4.00006 23L20.0001 23C20.5523 23 21.0001 22.5523 21.0001 22C21.0001 21.4477 20.5523 21 20.0001 21L4.00006 21Z" fill="black"/>
</svg>
