<svg width="24" height="24" viewBox="0 0 24 24" fill="none" xmlns="http://www.w3.org/2000/svg">
<path fill-rule="evenodd" clip-rule="evenodd" d="M5 3C4.44772 3 4 3.44772 4 4V20C4 20.5523 4.44772 21 5 21H19C19.5523 21 20 20.5523 20 20V10.0002H16C14.3431 10.0002 13 8.65701 13 7.00015V3.00015V3H5ZM15 4.41421L18.5859 8.00015H16C15.4477 8.00015 15 7.55244 15 7.00015V4.41421ZM2 4C2 2.34315 3.34315 1 5 1H13.1716C13.9672 1 14.7303 1.31607 15.2929 1.87868L21.1213 7.70711C21.6839 8.26972 22 9.03278 22 9.82843V20C22 21.6569 20.6569 23 19 23H5C3.34315 23 2 21.6569 2 20V4ZM8 11C6.89543 11 6 11.8954 6 13V17C6 18.1046 6.89543 19 8 19H16C17.1046 19 18 18.1046 18 17V13C18 11.8954 17.1046 11 16 11H8ZM8 13H10V14H8V13ZM8 16V17H10V16H8ZM12 16V17H16V16H12ZM16 14V13H12V14H16Z" fill="#05080D"/>
</svg>
