<svg width="24" height="24" viewBox="0 0 24 24" fill="none" xmlns="http://www.w3.org/2000/svg">
<path fill-rule="evenodd" clip-rule="evenodd" d="M6 2C3.79086 2 2 3.79086 2 6V18C2 20.2091 3.79086 22 6 22H18C20.2091 22 22 20.2091 22 18V12.75C22 12.1977 21.5523 11.75 21 11.75C20.4477 11.75 20 12.1977 20 12.75V18C20 19.1046 19.1046 20 18 20H6C4.89543 20 4 19.1046 4 18V6C4 4.89543 4.89543 4 6 4H11.25C11.8023 4 12.25 3.55228 12.25 3C12.25 2.44772 11.8023 2 11.25 2H6ZM18.123 4.02561C18.1635 4.0087 18.2071 4 18.251 4C18.295 4 18.3385 4.0087 18.3791 4.02561C18.4197 4.04252 18.4565 4.06729 18.4874 4.09851L19.9033 5.51439L19.9062 5.51728C19.9374 5.54823 19.9622 5.58506 19.9791 5.62564C19.996 5.66622 20.0047 5.70975 20.0047 5.75371C20.0047 5.79766 19.996 5.84119 19.9791 5.88177C19.9622 5.92235 19.9374 5.95918 19.9062 5.99013L19.9021 5.99426L12.5125 13.4097L10.2166 13.823L10.6009 11.4863L18.0105 4.10265L18.0146 4.0985C18.0455 4.06729 18.0824 4.04252 18.123 4.02561ZM18.251 2C17.943 2 17.6381 2.06098 17.3538 2.17942C17.0705 2.29744 16.8133 2.47017 16.597 2.68772L8.96064 10.2974C8.81207 10.4454 8.71381 10.6365 8.67977 10.8434L8.01327 14.8957C7.96055 15.2163 8.06682 15.5425 8.29826 15.7705C8.52969 15.9984 8.85744 16.0998 9.17717 16.0422L13.1762 15.3224C13.3775 15.2862 13.5629 15.189 13.7073 15.0441L21.3171 7.4077C21.5346 7.19132 21.7073 6.93416 21.8253 6.65092C21.9437 6.36663 22.0047 6.06169 22.0047 5.75371C22.0047 5.44572 21.9437 5.14079 21.8253 4.85649C21.7072 4.57297 21.5342 4.31558 21.3164 4.09906L21.3146 4.09728L19.9074 2.6901L19.9058 2.68846C19.6893 2.47056 19.4318 2.29757 19.1482 2.17942C18.8639 2.06098 18.559 2 18.251 2Z" fill="#05080D"/>
</svg>
