<svg width="24" height="24" viewBox="0 0 24 24" fill="none" xmlns="http://www.w3.org/2000/svg">
<path fill-rule="evenodd" clip-rule="evenodd" d="M21.9961 2.91191C21.9763 2.68609 21.8799 2.46573 21.7071 2.29289C21.4245 2.01026 21.0148 1.93218 20.6619 2.05864L2.68378 8.05134C2.30008 8.17925 2.0312 8.52569 2.00253 8.92914C1.97386 9.33258 2.19104 9.71357 2.5528 9.89445L10.2547 13.7454L14.1056 21.4472C14.2865 21.809 14.6675 22.0262 15.0709 21.9975C15.4743 21.9688 15.8208 21.7 15.9487 21.3163L21.9422 3.33585C21.9907 3.19943 22.0087 3.05458 21.9961 2.91191ZM17.2975 5.28829L5.60656 9.18527L10.8025 11.7833L17.2975 5.28829ZM12.2168 13.1975L18.7118 6.70243L14.8148 18.3935L12.2168 13.1975Z" fill="#05080D"/>
</svg>
