<svg width="24" height="24" viewBox="0 0 24 24" fill="none" xmlns="http://www.w3.org/2000/svg">
<path d="M4.80551 2.47603C5.04037 1.84132 5.93809 1.84132 6.17296 2.47603L6.84968 4.30487C6.92353 4.50442 7.08086 4.66175 7.28041 4.73559L9.10924 5.41232C9.74395 5.64718 9.74395 6.5449 9.10924 6.77977L7.28041 7.4565C7.08086 7.53034 6.92353 7.68767 6.84968 7.88722L6.17296 9.71605C5.93809 10.3508 5.04037 10.3508 4.80551 9.71605L4.12878 7.88722C4.05494 7.68767 3.8976 7.53034 3.69805 7.4565L1.86922 6.77977C1.23451 6.5449 1.23451 5.64718 1.86922 5.41232L3.69805 4.73559C3.8976 4.66175 4.05494 4.50442 4.12878 4.30487L4.80551 2.47603Z" fill="#181F26"/>
<path d="M13.7463 6.58308C14.0399 5.7897 15.162 5.7897 15.4556 6.58308L17.0809 10.9755C17.1732 11.2249 17.3699 11.4216 17.6193 11.5139L22.0117 13.1392C22.8051 13.4328 22.8051 14.5549 22.0117 14.8485L17.6193 16.4738C17.3699 16.5661 17.1732 16.7628 17.0809 17.0122L15.4556 21.4046C15.162 22.198 14.0399 22.198 13.7463 21.4046L12.121 17.0122C12.0287 16.7628 11.832 16.5661 11.5826 16.4738L7.19018 14.8485C6.39679 14.5549 6.3968 13.4328 7.19018 13.1392L11.5826 11.5139C11.832 11.4216 12.0287 11.2249 12.121 10.9755L13.7463 6.58308Z" fill="#181F26"/>
</svg>
