<svg width="24" height="24" viewBox="0 0 24 24" fill="none" xmlns="http://www.w3.org/2000/svg">
<path fill-rule="evenodd" clip-rule="evenodd" d="M3 2.5C2.44772 2.5 2 2.94772 2 3.5V18.4143C2 18.9666 2.44772 19.4143 3 19.4143H9.1579C9.90357 19.4143 10.3825 19.5133 10.6533 19.6757C10.8228 19.7774 11 19.9455 11 20.5C11 21.0523 11.4477 21.5 12 21.5C12.5523 21.5 13 21.0523 13 20.5C13 19.9455 13.1772 19.7774 13.3467 19.6757C13.6175 19.5133 14.0964 19.4143 14.8421 19.4143H21C21.5523 19.4143 22 18.9666 22 18.4143V3.5C22 2.94772 21.5523 2.5 21 2.5H15.7895C14.2175 2.5 12.8634 3.29055 12 4.4876C11.1366 3.29055 9.78246 2.5 8.21053 2.5H3ZM11 7.61429C11 5.81529 9.67529 4.5 8.21053 4.5H4V17.4143H9.1579C9.74836 17.4143 10.3995 17.4614 11 17.6553V7.61429ZM13 17.6553C13.6005 17.4614 14.2516 17.4143 14.8421 17.4143H20V4.5H15.7895C14.3247 4.5 13 5.81529 13 7.61429V17.6553Z" fill="#05080D"/>
</svg>
