<svg width="24" height="24" viewBox="0 0 24 24" fill="none" xmlns="http://www.w3.org/2000/svg">
<path d="M13.7466 6.58276C14.0403 5.78981 15.1618 5.78979 15.4556 6.58276L17.0806 10.9754C17.1729 11.2248 17.3702 11.4212 17.6196 11.5135L22.0122 13.1395C22.805 13.4333 22.805 14.5547 22.0122 14.8485L17.6196 16.4735C17.3702 16.5658 17.1729 16.7631 17.0806 17.0126L15.4556 21.4052L15.3911 21.5439C15.0493 22.1516 14.1528 22.1516 13.811 21.5439L13.7466 21.4052L12.1206 17.0126C12.0283 16.7631 11.8319 16.5658 11.5825 16.4735L7.18993 14.8485C6.39697 14.5548 6.39699 13.4332 7.18993 13.1395L11.5825 11.5135C11.8319 11.4212 12.0283 11.2248 12.1206 10.9754L13.7466 6.58276ZM13.5278 11.4959C13.2836 12.1559 12.763 12.6765 12.103 12.9207L9.20165 13.994L12.103 15.0672C12.6804 15.2809 13.1511 15.7059 13.4233 16.2509L13.5278 16.4921L14.6011 19.3925L15.6743 16.4921L15.7788 16.2509C16.0511 15.7059 16.5217 15.2809 17.0991 15.0672L19.9995 13.994L17.0991 12.9207C16.4391 12.6765 15.9185 12.1559 15.6743 11.4959L14.6011 8.5945L13.5278 11.4959Z" fill="black"/>
<path d="M4.80552 2.47561C5.04051 1.84139 5.9376 1.84154 6.17275 2.47561L6.84952 4.30476C6.92337 4.50432 7.08162 4.66159 7.28118 4.73544L9.10935 5.41221C9.74408 5.64708 9.74408 6.54457 9.10935 6.77944L7.28118 7.45621C7.08162 7.53006 6.92337 7.68831 6.84952 7.88787L6.17275 9.71604C5.93788 10.3508 5.0404 10.3508 4.80552 9.71604L4.12875 7.88787C4.05491 7.68831 3.89763 7.53006 3.69807 7.45621L1.86892 6.77944C1.23485 6.5443 1.2347 5.6472 1.86892 5.41221L3.69807 4.73544C3.89763 4.66159 4.05491 4.50432 4.12875 4.30476L4.80552 2.47561ZM5.06725 4.65243C4.89211 5.1255 4.5188 5.4988 4.04574 5.67394L2.9041 6.09583L4.04574 6.51869C4.45957 6.67193 4.79686 6.97674 4.99205 7.36734L5.06725 7.5402L5.48914 8.68086L5.912 7.5402C6.08713 7.067 6.46031 6.69382 6.93351 6.51869L8.07417 6.09583L6.93351 5.67394C6.46035 5.49885 6.08718 5.12554 5.912 4.65243L5.48914 3.51079L5.06725 4.65243Z" fill="black"/>
</svg>
