<svg width="24" height="24" viewBox="0 0 24 24" fill="none" xmlns="http://www.w3.org/2000/svg">
<path fill-rule="evenodd" clip-rule="evenodd" d="M2.25 12C2.25 6.61522 6.61522 2.25 12 2.25C17.3848 2.25 21.75 6.61522 21.75 12C21.75 17.3848 17.3848 21.75 12 21.75C6.61522 21.75 2.25 17.3848 2.25 12ZM12 3.75C7.44365 3.75 3.75 7.44365 3.75 12C3.75 16.5564 7.44365 20.25 12 20.25C16.5564 20.25 20.25 16.5564 20.25 12C20.25 7.44365 16.5564 3.75 12 3.75ZM15.3588 8.6413C15.6517 8.93419 15.6517 9.40907 15.3588 9.70196L13.0607 12.0001L15.3588 14.2982C15.6517 14.591 15.6517 15.0659 15.3588 15.3588C15.0659 15.6517 14.591 15.6517 14.2982 15.3588L12.0001 13.0607L9.70196 15.3588C9.40907 15.6517 8.93419 15.6517 8.6413 15.3588C8.34841 15.0659 8.34841 14.591 8.6413 14.2982L10.9394 12.0001L8.6413 9.70196C8.34841 9.40907 8.34841 8.93419 8.6413 8.6413C8.93419 8.34841 9.40907 8.34841 9.70196 8.6413L12.0001 10.9394L14.2982 8.6413C14.591 8.34841 15.0659 8.34841 15.3588 8.6413Z" fill="#181F26"/>
</svg>
