<svg width="24" height="24" viewBox="0 0 24 24" fill="none" xmlns="http://www.w3.org/2000/svg">
<path d="M12 2C15.0376 2 17.5 4.46243 17.5 7.5V9.03125C19.4731 9.27732 21 10.9602 21 13V18C20.9999 20.2091 19.2091 22 17 22H7C4.7909 22 3.00007 20.2091 3 18V13C3 10.9602 4.52687 9.27732 6.5 9.03125V7.5C6.5 4.46243 8.96243 2 12 2ZM12 13C11.4478 13 11.0001 13.4478 11 14V17C11 17.5523 11.4477 18 12 18C12.5522 17.9999 13 17.5522 13 17V14C12.9999 13.4478 12.5522 13.0001 12 13ZM12 4C10.067 4 8.5 5.567 8.5 7.5V9H15.5V7.5C15.5 5.567 13.933 4 12 4Z" fill="#05080D"/>
</svg>
