<svg width="24" height="24" viewBox="0 0 24 24" fill="none" xmlns="http://www.w3.org/2000/svg">
<path d="M12 2C9.23883 2 6.73745 3.12038 4.92894 4.92894C4.67674 5.18113 4.34349 5.53422 4 5.90547V4.5C4 3.94772 3.55228 3.5 3 3.5C2.44772 3.5 2 3.94772 2 4.5L2 8.49965C2 8.64574 2.03133 8.78487 2.08763 8.90998C2.14266 9.03262 2.22341 9.14605 2.3294 9.24183C2.35314 9.26331 2.37793 9.28366 2.40366 9.30281C2.45622 9.34194 2.51161 9.37518 2.56896 9.40259C2.69948 9.46503 2.84566 9.5 3 9.5H7C7.55228 9.5 8 9.05228 8 8.5C8 7.94772 7.55228 7.5 7 7.5H5.25029C5.66004 7.05385 6.06385 6.62245 6.34316 6.34315C7.79193 4.89434 9.79055 4 12 4C16.4183 4 20 7.58173 20 12C20 16.4183 16.4183 20 12 20C9.79055 20 7.79193 19.1057 6.34316 17.6569C5.95264 17.2663 5.31947 17.2663 4.92894 17.6568C4.53841 18.0474 4.5384 18.6805 4.92892 19.071C6.73745 20.8796 9.23883 22 12 22C17.5228 22 22 17.5228 22 12C22 6.47717 17.5228 2 12 2Z" fill="#05080D"/>
</svg>
