<svg width="24" height="24" viewBox="0 0 24 24" fill="none" xmlns="http://www.w3.org/2000/svg">
<path d="M15 4C14.4477 4 14 4.44772 14 5C14 5.55228 14.4477 6 15 6H19C19.5523 6 20 6.44772 20 7V12C20 12.5523 19.5523 13 19 13H5.41421L8.70711 9.70711C9.09763 9.31658 9.09763 8.68342 8.70711 8.29289C8.31658 7.90237 7.68342 7.90237 7.29289 8.29289L2.29289 13.2929C2.29001 13.2958 2.28715 13.2987 2.28431 13.3016C2.1084 13.4818 2 13.7282 2 14C2 14.2764 2.11215 14.5266 2.29342 14.7076L7.29289 19.7071C7.68342 20.0976 8.31658 20.0976 8.70711 19.7071C9.09763 19.3166 9.09763 18.6834 8.70711 18.2929L5.41421 15H19C20.6569 15 22 13.6569 22 12V7C22 5.34315 20.6569 4 19 4H15Z" fill="#181F26"/>
</svg>
