<svg width="24" height="24" viewBox="0 0 24 24" fill="none" xmlns="http://www.w3.org/2000/svg">
<path fill-rule="evenodd" clip-rule="evenodd" d="M4.29185 16.8364C3.92545 17.1723 3.90069 17.7416 4.23657 18.108C4.57244 18.4744 5.14175 18.4992 5.50816 18.1633L11.5082 12.6633C11.6941 12.4928 11.8 12.2521 11.8 11.9999C11.8 11.7476 11.6941 11.5069 11.5082 11.3364L5.50816 5.83642C5.14175 5.50055 4.57244 5.5253 4.23657 5.89171C3.90069 6.25811 3.92545 6.82742 4.29185 7.1633L9.5681 11.9999L4.29185 16.8364ZM12.4918 16.8364C12.1254 17.1723 12.1007 17.7416 12.4366 18.108C12.7724 18.4744 13.3417 18.4992 13.7082 18.1633L19.7082 12.6633C19.8941 12.4928 20 12.2521 20 11.9999C20 11.7476 19.8941 11.5069 19.7082 11.3364L13.7082 5.83642C13.3417 5.50055 12.7724 5.5253 12.4366 5.89171C12.1007 6.25811 12.1254 6.82742 12.4919 7.1633L17.7681 11.9999L12.4918 16.8364Z" fill="#181F26"/>
</svg>
