<svg width="24" height="24" viewBox="0 0 24 24" fill="none" xmlns="http://www.w3.org/2000/svg">
<path d="M21.8877 12.3603C21.5235 11.9989 20.9356 11.9989 20.5714 12.3603L13.5366 19.3922L13.4649 19.4611C11.1419 21.7095 7.39363 21.6779 5.10795 19.3922C3.98089 18.268 3.36143 16.771 3.36143 15.1794C3.36143 13.5877 3.98089 12.0936 5.10795 10.9665L12.1457 3.93453L12.1887 3.89151C13.6169 2.50921 15.9197 2.52928 17.325 3.93453C18.0161 4.62568 18.3976 5.54626 18.3976 6.5242C18.3976 7.50213 18.0161 8.42271 17.325 9.11387L10.2873 16.1458L10.2701 16.163C9.73666 16.6793 8.87917 16.6707 8.35436 16.1458C8.09625 15.8877 7.95286 15.5436 7.95286 15.1794C7.95286 14.8152 8.09625 14.471 8.35436 14.2129L15.3921 7.17807L15.4035 7.1666C15.7534 6.80525 15.7505 6.2202 15.3921 5.86172C15.0278 5.50037 14.4399 5.50037 14.0757 5.86172L7.03801 12.8994L7.00073 12.9367C6.40995 13.5504 6.08876 14.3563 6.09449 15.2052C6.10023 16.0569 6.43576 16.8599 7.04088 17.4622C8.29987 18.7212 10.3475 18.7212 11.6036 17.4622L18.6413 10.4273L18.7044 10.3614C19.7168 9.31462 20.2703 7.93805 20.2588 6.47831C20.2473 5.01858 19.6738 3.64774 18.6413 2.61532C16.4876 0.461561 12.9831 0.461561 10.8293 2.61532L3.79161 9.65302L3.69984 9.74479C2.26591 11.2275 1.48585 13.1776 1.50019 15.2425C1.51453 17.3073 2.329 19.2489 3.79161 20.7115C5.26855 22.1884 7.23303 23 9.32082 23C11.4086 23 13.3731 22.1855 14.85 20.7115L21.8877 13.6766L21.8992 13.6651C22.252 13.3009 22.2462 12.7159 21.8877 12.3603Z" fill="black"/>
</svg>
