<svg width="24" height="24" viewBox="0 0 24 24" fill="none" xmlns="http://www.w3.org/2000/svg">
<path d="M6.34301 11.9999C4.78091 13.562 4.78091 16.0947 6.34301 17.6568C7.90511 19.2189 10.4378 19.2189 11.9999 17.6568L12.707 16.9497C13.0975 16.5592 13.7307 16.5592 14.1212 16.9497C14.5117 17.3402 14.5117 17.9734 14.1212 18.3639L13.4141 19.071C11.0709 21.4142 7.27194 21.4142 4.9288 19.071C2.58565 16.7279 2.58565 12.9289 4.9288 10.5857L5.6359 9.87862C6.02643 9.4881 6.65959 9.4881 7.05012 9.87862C7.44064 10.2691 7.44064 10.9023 7.05012 11.2928L6.34301 11.9999Z" fill="#181F26"/>
<path d="M11.9999 6.34309C13.562 4.78099 16.0946 4.78099 17.6567 6.34309C19.2188 7.90518 19.2188 10.4378 17.6567 11.9999L16.9496 12.707C16.5591 13.0976 16.5591 13.7307 16.9496 14.1213C17.3401 14.5118 17.9733 14.5118 18.3638 14.1213L19.0709 13.4142C21.4141 11.071 21.4141 7.27202 19.0709 4.92887C16.7278 2.58573 12.9288 2.58573 10.5857 4.92887L9.87855 5.63598C9.48802 6.02651 9.48802 6.65967 9.87855 7.05019C10.2691 7.44072 10.9022 7.44072 11.2928 7.05019L11.9999 6.34309Z" fill="#181F26"/>
<path d="M8.46433 14.1213C8.07381 14.5118 8.07381 15.145 8.46433 15.5355C8.85486 15.926 9.48802 15.926 9.87855 15.5355L15.5354 9.87862C15.9259 9.4881 15.9259 8.85493 15.5354 8.46441C15.1449 8.07388 14.5117 8.07388 14.1212 8.46441L8.46433 14.1213Z" fill="#181F26"/>
</svg>
