<svg width="24" height="24" viewBox="0 0 24 24" fill="none" xmlns="http://www.w3.org/2000/svg">
<path d="M10.9571 13.5429C11.3476 13.9334 11.3476 14.5666 10.9571 14.9571C10.5666 15.3476 9.93341 15.3476 9.54289 14.9571L7.29289 12.7071C6.90237 12.3166 6.90237 11.6834 7.29289 11.2929L9.54289 9.04289C9.93341 8.65237 10.5666 8.65237 10.9571 9.04289C11.3476 9.43342 11.3476 10.0666 10.9571 10.4571L9.41421 12L10.9571 13.5429Z" fill="#181F26"/>
<path fill-rule="evenodd" clip-rule="evenodd" d="M6 22C3.79086 22 2 20.2091 2 18V6C2 3.79086 3.79086 2 6 2H18C20.2091 2 22 3.79086 22 6V18C22 20.2091 20.2091 22 18 22H6ZM6 4L15 4L15 20H6C4.89543 20 4 19.1046 4 18L4 6C4 4.89543 4.89543 4 6 4ZM17 4L17 20H18C19.1046 20 20 19.1046 20 18V6C20 4.89543 19.1046 4 18 4H17Z" fill="#181F26"/>
</svg>
