<svg width="24" height="24" viewBox="0 0 24 24" fill="none" xmlns="http://www.w3.org/2000/svg">
<path d="M4.80563 2.47603C5.04049 1.84132 5.93821 1.84132 6.17308 2.47603L6.84981 4.30487C6.92365 4.50442 7.08098 4.66175 7.28053 4.73559L9.10936 5.41232C9.74407 5.64718 9.74407 6.5449 9.10936 6.77977L7.28053 7.4565C7.08098 7.53034 6.92365 7.68767 6.84981 7.88722L6.17308 9.71605C5.93822 10.3508 5.04049 10.3508 4.80563 9.71605L4.1289 7.88722C4.05506 7.68767 3.89773 7.53034 3.69818 7.4565L1.86934 6.77977C1.23463 6.5449 1.23463 5.64718 1.86934 5.41232L3.69818 4.73559C3.89773 4.66175 4.05506 4.50442 4.1289 4.30487L4.80563 2.47603Z" fill="#05080D"/>
<path d="M13.7464 6.58308C14.04 5.7897 15.1621 5.7897 15.4557 6.58308L17.0811 10.9755C17.1734 11.2249 17.37 11.4216 17.6195 11.5139L22.0118 13.1392C22.8052 13.4328 22.8052 14.5549 22.0118 14.8485L17.6195 16.4738C17.37 16.5661 17.1734 16.7628 17.0811 17.0122L15.4557 21.4046C15.1621 22.198 14.04 22.198 13.7464 21.4046L12.1211 17.0122C12.0288 16.7628 11.8321 16.5661 11.5827 16.4738L7.1903 14.8485C6.39691 14.5549 6.39692 13.4328 7.1903 13.1392L11.5827 11.5139C11.8321 11.4216 12.0288 11.2249 12.1211 10.9755L13.7464 6.58308Z" fill="#05080D"/>
</svg>
