<svg width="24" height="24" viewBox="0 0 24 24" fill="none" xmlns="http://www.w3.org/2000/svg">
<path d="M11.1016 1.37996C11.5019 0.873259 12.2705 0.873434 12.671 1.37996L14.6651 3.90437C14.8804 4.17689 15.2216 4.31794 15.5665 4.27742L18.7608 3.90242C19.4024 3.82713 19.9456 4.37122 19.8702 5.01277L19.4952 8.20711C19.4548 8.55189 19.5959 8.89326 19.8682 9.10848L22.3927 11.1016C22.8996 11.502 22.8996 12.2706 22.3927 12.671L19.8682 14.6651C19.5959 14.8804 19.4547 15.2217 19.4952 15.5665L19.8702 18.7608C19.9455 19.4024 19.4024 19.9455 18.7608 19.8702L15.5665 19.4952C15.2217 19.4547 14.8804 19.5959 14.6651 19.8682L12.671 22.3927C12.2706 22.8996 11.502 22.8996 11.1016 22.3927L9.10848 19.8682C8.89326 19.5959 8.55189 19.4548 8.20711 19.4952L5.01277 19.8702C4.37122 19.9456 3.82713 19.4024 3.90242 18.7608L4.27742 15.5665C4.31794 15.2216 4.17689 14.8804 3.90437 14.6651L1.37996 12.671C0.873435 12.2705 0.873259 11.5019 1.37996 11.1016L3.90437 9.10848C4.1769 8.89325 4.31788 8.552 4.27742 8.20711L3.90242 5.01277C3.82704 4.37118 4.37118 3.82704 5.01277 3.90242L8.20711 4.27742C8.552 4.31788 8.89325 4.1769 9.10848 3.90437L11.1016 1.37996ZM10.6778 5.14363C10.0321 5.9613 9.00849 6.38528 7.97371 6.26375L6.03621 6.03621L6.26375 7.97371C6.38528 9.0085 5.9613 10.0321 5.14363 10.6778L3.61336 11.8868L5.14363 13.0948C5.96133 13.7406 6.38532 14.7651 6.26375 15.7999L6.03621 17.7364L7.97371 17.5089C9.00842 17.3874 10.0321 17.8114 10.6778 18.629L11.8868 20.1593L13.0948 18.629C13.7406 17.8113 14.7651 17.3873 15.7999 17.5089L17.7364 17.7364L17.5089 15.7999C17.3873 14.7651 17.8113 13.7406 18.629 13.0948L20.1593 11.8868L18.629 10.6778C17.8114 10.0321 17.3874 9.00841 17.5089 7.97371L17.7364 6.03621L15.7999 6.26375C14.7651 6.38532 13.7406 5.96133 13.0948 5.14363L11.8868 3.61336L10.6778 5.14363ZM13.8233 7.26766C14.3567 7.12477 14.9049 7.44133 15.0479 7.97469L16.6007 13.7706C16.7052 14.1611 16.5648 14.5761 16.2442 14.8223C15.9233 15.0686 15.4851 15.0978 15.1348 14.8956L9.87703 11.8595L10.8057 15.3233C10.9486 15.8566 10.6319 16.4048 10.0987 16.5479C9.56524 16.6909 9.01607 16.3744 8.87312 15.8409L7.32039 10.045C7.21591 9.65444 7.35704 9.23938 7.67781 8.99324C7.99868 8.74704 8.43595 8.71878 8.78621 8.92098L14.044 11.9561L13.1163 8.49226C12.9734 7.95885 13.2899 7.41058 13.8233 7.26766Z" fill="black"/>
</svg>
