<svg width="24" height="24" viewBox="0 0 24 24" fill="none" xmlns="http://www.w3.org/2000/svg">
<path fill-rule="evenodd" clip-rule="evenodd" d="M5.00024 1.99951C4.44796 1.99951 4.00024 2.44723 4.00024 2.99951C4.00024 3.5518 4.44796 3.99951 5.00024 3.99951V5.6405C5.00024 8.07568 6.27792 10.3323 8.36608 11.5852C8.67885 11.7729 8.67885 12.2262 8.36608 12.4138C6.27792 13.6667 5.00024 15.9233 5.00024 18.3585V19.9995C4.44796 19.9995 4.00024 20.4472 4.00024 20.9995C4.00024 21.5518 4.44796 21.9995 5.00024 21.9995H11V19.9995H7.00024V18.3585C7.00024 16.6259 7.90933 15.0203 9.39507 14.1288C11.0025 13.1643 11.0025 10.8347 9.39507 9.87022C7.90933 8.97877 7.00024 7.37316 7.00024 5.6405V3.99951H17.0002V5.6405C17.0002 7.37316 16.0912 8.97877 14.6054 9.87022C13.4683 10.5525 13.1356 11.9179 13.6073 13H16.4664C16.206 12.7863 15.9282 12.5901 15.6344 12.4138C15.3216 12.2262 15.3216 11.7729 15.6344 11.5852C17.7226 10.3323 19.0002 8.07568 19.0002 5.6405V3.99951C19.5525 3.99951 20.0002 3.5518 20.0002 2.99951C20.0002 2.44723 19.5525 1.99951 19.0002 1.99951H5.00024ZM20.0002 20.9995L20 21.0218V20.9772L20.0002 20.9995ZM8.99738 6.99951H15.0031C15.2792 6.99951 15.5038 7.22819 15.4157 7.48988C14.9712 8.80978 12.8908 9.99951 12.0002 9.99951C10.7151 9.99948 9.06287 8.53136 8.61597 7.4819C8.50778 7.22783 8.72124 6.99951 8.99738 6.99951ZM19.7071 15.2929C20.0976 15.6834 20.0976 16.3166 19.7071 16.7071L17.8786 18.5356L19.636 20.2929C20.0265 20.6835 20.0265 21.3166 19.636 21.7072C19.2455 22.0977 18.6123 22.0977 18.2218 21.7072L16.4644 19.9498L14.7782 21.636C14.3877 22.0266 13.7545 22.0266 13.364 21.636C12.9734 21.2455 12.9734 20.6123 13.364 20.2218L15.0502 18.5356L13.2928 16.7782C12.9023 16.3877 12.9023 15.7545 13.2928 15.364C13.6834 14.9735 14.3165 14.9735 14.707 15.364L16.4644 17.1214L18.2929 15.2929C18.6834 14.9024 19.3166 14.9024 19.7071 15.2929Z" fill="#05080D"/>
</svg>
