<svg width="24" height="24" viewBox="0 0 24 24" fill="none" xmlns="http://www.w3.org/2000/svg">
<path fill-rule="evenodd" clip-rule="evenodd" d="M9.5 7.75C9.5 9.54493 8.04493 11 6.25 11C4.45507 11 3 9.54493 3 7.75C3 5.95507 4.45507 4.5 6.25 4.5C8.04493 4.5 9.5 5.95507 9.5 7.75ZM8.10355 6.39645C8.29882 6.59171 8.29882 6.90829 8.10355 7.10355L6.10355 9.10355C5.90829 9.29882 5.59171 9.29882 5.39645 9.10355L4.39645 8.10355C4.20118 7.90829 4.20118 7.59171 4.39645 7.39645C4.59171 7.20118 4.90829 7.20118 5.10355 7.39645L5.75 8.04289L7.39645 6.39645C7.59171 6.20118 7.90829 6.20118 8.10355 6.39645Z" fill="#05080D"/>
<path d="M12 6.5C11.3096 6.5 10.75 7.05964 10.75 7.75C10.75 8.44036 11.3096 9 12 9H20C20.6904 9 21.25 8.44036 21.25 7.75C21.25 7.05964 20.6904 6.5 20 6.5H12Z" fill="#05080D"/>
<path d="M12 15C11.3096 15 10.75 15.5596 10.75 16.25C10.75 16.9404 11.3096 17.5 12 17.5H20C20.6904 17.5 21.25 16.9404 21.25 16.25C21.25 15.5596 20.6904 15 20 15H12Z" fill="#05080D"/>
<path fill-rule="evenodd" clip-rule="evenodd" d="M9.5 16.25C9.5 18.0449 8.04493 19.5 6.25 19.5C4.45507 19.5 3 18.0449 3 16.25C3 14.4551 4.45507 13 6.25 13C8.04493 13 9.5 14.4551 9.5 16.25ZM6.25 17.5C6.94036 17.5 7.5 16.9404 7.5 16.25C7.5 15.5596 6.94036 15 6.25 15C5.55964 15 5 15.5596 5 16.25C5 16.9404 5.55964 17.5 6.25 17.5Z" fill="#05080D"/>
</svg>
