<svg width="24" height="24" viewBox="0 0 24 24" fill="none" xmlns="http://www.w3.org/2000/svg">
<path d="M15 4C14.4477 4 14 4.44772 14 5C14 5.55228 14.4477 6 15 6H20C20.5523 6 21 5.55228 21 5C21 4.44772 20.5523 4 20 4H15Z" fill="#05080D"/>
<path d="M15 8C14.4477 8 14 8.44772 14 9C14 9.55228 14.4477 10 15 10H20C20.5523 10 21 9.55228 21 9C21 8.44772 20.5523 8 20 8H15Z" fill="#05080D"/>
<path d="M3 14C3 13.4477 3.44772 13 4 13L20 13C20.5523 13 21 13.4477 21 14C21 14.5523 20.5523 15 20 15L4 15C3.44772 15 3 14.5523 3 14Z" fill="#05080D"/>
<path d="M4 18C3.44772 18 3 18.4477 3 19C3 19.5523 3.44772 20 4 20L20 20C20.5523 20 21 19.5523 21 19C21 18.4477 20.5523 18 20 18L4 18Z" fill="#05080D"/>
<path d="M12.1018 8.08068C12.1018 9.14082 11.2424 10.0002 10.1822 10.0002C9.12211 10.0002 8.2627 9.14082 8.2627 8.08068C8.2627 8.0631 8.26293 8.04557 8.2634 8.0281C8.19033 7.04305 8.47759 6.16883 9.039 5.49945C9.65594 4.76387 10.5587 4.32846 11.5375 4.22508C11.9654 4.17988 12.349 4.49015 12.3942 4.91809C12.4394 5.34603 12.1291 5.72959 11.7012 5.77479C11.2519 5.82224 10.8622 5.97398 10.5576 6.19782C11.438 6.37235 12.1018 7.149 12.1018 8.08068Z" fill="#05080D"/>
<path d="M6.8391 8.08068C6.8391 9.14082 5.97969 10.0002 4.91955 10.0002C3.85941 10.0002 3 9.14082 3 8.08068C3 8.0631 3.00024 8.04557 3.00071 8.0281C2.92764 7.04305 3.21489 6.16883 3.77631 5.49945C4.39324 4.76387 5.29597 4.32846 6.27477 4.22508C6.70271 4.17988 7.08627 4.49015 7.13147 4.91809C7.17667 5.34603 6.8664 5.72959 6.43846 5.77479C5.9892 5.82224 5.59951 5.97398 5.29491 6.19782C6.17534 6.37235 6.8391 7.149 6.8391 8.08068Z" fill="#05080D"/>
</svg>
