<svg width="24" height="24" viewBox="0 0 24 24" fill="none" xmlns="http://www.w3.org/2000/svg">
<path fill-rule="evenodd" clip-rule="evenodd" d="M21.9807 4.66604C21.7718 3.12162 20.442 1.97737 18.8847 2.00009H16.4897C16.4871 2.00009 16.4844 2.0001 16.4818 2.00012H6.03666C4.64349 1.98744 3.45248 3.00128 3.24305 4.37927L2.00093 12.48C1.87766 13.2922 2.11726 14.1176 2.65634 14.7375C3.19399 15.3558 3.97543 15.7076 4.79463 15.7001H9.18963V18.3001C9.18963 20.3436 10.8461 22.0001 12.8896 22.0001C13.2848 22.0001 13.6429 21.7674 13.8034 21.4062L17.0951 14.0001H18.8848C20.5066 14.0235 21.7808 12.7117 21.9807 11.2342C21.9867 11.1897 21.9897 11.1449 21.9897 11.1001V4.80009C21.9897 4.75526 21.9867 4.71047 21.9807 4.66604ZM18.9104 3.99993C19.4387 3.99059 19.8929 4.36447 19.9897 4.87832V11.0228C19.8836 11.6022 19.3776 12.0085 18.9104 12.0003L18.8927 12.0001H17.4897V4.00009H18.8927L18.9104 3.99993ZM5.22031 4.68006C5.28012 4.28564 5.6214 3.99555 6.02032 4.00006L6.03163 4.00012H15.4896V12.6879L12.2884 19.8907C11.6462 19.6479 11.1896 19.0273 11.1896 18.3001V14.7001C11.1896 14.1478 10.7419 13.7001 10.1896 13.7001H4.78961L4.77825 13.7002C4.5436 13.7028 4.31957 13.6023 4.16553 13.4252C4.01168 13.2482 3.94319 13.0127 3.97819 12.7808L5.22031 4.68006Z" fill="#05080D"/>
</svg>
