<svg width="24" height="24" viewBox="0 0 24 24" fill="none" xmlns="http://www.w3.org/2000/svg">
<path fill-rule="evenodd" clip-rule="evenodd" d="M21.2822 15.9241C21.3993 15.8757 21.509 15.804 21.6044 15.7092C21.6058 15.7078 21.6072 15.7064 21.6086 15.705C21.8025 15.51 21.8994 15.255 21.8994 15M21.2822 15.9241C21.1643 15.973 21.035 16 20.8994 16L2.89941 16C2.34713 16 1.89941 15.5523 1.89941 15C1.89941 14.4477 2.34713 14 2.89941 14L18.4852 14L14.1923 9.70711C13.8018 9.31658 13.8018 8.68342 14.1923 8.29289C14.5828 7.90237 15.216 7.90237 15.6065 8.29289L21.6065 14.2929C21.7024 14.3888 21.7747 14.4993 21.8235 14.6172C21.8721 14.7343 21.899 14.8625 21.8994 14.997" fill="#181F26"/>
</svg>
