<svg width="24" height="24" viewBox="0 0 24 24" fill="none" xmlns="http://www.w3.org/2000/svg">
<path fill-rule="evenodd" clip-rule="evenodd" d="M5 4C3.34315 4 2 5.34315 2 7V17C2 18.6569 3.34315 20 5 20H19C20.6569 20 22 18.6569 22 17V7C22 5.34315 20.6569 4 19 4H5ZM4 7C4 6.44772 4.44772 6 5 6H19C19.5523 6 20 6.44772 20 7V17C20 17.5523 19.5523 18 19 18H5C4.44772 18 4 17.5523 4 17V7ZM5 10C5 9.44772 5.44772 9 6 9H7C7.55228 9 8 9.44772 8 10C8 10.5523 7.55228 11 7 11H6C5.44772 11 5 10.5523 5 10ZM9.5 10C9.5 9.44772 9.94772 9 10.5 9H11.5C12.0523 9 12.5 9.44772 12.5 10C12.5 10.5523 12.0523 11 11.5 11H10.5C9.94772 11 9.5 10.5523 9.5 10ZM15 9C14.4477 9 14 9.44772 14 10C14 10.5523 14.4477 11 15 11L18 11C18.5523 11 19 10.5523 19 10C19 9.44772 18.5523 9 18 9L15 9ZM5 14.5C5 13.9477 5.44772 13.5 6 13.5H18C18.5523 13.5 19 13.9477 19 14.5C19 15.0523 18.5523 15.5 18 15.5H6C5.44772 15.5 5 15.0523 5 14.5Z" fill="#05080D"/>
</svg>
