<svg width="24" height="24" viewBox="0 0 24 24" fill="none" xmlns="http://www.w3.org/2000/svg">
<path d="M10.0443 20.7867C6.015 19.8939 3 16.2993 3 12C3 10.3602 3.4383 8.823 4.2051 7.4982L8.0598 14.1753C8.49287 14.9602 9.15055 15.5979 9.94848 16.0064C10.7464 16.415 11.6482 16.5759 12.5382 16.4685L10.0443 20.7867ZM12 21L15.8583 14.3175C16.2794 13.6179 16.5013 12.8166 16.5 12C16.5014 11.0261 16.1855 10.0783 15.6 9.3H20.5878C20.856 10.1523 21 11.0595 21 12C21 16.9707 16.9707 21 12 21ZM14.3148 13.3905C14.073 13.7937 13.73 14.1266 13.3199 14.3565C12.9098 14.5864 12.4468 14.7051 11.9767 14.701C11.5066 14.697 11.0457 14.5701 10.6397 14.3332C10.2337 14.0962 9.89658 13.7573 9.6618 13.35L9.6357 13.305C9.40779 12.892 9.29206 12.4265 9.30003 11.9549C9.30801 11.4832 9.43941 11.0219 9.68114 10.6168C9.92288 10.2118 10.2665 9.87711 10.6778 9.64618C11.0892 9.41525 11.5538 9.2961 12.0255 9.30062C12.4972 9.30513 12.9595 9.43314 13.3663 9.6719C13.7731 9.91066 14.1103 10.2518 14.3442 10.6615C14.5781 11.0711 14.7007 11.5348 14.6996 12.0065C14.6986 12.4782 14.574 12.9414 14.3382 13.35L14.3148 13.3905ZM5.3688 5.9151C6.21096 4.99521 7.23558 4.26089 8.3773 3.75898C9.51903 3.25707 10.7528 2.99859 12 3.00001C13.5802 2.99936 15.1326 3.41494 16.5012 4.2049C17.8697 4.99487 19.006 6.13136 19.7958 7.5H12C11.1184 7.49989 10.2562 7.75869 9.52032 8.24428C8.7845 8.72987 8.20748 9.42087 7.8609 10.2315L5.3688 5.9151Z" fill="#181F26"/>
</svg>
