<svg width="24" height="24" viewBox="0 0 24 24" fill="none" xmlns="http://www.w3.org/2000/svg">
<path fill-rule="evenodd" clip-rule="evenodd" d="M12 2C9.79086 2 8 3.79086 8 6V11C8 13.2091 9.79086 15 12 15C14.2091 15 16 13.2091 16 11V6C16 3.79086 14.2091 2 12 2ZM10 6C10 4.89543 10.8954 4 12 4C13.1046 4 14 4.89543 14 6V11C14 12.1046 13.1046 13 12 13C10.8954 13 10 12.1046 10 11V6Z" fill="#05080D"/>
<path d="M7 11C7 10.4477 6.55228 10 6 10C5.44772 10 5 10.4477 5 11C5 14.5265 7.6077 17.4439 11 17.9291V20H9C8.44772 20 8 20.4477 8 21C8 21.5523 8.44772 22 9 22H15C15.5523 22 16 21.5523 16 21C16 20.4477 15.5523 20 15 20H13V17.9291C16.3923 17.4439 19 14.5265 19 11C19 10.4477 18.5523 10 18 10C17.4477 10 17 10.4477 17 11C17 13.7614 14.7614 16 12 16C9.23856 16 7 13.7614 7 11Z" fill="#05080D"/>
</svg>
