<svg width="24" height="24" viewBox="0 0 24 24" fill="none" xmlns="http://www.w3.org/2000/svg">
<path d="M17.7408 2.34948C17.9844 2.0653 18.3663 1.94094 18.7305 2.02719C19.0947 2.11343 19.3803 2.39584 19.4706 2.75908L20.4705 6.78239C20.5502 7.10324 20.4663 7.44278 20.2461 7.68944C20.026 7.93611 19.6981 8.05802 19.3703 8.01513L15.3704 7.49183C15.0064 7.4442 14.6977 7.20097 14.5663 6.8582C14.435 6.51542 14.5019 6.12821 14.7408 5.84948L15.596 4.8518C14.515 4.30686 13.2937 4.00028 12 4.00028C7.58175 4.00028 4.00003 7.582 4.00003 12.0003C4.00003 16.4186 7.58175 20.0003 12 20.0003C15.6458 20.0003 18.7243 17.5608 19.6875 14.223C19.771 13.9335 19.8387 13.6371 19.8894 13.3348C19.9808 12.7901 20.4964 12.4227 21.041 12.5141C21.5857 12.6054 21.9532 13.1211 21.8618 13.6657C21.7984 14.0439 21.7137 14.4149 21.6091 14.7775C20.4055 18.9484 16.5605 22.0003 12 22.0003C6.47718 22.0003 2.00003 17.5231 2.00003 12.0003C2.00003 6.47743 6.47718 2.00028 12 2.00028C13.7915 2.00028 15.4738 2.47197 16.9284 3.29731L17.7408 2.34948Z" fill="#05080D"/>
</svg>
