<svg width="24" height="24" viewBox="0 0 24 24" fill="none" xmlns="http://www.w3.org/2000/svg">
<path fill-rule="evenodd" clip-rule="evenodd" d="M12 2C6.47715 2 2 6.47715 2 12C2 17.5228 6.47715 22 12 22C17.5228 22 22 17.5228 22 12C22 6.47715 17.5228 2 12 2ZM4 12C4 7.58172 7.58172 4 12 4C16.4183 4 20 7.58172 20 12C20 14.2893 19.0384 16.3539 17.4972 17.8122C16.6857 16.1472 14.9768 15 13 15H11C9.02318 15 7.31431 16.1472 6.50281 17.8122C4.96155 16.3539 4 14.2893 4 12ZM8.16317 19.0216C9.30226 19.6454 10.6097 20 12 20C13.3903 20 14.6977 19.6454 15.8368 19.0216C15.4312 17.8451 14.3143 17 13 17H11C9.68573 17 8.56885 17.8451 8.16317 19.0216ZM12 8C10.8954 8 10 8.89543 10 10C10 11.1046 10.8954 12 12 12C13.1046 12 14 11.1046 14 10C14 8.89543 13.1046 8 12 8ZM8 10C8 7.79086 9.79086 6 12 6C14.2091 6 16 7.79086 16 10C16 12.2091 14.2091 14 12 14C9.79086 14 8 12.2091 8 10Z" fill="black"/>
</svg>
