<svg width="24" height="24" viewBox="0 0 24 24" fill="none" xmlns="http://www.w3.org/2000/svg">
<path fill-rule="evenodd" clip-rule="evenodd" d="M12 4C13.933 4 15.5 5.567 15.5 7.5V9H8.5V7.5C8.5 5.567 10.067 4 12 4ZM6.5 9.03095V7.5C6.5 4.46243 8.96243 2 12 2C15.0376 2 17.5 4.46243 17.5 7.5V9.03095C19.4732 9.277 21 10.9602 21 13V18C21 20.2091 19.2091 22 17 22H7C4.79086 22 3 20.2091 3 18V13C3 10.9602 4.52684 9.277 6.5 9.03095ZM16.5 11H17C18.1046 11 19 11.8954 19 13V18C19 19.1046 18.1046 20 17 20H7C5.89543 20 5 19.1046 5 18V13C5 11.8954 5.89543 11 7 11H7.5H16.5ZM12 13C12.5523 13 13 13.4477 13 14V17C13 17.5523 12.5523 18 12 18C11.4477 18 11 17.5523 11 17V14C11 13.4477 11.4477 13 12 13Z" fill="#181F26"/>
</svg>
