<svg width="24" height="24" viewBox="0 0 24 24" fill="none" xmlns="http://www.w3.org/2000/svg">
<path fill-rule="evenodd" clip-rule="evenodd" d="M7 15.7099C4.10839 14.849 2 12.1716 2 9C2 5.13401 5.13401 2 9 2C12.1715 2 14.849 4.10838 15.7099 7H19C20.6569 7 22 8.34315 22 10V19C22 20.6569 20.6569 22 19 22H10C8.34315 22 7 20.6569 7 19V15.7099ZM4 9C4 6.23858 6.23858 4 9 4C11.0498 4 12.8127 5.23419 13.5843 7H10C8.34315 7 7 8.34315 7 10V13.5843C5.23418 12.8127 4 11.0498 4 9ZM14.7472 9C14.8552 9.01889 14.9682 9.02019 15.0825 9.0013C15.0851 9.00088 15.0876 9.00044 15.0902 9H19C19.5523 9 20 9.44772 20 10V19C20 19.5523 19.5523 20 19 20H10C9.44772 20 9 19.5523 9 19V10C9 9.44772 9.44772 9 10 9H14.7472Z" fill="#05080D"/>
</svg>
