<svg width="24" height="24" viewBox="0 0 24 24" fill="none" xmlns="http://www.w3.org/2000/svg">
<path fill-rule="evenodd" clip-rule="evenodd" d="M1 8C1 6.34315 2.34315 5 4 5H15C16.6569 5 18 6.34315 18 8V8.45378L19.6149 6.90344C20.8862 5.68306 23 6.58402 23 8.34622V15.8144C23 17.5269 20.9882 18.4474 19.6924 17.3278L18 15.8656V16C18 17.6569 16.6569 19 15 19H4C2.34315 19 1 17.6569 1 16V8ZM16 13.6739C16 13.6777 16 13.6815 16 13.6853V16C16 16.5523 15.5523 17 15 17H4C3.44772 17 3 16.5523 3 16V8C3 7.44772 3.44772 7 4 7H15C15.5523 7 16 7.44772 16 8V10.7986C16 10.7996 16 10.8006 16 10.8017V13.6739ZM18 13.2225L21 15.8144V8.34622L18 11.2262V13.2225Z" fill="#05080D"/>
</svg>
