<svg width="24" height="24" viewBox="0 0 24 24" fill="none" xmlns="http://www.w3.org/2000/svg">
<path fill-rule="evenodd" clip-rule="evenodd" d="M19.2929 11.7929C19.6834 11.4024 20.3166 11.4024 20.7071 11.7929L22.7071 13.7929C23.0976 14.1834 23.0976 14.8166 22.7071 15.2071L17.7071 20.2071C17.5196 20.3946 17.2652 20.5 17 20.5H15C14.4477 20.5 14 20.0523 14 19.5V17.5C14 17.2348 14.1054 16.9804 14.2929 16.7929L19.2929 11.7929ZM16 17.9142V18.5H16.5858L20.5858 14.5L20 13.9142L16 17.9142Z" fill="black"/>
<path fill-rule="evenodd" clip-rule="evenodd" d="M2 7.5C2 5.29086 3.79086 3.5 6 3.5H18C20.2091 3.5 22 5.29086 22 7.5V9.35294C22 9.90523 21.5523 10.3529 21 10.3529C20.4477 10.3529 20 9.90523 20 9.35294V7.5C20 6.39543 19.1046 5.5 18 5.5H6C4.89543 5.5 4 6.39543 4 7.5V16.5C4 17.6046 4.89543 18.5 6 18.5H11C11.5523 18.5 12 18.9477 12 19.5C12 20.0523 11.5523 20.5 11 20.5H6C3.79086 20.5 2 18.7091 2 16.5V7.5Z" fill="black"/>
<path d="M4.00676 7.33441L10.6833 13.1764C11.4373 13.8362 12.5633 13.8362 13.3173 13.1764L19.9933 7.33491C19.9334 6.60199 19.4783 5.98092 18.8415 5.68514L12.0003 11.6712L5.15885 5.68496C4.52199 5.9806 4.06682 6.60156 4.00676 7.33441Z" fill="black"/>
</svg>
