<svg width="24" height="24" viewBox="0 0 24 24" fill="none" xmlns="http://www.w3.org/2000/svg">
<path fill-rule="evenodd" clip-rule="evenodd" d="M13.4171 2.81818C12.7873 1.72727 11.2127 1.72727 10.5829 2.81818L2.08007 17.5455C1.45023 18.6364 2.23753 20 3.4972 20H20.5028C21.7625 20 22.5498 18.6364 21.9199 17.5455L13.4171 2.81818ZM12 18.3636C12.9037 18.3636 13.6364 17.631 13.6364 16.7273C13.6364 15.8235 12.9037 15.0909 12 15.0909C11.0963 15.0909 10.3636 15.8235 10.3636 16.7273C10.3636 17.631 11.0963 18.3636 12 18.3636ZM10.7727 7.31818C10.7727 6.64038 11.3222 6.09091 12 6.09091C12.6778 6.09091 13.2273 6.64038 13.2273 7.31818V12.2273C13.2273 12.9051 12.6778 13.4545 12 13.4545C11.3222 13.4545 10.7727 12.9051 10.7727 12.2273V7.31818Z" fill="black"/>
</svg>
