<svg width="24" height="24" viewBox="0 0 24 24" fill="none" xmlns="http://www.w3.org/2000/svg">
<path d="M19 3C20.6569 3 22 4.34315 22 6V16C22 17.6569 20.6569 19 19 19H7.66699C7.45062 19 7.2395 19.0704 7.06641 19.2002L5.2002 20.5996C3.88172 21.5885 2 20.6481 2 19V6C2 4.34315 3.34315 3 5 3H19ZM5 5C4.44772 5 4 5.44772 4 6V19L5.86621 17.5996C6.3855 17.2101 7.01788 17 7.66699 17H19C19.5523 17 20 16.5523 20 16V6C20 5.44772 19.5523 5 19 5H5ZM11.9941 7C12.5464 7 12.9941 7.44772 12.9941 8V10.002L14.998 10C15.5507 9.99946 15.9993 10.4451 16 10.9951C16.0006 11.5451 15.5527 11.9915 15 11.9922L12.9941 11.9941V14C12.9941 14.5523 12.5464 15 11.9941 15C11.4419 15 10.9941 14.5523 10.9941 14V11.9971L9.00195 12C8.44928 12.0005 8.00072 11.5549 8 11.0049C7.99944 10.4549 8.44728 10.0085 9 10.0078L10.9941 10.0049V8C10.9941 7.44772 11.4419 7 11.9941 7Z" fill="#05080D"/>
</svg>
