<svg width="24" height="24" viewBox="0 0 24 24" fill="none" xmlns="http://www.w3.org/2000/svg">
<path fill-rule="evenodd" clip-rule="evenodd" d="M2 5.45455C2 3.54665 3.54665 2 5.45455 2C7.36243 2 8.90909 3.54665 8.90909 5.45455V6.90918H15.0908V5.45455C15.0908 3.54664 16.6375 2 18.5454 2C20.4533 2 21.9999 3.54665 21.9999 5.45455C21.9999 7.36243 20.4533 8.90909 18.5454 8.90909H17.091V15.0908H18.5454C20.4533 15.0908 21.9999 16.6375 21.9999 18.5454C21.9999 20.4533 20.4532 21.9999 18.5454 21.9999C16.6375 21.9999 15.0908 20.4533 15.0908 18.5454V17.091H8.90909V18.5454C8.90909 20.4533 7.36242 21.9999 5.45455 21.9999C3.54667 21.9999 2 20.4533 2 18.5454C2 16.6375 3.54664 15.0908 5.45455 15.0908H6.90918V8.90909H5.45455C3.54665 8.90909 2 7.36243 2 5.45455ZM5.45455 4C4.65122 4 4 4.65122 4 5.45455C4 6.25787 4.65122 6.90909 5.45455 6.90909H6.90909V5.45455C6.90909 4.65122 6.25787 4 5.45455 4ZM5.45455 17.0908C4.65123 17.0908 4 17.742 4 18.5454C4 19.3487 4.6512 19.9999 5.45455 19.9999C6.25788 19.9999 6.90909 19.3487 6.90909 18.5454V17.0908H5.45455ZM8.90918 15.091V8.90918H15.091V15.091H8.90918ZM18.5454 4C17.742 4 17.0908 4.65123 17.0908 5.45455V6.90909H18.5454C19.3487 6.90909 19.9999 6.25787 19.9999 5.45455C19.9999 4.65122 19.3487 4 18.5454 4ZM17.0908 18.5454V17.0908H18.5454C19.3487 17.0908 19.9999 17.742 19.9999 18.5454C19.9999 19.3487 19.3487 19.9999 18.5454 19.9999C17.742 19.9999 17.0908 19.3487 17.0908 18.5454Z" fill="#181F26"/>
</svg>
