<svg width="24" height="24" viewBox="0 0 24 24" fill="none" xmlns="http://www.w3.org/2000/svg">
<path d="M16.1396 4.85755C16.5908 4.70713 16.5908 4.06883 16.1396 3.9184L16.0972 3.90429C15.3582 3.65795 14.7783 3.07805 14.532 2.33904L14.5179 2.2967C14.3675 1.84544 13.7291 1.84544 13.5787 2.2967L13.5646 2.33904C13.3183 3.07805 12.7384 3.65795 11.9994 3.90429L11.957 3.9184C11.5058 4.06883 11.5058 4.70713 11.957 4.85755L11.9994 4.87167C12.7384 5.118 13.3183 5.69791 13.5646 6.43691L13.5787 6.47926C13.7291 6.93052 14.3675 6.93052 14.5179 6.47926L14.532 6.43692C14.7783 5.69791 15.3582 5.118 16.0972 4.87167L16.1396 4.85755Z" fill="#05080D"/>
<path fill-rule="evenodd" clip-rule="evenodd" d="M4.4918 3.03681C5.27285 2.25576 6.53918 2.25576 7.32023 3.03681L20.4551 16.1716C21.2361 16.9527 21.2361 18.219 20.4551 19.0001L19.0408 20.4143C18.2598 21.1953 16.9935 21.1953 16.2124 20.4143L3.07759 7.27945C2.29654 6.4984 2.29654 5.23207 3.07759 4.45103L4.4918 3.03681ZM4.4918 5.86524L5.90602 4.45103L8.91614 7.46115L7.50196 8.87539L4.4918 5.86524ZM8.91617 10.2896L10.3304 8.87536L19.0408 17.5859L17.6266 19.0001L8.91617 10.2896Z" fill="#05080D"/>
<path d="M21.2026 8.24189C21.6538 8.39231 21.6538 9.03062 21.2026 9.18104L21.1602 9.19515C20.4212 9.44149 19.8413 10.0214 19.595 10.7604L19.5809 10.8027C19.4304 11.254 18.7921 11.254 18.6417 10.8027L18.6276 10.7604C18.3813 10.0214 17.8014 9.44149 17.0624 9.19515L17.02 9.18104C16.5687 9.03062 16.5687 8.39231 17.02 8.24189L17.0624 8.22778C17.8014 7.98144 18.3813 7.40154 18.6276 6.66253L18.6417 6.62019C18.7921 6.16892 19.4304 6.16892 19.5809 6.62019L19.595 6.66253C19.8413 7.40154 20.4212 7.98144 21.1602 8.22778L21.2026 8.24189Z" fill="#05080D"/>
<path d="M7.26952 16.4793C7.78525 16.3074 7.78525 15.5779 7.26952 15.406L7.22113 15.3899C6.37655 15.1084 5.7138 14.4456 5.43227 13.601L5.41614 13.5526C5.24423 13.0369 4.51474 13.0369 4.34283 13.5526L4.3267 13.601C4.04517 14.4456 3.38243 15.1084 2.53785 15.3899L2.48946 15.406C1.97372 15.5779 1.97372 16.3074 2.48946 16.4793L2.53785 16.4955C3.38243 16.777 4.04517 17.4397 4.3267 18.2843L4.34283 18.3327C4.51474 18.8484 5.24423 18.8484 5.41615 18.3327L5.43227 18.2843C5.7138 17.4397 6.37655 16.777 7.22113 16.4955L7.26952 16.4793Z" fill="#05080D"/>
</svg>
