<svg width="24" height="24" viewBox="0 0 24 24" fill="none" xmlns="http://www.w3.org/2000/svg">
<path fill-rule="evenodd" clip-rule="evenodd" d="M5.5 1.5C3.29086 1.5 1.5 3.29086 1.5 5.5V7.5C1.5 9.70914 3.29086 11.5 5.5 11.5H7.5C9.70914 11.5 11.5 9.70914 11.5 7.5V5.5C11.5 3.29086 9.70914 1.5 7.5 1.5H5.5ZM5.5 3.5C4.39543 3.5 3.5 4.39543 3.5 5.5V7.5C3.5 8.60457 4.39543 9.5 5.5 9.5H7.5C8.60457 9.5 9.5 8.60457 9.5 7.5V5.5C9.5 4.39543 8.60457 3.5 7.5 3.5H5.5ZM16.5 1.5C14.2909 1.5 12.5 3.29086 12.5 5.5V7.5C12.5 9.70914 14.2909 11.5 16.5 11.5H18.5C20.7091 11.5 22.5 9.70914 22.5 7.5V5.5C22.5 3.29086 20.7091 1.5 18.5 1.5H16.5ZM16.5 3.5C15.3954 3.5 14.5 4.39543 14.5 5.5V7.5C14.5 8.60457 15.3954 9.5 16.5 9.5H18.5C19.6046 9.5 20.5 8.60457 20.5 7.5V5.5C20.5 4.39543 19.6046 3.5 18.5 3.5H16.5ZM12.5 16.5C12.5 14.2909 14.2909 12.5 16.5 12.5H18.5C20.7091 12.5 22.5 14.2909 22.5 16.5V18.5C22.5 20.7091 20.7091 22.5 18.5 22.5H16.5C14.2909 22.5 12.5 20.7091 12.5 18.5V16.5ZM14.5 16.5C14.5 15.3954 15.3954 14.5 16.5 14.5H18.5C19.6046 14.5 20.5 15.3954 20.5 16.5V18.5C20.5 19.6046 19.6046 20.5 18.5 20.5H16.5C15.3954 20.5 14.5 19.6046 14.5 18.5V16.5ZM5.5 12.5C3.29086 12.5 1.5 14.2909 1.5 16.5V18.5C1.5 20.7091 3.29086 22.5 5.5 22.5H7.5C9.70914 22.5 11.5 20.7091 11.5 18.5V16.5C11.5 14.2909 9.70914 12.5 7.5 12.5H5.5ZM5.5 14.5C4.39543 14.5 3.5 15.3954 3.5 16.5V18.5C3.5 19.6046 4.39543 20.5 5.5 20.5H7.5C8.60457 20.5 9.5 19.6046 9.5 18.5V16.5C9.5 15.3954 8.60457 14.5 7.5 14.5H5.5Z" fill="black"/>
</svg>
