<svg width="24" height="24" viewBox="0 0 24 24" fill="none" xmlns="http://www.w3.org/2000/svg">
<path fill-rule="evenodd" clip-rule="evenodd" d="M17.0381 5.24253L20.6374 8.84174C21.4184 9.62279 21.4184 10.8891 20.6374 11.6702L12.5239 19.7837C11.8778 20.4298 10.8996 20.5414 10.1388 20.1186L12.5502 17.7071C12.9408 17.3166 12.9408 16.6834 12.5502 16.2929C12.1597 15.9024 11.5266 15.9024 11.136 16.2929L8.67034 18.7586L7.58456 17.6728L9.55025 15.7071C9.94077 15.3166 9.94077 14.6834 9.55025 14.2929C9.15972 13.9024 8.52656 13.9024 8.13603 14.2929L6.17034 16.2586L6.09621 16.1845C5.31516 15.4034 5.31516 14.1371 6.09621 13.356L9.21245 10.2835L10.136 11.2071C11.0868 12.1579 12.6222 12.75 13.9556 12.75C14.6333 12.75 15.3761 12.5967 15.9719 12.1326C16.6069 11.6377 16.9431 10.8918 16.9431 10C16.9431 9.91594 16.9328 9.83429 16.9132 9.75628C16.9206 9.49141 16.8233 9.22397 16.6207 9.02139L13.5258 5.92645L14.2097 5.24252C14.9908 4.46148 16.2571 4.46148 17.0381 5.24253ZM14.934 10.1631L10.0134 5.24252C9.23239 4.46148 7.96605 4.46148 7.18501 5.24253L3.58579 8.84174C2.80474 9.62279 2.80474 10.8891 3.58578 11.6702L4.29955 12.3839C4.41448 12.2297 4.54196 12.0818 4.682 11.9418L8.4543 8.5412C8.50048 8.45178 8.56106 8.36786 8.63603 8.29289C9.02656 7.90237 9.65972 7.90237 10.0502 8.29289L11.5502 9.79289C12.0995 10.3421 13.114 10.75 13.9556 10.75C14.3655 10.75 14.6164 10.6533 14.7426 10.5549C14.8147 10.4988 14.9054 10.4002 14.934 10.1631ZM2.17157 13.0844L3.52424 14.437C3.43021 15.5687 3.81613 16.7328 4.682 17.5987L8.28121 21.1979C9.84331 22.76 12.376 22.76 13.9381 21.1979L22.0516 13.0844C23.6137 11.5223 23.6137 8.98963 22.0516 7.42753L18.4524 3.82831C16.8903 2.26621 14.3576 2.26621 12.7955 3.82831L12.1116 4.51224L11.4276 3.82831C9.86555 2.26621 7.33289 2.26621 5.77079 3.82831L2.17157 7.42753C0.609477 8.98963 0.609474 11.5223 2.17157 13.0844Z" fill="black"/>
</svg>
