<svg width="24" height="24" viewBox="0 0 24 24" fill="none" xmlns="http://www.w3.org/2000/svg">
<path d="M17.2929 9.70709C17.6834 10.0976 18.3166 10.0976 18.7071 9.70709C19.0976 9.31657 19.0976 8.6834 18.7071 8.29288L12.7071 2.29289C12.5118 2.09763 12.2559 2 12 2C11.8644 2 11.7351 2.02699 11.6172 2.07588C11.4993 2.12468 11.3888 2.19702 11.2929 2.29289L5.29289 8.29288C4.90237 8.6834 4.90237 9.31657 5.29289 9.70709C5.68342 10.0976 6.31658 10.0976 6.70711 9.70709L11 5.41421L11 21C11 21.5523 11.4477 22 12 22C12.5523 22 13 21.5523 13 21L13 5.41421L17.2929 9.70709Z" fill="#181F26"/>
</svg>
