<svg width="24" height="24" viewBox="0 0 24 24" fill="none" xmlns="http://www.w3.org/2000/svg">
<path fill-rule="evenodd" clip-rule="evenodd" d="M4 4C3.44772 4 3 4.44772 3 5C3 5.55228 3.44772 6 4 6H5C5.55228 6 6 5.55228 6 5C6 4.44772 5.55228 4 5 4H4ZM9 4C8.44772 4 8 4.44772 8 5C8 5.55228 8.44772 6 9 6H20C20.5523 6 21 5.55228 21 5C21 4.44772 20.5523 4 20 4H9ZM8 12C8 11.4477 8.44772 11 9 11H20C20.5523 11 21 11.4477 21 12C21 12.5523 20.5523 13 20 13H9C8.44772 13 8 12.5523 8 12ZM4 11C3.44772 11 3 11.4477 3 12C3 12.5523 3.44772 13 4 13H5C5.55228 13 6 12.5523 6 12C6 11.4477 5.55228 11 5 11H4ZM8 19C8 18.4477 8.44772 18 9 18H20C20.5523 18 21 18.4477 21 19C21 19.5523 20.5523 20 20 20H9C8.44772 20 8 19.5523 8 19ZM4 18C3.44772 18 3 18.4477 3 19C3 19.5523 3.44772 20 4 20H5C5.55228 20 6 19.5523 6 19C6 18.4477 5.55228 18 5 18H4Z" fill="#181F26"/>
</svg>
