<svg width="24" height="24" viewBox="0 0 24 24" fill="none" xmlns="http://www.w3.org/2000/svg">
<path d="M12.1203 7.45914C11.3714 7.45914 10.2121 6.60583 8.99119 6.63667C7.38047 6.65723 5.90311 7.57223 5.0721 9.02183C3.39982 11.9313 4.6412 16.2287 6.27245 18.5933C7.07268 19.7448 8.01655 21.0402 9.2682 20.999C10.4685 20.9476 10.92 20.2177 12.3768 20.2177C13.8234 20.2177 14.2337 20.999 15.5059 20.9682C16.7986 20.9476 17.6194 19.7962 18.4093 18.6344C19.3224 17.2979 19.702 16.0025 19.7225 15.9306C19.6918 15.9203 17.209 14.9642 17.1782 12.0855C17.1577 9.67981 19.1377 8.52835 19.2301 8.47695C18.1015 6.82173 16.3677 6.63667 15.7624 6.59555C14.1825 6.47218 12.859 7.45914 12.1203 7.45914ZM14.7878 5.03286C15.4546 4.23095 15.8958 3.11033 15.7727 2C14.8185 2.04112 13.6695 2.63741 12.9821 3.43932C12.3665 4.1487 11.833 5.28988 11.9767 6.37965C13.0334 6.4619 14.1209 5.83476 14.7878 5.03286Z" fill="#181F26"/>
</svg>
