<svg width="24" height="24" viewBox="0 0 24 24" fill="none" xmlns="http://www.w3.org/2000/svg">
<path d="M12 1C18.0751 1 23 5.92487 23 12C23 18.0751 18.0751 23 12 23C5.92487 23 1 18.0751 1 12C1 5.92487 5.92487 1 12 1ZM12 7.0498C11.3925 7.0498 10.9004 7.54288 10.9004 8.15039V10.9004H8.15039C7.54288 10.9004 7.0498 11.3925 7.0498 12C7.0498 12.6075 7.54288 13.0996 8.15039 13.0996H10.9004V15.8496C10.9004 16.4571 11.3925 16.9502 12 16.9502C12.6075 16.9502 13.0996 16.4571 13.0996 15.8496V13.0996H15.8496C16.4571 13.0996 16.9502 12.6075 16.9502 12C16.9502 11.3925 16.4571 10.9004 15.8496 10.9004H13.0996V8.15039C13.0996 7.54288 12.6075 7.0498 12 7.0498Z" fill="#05080D"/>
</svg>
