<svg width="24" height="24" viewBox="0 0 24 24" fill="none" xmlns="http://www.w3.org/2000/svg">
<path fill-rule="evenodd" clip-rule="evenodd" d="M5 7C6.10457 7 7 6.10457 7 5C7 3.89543 6.10457 3 5 3C3.89543 3 3 3.89543 3 5C3 6.10457 3.89543 7 5 7ZM5 9C5.7418 9 6.43644 8.79807 7.03195 8.44619L9.29236 10.7066C9.10495 11.0982 9 11.5369 9 12C9 12.4687 9.10749 12.9123 9.29917 13.3075L7.04509 15.5616C6.44667 15.2049 5.74726 15 5 15C2.79086 15 1 16.7909 1 19C1 21.2091 2.79086 23 5 23C7.20914 23 9 21.2091 9 19C9 18.2636 8.80103 17.5738 8.45392 16.9812L10.7208 14.7144C11.1088 14.8976 11.5424 15 12 15C12.4631 15 12.9018 14.8951 13.2934 14.7076L15.5538 16.9681C15.2019 17.5636 15 18.2582 15 19C15 21.2091 16.7909 23 19 23C21.2091 23 23 21.2091 23 19C23 16.7909 21.2091 15 19 15C18.2582 15 17.5635 15.2019 16.968 15.5538L14.7076 13.2934C14.895 12.9018 15 12.4632 15 12C15 11.5424 14.8976 11.1088 14.7144 10.7208L16.9812 8.45392C17.5738 8.80103 18.2636 9 19 9C21.2091 9 23 7.20914 23 5C23 2.79086 21.2091 1 19 1C16.7909 1 15 2.79086 15 5C15 5.74726 15.2049 6.44667 15.5616 7.04509L13.3075 9.29917C12.9123 9.10749 12.4687 9 12 9C11.5368 9 11.0982 9.10496 10.7066 9.29238L8.44617 7.03199C8.79807 6.43647 9 5.74182 9 5C9 2.79086 7.20914 1 5 1C2.79086 1 1 2.79086 1 5C1 7.20914 2.79086 9 5 9ZM21 5C21 6.10457 20.1046 7 19 7C17.8954 7 17 6.10457 17 5C17 3.89543 17.8954 3 19 3C20.1046 3 21 3.89543 21 5ZM19 21C20.1046 21 21 20.1046 21 19C21 17.8954 20.1046 17 19 17C17.8954 17 17 17.8954 17 19C17 20.1046 17.8954 21 19 21ZM7 19C7 20.1046 6.10457 21 5 21C3.89543 21 3 20.1046 3 19C3 17.8954 3.89543 17 5 17C6.10457 17 7 17.8954 7 19Z" fill="black"/>
</svg>
