<svg width="24" height="24" viewBox="0 0 24 24" fill="none" xmlns="http://www.w3.org/2000/svg">
<path d="M18.9795 2.20186C18.9795 2.09069 19.0704 2.00018 19.1813 2.00844C20.6172 2.11539 21.8048 3.21362 22.0012 4.66594C22.0072 4.71037 22.0103 4.75515 22.0103 4.79998V11.1C22.0103 11.1448 22.0072 11.1896 22.0012 11.234C21.8129 12.6266 20.6701 13.8719 19.1816 13.991C19.0707 13.9999 18.9795 13.9093 18.9795 13.798V2.20186Z" fill="#05080D"/>
<path d="M16.9795 2.46921C16.9795 2.21006 16.7694 1.99998 16.5103 1.99998L16.5023 2.00002H6.0572C4.66402 1.98734 3.47301 3.00118 3.26358 4.37917L2.02147 12.4799C1.89819 13.2921 2.13779 14.1175 2.67687 14.7374C3.21452 15.3557 3.99596 15.7075 4.81517 15.7H9.21016V18.3C9.21016 20.3435 10.8667 22 12.9102 22C13.3053 22 13.6635 21.7673 13.824 21.4061L16.8071 14.6941C16.9208 14.4384 16.9795 14.1616 16.9795 13.8818V2.46921Z" fill="#05080D"/>
</svg>
