<svg width="24" height="24" viewBox="0 0 24 24" fill="none" xmlns="http://www.w3.org/2000/svg">
<path d="M16.5 7C17.7981 7 18.9849 7.7335 19.5654 8.89453L21.4717 12.708L21.5947 12.9717C21.8619 13.5939 22 14.2651 22 14.9443V19C22 21.2091 20.2091 23 18 23H6C3.79086 23 2 21.2091 2 19V14.9443C2 14.1681 2.18118 13.4023 2.52832 12.708L4.43457 8.89453L4.55078 8.68164C5.16426 7.64454 6.28314 7 7.5 7V9C6.95947 9 6.46536 9.3056 6.22363 9.78906L4.31641 13.6025C4.25209 13.7312 4.1983 13.8642 4.15332 14H8C8.55211 14 8.98327 14.4598 9.16406 14.9814C9.57074 16.1561 10.687 17 12 17C13.313 17 14.4293 16.1561 14.8359 14.9814C15.0167 14.4598 15.4479 14 16 14H19.8467C19.8199 13.9192 19.7905 13.8392 19.7568 13.7607L19.6836 13.6025L17.7764 9.78906C17.5346 9.3056 17.0405 9 16.5 9V7ZM4 19C4 20.1046 4.89543 21 6 21H18C19.1046 21 20 20.1046 20 19V16H17.2383C16.8408 16 16.4886 16.2408 16.2832 16.5811C15.4077 18.0308 13.8171 19 12 19C10.1829 19 8.59226 18.0308 7.7168 16.5811C7.51135 16.2408 7.15918 16 6.76172 16H4V19ZM9.40625 1.19531C9.6853 0.989303 10.0558 0.940716 10.3828 1.07617C10.7564 1.23098 11 1.59558 11 2V13C11 13.5523 10.5523 14 10 14C9.44774 14 9 13.5523 9 13V4.41406L8.70703 4.70703C8.3165 5.09753 7.68348 5.09755 7.29297 4.70703C6.90247 4.31651 6.90248 3.68349 7.29297 3.29297L9.29297 1.29297L9.40625 1.19531ZM14 1C14.5523 1.00003 15 1.44773 15 2V10.5859L15.293 10.293C15.6835 9.90247 16.3165 9.90245 16.707 10.293C17.0975 10.6835 17.0975 11.3165 16.707 11.707L14.707 13.707L14.5938 13.8047C14.3147 14.0107 13.9442 14.0593 13.6172 13.9238C13.2436 13.769 13 13.4044 13 13V2C13 1.44772 13.4477 1 14 1Z" fill="black"/>
</svg>
