<svg width="24" height="24" viewBox="0 0 24 24" fill="none" xmlns="http://www.w3.org/2000/svg">
<g clip-path="url(#clip0_89_8)">
<rect x="0.01" y="0.01" width="23.98" height="23.98" stroke="#F26661" stroke-width="0.02"/>
<path d="M0 0L24 24" stroke="#F26661" stroke-width="0.02"/>
<path d="M24 0L-3.9101e-06 24" stroke="#F26661" stroke-width="0.02"/>
<path d="M12 0V24" stroke="#F26661" stroke-width="0.02"/>
<path d="M24 12L-2.86102e-06 12" stroke="#F26661" stroke-width="0.02"/>
<path d="M24 8L-2.86102e-06 8" stroke="#F26661" stroke-width="0.02"/>
<path d="M24 16L-2.86102e-06 16" stroke="#F26661" stroke-width="0.02"/>
<path d="M12 24L12 0" stroke="#F26661" stroke-width="0.02"/>
<path d="M16 24L16 0" stroke="#F26661" stroke-width="0.02"/>
<path d="M8 24L8 0" stroke="#F26661" stroke-width="0.02"/>
<rect x="4.01" y="2.01" width="15.98" height="19.98" rx="0.99" stroke="#F26661" stroke-width="0.02"/>
<rect x="21.99" y="4.01" width="15.98" height="19.98" rx="0.99" transform="rotate(90 21.99 4.01)" stroke="#F26661" stroke-width="0.02"/>
<rect x="3.01" y="3.01" width="17.98" height="17.98" rx="0.99" stroke="#F26661" stroke-width="0.02"/>
<circle cx="12" cy="12" r="9.99" stroke="#F26661" stroke-width="0.02"/>
<circle cx="12" cy="12" r="4.99" stroke="#F26661" stroke-width="0.02"/>
</g>
<path fill-rule="evenodd" clip-rule="evenodd" d="M6.70711 5.29289C6.31658 4.90237 5.68342 4.90237 5.29289 5.29289C4.90237 5.68342 4.90237 6.31658 5.29289 6.70711L10.5858 12L5.29289 17.2929C4.90237 17.6834 4.90237 18.3166 5.29289 18.7071C5.68342 19.0976 6.31658 19.0976 6.70711 18.7071L12 13.4142L17.2929 18.7071C17.6834 19.0976 18.3166 19.0976 18.7071 18.7071C19.0976 18.3166 19.0976 17.6834 18.7071 17.2929L13.4142 12L18.7071 6.70711C19.0976 6.31658 19.0976 5.68342 18.7071 5.29289C18.3166 4.90237 17.6834 4.90237 17.2929 5.29289L12 10.5858L6.70711 5.29289Z" fill="#181F26"/>
<defs>
<clipPath id="clip0_89_8">
<rect width="24" height="24" fill="white"/>
</clipPath>
</defs>
</svg>
