<svg width="24" height="24" viewBox="0 0 24 24" fill="none" xmlns="http://www.w3.org/2000/svg">
<path fill-rule="evenodd" clip-rule="evenodd" d="M13.0303 5.00131C13.0311 4.44903 12.5839 4.00072 12.0317 4C11.4794 3.99928 11.0311 4.44641 11.0304 4.99869L11.0225 11H5C4.44772 11 4 11.4477 4 12C4 12.5523 4.44772 13 5 13H11.0199L11.012 18.9987C11.0113 19.551 11.4584 19.9993 12.0107 20C12.563 20.0007 13.0113 19.5536 13.012 19.0013L13.0199 13H19C19.5523 13 20 12.5523 20 12C20 11.4477 19.5523 11 19 11H13.0225L13.0303 5.00131Z" fill="#0F1A26"/>
</svg>
