<svg width="24" height="24" viewBox="0 0 24 24" fill="none" xmlns="http://www.w3.org/2000/svg">
<path d="M7.99988 8C5.79074 8 3.99988 9.79086 3.99988 12C3.99988 14.2091 5.79074 16 7.99988 16H8.99988C9.55216 16 9.99988 16.4477 9.99988 17C9.99988 17.5523 9.55216 18 8.99988 18H7.99988C4.68617 18 1.99988 15.3137 1.99988 12C1.99988 8.68629 4.68617 6 7.99988 6H8.99988C9.55216 6 9.99988 6.44772 9.99988 7C9.99988 7.55228 9.55216 8 8.99988 8H7.99988Z" fill="#181F26"/>
<path d="M15.9999 8C18.209 8 19.9999 9.79086 19.9999 12C19.9999 14.2091 18.209 16 15.9999 16H14.9999C14.4476 16 13.9999 16.4477 13.9999 17C13.9999 17.5523 14.4476 18 14.9999 18H15.9999C19.3136 18 21.9999 15.3137 21.9999 12C21.9999 8.68629 19.3136 6 15.9999 6H14.9999C14.4476 6 13.9999 6.44772 13.9999 7C13.9999 7.55228 14.4476 8 14.9999 8H15.9999Z" fill="#181F26"/>
<path d="M7.99988 11C7.44759 11 6.99988 11.4477 6.99988 12C6.99988 12.5523 7.44759 13 7.99988 13H15.9999C16.5522 13 16.9999 12.5523 16.9999 12C16.9999 11.4477 16.5522 11 15.9999 11H7.99988Z" fill="#181F26"/>
</svg>
