<svg width="24" height="24" viewBox="0 0 24 24" fill="none" xmlns="http://www.w3.org/2000/svg">
<path fill-rule="evenodd" clip-rule="evenodd" d="M9.65526 3.04289C10.0458 3.43342 10.0458 4.06658 9.65526 4.45711L6.86236 7.25H13.5519C17.4179 7.25 20.5519 10.384 20.5519 14.25C20.5519 18.116 17.4179 21.25 13.5519 21.25H5.96242C5.41013 21.25 4.96242 20.8023 4.96242 20.25C4.96242 19.6977 5.41013 19.25 5.96242 19.25H13.5519C16.3133 19.25 18.5519 17.0114 18.5519 14.25C18.5519 11.4886 16.3133 9.25 13.5519 9.25H6.86236L9.65526 12.0429C10.0458 12.4334 10.0458 13.0666 9.65526 13.4571C9.26473 13.8476 8.63157 13.8476 8.24104 13.4571L3.74104 8.95711C3.55351 8.76957 3.44815 8.51522 3.44815 8.25C3.44815 7.98478 3.55351 7.73043 3.74104 7.54289L8.24104 3.04289C8.63157 2.65237 9.26473 2.65237 9.65526 3.04289Z" fill="#05080D"/>
</svg>
