<svg width="24" height="24" viewBox="0 0 24 24" fill="none" xmlns="http://www.w3.org/2000/svg">
<path d="M9.70709 6.70711C10.0976 6.31658 10.0976 5.68342 9.70709 5.29289C9.31657 4.90237 8.6834 4.90237 8.29288 5.29289L2.29289 11.2929C2.09763 11.4882 2 11.7441 2 12C2 12.1356 2.02699 12.2649 2.07588 12.3828C2.12468 12.5007 2.19702 12.6112 2.29289 12.7071L8.29288 18.7071C8.6834 19.0976 9.31657 19.0976 9.70709 18.7071C10.0976 18.3166 10.0976 17.6834 9.70709 17.2929L5.41421 13H21C21.5523 13 22 12.5523 22 12C22 11.4477 21.5523 11 21 11H5.41421L9.70709 6.70711Z" fill="#0F1A26"/>
</svg>
