<svg width="24" height="24" viewBox="0 0 24 24" fill="none" xmlns="http://www.w3.org/2000/svg">
<path d="M6.235 6.45324C4.96004 7.77653 4.1795 9.4984 4.02457 11.3294C3.86964 13.1604 4.34977 14.989 5.38426 16.5077C6.41874 18.0264 7.94451 19.1426 9.70511 19.6689C11.4657 20.1951 13.3538 20.0992 15.052 19.3972C15.167 18.6472 14.915 17.9272 14.812 17.6752C14.582 17.1152 13.824 16.1582 12.559 14.8312C12.221 14.4762 12.243 14.2032 12.364 13.3942L12.377 13.3032C12.459 12.7492 12.597 12.4212 14.462 12.1252C15.41 11.9752 15.659 12.3532 16.004 12.8782L16.12 13.0502C16.448 13.5302 16.691 13.6402 17.058 13.8062C17.223 13.8812 17.428 13.9762 17.703 14.1312C18.355 14.5042 18.355 14.9252 18.355 15.8472V15.9522C18.355 16.3432 18.317 16.6872 18.257 16.9862C19.0244 16.0232 19.5591 14.896 19.8196 13.6924C20.0801 12.4889 20.0593 11.2415 19.7588 10.0473C19.4584 8.85309 18.8863 7.74435 18.0873 6.80738C17.2883 5.87042 16.2838 5.1305 15.152 4.64524C14.599 5.01824 13.84 5.54724 13.575 5.91024C13.44 6.09524 13.248 7.04224 12.625 7.12024C12.463 7.14024 12.244 7.12624 12.012 7.11124C11.39 7.07124 10.54 7.01624 10.268 7.75524C10.095 8.22324 10.065 9.49524 10.624 10.1552C10.714 10.2602 10.731 10.4552 10.67 10.6742C10.59 10.9612 10.429 11.1362 10.378 11.1722C10.282 11.1162 10.09 10.8932 9.959 10.7422C9.646 10.3772 9.254 9.92224 8.748 9.78224C8.564 9.73124 8.362 9.68924 8.165 9.64724C7.616 9.53224 6.995 9.40124 6.85 9.09324C6.744 8.86724 6.745 8.55624 6.745 8.22824C6.745 7.81124 6.745 7.34024 6.541 6.88324C6.47008 6.72015 6.36585 6.57369 6.235 6.45324ZM12 22.0002C6.477 22.0002 2 17.5232 2 12.0002C2 6.47724 6.477 2.00024 12 2.00024C17.523 2.00024 22 6.47724 22 12.0002C22 17.5232 17.523 22.0002 12 22.0002Z" fill="#181F26"/>
</svg>
