<svg width="24" height="24" viewBox="0 0 24 24" fill="none" xmlns="http://www.w3.org/2000/svg">
<path fill-rule="evenodd" clip-rule="evenodd" d="M12.0023 21.75C17.386 21.7487 21.75 17.384 21.75 12C21.75 6.61522 17.3848 2.25 12 2.25C6.61522 2.25 2.25 6.61522 2.25 12C2.25 17.3834 6.61306 21.7478 11.996 21.75H12.0023ZM10.0867 3.97299C6.67832 4.78237 4.08883 7.7064 3.78076 11.2826C3.85011 11.2614 3.92373 11.25 4 11.25H7.27201C7.43201 8.53142 8.45622 6.03025 10.0867 3.97299ZM7.27201 12.75H4C3.92373 12.75 3.85011 12.7386 3.78076 12.7174C4.08883 16.2936 6.6783 19.2176 10.0867 20.027C8.45619 17.9698 7.43198 15.4686 7.27201 12.75ZM12 19.9439C10.1377 17.9878 8.95813 15.4885 8.775 12.75H15.225C15.0419 15.4885 13.8623 17.9878 12 19.9439ZM8.77501 11.25C8.95815 8.51156 10.1377 6.0123 12 4.05608C13.8623 6.0123 15.0419 8.51155 15.225 11.25H8.77501ZM16.728 11.25C16.568 8.53142 15.5438 6.03026 13.9133 3.973C17.3113 4.77992 19.8954 7.68867 20.2164 11.25H16.728ZM16.728 12.75C16.568 15.4686 15.5438 17.9697 13.9133 20.027C17.3114 19.2201 19.8954 16.3113 20.2164 12.75H16.728Z" fill="#181F26"/>
</svg>
