<svg width="24" height="24" viewBox="0 0 24 24" fill="none" xmlns="http://www.w3.org/2000/svg">
<path fill-rule="evenodd" clip-rule="evenodd" d="M11.5082 16.8362C11.8746 17.172 11.8993 17.7414 11.5634 18.1078C11.2276 18.4742 10.6583 18.4989 10.2918 18.1631L4.29185 12.6631C4.10588 12.4926 4 12.2519 4 11.9996C4 11.7473 4.10588 11.5066 4.29185 11.3362L10.2918 5.83618C10.6583 5.5003 11.2276 5.52506 11.5634 5.89146C11.8993 6.25787 11.8746 6.82718 11.5082 7.16305L6.2319 11.9996L11.5082 16.8362ZM19.7081 16.8362C20.0746 17.172 20.0993 17.7414 19.7634 18.1078C19.4276 18.4742 18.8583 18.4989 18.4918 18.1631L12.4918 12.6631C12.3059 12.4926 12.2 12.2519 12.2 11.9996C12.2 11.7473 12.3059 11.5066 12.4918 11.3362L18.4918 5.83618C18.8583 5.5003 19.4276 5.52506 19.7634 5.89146C20.0993 6.25787 20.0746 6.82718 19.7081 7.16305L14.4319 11.9996L19.7081 16.8362Z" fill="#181F26"/>
</svg>
