<svg width="24" height="24" viewBox="0 0 24 24" fill="none" xmlns="http://www.w3.org/2000/svg">
<path fill-rule="evenodd" clip-rule="evenodd" d="M5 3C3.34315 3 2 4.34314 2 6V15.7143C2 17.3711 3.34315 18.7143 5 18.7143H9.33117L11.2873 20.7015C11.4753 20.8925 11.7321 21 12 21C12.2679 21 12.5247 20.8925 12.7127 20.7015L14.6688 18.7143H19C20.6569 18.7143 22 17.3711 22 15.7143V6C22 4.34315 20.6569 3 19 3H5ZM4 6C4 5.44772 4.44771 5 5 5H19C19.5523 5 20 5.44772 20 6V15.7143C20 16.2666 19.5523 16.7143 19 16.7143H14.25C13.9821 16.7143 13.7253 16.8218 13.5373 17.0128L12 18.5745L10.4627 17.0128C10.2747 16.8218 10.0179 16.7143 9.75 16.7143H5C4.44772 16.7143 4 16.2666 4 15.7143V6ZM16 10C15.4477 10 15 10.4477 15 11C15 11.5523 15.4477 12 16 12H17C17.5523 12 18 11.5523 18 11C18 10.4477 17.5523 10 17 10H16ZM6 11C6 10.4477 6.44772 10 7 10H8C8.55228 10 9 10.4477 9 11C9 11.5523 8.55228 12 8 12H7C6.44772 12 6 11.5523 6 11ZM11.5 10C10.9477 10 10.5 10.4477 10.5 11C10.5 11.5523 10.9477 12 11.5 12H12.5C13.0523 12 13.5 11.5523 13.5 11C13.5 10.4477 13.0523 10 12.5 10H11.5Z" fill="#05080D"/>
</svg>
