<svg width="24" height="24" viewBox="0 0 24 24" fill="none" xmlns="http://www.w3.org/2000/svg">
<path d="M14.2929 6.70711C13.9024 6.31658 13.9024 5.68342 14.2929 5.29289C14.6834 4.90237 15.3166 4.90237 15.7071 5.29289L21.7071 11.2929C21.9024 11.4882 22 11.7441 22 12C22 12.1356 21.973 12.2649 21.9241 12.3828C21.8753 12.5007 21.803 12.6112 21.7071 12.7071L15.7071 18.7071C15.3166 19.0976 14.6834 19.0976 14.2929 18.7071C13.9024 18.3166 13.9024 17.6834 14.2929 17.2929L18.5858 13H3C2.44772 13 2 12.5523 2 12C2 11.4477 2.44772 11 3 11H18.5858L14.2929 6.70711Z" fill="#181F26"/>
</svg>
