<svg width="24" height="24" viewBox="0 0 24 24" fill="none" xmlns="http://www.w3.org/2000/svg">
<path fill-rule="evenodd" clip-rule="evenodd" d="M12 22C17.5228 22 22 17.5228 22 12C22 6.47715 17.5228 2 12 2C6.47715 2 2 6.47715 2 12C2 17.5228 6.47715 22 12 22ZM15.8891 8.11101C16.2796 8.50153 16.2796 9.1347 15.8891 9.52522L13.4142 12.0001L15.8891 14.4751C16.2796 14.8656 16.2796 15.4988 15.8891 15.8893C15.4986 16.2798 14.8654 16.2798 14.4749 15.8893L12 13.4144L9.52512 15.8892C9.1346 16.2797 8.50143 16.2797 8.11091 15.8892C7.72038 15.4987 7.72039 14.8655 8.11091 14.475L10.5857 12.0001L8.11092 9.52532C7.72039 9.13479 7.72039 8.50163 8.11092 8.1111C8.50144 7.72058 9.13461 7.72058 9.52513 8.1111L12 10.5859L14.4749 8.11101C14.8654 7.72048 15.4986 7.72048 15.8891 8.11101Z" fill="#181F26"/>
</svg>
