<svg width="24" height="24" viewBox="0 0 24 24" fill="none" xmlns="http://www.w3.org/2000/svg">
<path fill-rule="evenodd" clip-rule="evenodd" d="M11 4C7.13401 4 4 7.13401 4 11C4 11.9301 4.18088 12.8155 4.50845 13.6248H2.38904C2.13593 12.7935 2 11.9119 2 11C2 6.02944 6.02944 2 11 2C13.1274 2 15.0849 2.73938 16.6255 3.97438C17.688 4.82614 18.4589 5.56805 19.3286 7H13C13.5211 5.80858 13.6053 5.63783 13.7646 5.31523C13.8345 5.17352 13.919 5.00251 14.0612 4.7028C13.1368 4.25248 12.0985 4 11 4ZM18 10.9999C18 10.0698 17.8191 9.18435 17.4915 8.3751C17.9428 8.37522 18.3488 8.37515 18.7111 8.37509H18.7111C19.0487 8.37504 19.3483 8.37499 19.6109 8.3751C19.864 9.20642 20 10.088 20 10.9999C20 15.9704 15.9705 19.9999 11 19.9999C9.8083 19.9999 8.66837 19.7678 7.62476 19.3453C5.44626 18.4635 3.69917 16.8128 2.67133 14.9999H8.99997L8.99997 14.9999L8.99996 14.9999C8.5 16.4999 8.5 16.4999 8.10073 17.3734C8.19121 17.4146 8.28271 17.454 8.37519 17.4914C9.18443 17.819 10.0698 17.9999 11 17.9999C14.866 17.9999 18 14.8659 18 10.9999ZM19.7071 18.2929C19.3166 17.9024 18.6834 17.9024 18.2929 18.2929C17.9024 18.6834 17.9024 19.3166 18.2929 19.7071L20.2929 21.7071C20.6834 22.0976 21.3166 22.0976 21.7071 21.7071C22.0976 21.3166 22.0976 20.6834 21.7071 20.2929L19.7071 18.2929Z" fill="#181F26"/>
</svg>
