<svg width="24" height="24" viewBox="0 0 24 24" fill="none" xmlns="http://www.w3.org/2000/svg">
<path d="M14.711 7.63009L17.0149 5.32616C17.4759 4.86515 18.2234 4.86515 18.6844 5.32616C19.1454 5.78717 19.1454 6.53461 18.6844 6.99561L16.4375 9.24251L8.96589 16.7141L6.99583 18.6842C6.53482 19.1452 5.78738 19.1452 5.32637 18.6842C4.86536 18.2232 4.86536 17.4757 5.32637 17.0147L7.26792 15.0732L14.711 7.63009Z" fill="#181F26"/>
<path d="M7.38801 9.05725L8.05163 9.72088C8.51264 10.1819 9.26008 10.1819 9.72109 9.72088C10.1821 9.25987 10.1821 8.51243 9.72109 8.05142L9.05746 7.38779L7.38801 5.71834L6.98487 5.3152C6.52386 4.85419 5.77642 4.85419 5.31541 5.3152C4.8544 5.7762 4.8544 6.52364 5.31541 6.98465L5.71855 7.38779L7.38801 9.05725Z" fill="#181F26"/>
<path d="M16.3509 18.0202L17.0145 18.6838C17.4756 19.1448 18.223 19.1448 18.684 18.6838C19.145 18.2228 19.145 17.4754 18.684 17.0143L18.0204 16.3507L16.3509 14.6813L15.9478 14.2781C15.4868 13.8171 14.7393 13.8171 14.2783 14.2781C13.8173 14.7391 13.8173 15.4866 14.2783 15.9476L14.6815 16.3507L16.3509 18.0202Z" fill="#181F26"/>
</svg>
