<svg width="24" height="24" viewBox="0 0 24 24" fill="none" xmlns="http://www.w3.org/2000/svg">
<path fill-rule="evenodd" clip-rule="evenodd" d="M16.8979 6.59609C17.2106 6.49185 17.5081 6.78935 17.4039 7.10205L15.1447 13.8797C14.9456 14.4769 14.477 14.9455 13.8798 15.1446L7.10211 17.4038C6.78941 17.5081 6.49191 17.2106 6.59615 16.8979L8.85536 10.1202C9.05443 9.523 9.52306 9.05437 10.1203 8.8553L16.8979 6.59609ZM13.4142 13.4142C12.6332 14.1952 11.3669 14.1952 10.5858 13.4142C9.80475 12.6331 9.80475 11.3668 10.5858 10.5857C11.3669 9.8047 12.6332 9.8047 13.4142 10.5857C14.1953 11.3668 14.1953 12.6331 13.4142 13.4142Z" fill="black"/>
<path fill-rule="evenodd" clip-rule="evenodd" d="M23 12C23 18.0751 18.0751 23 12 23C5.92487 23 1 18.0751 1 12C1 5.92487 5.92487 1 12 1C18.0751 1 23 5.92487 23 12ZM21 12C21 16.9706 16.9706 21 12 21C7.02944 21 3 16.9706 3 12C3 7.02944 7.02944 3 12 3C16.9706 3 21 7.02944 21 12Z" fill="black"/>
</svg>
