<svg width="24" height="24" viewBox="0 0 24 24" fill="none" xmlns="http://www.w3.org/2000/svg">
<path fill-rule="evenodd" clip-rule="evenodd" d="M22 3.11111C22 2.49746 21.5025 2 20.8889 2H15.3333C14.7197 2 14.2222 2.49746 14.2222 3.11111C14.2222 3.72476 14.7197 4.22222 15.3333 4.22222H19.7778V8.66667C19.7778 9.28032 20.2752 9.77778 20.8889 9.77778C21.5025 9.77778 22 9.28032 22 8.66667V3.11111ZM8.66667 19.7778H4.22222V15.3333C4.22222 14.7197 3.72476 14.2222 3.11111 14.2222C2.49746 14.2222 2 14.7197 2 15.3333V20.8889C2 21.5025 2.49746 22 3.11111 22H8.66667C9.28032 22 9.77778 21.5025 9.77778 20.8889C9.77778 20.2752 9.28032 19.7778 8.66667 19.7778ZM22 20.8889C22 21.5025 21.5025 22 20.8889 22H15.3333C14.7197 22 14.2222 21.5025 14.2222 20.8889C14.2222 20.2752 14.7197 19.7778 15.3333 19.7778H19.7778V15.3333C19.7778 14.7197 20.2752 14.2222 20.8889 14.2222C21.5025 14.2222 22 14.7197 22 15.3333V20.8889ZM8.66667 4.22222H4.22222V8.66667C4.22222 9.28032 3.72476 9.77778 3.11111 9.77778C2.49746 9.77778 2 9.28032 2 8.66667V3.11111C2 2.49746 2.49746 2 3.11111 2H8.66667C9.28032 2 9.77778 2.49746 9.77778 3.11111C9.77778 3.72476 9.28032 4.22222 8.66667 4.22222ZM9 7C7.89543 7 7 7.89543 7 9V15C7 16.1046 7.89543 17 9 17H15C16.1046 17 17 16.1046 17 15V9C17 7.89543 16.1046 7 15 7H9ZM9 9H15V15H9V9Z" fill="#05080D"/>
</svg>
