<svg width="24" height="24" viewBox="0 0 24 24" fill="none" xmlns="http://www.w3.org/2000/svg">
<path fill-rule="evenodd" clip-rule="evenodd" d="M12 2C11.4477 2 11 2.44772 11 3V12C11 12.5523 11.4477 13 12 13H21C21.5523 13 22 12.5523 22 12C22 6.47715 17.5228 2 12 2ZM13 11V4.06189C16.6187 4.51314 19.4869 7.38128 19.9381 11H13ZM8.93932 4.60619C9.44952 4.39473 9.69169 3.80971 9.48023 3.29951C9.26877 2.78931 8.68375 2.54713 8.17355 2.75859C4.55109 4.25998 2 7.83095 2 12.0001C2 17.5229 6.47715 22.0001 12 22.0001C16.1692 22.0001 19.7401 19.449 21.2415 15.8265C21.453 15.3163 21.2108 14.7313 20.7006 14.5199C20.1904 14.3084 19.6054 14.5506 19.3939 15.0608C18.1914 17.9622 15.3325 20.0001 12 20.0001C7.58172 20.0001 4 16.4184 4 12.0001C4 8.6676 6.03789 5.80873 8.93932 4.60619Z" fill="#181F26"/>
</svg>
