<svg width="24" height="24" viewBox="0 0 24 24" fill="none" xmlns="http://www.w3.org/2000/svg">
<path fill-rule="evenodd" clip-rule="evenodd" d="M4 5C4 3.34315 5.34315 2 7 2H17C18.6569 2 20 3.34315 20 5V19C20 20.6569 18.6569 22 17 22H7C5.34315 22 4 20.6569 4 19V5ZM7 4C6.44772 4 6 4.44772 6 5V19C6 19.5523 6.44772 20 7 20H17C17.5523 20 18 19.5523 18 19V5C18 4.44772 17.5523 4 17 4H7Z" fill="#181F26"/>
<path fill-rule="evenodd" clip-rule="evenodd" d="M8 8C8 7.44772 8.44772 7 9 7L15.5 7C16.0523 7 16.5 7.44772 16.5 8C16.5 8.55228 16.0523 9 15.5 9L9 9C8.44772 9 8 8.55228 8 8Z" fill="#181F26"/>
<path fill-rule="evenodd" clip-rule="evenodd" d="M8 12C8 11.4477 8.44772 11 9 11L15 11C15.5523 11 16 11.4477 16 12C16 12.5523 15.5523 13 15 13L9 13C8.44772 13 8 12.5523 8 12Z" fill="#181F26"/>
<path fill-rule="evenodd" clip-rule="evenodd" d="M8 16C8 15.4477 8.44772 15 9 15L12.5 15C13.0523 15 13.5 15.4477 13.5 16C13.5 16.5523 13.0523 17 12.5 17H9C8.44772 17 8 16.5523 8 16Z" fill="#181F26"/>
</svg>
