<svg width="24" height="24" viewBox="0 0 24 24" fill="none" xmlns="http://www.w3.org/2000/svg">
<path d="M12 6.90625C12 8.97732 10.3211 10.6563 8.25 10.6563C6.17893 10.6563 4.5 8.97732 4.5 6.90625C4.5 4.83518 6.17893 3.15625 8.25 3.15625C10.3211 3.15625 12 4.83518 12 6.90625Z" fill="#181F26"/>
<path d="M2 16.2813C2 14.2102 3.67893 12.5312 5.75 12.5312H10.75C12.8211 12.5312 14.5 14.2102 14.5 16.2813V18.7813C14.5 19.4716 13.9404 20.0312 13.25 20.0312H3.25C2.55964 20.0312 2 19.4716 2 18.7813V16.2813Z" fill="#181F26"/>
<path d="M19.5 8.15625C19.5 9.88214 18.1009 11.2812 16.375 11.2812C14.6491 11.2812 13.25 9.88214 13.25 8.15625C13.25 6.43036 14.6491 5.03125 16.375 5.03125C18.1009 5.03125 19.5 6.43036 19.5 8.15625Z" fill="#181F26"/>
<path d="M20.75 19.4062H15.6712C15.7227 19.2065 15.75 18.9971 15.75 18.7813V16.2813C15.75 15.0988 15.3396 14.0122 14.6534 13.1562H19.5C20.8807 13.1562 22 14.2755 22 15.6563V18.1563C22 18.8466 21.4404 19.4062 20.75 19.4062Z" fill="#181F26"/>
</svg>
