<svg width="24" height="24" viewBox="0 0 24 24" fill="none" xmlns="http://www.w3.org/2000/svg">
<path d="M19 2C21.2091 2 23 3.79086 23 6V18C23 20.14 21.3194 21.8879 19.2061 21.9951L19 22H5L4.79395 21.9951C2.7488 21.8913 1.10865 20.2512 1.00488 18.2061L1 18V6C1 3.79086 2.79086 2 5 2H19ZM5 4C3.89543 4 3 4.89543 3 6V18C3 19.1046 3.89543 20 5 20H19C20.1046 20 21 19.1046 21 18V6C21 4.89543 20.1046 4 19 4H5ZM18 6C18.5523 6 19 6.44772 19 7V17C19 17.5523 18.5523 18 18 18H14C13.4477 18 13 17.5523 13 17V7C13 6.44772 13.4477 6 14 6H18Z" fill="#05080D"/>
</svg>
