<svg width="24" height="24" viewBox="0 0 24 24" fill="none" xmlns="http://www.w3.org/2000/svg">
<path fill-rule="evenodd" clip-rule="evenodd" d="M5 3H9C10.1046 3 11 3.89543 11 5C11 6.10457 10.1046 7 9 7H5C3.89543 7 3 6.10457 3 5C3 3.89543 3.89543 3 5 3ZM1 5C1 2.79086 2.79086 1 5 1H9C11.2091 1 13 2.79086 13 5C13 7.20914 11.2091 9 9 9H5C2.79086 9 1 7.20914 1 5ZM15 17H19C20.1046 17 21 17.8954 21 19C21 20.1046 20.1046 21 19 21H15C13.8954 21 13 20.1046 13 19C13 17.8954 13.8954 17 15 17ZM11 19C11 16.7909 12.7909 15 15 15H19C21.2091 15 23 16.7909 23 19C23 21.2091 21.2091 23 19 23H15C12.7909 23 11 21.2091 11 19ZM6.42682 15.8181C6.9219 15.5733 7.52167 15.7762 7.76646 16.2713L9.20882 19.1884L6.69237 21.791C6.30847 22.188 5.6754 22.1987 5.27836 21.8148C4.88132 21.4309 4.87067 20.7978 5.25457 20.4007L5.82461 19.8112C5.02595 19.6167 4.3499 19.2763 3.81279 18.8095C2.92765 18.0403 2.5 16.9943 2.5 15.9375C2.5 13.824 4.17546 11.8077 6.88957 11.5061C7.39202 11.4503 7.83191 11.4016 8.22251 11.3584C9.66912 11.1983 10.4397 11.113 11.2089 11.0164C12.0858 10.9062 12.9607 10.7812 14.8331 10.5137L14.8586 10.51C16.3676 10.2945 17.2884 9.07236 17.3782 7.95551C17.4216 7.41602 17.2683 6.95602 16.9535 6.63093C16.6406 6.30778 16.0526 6 15 6C14.4477 6 14 5.55228 14 5C14 4.44772 14.4477 4 15 4C16.4474 4 17.6094 4.43329 18.3902 5.23961C19.1692 6.04398 19.4534 7.10183 19.3718 8.11591C19.2116 10.1062 17.6324 12.1341 15.1414 12.49C11.5709 13 11.5632 13.0009 8.43366 13.3472L8.43359 13.3472C8.04495 13.3902 7.60816 13.4386 7.11043 13.4939C5.32454 13.6923 4.5 14.926 4.5 15.9375C4.5 16.4432 4.69734 16.9285 5.1247 17.2999C5.39362 17.5336 5.78415 17.7474 6.32859 17.8756L5.97364 17.1577C5.72885 16.6627 5.93175 16.0629 6.42682 15.8181Z" fill="black"/>
</svg>
