<svg width="24" height="24" viewBox="0 0 24 24" fill="none" xmlns="http://www.w3.org/2000/svg">
<path fill-rule="evenodd" clip-rule="evenodd" d="M8.5 2.125C6.35989 2.125 4.625 3.8599 4.625 6C4.625 8.14011 6.35989 9.875 8.5 9.875C10.6401 9.875 12.375 8.14011 12.375 6C12.375 3.8599 10.6401 2.125 8.5 2.125ZM6.375 6C6.375 4.8264 7.32639 3.875 8.5 3.875C9.67361 3.875 10.625 4.8264 10.625 6C10.625 7.17361 9.67361 8.125 8.5 8.125C7.32639 8.125 6.375 7.17361 6.375 6ZM17 3.5C15.067 3.5 13.5 5.06701 13.5 7C13.5 8.933 15.067 10.5 17 10.5C18.933 10.5 20.5 8.933 20.5 7C20.5 5.06701 18.933 3.5 17 3.5ZM15.5 7C15.5 6.17157 16.1716 5.5 17 5.5C17.8284 5.5 18.5 6.17157 18.5 7C18.5 7.82843 17.8284 8.5 17 8.5C16.1716 8.5 15.5 7.82843 15.5 7ZM3.45736 13.7432C4.68522 12.106 6.45782 11 8.5 11C10.5422 11 12.3148 12.106 13.5426 13.7432C14.7703 15.38 15.5 17.5954 15.5 20C15.5 20.5523 15.0523 21 14.5 21C13.9477 21 13.5 20.5523 13.5 20C13.5 17.9863 12.8866 16.2017 11.9426 14.9431C10.9989 13.6849 9.77152 13 8.5 13C7.22848 13 6.00108 13.6849 5.05736 14.9431C4.11341 16.2017 3.5 17.9863 3.5 20C3.5 20.5523 3.05228 21 2.5 21C1.94772 21 1.5 20.5523 1.5 20C1.5 17.5954 2.22974 15.38 3.45736 13.7432ZM17.0665 11.5C16.6586 11.5 16.2885 11.5514 15.9297 11.6793C15.5749 11.8058 15.2827 11.989 15.017 12.1848C14.5724 12.5124 14.4775 13.1384 14.8051 13.583C15.1327 14.0277 15.7588 14.1225 16.2034 13.7949C16.3851 13.661 16.5001 13.5993 16.6012 13.5632C16.6982 13.5286 16.8326 13.5 17.0665 13.5C17.7941 13.5 18.631 14.0052 19.3406 15.2056C20.037 16.3837 20.5 18.0764 20.5 20C20.5 20.5523 20.9478 21 21.5 21C22.0523 21 22.5 20.5523 22.5 20C22.5 17.7814 21.9705 15.7242 21.0623 14.1878C20.1673 12.6737 18.7874 11.5 17.0665 11.5Z" fill="#05080D"/>
</svg>
