<svg width="24" height="24" viewBox="0 0 24 24" fill="none" xmlns="http://www.w3.org/2000/svg">
<path d="M16.5 8.82854L19.7428 8.82854C20.2951 8.82854 20.7428 9.27626 20.7428 9.82854C20.7428 10.3808 20.2951 10.8285 19.7428 10.8285L14.086 10.8285C13.5337 10.8285 13.086 10.3808 13.086 9.82854V4.17169C13.086 3.6194 13.5337 3.17169 14.086 3.17169C14.6383 3.17169 15.086 3.6194 15.086 4.17169V7.41409L19.2072 3.29289C19.5977 2.90237 20.2309 2.90237 20.6214 3.29289C21.0119 3.68342 21.0119 4.31658 20.6214 4.70711L16.5 8.82854Z" fill="#05080D"/>
<path d="M3.37882 19.293C2.98829 19.6835 2.98829 20.3167 3.37882 20.7072C3.76934 21.0977 4.40251 21.0977 4.79303 20.7072L8.74267 16.7576V19.8285C8.74267 20.3808 9.19038 20.8285 9.74267 20.8285C10.295 20.8285 10.7427 20.3808 10.7427 19.8285V14.3582C10.7427 14.3534 10.7428 14.3486 10.7428 14.3438C10.7428 14.3387 10.7427 14.3335 10.7427 14.3284V14.1717C10.7427 13.6194 10.295 13.1717 9.74267 13.1717L4.08581 13.1717C3.53353 13.1717 3.08582 13.6194 3.08582 14.1717C3.08582 14.724 3.53353 15.1717 4.08581 15.1717H7.50014L3.37882 19.293Z" fill="#05080D"/>
</svg>
