<svg width="24" height="24" viewBox="0 0 24 24" fill="none" xmlns="http://www.w3.org/2000/svg">
<path d="M11.2931 15.7066L8.8538 18.146C8.53882 18.4609 8.7619 18.9995 9.20735 18.9995H14.7931C15.2386 18.9995 15.4617 18.4609 15.1467 18.146L12.7074 15.7066C12.3168 15.3161 11.6837 15.3161 11.2931 15.7066Z" fill="#05080D"/>
<path d="M15.0031 6.99951H8.99738C8.72124 6.99951 8.50778 7.22783 8.61597 7.4819C9.06287 8.53136 10.7151 9.99948 12.0002 9.99951C12.8908 9.99951 14.9712 8.80978 15.4157 7.48988C15.5038 7.22819 15.2792 6.99951 15.0031 6.99951Z" fill="#05080D"/>
<path fill-rule="evenodd" clip-rule="evenodd" d="M5.00024 1.99951C4.44796 1.99951 4.00024 2.44723 4.00024 2.99951C4.00024 3.5518 4.44796 3.99951 5.00024 3.99951V5.6405C5.00024 8.07568 6.27792 10.3323 8.36608 11.5852C8.67885 11.7729 8.67885 12.2262 8.36608 12.4138C6.27792 13.6667 5.00024 15.9233 5.00024 18.3585V19.9995C4.44796 19.9995 4.00024 20.4472 4.00024 20.9995C4.00024 21.5518 4.44796 21.9995 5.00024 21.9995H19.0002C19.5525 21.9995 20.0002 21.5518 20.0002 20.9995C20.0002 20.4472 19.5525 19.9995 19.0002 19.9995V18.3585C19.0002 15.9233 17.7226 13.6667 15.6344 12.4138C15.3216 12.2262 15.3216 11.7729 15.6344 11.5852C17.7226 10.3323 19.0002 8.07568 19.0002 5.6405V3.99951C19.5525 3.99951 20.0002 3.5518 20.0002 2.99951C20.0002 2.44723 19.5525 1.99951 19.0002 1.99951H5.00024ZM17.0002 19.9995V18.3585C17.0002 16.6259 16.0912 15.0203 14.6054 14.1288C12.998 13.1643 12.998 10.8347 14.6054 9.87022C16.0912 8.97877 17.0002 7.37316 17.0002 5.6405V3.99951H7.00024V5.6405C7.00024 7.37316 7.90933 8.97877 9.39507 9.87022C11.0025 10.8347 11.0025 13.1643 9.39507 14.1288C7.90933 15.0203 7.00024 16.6259 7.00024 18.3585V19.9995H17.0002Z" fill="#05080D"/>
</svg>
