<svg width="24" height="24" viewBox="0 0 24 24" fill="none" xmlns="http://www.w3.org/2000/svg">
<path fill-rule="evenodd" clip-rule="evenodd" d="M19 12V10C19 9.44771 19.4477 9 20 9C20.5523 9 21 9.44771 21 10V12C21 13.0609 20.5786 14.0783 19.8284 14.8284C19.0783 15.5786 18.0609 16 17 16H6.41421L7.70711 17.2929C8.09763 17.6834 8.09763 18.3166 7.70711 18.7071C7.31658 19.0976 6.68342 19.0976 6.29289 18.7071L3.29289 15.7071C2.90237 15.3166 2.90237 14.6834 3.29289 14.2929L6.29289 11.2929C6.68342 10.9024 7.31658 10.9024 7.70711 11.2929C8.09763 11.6834 8.09763 12.3166 7.70711 12.7071L6.41421 14H17C17.5304 14 18.0391 13.7893 18.4142 13.4142C18.7893 13.0391 19 12.5304 19 12Z" fill="#05080D"/>
<path d="M19 10C19 10.5523 19.4477 11 20 11C20.5523 11 21 10.5523 21 10C21 8.93913 20.5785 7.92172 19.8284 7.17157C19.0783 6.42143 18.0608 6 17 6H13.4142C12.8619 6 12.4142 6.44772 12.4142 7C12.4142 7.55228 12.8619 8 13.4142 8H17C17.5304 8 18.0391 8.21071 18.4142 8.58579C18.7893 8.96086 19 9.46957 19 10Z" fill="#05080D"/>
</svg>
