<svg width="24" height="24" viewBox="0 0 24 24" fill="none" xmlns="http://www.w3.org/2000/svg">
<path fill-rule="evenodd" clip-rule="evenodd" d="M2 13.5357C2 13.1801 2.0474 12.8262 2.14094 12.4832L4.19613 4.94753C4.67074 3.20728 6.25138 2 8.05518 2H15.9448C17.7486 2 19.3293 3.20729 19.8039 4.94753L21.8591 12.4832C21.9526 12.8262 22 13.1801 22 13.5357V18C22 20.2091 20.2091 22 18 22H6C3.79086 22 2 20.2091 2 18V13.5357ZM8.05518 4H15.9448C16.8467 4 17.637 4.60364 17.8743 5.47377L19.927 13H16C15.4477 13 15.0163 13.46 14.8356 13.9819C14.4289 15.1565 13.313 16 12 16C10.687 16 9.57105 15.1565 9.16437 13.9819C8.98368 13.46 8.55228 13 8 13H4.07305L6.12566 5.47376C6.36296 4.60364 7.15328 4 8.05518 4ZM4 15V18C4 19.1046 4.89543 20 6 20H18C19.1046 20 20 19.1046 20 18V15H17.2383C16.8408 15 16.4888 15.2405 16.2833 15.5808C15.4079 17.0306 13.8172 18 12 18C10.1828 18 8.59209 17.0306 7.71666 15.5808C7.51121 15.2405 7.15915 15 6.76168 15H4Z" fill="black"/>
</svg>
