<svg width="24" height="24" viewBox="0 0 24 24" fill="none" xmlns="http://www.w3.org/2000/svg">
<path fill-rule="evenodd" clip-rule="evenodd" d="M17.6658 2.75384C17.489 2.59597 17.2557 2.5 17 2.5H17C16.7029 2.5 16.436 2.6296 16.2528 2.83535L11.7567 7.83104C11.3873 8.24155 11.4205 8.87384 11.831 9.24329C12.2416 9.61275 12.8738 9.57947 13.2433 9.16896L16 6.10597V14.5C16 15.0523 16.4477 15.5 17 15.5C17.5523 15.5 18 15.0523 18 14.5V6.10595L20.7567 9.16896C21.1262 9.57947 21.7585 9.61275 22.169 9.24329C22.5795 8.87384 22.6128 8.24155 22.2433 7.83104L17.7449 2.83281L17.7375 2.82465C17.7147 2.79974 17.6908 2.77612 17.6658 2.75384ZM3 4C2.44772 4 2 4.44772 2 5C2 5.55228 2.44772 6 3 6H8C8.55228 6 9 5.55228 9 5C9 4.44772 8.55228 4 8 4H3ZM3 11C2.44772 11 2 11.4477 2 12C2 12.5523 2.44772 13 3 13H10C10.5523 13 11 12.5523 11 12C11 11.4477 10.5523 11 10 11H3ZM2 19C2 18.4477 2.44772 18 3 18H17C17.5523 18 18 18.4477 18 19C18 19.5523 17.5523 20 17 20H3C2.44772 20 2 19.5523 2 19Z" fill="black"/>
</svg>
