<svg width="24" height="24" viewBox="0 0 24 24" fill="none" xmlns="http://www.w3.org/2000/svg">
<path fill-rule="evenodd" clip-rule="evenodd" d="M20 7C20 6.44772 19.5523 6 19 6H9.5C5.63401 6 2.5 9.13401 2.5 13V14C2.5 14.5523 2.94772 15 3.5 15C4.05229 15 4.5 14.5523 4.5 14V13C4.5 10.2386 6.73858 8 9.5 8H19C19.5523 8 20 7.55228 20 7Z" fill="#181F26"/>
<path fill-rule="evenodd" clip-rule="evenodd" d="M16.2929 3.29289C15.9024 3.68342 15.9024 4.31658 16.2929 4.70711L18.5858 7L16.2929 9.29289C15.9024 9.68342 15.9024 10.3166 16.2929 10.7071C16.6834 11.0976 17.3166 11.0976 17.7071 10.7071L20.7071 7.70711C21.0976 7.31658 21.0976 6.68342 20.7071 6.29289L17.7071 3.29289C17.3166 2.90237 16.6834 2.90237 16.2929 3.29289Z" fill="#181F26"/>
<path fill-rule="evenodd" clip-rule="evenodd" d="M20.5 13.5C21.0523 13.5 21.5 13.9477 21.5 14.5V17C21.5 19.2091 19.7091 21 17.5 21H3.5C2.94772 21 2.5 20.5523 2.5 20C2.5 19.4477 2.94772 19 3.5 19H17.5C18.6046 19 19.5 18.1046 19.5 17V14.5C19.5 13.9477 19.9477 13.5 20.5 13.5Z" fill="#181F26"/>
</svg>
