<svg width="24" height="24" viewBox="0 0 24 24" fill="none" xmlns="http://www.w3.org/2000/svg">
<path fill-rule="evenodd" clip-rule="evenodd" d="M2 7C2 5.34315 3.34315 4 5 4H19C20.6569 4 22 5.34315 22 7V17C22 18.6569 20.6569 20 19 20H5C3.34315 20 2 18.6569 2 17V7ZM6.29289 8.29289C6.68342 7.90237 7.31658 7.90237 7.70711 8.29289L10.7071 11.2929C11.0976 11.6834 11.0976 12.3166 10.7071 12.7071L7.70711 15.7071C7.31658 16.0976 6.68342 16.0976 6.29289 15.7071C5.90237 15.3166 5.90237 14.6834 6.29289 14.2929L8.58579 12L6.29289 9.70711C5.90237 9.31658 5.90237 8.68342 6.29289 8.29289ZM12.5 14C11.9477 14 11.5 14.4477 11.5 15C11.5 15.5523 11.9477 16 12.5 16H17C17.5523 16 18 15.5523 18 15C18 14.4477 17.5523 14 17 14H12.5Z" fill="black"/>
</svg>
