<svg width="24" height="24" viewBox="0 0 24 24" fill="none" xmlns="http://www.w3.org/2000/svg">
<path fill-rule="evenodd" clip-rule="evenodd" d="M19 3C19 2.44772 18.5523 2 18 2C17.4477 2 17 2.44772 17 3V5H15C14.4477 5 14 5.44772 14 6C14 6.55228 14.4477 7 15 7H17V9C17 9.55228 17.4477 10 18 10C18.5523 10 19 9.55228 19 9V7H21C21.5523 7 22 6.55228 22 6C22 5.44772 21.5523 5 21 5H19V3ZM10.9946 2.35486L3.52623 13.4203C3.3021 13.7524 3.54003 14.2 3.94067 14.2H7.51337C7.81799 14.2 8.05182 14.4701 8.00822 14.7716L7.06899 21.2657C6.99698 21.7636 7.62252 22.0441 7.94641 21.6592L16.3083 11.7219C16.582 11.3967 16.3508 10.9 15.9258 10.9H12.4091C12.1329 10.9 11.9091 10.6761 11.9091 10.4V2.63458C11.9091 2.14135 11.2706 1.94603 10.9946 2.35486Z" fill="#05080D"/>
</svg>
