<svg width="24" height="24" viewBox="0 0 24 24" fill="none" xmlns="http://www.w3.org/2000/svg">
<path d="M6.20711 13.2071C5.81658 13.5976 5.18342 13.5976 4.79289 13.2071C4.40237 12.8166 4.40237 12.1834 4.79289 11.7929L11.2929 5.29289C11.6834 4.90237 12.3166 4.90237 12.7071 5.29289L19.2071 11.7929C19.5976 12.1834 19.5976 12.8166 19.2071 13.2071C18.8166 13.5976 18.1834 13.5976 17.7929 13.2071L12 7.41421L6.20711 13.2071Z" fill="#05080D"/>
<path d="M5 17C4.44772 17 4 17.4477 4 18C4 18.5523 4.44772 19 5 19H19C19.5523 19 20 18.5523 20 18C20 17.4477 19.5523 17 19 17H5Z" fill="#05080D"/>
</svg>
