<svg width="24" height="24" viewBox="0 0 24 24" fill="none" xmlns="http://www.w3.org/2000/svg">
<path fill-rule="evenodd" clip-rule="evenodd" d="M10.498 0.992188C5.25136 0.992188 0.998047 5.2455 0.998047 10.4922C0.998047 15.7389 5.25136 19.9922 10.498 19.9922C12.7612 19.9922 14.8395 19.2008 16.4714 17.8797L20.1469 21.5552C20.5374 21.9458 21.1706 21.9458 21.5611 21.5552C21.9516 21.1647 21.9516 20.5315 21.5611 20.141L17.8856 16.4655C19.2067 14.8336 19.998 12.7553 19.998 10.4922C19.998 5.2455 15.7447 0.992188 10.498 0.992188ZM2.99805 10.4922C2.99805 6.35007 6.35593 2.99219 10.498 2.99219C14.6402 2.99219 17.998 6.35007 17.998 10.4922C17.998 14.6343 14.6402 17.9922 10.498 17.9922C6.35593 17.9922 2.99805 14.6343 2.99805 10.4922ZM11.5 7.5C11.5 6.94772 11.0523 6.5 10.5 6.5C9.94771 6.5 9.5 6.94772 9.5 7.5V9.5052L7.50456 9.5078C6.95227 9.50852 6.50514 9.95682 6.50586 10.5091C6.50658 11.0614 6.95488 11.5085 7.50716 11.5078L9.5 11.5052V13.5C9.5 14.0523 9.94771 14.5 10.5 14.5C11.0523 14.5 11.5 14.0523 11.5 13.5V11.5026L13.4994 11.5C14.0516 11.4993 14.4988 11.051 14.4981 10.4987C14.4973 9.94641 14.049 9.49928 13.4968 9.5L11.5 9.5026V7.5Z" fill="#05080D"/>
</svg>
