<svg width="24" height="24" viewBox="0 0 24 24" fill="none" xmlns="http://www.w3.org/2000/svg">
<path d="M2.29297 2.29289C2.68349 1.90237 3.31651 1.90237 3.70703 2.29289L21.707 20.2929C22.0975 20.6834 22.0975 21.3164 21.707 21.707C21.3165 22.0974 20.6835 22.0974 20.293 21.707L18.5859 19.9999H4C2.34317 19.9999 1.00004 18.6567 1 16.9999V6.99992C1 5.76027 1.7516 4.69546 2.82422 4.23821L2.29297 3.70696C1.90248 3.31646 1.90254 2.68343 2.29297 2.29289ZM20 3.99992C21.6569 3.99992 23 5.34307 23 6.99992V18.9999C23 19.1693 22.9561 19.3279 22.8818 19.4677L21 17.5859V6.99992C21 6.44764 20.5523 5.99992 20 5.99992H9.41406L7.41406 3.99992H20ZM4 5.99992C3.44772 5.99992 3 6.44764 3 6.99992V16.9999C3.00004 17.5522 3.44774 17.9999 4 17.9999H16.5859L13.0859 14.4999H13.043V14.457L12.8721 14.2861V14.4999H11.8711L11.8438 14.413L11.5381 13.4384H10.165L9.85938 14.413L9.83203 14.4999H8.84863V14.2861L8.85547 14.2626L9.83203 11.246L8.67578 10.0898V14.4999H7.67969V12.1611L6.86816 14.4179L6.83887 14.4999H5.89844V14.3788L5.09473 12.1503V14.4999H4.09961V9.49992H5.18848L5.2168 9.58196L6.38965 12.8417L7.56348 9.58196L7.59277 9.49992H8.08594L4.58594 5.99992H4ZM17.6064 11.332L18.8984 9.54582L18.9326 9.49992H20.0371V9.74016L20.0088 9.77824L18.6211 11.6503L20.0811 14.2363L20.0996 14.2704V14.4999H19.0488L19.0146 14.4404L17.9502 12.5566L17.6064 13.0234V14.1923L16.6113 13.1972V9.49992H17.6064V11.332ZM14.8477 9.49992C15.2745 9.50006 15.6251 9.63988 15.8828 9.93547L15.9736 10.0507C16.1729 10.3305 16.2695 10.6846 16.2695 11.1015L16.2637 11.2753C16.2399 11.6171 16.1445 11.9114 15.9736 12.1513L15.8828 12.2665C15.851 12.303 15.8161 12.3356 15.7812 12.3671L14.9951 11.581C15.0596 11.5577 15.1112 11.5242 15.1514 11.4823L15.2031 11.4101C15.2485 11.3313 15.2743 11.2308 15.2744 11.1015C15.2744 10.9292 15.2304 10.8103 15.1533 10.7284L15.1514 10.7275C15.0729 10.6413 14.9521 10.5879 14.7734 10.5878H14.0107V10.5966L13.043 9.62883V9.49992H14.8477ZM10.5205 12.3046H10.8906L10.6084 12.0224L10.5205 12.3046Z" fill="black"/>
</svg>
