<svg width="24" height="24" viewBox="0 0 24 24" fill="none" xmlns="http://www.w3.org/2000/svg">
<path d="M11.602 13.7595L12.3069 14.4644C12.6974 14.8549 13.3306 14.8549 13.7211 14.4644L20.773 7.41252C21.1635 7.02205 21.7965 7.02205 22.187 7.41252C22.5775 7.80298 22.5775 8.43605 22.187 8.82652L13.7211 17.2924C13.3306 17.6829 12.6974 17.6829 12.3069 17.2924L7.357 12.3425C6.96654 11.9521 6.96654 11.319 7.357 10.9285C7.74747 10.5381 8.38054 10.5381 8.771 10.9285L10.189 12.3465L11.602 13.7585V13.7595ZM11.604 10.9315L15.851 6.68366C16.2404 6.29423 16.8717 6.2942 17.2611 6.68359C17.6504 7.07292 17.6504 7.70414 17.2611 8.09352L13.014 12.3415L11.604 10.9315ZM8.0705 15.88C8.46069 16.2702 8.46069 16.9028 8.0705 17.293C7.68031 17.6832 7.04769 17.6832 6.6575 17.293L1.707 12.3425C1.31653 11.9521 1.31653 11.319 1.707 10.9285C2.09747 10.5381 2.73054 10.5381 3.121 10.9285L3.827 11.6345L3.826 11.6355L8.0705 15.88Z" fill="#0F1A26"/>
</svg>
