<svg width="24" height="24" viewBox="0 0 24 24" fill="none" xmlns="http://www.w3.org/2000/svg">
<circle cx="7.5" cy="13.2751" r="6" fill="#3164FF" stroke="white"/>
<path d="M10.8466 3.61206C11.061 2.81186 11.8833 2.3371 12.6835 2.55151L20.411 4.62183C21.2111 4.83629 21.6859 5.65859 21.4716 6.45874L19.4012 14.1863C19.1869 14.9863 18.3644 15.461 17.5643 15.2468L9.83679 13.1765C9.03669 12.9621 8.56202 12.1397 8.77625 11.3396L10.8466 3.61206Z" fill="#F26661" stroke="white"/>
<path d="M14.9524 13.3564C15.4719 12.6495 16.5286 12.6495 17.0481 13.3564L21.5295 19.4551C22.1604 20.3136 21.5471 21.5253 20.4817 21.5254H11.5188C10.4534 21.5254 9.84008 20.3136 10.4709 19.4551L14.9524 13.3564Z" fill="#FFC630" stroke="white"/>
</svg>
