<svg width="24" height="24" viewBox="0 0 24 24" fill="none" xmlns="http://www.w3.org/2000/svg">
<path fill-rule="evenodd" clip-rule="evenodd" d="M12 3.6C14.0941 3.6 15.7917 5.24535 15.7917 7.275V8.85H8.20833V7.275C8.20833 5.24535 9.90592 3.6 12 3.6ZM6.04167 8.88249V7.275C6.04167 4.08556 8.7093 1.5 12 1.5C15.2907 1.5 17.9583 4.08556 17.9583 7.275V8.88249C20.0959 9.14085 21.75 10.9082 21.75 13.05V18.3C21.75 20.6196 19.8099 22.5 17.4167 22.5H6.58333C4.1901 22.5 2.25 20.6196 2.25 18.3V13.05C2.25 10.9082 3.90408 9.14085 6.04167 8.88249ZM16.875 10.95H17.4167C18.6133 10.95 19.5833 11.8902 19.5833 13.05V18.3C19.5833 19.4598 18.6133 20.4 17.4167 20.4H6.58333C5.38672 20.4 4.41667 19.4598 4.41667 18.3V13.05C4.41667 11.8902 5.38672 10.95 6.58333 10.95H7.125H16.875Z" fill="#05080D"/>
</svg>
