<svg width="24" height="24" viewBox="0 0 24 24" fill="none" xmlns="http://www.w3.org/2000/svg">
<path d="M12.8951 2.05544C12.7258 1.71437 12.3775 1.49903 11.9968 1.5C11.616 1.50098 11.2688 1.71811 11.1013 2.06004L8.27701 7.82489L1.85652 8.7559C1.48003 8.81049 1.16713 9.07399 1.04925 9.43569C0.931367 9.7974 1.02893 10.1947 1.30096 10.4606L5.95324 15.0089L4.84234 21.3268C4.77611 21.7035 4.9305 22.0849 5.24008 22.3095C5.54965 22.534 5.96019 22.5623 6.29766 22.3824L11.9994 19.3428L17.7024 22.3825C18.0397 22.5622 18.4499 22.534 18.7594 22.3098C19.0689 22.0856 19.2236 21.7046 19.1578 21.3281L18.0549 15.0089L22.6997 10.46C22.9713 10.194 23.0686 9.79707 22.9508 9.43565C22.833 9.07424 22.5205 8.81086 22.1443 8.75601L15.7585 7.82487L12.8951 2.05544Z" fill="#333333"/>
</svg>
