<svg width="24" height="24" viewBox="0 0 24 24" fill="none" xmlns="http://www.w3.org/2000/svg">
<path d="M13.6361 8.94975C13.2455 9.34027 13.2455 9.97344 13.6361 10.364C14.0266 10.7545 14.6598 10.7545 15.0503 10.364L19 6.41426V9.65691C19 10.2092 19.4477 10.6569 20 10.6569C20.5523 10.6569 21 10.2092 21 9.65691V4.01004C21.0004 3.96658 20.998 3.92309 20.9928 3.87988C20.9856 3.81915 20.9728 3.76008 20.9552 3.7032C20.9087 3.55307 20.826 3.41175 20.7071 3.29289C20.5457 3.13146 20.3428 3.03676 20.1327 3.00879C20.0851 3.00246 20.0372 2.99955 19.9893 3.00006L14.3431 3.00006C13.7908 3.00006 13.3431 3.44777 13.3431 4.00006C13.3431 4.55234 13.7908 5.00006 14.3431 5.00006L17.5858 5.00006L13.6361 8.94975Z" fill="#181F26"/>
<path d="M5 14.3433L5 17.7575L9.12135 13.6362C9.51187 13.2456 10.145 13.2456 10.5356 13.6362C10.9261 14.0267 10.9261 14.6598 10.5356 15.0504L6.58576 19.0002H9.65685C10.2091 19.0002 10.6569 19.4479 10.6569 20.0002C10.6569 20.5525 10.2091 21.0002 9.65685 21.0002H4C3.44772 21.0002 3 20.5525 3 20.0002V14.3433C3 13.791 3.44771 13.3433 4 13.3433C4.55228 13.3433 5 13.791 5 14.3433Z" fill="#181F26"/>
</svg>
