<svg width="24" height="24" viewBox="0 0 24 24" fill="none" xmlns="http://www.w3.org/2000/svg">
<path fill-rule="evenodd" clip-rule="evenodd" d="M16 10.5C16 12.7091 14.2091 14.5 12 14.5C9.79086 14.5 8 12.7091 8 10.5C8 8.29086 9.79086 6.5 12 6.5C14.2091 6.5 16 8.29086 16 10.5ZM14 10.5C14 11.6046 13.1046 12.5 12 12.5C10.8954 12.5 10 11.6046 10 10.5C10 9.39543 10.8954 8.5 12 8.5C13.1046 8.5 14 9.39543 14 10.5Z" fill="#0F1A26"/>
<path fill-rule="evenodd" clip-rule="evenodd" d="M12 2.5C7.55535 2.5 4 6.19801 4 10.7C4 16.0168 7.89222 18.7958 11.2807 21.2151L11.4188 21.3137C11.7665 21.5621 12.2335 21.5621 12.5812 21.3137L12.7193 21.2151C16.1078 18.7958 20 16.0168 20 10.7C20 6.19801 16.4446 2.5 12 2.5ZM6 10.7C6 7.24909 8.71266 4.5 12 4.5C15.2873 4.5 18 7.24909 18 10.7C18 14.6808 15.3179 16.8807 12 19.2698C8.68211 16.8807 6 14.6808 6 10.7Z" fill="#0F1A26"/>
</svg>
