<svg width="24" height="24" viewBox="0 0 24 24" fill="none" xmlns="http://www.w3.org/2000/svg">
<path fill-rule="evenodd" clip-rule="evenodd" d="M4.5 4C4.22386 4 4 4.22386 4 4.5V19.5C4 19.7762 4.22385 20 4.5 20H19.5C19.7762 20 20 19.7762 20 19.5V14.7368C20 14.1846 20.4477 13.7368 21 13.7368C21.5523 13.7368 22 14.1846 22 14.7368V19.5C22 20.8807 20.8807 22 19.5 22H4.5C3.1193 22 2 20.8807 2 19.5V4.5C2 3.11929 3.11929 2 4.5 2H9C9.55228 2 10 2.44772 10 3C10 3.55228 9.55228 4 9 4H4.5ZM13 3C13 2.44772 13.4477 2 14 2H21C21.5523 2 22 2.44772 22 3V10C22 10.5523 21.5523 11 21 11C20.4477 11 20 10.5523 20 10V5.41419L13.6071 11.8071C13.2166 12.1976 12.5834 12.1976 12.1929 11.8071C11.8024 11.4165 11.8024 10.7834 12.1929 10.3928L18.5858 4H14C13.4477 4 13 3.55228 13 3Z" fill="#0F1A26"/>
</svg>
