<svg width="24" height="24" viewBox="0 0 24 24" fill="none" xmlns="http://www.w3.org/2000/svg">
<g clip-path="url(#clip0_4714_133)">
<path fill-rule="evenodd" clip-rule="evenodd" d="M13.1241 1.69374C12.718 1.69374 12.3852 2.01597 12.3721 2.42182L12.1129 10.4563C12.112 10.5536 12.0943 10.648 12.0622 10.7362C12.0313 10.8214 11.9872 10.9 11.9324 10.9698C11.8413 11.086 11.72 11.1787 11.578 11.2348C11.4957 11.2674 11.4072 11.2875 11.3149 11.2928C11.2216 11.2983 11.1302 11.2882 11.0438 11.2647C10.8082 11.2009 10.6145 11.0383 10.508 10.8255C10.4661 10.7416 10.4377 10.6499 10.4256 10.5534L9.47065 4.10753C9.39804 3.61739 8.90757 3.30568 8.43298 3.44806C8.07162 3.55647 7.83235 3.89925 7.85517 4.27582L8.39495 13.1833C8.41545 13.5217 8.23214 13.8397 7.92903 13.9916C7.62591 14.1435 7.26142 14.1 7.00259 13.881L4.41023 11.6874C3.96754 11.3128 3.30627 11.3624 2.9244 11.7988C2.61657 12.1506 2.57487 12.6623 2.82166 13.0593L6.3169 18.6821C7.89855 21.2266 10.8159 22.6184 13.7887 22.2468L15.0052 22.0947C16.7407 21.8778 18.1972 20.7591 18.7296 19.1594C19.1086 18.0207 19.4897 16.7286 19.7263 15.5459L21.3255 7.54993C21.3896 7.22922 21.2052 6.91074 20.8934 6.80682C20.5341 6.68707 20.149 6.8985 20.0572 7.26587L19.2138 10.6392C19.1661 10.8452 19.0448 11.0192 18.8818 11.1359C18.7795 11.2092 18.6607 11.2599 18.5335 11.2819C18.4329 11.2994 18.3276 11.2988 18.2222 11.2776C17.9752 11.2283 17.7718 11.0739 17.6536 10.8675C17.6128 10.7963 17.5822 10.7189 17.5634 10.6375C17.5408 10.5395 17.5354 10.4365 17.5497 10.3324L18.3011 4.07147C18.3478 3.68219 18.0872 3.32249 17.7027 3.24559C17.2815 3.16134 16.8755 3.44699 16.8126 3.87194L15.821 10.565C15.8145 10.6114 15.8043 10.6565 15.7907 10.7002C15.7064 10.9705 15.4934 11.1759 15.2319 11.2567C15.1411 11.2848 15.0444 11.2978 14.9452 11.2934C14.8215 11.2881 14.7043 11.2561 14.5994 11.2029C14.5341 11.1698 14.4739 11.1286 14.4202 11.0808C14.2808 10.9571 14.1823 10.7879 14.1483 10.5956C14.1409 10.5541 14.1366 10.5116 14.1356 10.4686L13.876 2.42182C13.8629 2.01597 13.5301 1.69374 13.1241 1.69374ZM19.8682 5.2275L19.9827 4.27327C20.1348 3.00603 19.2864 1.83506 18.0349 1.58475C17.0634 1.39045 16.1169 1.80047 15.5747 2.54794L15.5689 2.36721C15.5263 1.04767 14.4443 0 13.1241 0C11.8038 0 10.7218 1.04767 10.6793 2.36721L10.668 2.71599C10.0598 1.91216 8.99058 1.51246 7.94628 1.82575C6.832 2.16004 6.09416 3.21705 6.16453 4.37827L6.58449 11.3085L5.50429 10.3944C4.35587 9.42269 2.64038 9.55134 1.64974 10.6835C0.851157 11.5962 0.742957 12.9236 1.38319 13.9535L4.87843 19.5763C6.80905 22.6821 10.3701 24.381 13.9988 23.9274L15.2153 23.7754C17.5346 23.4854 19.5787 21.9717 20.3367 19.6942C20.7262 18.5238 21.1312 17.1578 21.3871 15.8781L22.9863 7.88209C23.2183 6.72224 22.5496 5.57354 21.429 5.2C20.898 5.023 20.3513 5.04668 19.8682 5.2275Z" fill="#05080D"/>
</g>
<defs>
<clipPath id="clip0_4714_133">
<rect width="24" height="24" fill="white"/>
</clipPath>
</defs>
</svg>
