<svg width="24" height="24" viewBox="0 0 24 24" fill="none" xmlns="http://www.w3.org/2000/svg">
<path fill-rule="evenodd" clip-rule="evenodd" d="M14.5619 2.31084C13.6488 1.96414 12.7766 2.11527 12.0771 2.5891C11.4171 3.03614 10.9562 3.73378 10.6706 4.45078L9.17255 8.21287L6.89653 7.23939L6.88437 7.23457C6.16905 6.95118 5.29438 7.09671 4.7405 7.74952C3.788 8.87215 1.56123 11.9314 2.07625 15.7237C2.33727 17.6458 3.0624 19.1126 3.72582 20.1012C4.05746 20.5954 4.37499 20.9722 4.61461 21.2297C4.73456 21.3587 4.83543 21.4582 4.90939 21.5281C4.94639 21.5631 4.9767 21.5907 4.99937 21.6109L5.02754 21.6357L5.03711 21.6439L5.04073 21.647L5.04224 21.6483L5.04355 21.6494L5.31486 21.8785H20.7149C21.4166 21.8785 21.8409 21.3605 21.9592 20.8997C22.0768 20.4418 21.9579 19.7969 21.3671 19.45C20.8215 19.1296 20.1517 18.7064 19.5258 18.2317C18.8892 17.7489 18.3496 17.2513 18.0195 16.791C17.7952 16.4783 17.6417 15.9238 17.5867 15.1918C17.534 14.4908 17.5805 13.7641 17.6388 13.2263C17.734 12.3474 17.2608 11.4436 16.3767 11.0906L14.5385 10.3748L16.0392 6.46601C16.3187 5.73787 16.4516 4.91269 16.2489 4.13847C16.033 3.31372 15.4604 2.65201 14.5619 2.31084ZM7.84838 19.9366H6.0641L6.03635 19.907C5.85667 19.7139 5.60524 19.417 5.33827 19.0191C4.80447 18.2237 4.2138 17.0333 4.00046 15.4624C3.82229 14.1504 4.07348 12.9256 4.48381 11.8804C6.44221 12.6778 9.15946 13.7744 11.4909 14.7134C12.8099 15.2446 14.0061 15.7256 14.8725 16.0738L15.8138 16.4518C15.9343 16.9706 16.1287 17.4866 16.4415 17.9227C16.938 18.615 17.6557 19.2507 18.3524 19.779C18.4226 19.8322 18.4932 19.8848 18.5639 19.9366H10.3701C10.3541 19.9199 10.3373 19.9036 10.3198 19.8877C9.09919 18.7835 8.71424 17.257 8.48343 16.1029C8.37827 15.5771 7.86676 15.2361 7.34094 15.3412C6.81512 15.4464 6.47411 15.9579 6.57927 16.4837C6.75065 17.3407 7.04563 18.6735 7.84838 19.9366ZM15.6246 14.2832L15.5966 14.2719C14.7305 13.9239 13.5348 13.4431 12.2163 12.9121C9.94786 11.9985 7.31777 10.9371 5.37753 10.1476C5.66773 9.69619 5.95447 9.3236 6.18605 9.04754L8.48856 10.0324C9.44857 10.443 10.5583 9.98183 10.9446 9.01178L12.4747 5.16919C12.6666 4.68745 12.9248 4.36036 13.1661 4.19686C13.368 4.06014 13.5794 4.01493 13.8726 4.12625C14.1974 4.24957 14.317 4.42682 14.3703 4.63028C14.4368 4.88428 14.4158 5.27659 14.2263 5.77001L12.6955 9.75731C12.3291 10.7118 12.8029 11.7829 13.7555 12.1538L15.6581 12.8946C15.6662 12.8982 15.6784 12.9062 15.6904 12.9271C15.704 12.9508 15.7119 12.983 15.7082 13.017C15.6702 13.3671 15.6346 13.8059 15.6246 14.2832Z" fill="black"/>
</svg>
