<svg width="24" height="24" viewBox="0 0 24 24" fill="none" xmlns="http://www.w3.org/2000/svg">
<path fill-rule="evenodd" clip-rule="evenodd" d="M21 4.9C21 4.40294 20.5971 4 20.1 4H3.9C3.40294 4 3 4.40294 3 4.9C3 5.39706 3.40294 5.8 3.9 5.8H20.1C20.5971 5.8 21 5.39706 21 4.9ZM21 18.9C21 18.4029 20.5971 18 20.1 18H3.9C3.40294 18 3 18.4029 3 18.9C3 19.3971 3.40294 19.8 3.9 19.8H20.1C20.5971 19.8 21 19.3971 21 18.9ZM20.1 11C20.5971 11 21 11.4029 21 11.9C21 12.3971 20.5971 12.8 20.1 12.8H3.9C3.40294 12.8 3 12.3971 3 11.9C3 11.4029 3.40294 11 3.9 11H20.1Z" fill="#181F26"/>
</svg>
