<svg width="24" height="24" viewBox="0 0 24 24" fill="none" xmlns="http://www.w3.org/2000/svg">
<path fill-rule="evenodd" clip-rule="evenodd" d="M18.6914 16.3883L20.3653 17.4828C20.7175 16.9443 21.0225 16.3637 21.2726 15.7444C21.5226 15.1252 21.7063 14.4956 21.8268 13.8635L19.8622 13.4888C19.766 13.9935 19.6191 14.4978 19.4181 14.9956C19.217 15.4934 18.9726 15.9582 18.6914 16.3883ZM19.8335 10.3712L21.7911 9.9618C21.5225 8.67725 21.0034 7.4551 20.2656 6.3698L18.6116 7.49424C19.2025 8.36333 19.6184 9.34257 19.8335 10.3712ZM16.3882 5.30875L17.4827 3.63483C16.9442 3.2827 16.3636 2.97766 15.7443 2.72759C15.1251 2.47753 14.4954 2.29389 13.8634 2.17334L13.4887 4.13792C13.9934 4.23419 14.4977 4.38109 14.9955 4.5821C15.4933 4.78311 15.9581 5.02755 16.3882 5.30875ZM10.3711 4.16666L9.96168 2.20901C8.67713 2.47766 7.45498 2.99671 6.36968 3.73453L7.49412 5.38851C8.36321 4.79767 9.34245 4.38179 10.3711 4.16666ZM2.72747 8.25584C2.97753 7.63656 3.28258 7.05599 3.63471 6.51746L5.30863 7.61198C5.02743 8.04204 4.78299 8.50691 4.58198 9.0047C4.38097 9.50249 4.23407 10.0067 4.1378 10.5115L2.17322 10.1368C2.29377 9.50471 2.4774 8.87511 2.72747 8.25584ZM4.16654 13.6291L2.20889 14.0385C2.47754 15.323 2.99659 16.5452 3.73441 17.6305L5.38839 16.506C4.79755 15.637 4.38167 14.6577 4.16654 13.6291ZM6.51782 20.3647L6.51733 20.3654C6.63553 20.4427 6.75576 20.5178 6.87798 20.5904C7.83362 21.1614 8.89254 21.5775 10.02 21.804C10.0589 21.8119 10.0978 21.8195 10.1366 21.8269L10.1367 21.8267C10.7404 21.9405 11.3632 22 12 22C14.0362 22 15.9302 21.3914 17.5102 20.3462C17.5504 20.3197 17.5905 20.2929 17.6304 20.2657L17.6302 20.2655C17.7555 20.18 17.8788 20.0917 18 20.0007V20L17.9999 20C17.9999 17.2385 15.7614 15 12.9999 15H10.9999C8.23852 15 5.99994 17.2386 5.99994 20L5.99954 20.0004C6.16824 20.1271 6.34108 20.2486 6.51782 20.3647ZM8.16326 19.0211C8.43213 19.1675 8.71269 19.3003 9.00457 19.4182C9.42136 19.5865 9.84268 19.7168 10.265 19.8113C10.8236 19.9348 11.4042 20 12 20C12.5582 20 13.103 19.9428 13.629 19.834L13.6289 19.8336C14.4012 19.6721 15.1456 19.3975 15.8364 19.0206C15.4305 17.8446 14.3138 17 12.9999 17H10.9999C9.68584 17 8.56907 17.8449 8.16326 19.0211ZM11.9999 7.99999C10.8954 7.99999 9.99994 8.89542 9.99994 9.99999C9.99994 11.1046 10.8954 12 11.9999 12C13.1045 12 13.9999 11.1046 13.9999 9.99999C13.9999 8.89542 13.1045 7.99999 11.9999 7.99999ZM7.99994 9.99999C7.99994 7.79086 9.7908 5.99999 11.9999 5.99999C14.2091 5.99999 15.9999 7.79086 15.9999 9.99999C15.9999 12.2091 14.2091 14 11.9999 14C9.7908 14 7.99994 12.2091 7.99994 9.99999Z" fill="black"/>
</svg>
