<svg width="24" height="24" viewBox="0 0 24 24" fill="none" xmlns="http://www.w3.org/2000/svg">
<path d="M16.1688 2H7.75893C6.95397 1.99999 6.2896 1.99998 5.74841 2.04419C5.18631 2.09012 4.66961 2.18868 4.18427 2.43598C3.43162 2.81947 2.8197 3.43139 2.43621 4.18404C2.18892 4.66937 2.09035 5.18608 2.04443 5.74818C2.00021 6.28937 2.00022 6.95373 2.00023 7.7587L2.00023 17.7148H2.00143L2 20.0572C1.99927 21.6503 3.76903 22.6023 5.09652 21.7308L9.45456 19.0171C9.77179 18.8195 10.138 18.7148 10.5117 18.7148H16.1688C16.9737 18.7149 17.6381 18.7149 18.1793 18.6707C18.7414 18.6247 19.2581 18.5262 19.7434 18.2789C20.4961 17.8954 21.108 17.2835 21.4915 16.5308C21.7552 16.0132 21.8428 15.3501 21.8844 14.7278C21.9174 14.2333 21.9256 13.3787 21.9274 12.6371C21.9287 12.0848 21.4798 11.6371 20.9275 11.6371C20.3752 11.6371 19.9281 12.0848 19.926 12.637C19.9231 13.3913 19.9145 14.2103 19.8888 14.5946C19.8486 15.1969 19.7727 15.4987 19.7095 15.6228C19.5177 15.9992 19.2118 16.3051 18.8355 16.4969C18.6791 16.5765 18.4549 16.6415 18.0164 16.6773C17.5664 16.7141 16.9841 16.7148 16.1275 16.7148H10.5117C9.76431 16.7148 9.03185 16.9243 8.39738 17.3193L4.01366 20.049L4 20.0582L4.00463 12.4674L4.00023 12.4674V7.8C4.00023 6.94342 4.00101 6.36113 4.03778 5.91104C4.0736 5.47262 4.13853 5.24842 4.21822 5.09202C4.40997 4.7157 4.71593 4.40973 5.09225 4.21799C5.24865 4.1383 5.47286 4.07337 5.91127 4.03755C6.36136 4.00078 6.94365 4 7.80023 4H16.1275C16.9841 4 17.5664 4.00078 18.0164 4.03755C18.4549 4.07337 18.6791 4.1383 18.8355 4.21799C19.2118 4.40973 19.5177 4.7157 19.7095 5.09202C19.7968 5.26342 19.8592 5.51065 19.8936 5.79905C19.9539 6.3043 20.34 6.71931 20.8488 6.71931H21.0036C21.5138 6.71931 21.9275 6.30566 21.9275 5.7954L21.9275 5.75912C21.9281 5.41042 21.9288 5.04223 21.4915 4.18404C21.108 3.43139 20.4961 2.81947 19.7434 2.43598C19.2581 2.18868 18.7414 2.09012 18.1793 2.04419C17.6381 1.99998 16.9737 1.99999 16.1688 2Z" fill="black"/>
<path d="M21.714 9.35305C22.1891 9.00273 22.2898 8.33327 21.9387 7.85871C21.5877 7.38442 20.9186 7.28469 20.4446 7.63603L14.7973 11.8221C14.5282 12.0216 14.3536 12.3234 14.3146 12.6561L14.2146 13.5107C14.2005 13.6307 14.2953 13.7356 14.4161 13.7339L15.4135 13.7194C15.6644 13.7158 15.9079 13.6337 16.1098 13.4849L21.714 9.35305Z" fill="black"/>
<path d="M7.14352 8.6155C7.14352 8.06321 7.59124 7.6155 8.14352 7.6155H14.6435C15.1958 7.6155 15.6435 8.06321 15.6435 8.6155C15.6435 9.16778 15.1958 9.6155 14.6435 9.6155L8.14352 9.6155C7.59124 9.6155 7.14352 9.16778 7.14352 8.6155Z" fill="black"/>
<path d="M8.14352 11.7854C7.59124 11.7854 7.14352 12.2331 7.14352 12.7854C7.14352 13.3377 7.59124 13.7854 8.14352 13.7854L11.6435 13.7854C12.1958 13.7854 12.6435 13.3377 12.6435 12.7854C12.6435 12.2331 12.1958 11.7854 11.6435 11.7854L8.14352 11.7854Z" fill="black"/>
</svg>
