<svg width="24" height="24" viewBox="0 0 24 24" fill="none" xmlns="http://www.w3.org/2000/svg">
<path d="M8.0429 13.5429C7.65238 13.9334 7.65238 14.5666 8.0429 14.9571C8.43343 15.3476 9.06659 15.3476 9.45711 14.9571L11.7071 12.7071C12.0976 12.3166 12.0976 11.6834 11.7071 11.2929L9.45712 9.04289C9.06659 8.65237 8.43343 8.65237 8.0429 9.04289C7.65238 9.43342 7.65238 10.0666 8.0429 10.4571L9.58579 12L8.0429 13.5429Z" fill="#181F26"/>
<path fill-rule="evenodd" clip-rule="evenodd" d="M6 22C3.79086 22 2 20.2091 2 18V6C2 3.79086 3.79086 2 6 2H18C20.2091 2 22 3.79086 22 6V18C22 20.2091 20.2091 22 18 22H6ZM6 4L15 4L15 20H6C4.89543 20 4 19.1046 4 18L4 6C4 4.89543 4.89543 4 6 4ZM17 4L17 20H18C19.1046 20 20 19.1046 20 18V6C20 4.89543 19.1046 4 18 4H17Z" fill="#181F26"/>
</svg>
