<svg width="24" height="24" viewBox="0 0 24 24" fill="none" xmlns="http://www.w3.org/2000/svg">
<path fill-rule="evenodd" clip-rule="evenodd" d="M3.20711 3.7072C2.81658 3.31668 2.18342 3.31668 1.79289 3.7072C1.40237 4.09772 1.40237 4.73089 1.79289 5.12141L2.8248 6.15332C1.75203 6.61051 1 7.67463 1 8.9144V16.9144C1 18.5713 2.34315 19.9144 4 19.9144H15C15.4632 19.9144 15.9018 19.8094 16.2935 19.622L18.7929 22.1214C19.1834 22.5119 19.8166 22.5119 20.2071 22.1214C20.5976 21.7309 20.5976 21.0977 20.2071 20.7072L3.20711 3.7072ZM14.5859 17.9144L4.58588 7.9144H4C3.44772 7.9144 3 8.36211 3 8.9144V16.9144C3 17.4667 3.44772 17.9144 4 17.9144H14.5859Z" fill="#05080D"/>
<path fill-rule="evenodd" clip-rule="evenodd" d="M16 14.5001L19.9012 18.4013C21.1931 19.2633 23 18.3517 23 16.7288V9.26062C23 7.49842 20.8862 6.59746 19.6149 7.81784L18 9.36818V8.9144C18 7.25755 16.6569 5.9144 15 5.9144H7.41431L9.41431 7.9144H15C15.5523 7.9144 16 8.36211 16 8.9144V14.5001ZM18 14.1369L21 16.7288V9.26062L18 12.1406V14.1369Z" fill="#05080D"/>
</svg>
