<svg width="24" height="24" viewBox="0 0 24 24" fill="none" xmlns="http://www.w3.org/2000/svg">
<path fill-rule="evenodd" clip-rule="evenodd" d="M7.7587 2H16.2413H16.2413C17.0463 1.99999 17.7106 1.99998 18.2518 2.04419C18.8139 2.09012 19.3306 2.18868 19.816 2.43598C20.5686 2.81947 21.1805 3.43139 21.564 4.18404C21.8113 4.66937 21.9099 5.18608 21.9558 5.74818C22 6.28936 22 6.95372 22 7.75868V11.5C22 12.0523 21.5523 12.5 21 12.5C20.4477 12.5 20 12.0523 20 11.5V7.8C20 6.94342 19.9992 6.36113 19.9625 5.91104C19.9266 5.47262 19.8617 5.24842 19.782 5.09202C19.5903 4.7157 19.2843 4.40973 18.908 4.21799C18.7516 4.1383 18.5274 4.07337 18.089 4.03755C17.6389 4.00078 17.0566 4 16.2 4H7.8C6.94342 4 6.36113 4.00078 5.91104 4.03755C5.47262 4.07337 5.24842 4.1383 5.09202 4.21799C4.7157 4.40973 4.40974 4.7157 4.21799 5.09202C4.1383 5.24842 4.07337 5.47262 4.03755 5.91104C4.00078 6.36113 4 6.94342 4 7.8V16.2001C4 17.0566 4.00078 17.6389 4.03755 18.089C4.07337 18.5274 4.1383 18.7516 4.21799 18.9081C4.40974 19.2844 4.7157 19.5903 5.09202 19.7821C5.24842 19.8618 5.47262 19.9267 5.91104 19.9625C6.36113 19.9993 6.94342 20.0001 7.8 20.0001H11.5C12.0523 20.0001 12.5 20.4478 12.5 21.0001C12.5 21.5524 12.0523 22.0001 11.5 22.0001H7.75868C6.95372 22.0001 6.28937 22.0001 5.74818 21.9559C5.18608 21.91 4.66938 21.8114 4.18404 21.5641C3.43139 21.1806 2.81947 20.5687 2.43598 19.816C2.18869 19.3307 2.09012 18.814 2.0442 18.2519C1.99998 17.7107 1.99999 17.0464 2 16.2414V16.2414V7.7587V7.75863C1.99999 6.95369 1.99998 6.28935 2.0442 5.74818C2.09012 5.18608 2.18869 4.66937 2.43598 4.18404C2.81947 3.43139 3.43139 2.81947 4.18404 2.43598C4.66938 2.18868 5.18608 2.09012 5.74818 2.04419C6.28937 1.99998 6.95372 1.99999 7.75869 2H7.7587ZM6 7C6 6.44772 6.44772 6 7 6L17 6C17.5523 6 18 6.44772 18 7C18 7.55229 17.5523 8 17 8L7 8C6.44772 8 6 7.55229 6 7ZM19.435 22.7931C19.0445 23.1837 18.4113 23.1837 18.0208 22.7931C17.6303 22.4026 17.6303 21.7694 18.0208 21.3789L20.0833 19.3165C18.8502 19.4496 17.492 19.4832 16.1769 19.3032C14.0464 19.0117 11.8502 18.1284 10.6317 15.9961C10.3577 15.5165 10.5243 14.9057 11.0038 14.6317C11.4834 14.3577 12.0942 14.5243 12.3682 15.0038C13.1498 16.3715 14.6202 17.0715 16.4481 17.3217C17.7257 17.4965 19.0908 17.4362 20.3179 17.274L18.0208 14.9769C17.6303 14.5863 17.6303 13.9532 18.0208 13.5626C18.4113 13.1721 19.0445 13.1721 19.435 13.5626L22.636 16.7637C23.4171 17.5447 23.4171 18.8111 22.636 19.5921L19.435 22.7931ZM6 11C6 10.4477 6.44772 10 7 10L11 10C11.5523 10 12 10.4477 12 11C12 11.5523 11.5523 12 11 12L7 12C6.44772 12 6 11.5523 6 11Z" fill="#05080D"/>
</svg>
