<svg width="24" height="24" viewBox="0 0 24 24" fill="none" xmlns="http://www.w3.org/2000/svg">
<path fill-rule="evenodd" clip-rule="evenodd" d="M11 4C11 3.44772 11.4477 3 12 3C12.5523 3 13 3.44772 13 4V10.2681L18.4283 7.13403C18.9066 6.85789 19.5182 7.02177 19.7943 7.50006C20.0705 7.97835 19.9066 8.58994 19.4283 8.86608L14.0002 12L19.4282 15.1338C19.9065 15.4099 20.0703 16.0215 19.7942 16.4998C19.5181 16.9781 18.9065 17.142 18.4282 16.8658L13 13.7319V20C13 20.5523 12.5523 21 12 21C11.4477 21 11 20.5523 11 20V13.7322L5.57188 16.8661C5.09359 17.1422 4.482 16.9784 4.20586 16.5001C3.92972 16.0218 4.09359 15.4102 4.57188 15.134L10.0002 12L4.57176 8.86584C4.09347 8.5897 3.92959 7.97811 4.20574 7.49981C4.48188 7.02152 5.09347 6.85765 5.57176 7.13379L11 10.2678V4Z" fill="#0F1A26"/>
</svg>
