<svg width="24" height="24" viewBox="0 0 24 24" fill="none" xmlns="http://www.w3.org/2000/svg">
<path fill-rule="evenodd" clip-rule="evenodd" d="M6.95591 8.01646L2.70711 3.76765C2.31658 3.37713 2.31658 2.74396 2.70711 2.35344C3.09763 1.96292 3.7308 1.96292 4.12132 2.35344L22.5061 20.7382C22.8966 21.1287 22.8966 21.7619 22.5061 22.1524C22.1156 22.543 21.4824 22.543 21.0919 22.1524L18.9232 19.9837L19.1578 21.3281C19.2236 21.7046 19.0689 22.0856 18.7594 22.3098C18.4499 22.534 18.0397 22.5622 17.7024 22.3825L11.9994 19.3428L6.29766 22.3824C5.96019 22.5623 5.54965 22.534 5.24008 22.3095C4.9305 22.0849 4.77611 21.7035 4.84234 21.3268L5.95324 15.0089L1.30096 10.4606C1.02893 10.1947 0.931367 9.7974 1.04925 9.43569C1.16713 9.07399 1.48003 8.81049 1.85652 8.7559L6.95591 8.01646ZM16.4637 17.5242L16.8354 19.654L12.4697 17.3271C12.1757 17.1704 11.8229 17.1704 11.5289 17.3272L7.16746 19.6523L8.01437 14.8357C8.07153 14.5106 7.96458 14.1783 7.72855 13.9475L4.14581 10.4449L8.72089 9.78144L16.4637 17.5242ZM19.8579 10.4438L17.3318 12.9177L18.7461 14.332L22.6997 10.46C22.9713 10.194 23.0686 9.79707 22.9508 9.43565C22.833 9.07424 22.5205 8.81086 22.1443 8.75601L15.7585 7.82487L12.8951 2.05544C12.7258 1.71437 12.3775 1.49903 11.9968 1.5C11.616 1.50098 11.2688 1.71811 11.1013 2.06004L9.5798 5.16568L11.0746 6.66048L12.0051 4.7611L14.1999 9.18336C14.3458 9.47732 14.6267 9.68099 14.9514 9.72834L19.8579 10.4438Z" fill="#333333"/>
</svg>
