<svg width="24" height="24" viewBox="0 0 24 24" fill="none" xmlns="http://www.w3.org/2000/svg">
<path fill-rule="evenodd" clip-rule="evenodd" d="M6.7 9.23558C6.7 6.35371 9.06317 4 12 4C14.9368 4 17.3 6.35371 17.3 9.23558V17.1436H6.7V9.23558ZM19.3 9.23558V17.1436H21C21.5523 17.1436 22 17.5913 22 18.1436C22 18.6958 21.5523 19.1436 21 19.1436H15.4674C15.2335 20.8495 13.7702 22.1638 12 22.1638C10.2298 22.1638 8.76648 20.8495 8.53261 19.1436H3C2.44772 19.1436 2 18.6958 2 18.1436C2 17.5913 2.44772 17.1436 3 17.1436H4.7V9.23558C4.7 5.22981 7.97803 2 12 2C16.022 2 19.3 5.22981 19.3 9.23558ZM12 20.1638C11.3469 20.1638 10.7913 19.7464 10.5854 19.1638H13.4146C13.2087 19.7464 12.6531 20.1638 12 20.1638Z" fill="#05080D"/>
</svg>
