<svg width="24" height="24" viewBox="0 0 24 24" fill="none" xmlns="http://www.w3.org/2000/svg">
<g clip-path="url(#clip0_4537_145)">
<path fill-rule="evenodd" clip-rule="evenodd" d="M1.85142 8.6425C0.0480374 10.3692 -0.0141126 13.2309 1.71261 15.0343L8.52445 22.1486C10.2512 23.952 13.1129 24.0141 14.9163 22.2874L23.5086 14.0603C23.9075 13.6784 23.9213 13.0453 23.5393 12.6464C23.1574 12.2475 22.5244 12.2338 22.1255 12.6157L13.5331 20.8428C12.5275 21.8056 10.9318 21.771 9.96903 20.7654L3.15719 13.6511C2.19438 12.6456 2.22903 11.0499 3.2346 10.0871L11.827 1.85999C12.2259 1.47804 12.2396 0.845021 11.8577 0.446109C11.4757 0.0471982 10.8427 0.0334506 10.4438 0.415404L1.85142 8.6425ZM13.5 2.99996C13.5 2.44768 13.9478 1.99996 14.5 1.99996H21.5C22.0523 1.99996 22.5 2.44768 22.5 2.99996V9.99996C22.5 10.5522 22.0523 11 21.5 11C20.9478 11 20.5 10.5522 20.5 9.99996V5.51388L14.2072 11.8068C13.8166 12.1973 13.1835 12.1973 12.7929 11.8068C12.4024 11.4163 12.4024 10.7831 12.7929 10.3926L19.1855 3.99996H14.5C13.9478 3.99996 13.5 3.55225 13.5 2.99996Z" fill="#05080D"/>
</g>
<defs>
<clipPath id="clip0_4537_145">
<rect width="24" height="24" fill="white"/>
</clipPath>
</defs>
</svg>
