<svg width="24" height="24" viewBox="0 0 24 24" fill="none" xmlns="http://www.w3.org/2000/svg">
<g clip-path="url(#clip0_315_16)">
<path fill-rule="evenodd" clip-rule="evenodd" d="M12 22.8C17.9647 22.8 22.8 17.9647 22.8 12C22.8 6.03532 17.9647 1.2 12 1.2C6.03532 1.2 1.2 6.03532 1.2 12C1.2 17.9647 6.03532 22.8 12 22.8ZM12 24C18.6274 24 24 18.6274 24 12C24 5.37258 18.6274 0 12 0C5.37258 0 0 5.37258 0 12C0 18.6274 5.37258 24 12 24Z" fill="#B0B7BF"/>
<rect x="8.72729" y="8.72729" width="6.54545" height="6.54545" rx="0.681818" fill="#F26661"/>
</g>
<defs>
<clipPath id="clip0_315_16">
<rect width="24" height="24" fill="white"/>
</clipPath>
</defs>
</svg>
