<svg width="24" height="24" viewBox="0 0 24 24" fill="none" xmlns="http://www.w3.org/2000/svg">
<path d="M9.14305 4.89607C9.95289 4.33124 10.9378 4 12 4C14.7614 4 17 6.23858 17 9C17 9.00632 17 9.01263 17 9.01894C16.835 9.00639 16.6682 9 16.5 9C15.5439 9 14.6359 9.20645 13.8184 9.5772L15.3813 11.1402C15.739 11.0486 16.1138 11 16.5 11C18.0367 11 19.3935 11.7703 20.2054 12.9458C20.2392 12.9948 20.272 13.0444 20.3039 13.0948C20.7448 13.7907 21 14.6158 21 15.5C21 15.5676 20.9985 15.6348 20.9956 15.7017C20.9817 16.0152 20.9358 16.3204 20.861 16.6141C20.8606 16.6156 20.8604 16.6173 20.86 16.6188L22.4226 18.1815C22.4232 18.1801 22.4238 18.1788 22.4244 18.1775C22.7479 17.463 22.946 16.6798 22.9904 15.8556C22.9968 15.7379 23 15.6193 23 15.5C23 12.7895 21.341 10.4665 18.983 9.4911C18.9943 9.32875 19 9.16498 19 9C19 5.13401 15.866 2 12 2C10.3848 2 8.89741 2.54704 7.71293 3.46595L9.14305 4.89607Z" fill="#181F26"/>
<path fill-rule="evenodd" clip-rule="evenodd" d="M7.76282 6.34427L6.32273 4.90418L6.32091 4.90669L4.20711 2.79289C3.81658 2.40237 3.18342 2.40237 2.79289 2.79289C2.40237 3.18342 2.40237 3.81658 2.79289 4.20711L5.36097 6.77518C5.12684 7.47412 5 8.22225 5 9C5 9.16509 5.00573 9.32896 5.01702 9.49142C2.65944 10.4668 1 12.7886 1 15.5C1 19.0899 3.91015 22 7.5 22H16.5C17.6751 22 18.7774 21.6882 19.7286 21.1428L20.7929 22.2071C21.1834 22.5976 21.8166 22.5976 22.2071 22.2071C22.5976 21.8166 22.5976 21.1834 22.2071 20.7929L21.2987 19.8844L21.3007 19.8822L19.8844 18.4659L19.8824 18.4682L7.76115 6.34693L7.76282 6.34427ZM7 9C7 8.81231 7.01034 8.62703 7.03049 8.4447L18.2379 19.6521C17.7032 19.8762 17.1161 20 16.5 20H7.5C5.01472 20 3 17.9853 3 15.5C3 13.4075 4.42919 11.6462 6.36622 11.1438C6.87916 11.0107 7.19926 10.5007 7.09599 9.98094C7.03313 9.66454 7 9.33664 7 9Z" fill="#181F26"/>
</svg>
