<svg width="24" height="24" viewBox="0 0 24 24" fill="none" xmlns="http://www.w3.org/2000/svg">
<path fill-rule="evenodd" clip-rule="evenodd" d="M12.5467 4.20737C12.8717 4.0029 13.0903 3.62061 13.0903 3.18275C13.0903 2.52953 12.6037 2 12.0034 2C11.4031 2 10.9164 2.52953 10.9164 3.18275C10.9164 3.62045 11.1349 4.00263 11.4597 4.20715V4.95684H12.5467V4.20737ZM3.58691 16.0796C3.63853 16.0796 3.6893 16.0757 3.739 16.0681C4.4589 17.9151 6.01153 19.2752 7.89229 19.5994C8.31474 19.6722 8.81963 19.6722 9.8294 19.6722H11.7589L11.7404 19.677C12.2486 19.8097 11.681 20.9213 11.2669 21.6174C11.1549 21.8058 11.3142 22.0544 11.5116 21.9895C12.9425 21.5191 16.5841 20.2096 18.5303 18.4894L18.5243 18.4901C19.2852 17.869 19.8902 17.0357 20.2672 16.0691C20.3149 16.076 20.3636 16.0796 20.413 16.0796C21.0133 16.0796 21.5 15.5501 21.5 14.8969V10.1659C21.5 9.51266 21.0133 8.98313 20.413 8.98313C20.3521 8.98313 20.2923 8.98859 20.234 8.99909C19.5002 7.19502 17.9663 5.87121 16.1143 5.55201C15.6918 5.4792 15.1869 5.4792 14.1772 5.4792H9.8294C8.81963 5.4792 8.31474 5.4792 7.89229 5.55201C6.03983 5.87127 4.50569 7.19557 3.77205 9.00022C3.71188 8.98898 3.65003 8.98313 3.58691 8.98313C2.98661 8.98313 2.49997 9.51266 2.49997 10.1659V14.8969C2.49997 15.5501 2.98661 16.0796 3.58691 16.0796ZM7.65527 10.2807C6.45468 10.2807 5.4814 11.3398 5.4814 12.6462C5.4814 13.9526 6.45468 15.0117 7.65527 15.0117H16.3508C17.5514 15.0117 18.5247 13.9526 18.5247 12.6462C18.5247 11.3398 17.5514 10.2807 16.3508 10.2807H7.65527ZM9.46234 12.6462C9.46234 13.2994 8.9757 13.8289 8.3754 13.8289C7.7751 13.8289 7.28846 13.2994 7.28846 12.6462C7.28846 11.993 7.7751 11.4634 8.3754 11.4634C8.9757 11.4634 9.46234 11.993 9.46234 12.6462ZM16.7174 12.6462C16.7174 13.2994 16.2307 13.8289 15.6304 13.8289C15.0301 13.8289 14.5435 13.2994 14.5435 12.6462C14.5435 11.993 15.0301 11.4634 15.6304 11.4634C16.2307 11.4634 16.7174 11.993 16.7174 12.6462Z" fill="#181F26"/>
</svg>
