<svg width="24" height="24" viewBox="0 0 24 24" fill="none" xmlns="http://www.w3.org/2000/svg">
<path fill-rule="evenodd" clip-rule="evenodd" d="M22.8 12C22.8 17.9647 17.9647 22.8 12 22.8C6.03532 22.8 1.2 17.9647 1.2 12C1.2 6.03532 6.03532 1.2 12 1.2C17.9647 1.2 22.8 6.03532 22.8 12ZM24 12C24 18.6274 18.6274 24 12 24C5.37258 24 0 18.6274 0 12C0 5.37258 5.37258 0 12 0C18.6274 0 24 5.37258 24 12ZM15.5292 12.5592C15.9283 12.2933 15.9283 11.7069 15.5292 11.441L10.8625 8.33216C10.416 8.03472 9.81817 8.3548 9.81817 8.89128L9.81817 15.1089C9.81817 15.6454 10.416 15.9655 10.8625 15.6681L15.5292 12.5592Z" fill="#3089F0"/>
</svg>
