<svg width="24" height="24" viewBox="0 0 24 24" fill="none" xmlns="http://www.w3.org/2000/svg">
<path d="M13.1201 17.0247L8.92108 14.7347C8.37288 15.3207 7.66107 15.7284 6.87816 15.9046C6.09524 16.0808 5.27743 16.0174 4.531 15.7227C3.78458 15.428 3.14404 14.9156 2.69265 14.2521C2.24126 13.5886 1.99988 12.8047 1.99988 12.0022C1.99988 11.1997 2.24126 10.4157 2.69265 9.75222C3.14404 9.08872 3.78458 8.57632 4.531 8.28163C5.27743 7.98694 6.09524 7.92358 6.87816 8.09978C7.66107 8.27599 8.37288 8.6836 8.92108 9.26967L13.1211 6.97967C12.8826 6.03574 12.9966 5.03726 13.4417 4.17137C13.8868 3.30549 14.6324 2.63165 15.5388 2.27617C16.4451 1.92069 17.45 1.90797 18.3651 2.2404C19.2801 2.57283 20.0425 3.22758 20.5094 4.08193C20.9762 4.93627 21.1155 5.93156 20.901 6.88121C20.6865 7.83087 20.133 8.6697 19.3443 9.24048C18.5556 9.81125 17.5858 10.0748 16.6167 9.98166C15.6476 9.88855 14.7457 9.44518 14.0801 8.73467L9.88008 11.0247C10.0413 11.666 10.0413 12.3373 9.88008 12.9787L14.0791 15.2687C14.7447 14.5582 15.6466 14.1148 16.6157 14.0217C17.5848 13.9286 18.5546 14.1921 19.3433 14.7629C20.132 15.3336 20.6855 16.1725 20.9 17.1221C21.1145 18.0718 20.9752 19.0671 20.5084 19.9214C20.0415 20.7758 19.2791 21.4305 18.3641 21.7629C17.449 22.0954 16.4441 22.0826 15.5378 21.7272C14.6314 21.3717 13.8858 20.6979 13.4407 19.832C12.9956 18.9661 12.8816 17.9676 13.1201 17.0237V17.0247ZM6.00008 14.0017C6.53052 14.0017 7.03922 13.791 7.4143 13.4159C7.78937 13.0408 8.00008 12.5321 8.00008 12.0017C8.00008 11.4712 7.78937 10.9625 7.4143 10.5875C7.03922 10.2124 6.53052 10.0017 6.00008 10.0017C5.46965 10.0017 4.96094 10.2124 4.58587 10.5875C4.2108 10.9625 4.00008 11.4712 4.00008 12.0017C4.00008 12.5321 4.2108 13.0408 4.58587 13.4159C4.96094 13.791 5.46965 14.0017 6.00008 14.0017ZM17.0001 8.00167C17.5305 8.00167 18.0392 7.79096 18.4143 7.41588C18.7894 7.04081 19.0001 6.5321 19.0001 6.00167C19.0001 5.47124 18.7894 4.96253 18.4143 4.58745C18.0392 4.21238 17.5305 4.00167 17.0001 4.00167C16.4697 4.00167 15.9609 4.21238 15.5859 4.58745C15.2108 4.96253 15.0001 5.47124 15.0001 6.00167C15.0001 6.5321 15.2108 7.04081 15.5859 7.41588C15.9609 7.79096 16.4697 8.00167 17.0001 8.00167ZM17.0001 20.0017C17.5305 20.0017 18.0392 19.791 18.4143 19.4159C18.7894 19.0408 19.0001 18.5321 19.0001 18.0017C19.0001 17.4712 18.7894 16.9625 18.4143 16.5875C18.0392 16.2124 17.5305 16.0017 17.0001 16.0017C16.4697 16.0017 15.9609 16.2124 15.5859 16.5875C15.2108 16.9625 15.0001 17.4712 15.0001 18.0017C15.0001 18.5321 15.2108 19.0408 15.5859 19.4159C15.9609 19.791 16.4697 20.0017 17.0001 20.0017Z" fill="#0F1A26"/>
</svg>
