<svg width="24" height="24" viewBox="0 0 24 24" fill="none" xmlns="http://www.w3.org/2000/svg">
<path d="M10 9.9637V14.2245C10 15.0038 10.8519 15.4836 11.5183 15.0797L14.7139 13.143C15.325 12.7726 15.3617 11.8994 14.7838 11.4791L11.5882 9.15496C10.9272 8.67426 10 9.14641 10 9.9637Z" fill="#181F26"/>
<path fill-rule="evenodd" clip-rule="evenodd" d="M22 12C22 17.5228 17.5228 22 12 22C6.47715 22 2 17.5228 2 12C2 6.47715 6.47715 2 12 2C17.5228 2 22 6.47715 22 12ZM20 12C20 16.4183 16.4183 20 12 20C7.58172 20 4 16.4183 4 12C4 7.58172 7.58172 4 12 4C16.4183 4 20 7.58172 20 12Z" fill="#181F26"/>
</svg>
