<svg width="24" height="24" viewBox="0 0 24 24" fill="none" xmlns="http://www.w3.org/2000/svg">
<path fill-rule="evenodd" clip-rule="evenodd" d="M7 8C7 7.44772 7.44772 7 8 7H16C16.5523 7 17 7.44772 17 8C17 8.55228 16.5523 9 16 9H8C7.44772 9 7 8.55228 7 8Z" fill="#0F1A26"/>
<path fill-rule="evenodd" clip-rule="evenodd" d="M8 12C8 11.4477 8.44772 11 9 11H15C15.5523 11 16 11.4477 16 12C16 12.5523 15.5523 13 15 13H9C8.44772 13 8 12.5523 8 12Z" fill="#0F1A26"/>
<path fill-rule="evenodd" clip-rule="evenodd" d="M3 6C3 3.79086 4.79086 2 7 2H17C19.2091 2 21 3.79086 21 6V20C21 21.6481 19.1185 22.5889 17.8 21.6L17.2 21.15C16.4889 20.6167 15.5111 20.6167 14.8 21.15L14.5454 21.3409C13.0333 22.475 10.9338 22.3959 9.5114 21.1512L9.31701 20.9811C8.56296 20.3214 7.43704 20.3214 6.68299 20.9812L6.31701 21.3014C5.02384 22.4329 3 21.5145 3 19.7962V6ZM7 4C5.89543 4 5 4.89543 5 6V19.7962L5.36598 19.476C6.87408 18.1564 9.12591 18.1564 10.634 19.476L10.8284 19.6461C11.5396 20.2684 12.5894 20.308 13.3454 19.7409L13.6 19.55C15.0222 18.4833 16.9778 18.4833 18.4 19.55L19 20V6C19 4.89543 18.1046 4 17 4H7Z" fill="#0F1A26"/>
</svg>
