<svg width="24" height="24" viewBox="0 0 24 24" fill="none" xmlns="http://www.w3.org/2000/svg">
<path d="M9 9.04702V15.1584C9 15.9516 9.87933 16.4291 10.5446 15.9971L14.8225 13.2192C15.399 12.8449 15.4347 12.0141 14.8926 11.5917L10.6146 8.25822C9.95792 7.74648 9 8.21446 9 9.04702Z" fill="#181F26"/>
<path fill-rule="evenodd" clip-rule="evenodd" d="M6.5 2C4.84315 2 3.5 3.34315 3.5 5V19C3.5 20.6569 4.84315 22 6.5 22H17.5C19.1569 22 20.5 20.6569 20.5 19V8.18622C20.5 7.51909 20.2776 6.87099 19.8681 6.34439L17.3899 3.15818C16.8215 2.42742 15.9476 2 15.0218 2H6.5ZM5.5 5C5.5 4.44772 5.94772 4 6.5 4H15.0218C15.3304 4 15.6217 4.14247 15.8112 4.38606L18.2894 7.57228C18.4259 7.74781 18.5 7.96384 18.5 8.18622V19C18.5 19.5523 18.0523 20 17.5 20H6.5C5.94772 20 5.5 19.5523 5.5 19V5Z" fill="#181F26"/>
</svg>
