<svg width="24" height="24" viewBox="0 0 24 24" fill="none" xmlns="http://www.w3.org/2000/svg">
<path fill-rule="evenodd" clip-rule="evenodd" d="M5 6C3.34315 6 2 7.34315 2 9V15C2 16.6569 3.34315 18 5 18H15C16.5572 18 17.8373 16.8136 17.9856 15.2954L19.246 16.0831C20.4449 16.8324 22 15.9705 22 14.5567V9.4435C22 8.02972 20.4449 7.1678 19.246 7.91711L17.9857 8.70482C17.8374 7.18651 16.5573 6 15 6H5ZM18 11.0544V12.9459L20 14.1959V9.80435L18 11.0544ZM16 9.94586V9C16 8.44772 15.5523 8 15 8H5C4.44772 8 4 8.44772 4 9V15C4 15.5523 4.44772 16 5 16H15C15.5523 16 16 15.5523 16 15V14.0544V9.94586Z" fill="#05080D"/>
</svg>
