<svg width="24" height="24" viewBox="0 0 24 24" fill="none" xmlns="http://www.w3.org/2000/svg">
<path fill-rule="evenodd" clip-rule="evenodd" d="M2 8C2 6.89543 2.89543 6 4 6H15.5C16.6046 6 17.5 6.89543 17.5 8V16C17.5 17.1046 16.6046 18 15.5 18H4C2.89543 18 2 17.1046 2 16V8ZM18 9.9434C18 9.66757 18.1421 9.41119 18.376 9.265L20.776 7.765C21.3088 7.43198 22 7.81505 22 8.4434V15.5566C22 16.1849 21.3088 16.568 20.776 16.235L18.376 14.735C18.1421 14.5888 18 14.3324 18 14.0566V9.9434ZM5.5 11C6.32843 11 7 10.3284 7 9.5C7 8.67157 6.32843 8 5.5 8C4.67157 8 4 8.67157 4 9.5C4 10.3284 4.67157 11 5.5 11Z" fill="#05080D"/>
</svg>
