<svg width="24" height="24" viewBox="0 0 24 24" fill="none" xmlns="http://www.w3.org/2000/svg">
<path fill-rule="evenodd" clip-rule="evenodd" d="M2 12C2 6.47715 6.47715 2 12 2C17.5228 2 22 6.47715 22 12C22 17.5228 17.5228 22 12 22C6.47715 22 2 17.5228 2 12ZM4.21744 10.1396C4.07527 10.7366 4 11.3595 4 12C4 15.2186 5.90075 17.9933 8.64101 19.2628L11.1085 16.9716C9.9233 16.7605 8.88122 16.1359 8.13667 15.2524C8.08656 15.2087 8.0401 15.1592 7.99823 15.1043L4.21744 10.1396ZM5.08396 7.9764L7.12916 10.662C7.71558 8.5223 9.67416 6.95 12 6.95H18.205C16.738 5.14976 14.5033 4 12 4C9.04862 4 6.47052 5.59822 5.08396 7.9764ZM19.398 8.95H16.0253C16.6684 9.79741 17.05 10.8541 17.05 12C17.05 13.5956 16.31 15.0183 15.1545 15.9438L10.8714 19.921C11.2401 19.9731 11.6169 20 12 20C16.4183 20 20 16.4183 20 12C20 10.92 19.786 9.88995 19.398 8.95ZM13.9732 14.3258C14.632 13.7664 15.05 12.932 15.05 12C15.05 10.3155 13.6845 8.95 12 8.95C10.3155 8.95 8.95 10.3155 8.95 12C8.95 13.6845 10.3155 15.05 12 15.05C12.6977 15.05 13.3408 14.8157 13.8547 14.4215L13.8593 14.4172C13.8956 14.3835 13.9336 14.3531 13.9732 14.3258Z" fill="#0F1A26"/>
</svg>
