<svg width="24" height="24" viewBox="0 0 24 24" fill="none" xmlns="http://www.w3.org/2000/svg">
<path d="M10 9.9637V14.2245C10 15.0038 10.8519 15.4836 11.5183 15.0797L14.7139 13.143C15.325 12.7726 15.3617 11.8994 14.7838 11.4791L11.5882 9.15496C10.9272 8.67426 10 9.14641 10 9.9637Z" fill="#181F26"/>
<path fill-rule="evenodd" clip-rule="evenodd" d="M12 4C8.96973 4 6.61068 4.17844 4.92305 4.37719C2.5549 4.65608 1 6.69728 1 8.96052V15.0395C1 17.3027 2.5549 19.3439 4.92305 19.6228C6.61068 19.8216 8.96973 20 12 20C15.0303 20 17.3893 19.8216 19.077 19.6228C21.4451 19.3439 23 17.3027 23 15.0395V8.96052C23 6.69728 21.4451 4.65608 19.077 4.37719C17.3893 4.17844 15.0303 4 12 4ZM5.15697 6.36346C6.7675 6.17379 9.04844 6 12 6C14.9516 6 17.2325 6.17379 18.843 6.36346C20.0859 6.50983 21 7.58776 21 8.96052V15.0395C21 16.4122 20.0859 17.4902 18.843 17.6365C17.2325 17.8262 14.9516 18 12 18C9.04844 18 6.76749 17.8262 5.15697 17.6365C3.91408 17.4902 3 16.4122 3 15.0395V8.96052C3 7.58776 3.91408 6.50983 5.15697 6.36346Z" fill="#181F26"/>
</svg>
