<svg width="24" height="24" viewBox="0 0 24 24" fill="none" xmlns="http://www.w3.org/2000/svg">
<path fill-rule="evenodd" clip-rule="evenodd" d="M16 2C16.5523 2 17 2.44772 17 3V4.00163C17.4755 4.00489 17.891 4.01472 18.2518 4.04419C18.8139 4.09012 19.3306 4.18868 19.816 4.43597C20.5686 4.81947 21.1805 5.43139 21.564 6.18404C21.8113 6.66937 21.9099 7.18608 21.9558 7.74817C22 8.28936 22 8.95372 22 9.75868V13.5C22 14.0523 21.5523 14.5 21 14.5C20.4477 14.5 20 14.0523 20 13.5V9.8C20 8.94342 19.9992 8.36113 19.9624 7.91104C19.9266 7.47262 19.8617 7.24842 19.782 7.09202C19.5903 6.7157 19.2843 6.40973 18.908 6.21799C18.7516 6.1383 18.5274 6.07337 18.089 6.03755C17.7954 6.01357 17.4455 6.00489 17 6.00176V7C17 7.55228 16.5523 8 16 8C15.4477 8 15 7.55228 15 7V6H9V7C9 7.55228 8.55228 8 8 8C7.44772 8 7 7.55228 7 7V6.00176C6.55447 6.00489 6.20463 6.01357 5.91104 6.03755C5.47262 6.07337 5.24842 6.1383 5.09202 6.21799C4.7157 6.40973 4.40973 6.7157 4.21799 7.09202C4.1383 7.24842 4.07337 7.47262 4.03755 7.91104C4.00078 8.36113 4 8.94342 4 9.8V16.2C4 17.0566 4.00078 17.6389 4.03755 18.089C4.07337 18.5274 4.1383 18.7516 4.21799 18.908C4.40973 19.2843 4.7157 19.5903 5.09202 19.782C5.24842 19.8617 5.47262 19.9266 5.91104 19.9624C6.36113 19.9992 6.94342 20 7.8 20H11C11.5523 20 12 20.4477 12 21C12 21.5523 11.5523 22 11 22H7.75868C6.95372 22 6.28936 22 5.74817 21.9558C5.18608 21.9099 4.66937 21.8113 4.18404 21.564C3.43139 21.1805 2.81947 20.5686 2.43597 19.816C2.18868 19.3306 2.09012 18.8139 2.04419 18.2518C1.99998 17.7106 1.99999 17.0463 2 16.2413V16.2413V9.7587V9.75869C1.99999 8.95372 1.99998 8.28937 2.04419 7.74817C2.09012 7.18608 2.18868 6.66937 2.43597 6.18404C2.81947 5.43139 3.43139 4.81947 4.18404 4.43597C4.66937 4.18868 5.18608 4.09012 5.74817 4.04419C6.10898 4.01472 6.52454 4.00489 7 4.00163V3C7 2.44772 7.44772 2 8 2C8.55228 2 9 2.44772 9 3V4H15V3C15 2.44772 15.4477 2 16 2ZM6 11C6 10.4477 6.44772 10 7 10L17 10C17.5523 10 18 10.4477 18 11C18 11.5523 17.5523 12 17 12L7 12C6.44772 12 6 11.5523 6 11ZM7 14C6.44772 14 6 14.4477 6 15C6 15.5523 6.44772 16 7 16L12 16C12.5523 16 13 15.5523 13 15C13 14.4477 12.5523 14 12 14L7 14ZM13.1871 17.9177C14.4895 16.0995 16.0893 15 18 15C19.9107 15 21.5105 16.0995 22.8129 17.9177C23.0624 18.2658 23.0624 18.7342 22.8129 19.0823C21.5105 20.9006 19.9107 22 18 22C16.0893 22 14.4895 20.9006 13.1871 19.0823C12.9376 18.7342 12.9376 18.2658 13.1871 17.9177ZM15.2682 18.5C16.1968 19.5807 17.1103 20 18 20C18.8897 20 19.8032 19.5807 20.7318 18.5C19.8032 17.4193 18.8897 17 18 17C17.1103 17 16.1968 17.4193 15.2682 18.5ZM19 18.5C19 19.0523 18.5523 19.5 18 19.5C17.4477 19.5 17 19.0523 17 18.5C17 17.9477 17.4477 17.5 18 17.5C18.5523 17.5 19 17.9477 19 18.5Z" fill="#181F26"/>
</svg>
