<svg width="24" height="24" viewBox="0 0 24 24" fill="none" xmlns="http://www.w3.org/2000/svg">
<path fill-rule="evenodd" clip-rule="evenodd" d="M6.5 2C4.84315 2 3.5 3.34315 3.5 5V19C3.5 20.6569 4.84315 22 6.5 22H17.5C19.1569 22 20.5 20.6569 20.5 19V5C20.5 3.34315 19.1569 2 17.5 2H6.5ZM6.99998 7C6.99998 6.44772 7.44769 6 7.99998 6H16C16.5523 6 17 6.44772 17 7V11C17 11.5523 16.5523 12 16 12H7.99998C7.44769 12 6.99998 11.5523 6.99998 11V7ZM6.99998 17C6.99998 16.4477 7.44769 16 7.99998 16H16C16.5523 16 17 16.4477 17 17C17 17.5523 16.5523 18 16 18H7.99998C7.44769 18 6.99998 17.5523 6.99998 17Z" fill="#181F26"/>
</svg>
