<svg width="24" height="24" viewBox="0 0 24 24" fill="none" xmlns="http://www.w3.org/2000/svg">
<path fill-rule="evenodd" clip-rule="evenodd" d="M22 7.7587L22 13C22 13.5523 21.5523 14 21 14C20.4477 14 20 13.5523 20 13V7.8C20 6.94342 19.9992 6.36113 19.9625 5.91104C19.9266 5.47262 19.8617 5.24842 19.782 5.09202C19.5903 4.7157 19.2843 4.40973 18.908 4.21799C18.7516 4.1383 18.5274 4.07337 18.089 4.03755C17.6389 4.00078 17.0566 4 16.2 4L7.8 4C6.94342 4 6.36113 4.00078 5.91104 4.03755C5.47262 4.07337 5.24842 4.1383 5.09202 4.21799C4.7157 4.40973 4.40973 4.7157 4.21799 5.09202C4.1383 5.24842 4.07337 5.47262 4.03755 5.91104C4.00078 6.36113 4 6.94342 4 7.8L4 16.2C4 17.0566 4.00078 17.6389 4.03755 18.089C4.07193 18.5097 4.13312 18.7332 4.20843 18.8887C4.2342 18.8555 4.26235 18.8234 4.29289 18.7929L12.7929 10.2929C13.1586 9.92718 13.7429 9.90068 14.1402 10.2318L17.1402 12.7318C17.5645 13.0853 17.6218 13.7159 17.2682 14.1402C16.9147 14.5645 16.2841 14.6218 15.8598 14.2682L13.5614 12.3529L5.94879 19.9654C6.39364 19.9993 6.96718 20 7.8 20H14C14.5523 20 15 20.4477 15 21C15 21.5523 14.5523 22 14 22H7.75868C6.95372 22 6.28936 22 5.74817 21.9558C5.18608 21.9099 4.66937 21.8113 4.18404 21.564C3.43139 21.1805 2.81947 20.5686 2.43598 19.816C2.18868 19.3306 2.09012 18.8139 2.04419 18.2518C1.99998 17.7106 1.99999 17.0463 2 16.2413V7.75868C1.99999 6.95372 1.99998 6.28936 2.0442 5.74817C2.09012 5.18608 2.18868 4.66937 2.43598 4.18404C2.81947 3.43139 3.43139 2.81947 4.18404 2.43597C4.66937 2.18868 5.18608 2.09012 5.74817 2.04419C6.28937 1.99998 6.95372 1.99999 7.75868 2H7.7587H16.2413H16.2413C17.0463 1.99999 17.7106 1.99998 18.2518 2.0442C18.8139 2.09012 19.3306 2.18868 19.816 2.43598C20.5686 2.81947 21.1805 3.43139 21.564 4.18404C21.8113 4.66938 21.9099 5.18608 21.9558 5.74818C22 6.28935 22 6.95367 22 7.75859V7.7587ZM15 18.5C15 17.9477 15.4477 17.5 16 17.5H17.5V16C17.5 15.4477 17.9477 15 18.5 15C19.0523 15 19.5 15.4477 19.5 16V17.5H21C21.5523 17.5 22 17.9477 22 18.5C22 19.0523 21.5523 19.5 21 19.5H19.5V21C19.5 21.5523 19.0523 22 18.5 22C17.9477 22 17.5 21.5523 17.5 21V19.5H16C15.4477 19.5 15 19.0523 15 18.5ZM10 8.5C10 9.32843 9.32843 10 8.5 10C7.67157 10 7 9.32843 7 8.5C7 7.67157 7.67157 7 8.5 7C9.32843 7 10 7.67157 10 8.5Z" fill="#0F1A26"/>
</svg>
