<svg width="24" height="24" viewBox="0 0 24 24" fill="none" xmlns="http://www.w3.org/2000/svg">
<path fill-rule="evenodd" clip-rule="evenodd" d="M10 4.75C8.75736 4.75 7.75 5.75736 7.75 7C7.75 8.24264 8.75736 9.25 10 9.25C11.2426 9.25 12.25 8.24264 12.25 7C12.25 5.75736 11.2426 4.75 10 4.75ZM3 8H6.38481C6.82243 9.58559 8.27523 10.75 10 10.75C12.0711 10.75 13.75 9.07107 13.75 7C13.75 4.92893 12.0711 3.25 10 3.25C8.27523 3.25 6.82243 4.41441 6.38481 6H3C2.44772 6 2 6.44772 2 7C2 7.55228 2.44772 8 3 8ZM15.5 6C14.9477 6 14.5 6.44772 14.5 7C14.5 7.55228 14.9477 8 15.5 8H21C21.5523 8 22 7.55228 22 7C22 6.44772 21.5523 6 21 6H15.5ZM2 17C2 16.4477 2.44772 16 3 16H8.5C9.05228 16 9.5 16.4477 9.5 17C9.5 17.5523 9.05228 18 8.5 18H3C2.44772 18 2 17.5523 2 17ZM17.6152 18H21C21.5523 18 22 17.5523 22 17C22 16.4477 21.5523 16 21 16H17.6152C17.1776 14.4144 15.7248 13.25 14 13.25C11.9289 13.25 10.25 14.9289 10.25 17C10.25 19.0711 11.9289 20.75 14 20.75C15.7248 20.75 17.1776 19.5856 17.6152 18ZM11.75 17C11.75 15.7574 12.7574 14.75 14 14.75C15.2426 14.75 16.25 15.7574 16.25 17C16.25 18.2426 15.2426 19.25 14 19.25C12.7574 19.25 11.75 18.2426 11.75 17Z" fill="#181F26"/>
</svg>
