<svg width="24" height="24" viewBox="0 0 24 24" fill="none" xmlns="http://www.w3.org/2000/svg">
<path fill-rule="evenodd" clip-rule="evenodd" d="M22.8 12C22.8 17.9647 17.9647 22.8 12 22.8C6.03532 22.8 1.2 17.9647 1.2 12C1.2 6.03532 6.03532 1.2 12 1.2C17.9647 1.2 22.8 6.03532 22.8 12ZM24 12C24 18.6274 18.6274 24 12 24C5.37258 24 0 18.6274 0 12C0 5.37258 5.37258 0 12 0C18.6274 0 24 5.37258 24 12ZM13.6364 9.54548C13.6364 9.09361 14.0027 8.72729 14.4545 8.72729C14.9064 8.72729 15.2727 9.09361 15.2727 9.54548V14.4546C15.2727 14.9064 14.9064 15.2727 14.4545 15.2727C14.0027 15.2727 13.6364 14.9064 13.6364 14.4546V9.54548ZM8.72729 9.54561C8.72729 9.09374 9.09361 8.72743 9.54548 8.72743C9.99735 8.72743 10.3637 9.09374 10.3637 9.54561V14.4547C10.3637 14.9066 9.99735 15.2729 9.54548 15.2729C9.09361 15.2729 8.72729 14.9066 8.72729 14.4547V9.54561Z" fill="#3089F0"/>
</svg>
