<svg width="24" height="24" viewBox="0 0 24 24" fill="none" xmlns="http://www.w3.org/2000/svg">
<path d="M14 5.00049C14 3.90049 13.1 3.00049 12 3.00049C10.9 3.00049 10 3.90049 10 5.00049C10 6.10049 10.9 7.00049 12 7.00049C13.1 7.00049 14 6.10049 14 5.00049ZM14 19.0005C14 17.9005 13.1 17.0005 12 17.0005C10.9 17.0005 10 17.9005 10 19.0005C10 20.1005 10.9 21.0005 12 21.0005C13.1 21.0005 14 20.1005 14 19.0005ZM14 12.0005C14 10.9005 13.1 10.0005 12 10.0005C10.9 10.0005 10 10.9005 10 12.0005C10 13.1005 10.9 14.0005 12 14.0005C13.1 14.0005 14 13.1005 14 12.0005Z" fill="#181F26"/>
</svg>
