<svg width="24" height="24" viewBox="0 0 24 24" fill="none" xmlns="http://www.w3.org/2000/svg">
<path fill-rule="evenodd" clip-rule="evenodd" d="M7 4C5.89543 4 5 4.89543 5 6V18C5 19.1046 5.89543 20 7 20H17C18.1046 20 19 19.1046 19 18V9.5H16.5C14.8431 9.5 13.5 8.15685 13.5 6.5V4H7ZM14.5 2H7C4.79086 2 3 3.79086 3 6V18C3 20.2091 4.79086 22 7 22H17C19.2091 22 21 20.2091 21 18V8.5V7.5C21 7.25509 20.9101 7.01869 20.7474 6.83564L16.7474 2.33564C16.5576 2.12215 16.2856 2 16 2H14.5ZM15.5 4V6.5C15.5 7.05228 15.9477 7.5 16.5 7.5H18.662L15.5509 4H15.5ZM12.2929 11.2929C12.6834 10.9024 13.3166 10.9024 13.7071 11.2929L16.7071 14.2929C16.9931 14.5789 17.0787 15.009 16.9239 15.3827C16.7691 15.7564 16.4045 16 16 16H8C7.44772 16 7 15.5523 7 15C7 14.4477 7.44772 14 8 14H13.5858L12.2929 12.7071C11.9024 12.3166 11.9024 11.6834 12.2929 11.2929Z" fill="#181F26"/>
</svg>
