<svg width="24" height="24" viewBox="0 0 24 24" fill="none" xmlns="http://www.w3.org/2000/svg">
<path fill-rule="evenodd" clip-rule="evenodd" d="M12.2929 11.2929C12.6834 10.9024 13.3166 10.9024 13.7071 11.2929L16.7071 14.2929C16.9931 14.5789 17.0787 15.009 16.9239 15.3827C16.7691 15.7564 16.4045 16 16 16H8C7.44772 16 7 15.5523 7 15C7 14.4477 7.44772 14 8 14H13.5858L12.2929 12.7071C11.9024 12.3166 11.9024 11.6834 12.2929 11.2929Z" fill="black"/>
<path fill-rule="evenodd" clip-rule="evenodd" d="M6 2.5C3.79086 2.5 2 4.29086 2 6.5V17.5C2 19.7091 3.79086 21.5 6 21.5H18C20.2091 21.5 22 19.7091 22 17.5V8.5C22 6.29086 20.2091 4.5 18 4.5H13.5523C13.0982 4.5 12.6576 4.34544 12.303 4.06174L11.1725 3.15739C10.6406 2.73184 9.97965 2.5 9.29844 2.5H6ZM4 6.5C4 5.39543 4.89543 4.5 6 4.5H9.29844C9.52551 4.5 9.74582 4.57728 9.92313 4.71913L11.0536 5.62347C11.7628 6.19088 12.6441 6.5 13.5523 6.5H18C19.1046 6.5 20 7.39543 20 8.5V17.5C20 18.6046 19.1046 19.5 18 19.5H6C4.89543 19.5 4 18.6046 4 17.5V6.5Z" fill="#05080D"/>
</svg>
