<svg width="24" height="24" viewBox="0 0 24 24" fill="none" xmlns="http://www.w3.org/2000/svg">
<path d="M12 2C8.38851 2 5.42386 4.74613 5.04167 8.2647C2.68673 9.08158 1 11.3277 1 13.9664C1 17.2912 3.68058 19.9968 7 19.9968C7.55228 19.9968 8 19.5491 8 18.9968C8 18.4445 7.55228 17.9968 7 17.9968C4.79658 17.9968 3 16.1981 3 13.9664C3 12.0131 4.37823 10.3884 6.2001 10.0163C6.66564 9.92124 7 9.5117 7 9.03654C7 6.24921 9.2443 4 12 4C14.7557 4 17 6.24921 17 9.03654C17 9.5117 17.3344 9.92124 17.7999 10.0163C19.6218 10.3884 21 12.0131 21 13.9664C21 16.1981 19.2034 17.9968 17 17.9968C16.4477 17.9968 16 18.4445 16 18.9968C16 19.5491 16.4477 19.9968 17 19.9968C20.3194 19.9968 23 17.2912 23 13.9664C23 11.3277 21.3133 9.08159 18.9583 8.2647C18.5761 4.74613 15.6115 2 12 2Z" fill="#181F26"/>
<path d="M11.2424 11.9259C11.6316 11.5354 12.2636 11.5336 12.655 11.922L16.2209 15.4602C16.613 15.8492 16.6155 16.4823 16.2265 16.8744C15.8375 17.2664 15.2043 17.2689 14.8123 16.8799L13 15.0817V21C13 21.5523 12.5523 22 12 22C11.4477 22 11 21.5523 11 21V15.0022L9.19167 16.8165C8.80179 17.2076 8.16863 17.2087 7.77746 16.8188C7.38629 16.4289 7.38525 15.7958 7.77513 15.4046L11.2424 11.9259Z" fill="#181F26"/>
</svg>
