<svg width="24" height="24" viewBox="0 0 24 24" fill="none" xmlns="http://www.w3.org/2000/svg">
<path d="M18.5697 8.25882C18.4268 7.72536 18.7434 7.17702 19.2768 7.03408C19.8103 6.89114 20.3586 7.20772 20.5016 7.74118L21.9513 13.1515C21.9791 13.2376 21.995 13.3267 21.9988 13.4161C22.0214 13.8763 21.7217 14.3059 21.2586 14.43L15.7945 15.8941C15.261 16.0371 14.7127 15.7205 14.5697 15.187C14.4268 14.6536 14.7434 14.1052 15.2768 13.9623L19.0762 12.9443C15.9944 10.1009 13.0845 9.34616 10.5737 9.62704C7.68235 9.95049 5.10777 11.6705 3.23092 13.6821C2.85415 14.0859 2.22137 14.1078 1.81755 13.731C1.41375 13.3543 1.39183 12.7215 1.7686 12.3177C3.84141 10.0961 6.82568 8.03385 10.3513 7.63944C13.1354 7.32799 16.1308 8.07003 19.1387 10.3822L18.5697 8.25882Z" fill="#0F1A26"/>
</svg>
