<svg width="24" height="24" viewBox="0 0 24 24" fill="none" xmlns="http://www.w3.org/2000/svg">
<path fill-rule="evenodd" clip-rule="evenodd" d="M7 2C5.34315 2 4 3.34315 4 5V20.382C4 21.1253 4.78231 21.6088 5.44721 21.2764L11.5528 18.2236C11.8343 18.0828 12.1657 18.0828 12.4472 18.2236L18.5528 21.2764C19.2177 21.6088 20 21.1253 20 20.382V5C20 3.34315 18.6569 2 17 2H7ZM9.75 6C9.33579 6 9 6.33579 9 6.75C9 7.16421 9.33579 7.5 9.75 7.5H14.25C14.6642 7.5 15 7.16421 15 6.75C15 6.33579 14.6642 6 14.25 6H9.75Z" fill="#0F1A26"/>
</svg>
