<svg width="24" height="24" viewBox="0 0 24 24" fill="none" xmlns="http://www.w3.org/2000/svg">
<path d="M15.9999 3.75H7.99994C7.58994 3.75 7.24994 3.41 7.24994 3C7.24994 2.59 7.58994 2.25 7.99994 2.25H15.9999C16.4099 2.25 16.7499 2.59 16.7499 3C16.7499 3.41 16.4099 3.75 15.9999 3.75ZM15.9999 21.75H7.99994C7.58994 21.75 7.24994 21.41 7.24994 21C7.24994 20.59 7.58994 20.25 7.99994 20.25H15.9999C16.4099 20.25 16.7499 20.59 16.7499 21C16.7499 21.41 16.4099 21.75 15.9999 21.75ZM15.4999 5H8.49994C6.16994 5 4.99994 6.17 4.99994 8.5V15.5C4.99994 17.83 6.16994 19 8.49994 19H15.4999C17.8299 19 18.9999 17.83 18.9999 15.5V8.5C18.9999 6.17 17.8299 5 15.4999 5ZM14.4999 13.25H11.4999C11.0899 13.25 10.7499 12.91 10.7499 12.5V9.5C10.7499 9.09 11.0899 8.75 11.4999 8.75C11.9099 8.75 12.2499 9.09 12.2499 9.5V11.75H14.4999C14.9099 11.75 15.2499 12.09 15.2499 12.5C15.2499 12.91 14.9099 13.25 14.4999 13.25Z" fill="#181F26"/>
</svg>
