<svg width="24" height="24" viewBox="0 0 24 24" fill="none" xmlns="http://www.w3.org/2000/svg">
<path d="M20 3C20.5523 3 21 3.44772 21 4V9C21 9.55228 20.5523 10 20 10C19.4477 10 19 9.55228 19 9V5H15C14.4477 5 14 4.55228 14 4C14 3.44772 14.4477 3 15 3H20ZM5 19H9C9.55228 19 10 19.4477 10 20C10 20.5523 9.55228 21 9 21H4C3.44772 21 3 20.5523 3 20V15C3 14.4477 3.44772 14 4 14C4.55228 14 5 14.4477 5 15V19Z" fill="#05080D"/>
<path d="M20 21C20.5523 21 21 20.5523 21 20V15C21 14.4477 20.5523 14 20 14C19.4477 14 19 14.4477 19 15V19H15C14.4477 19 14 19.4477 14 20C14 20.5523 14.4477 21 15 21H20ZM5 5H9C9.55228 5 10 4.55228 10 4C10 3.44772 9.55228 3 9 3H4C3.44772 3 3 3.44772 3 4V9C3 9.55228 3.44772 10 4 10C4.55228 10 5 9.55228 5 9V5Z" fill="#05080D"/>
</svg>
