<svg width="24" height="24" viewBox="0 0 24 24" fill="none" xmlns="http://www.w3.org/2000/svg">
<path fill-rule="evenodd" clip-rule="evenodd" d="M8 3C8 2.44772 8.44772 2 9 2H15C15.5523 2 16 2.44772 16 3C16 3.55228 15.5523 4 15 4H9C8.44772 4 8 3.55228 8 3Z" fill="#0F1A26"/>
<path fill-rule="evenodd" clip-rule="evenodd" d="M11.5 8.5C12.0523 8.5 12.5 8.94772 12.5 9.5V12.5C12.5 13.0523 12.0523 13.5 11.5 13.5C10.9477 13.5 10.5 13.0523 10.5 12.5V9.5C10.5 8.94772 10.9477 8.5 11.5 8.5Z" fill="#0F1A26"/>
<path fill-rule="evenodd" clip-rule="evenodd" d="M10.7929 11.7929C11.1834 11.4024 11.8166 11.4024 12.2071 11.7929L13.9571 13.5429C14.3476 13.9334 14.3476 14.5666 13.9571 14.9571C13.5666 15.3476 12.9334 15.3476 12.5429 14.9571L10.7929 13.2071C10.4024 12.8166 10.4024 12.1834 10.7929 11.7929Z" fill="#0F1A26"/>
<path fill-rule="evenodd" clip-rule="evenodd" d="M8 21C8 20.4477 8.44772 20 9 20H15C15.5523 20 16 20.4477 16 21C16 21.5523 15.5523 22 15 22H9C8.44772 22 8 21.5523 8 21Z" fill="#0F1A26"/>
<path fill-rule="evenodd" clip-rule="evenodd" d="M5 8C5 6.34315 6.34315 5 8 5H16C17.6569 5 19 6.34315 19 8V16C19 17.6569 17.6569 19 16 19H8C6.34315 19 5 17.6569 5 16V8ZM8 7C7.44772 7 7 7.44772 7 8V16C7 16.5523 7.44772 17 8 17H16C16.5523 17 17 16.5523 17 16V8C17 7.44772 16.5523 7 16 7H8Z" fill="#0F1A26"/>
</svg>
