<svg width="24" height="24" viewBox="0 0 24 24" fill="none" xmlns="http://www.w3.org/2000/svg">
<path fill-rule="evenodd" clip-rule="evenodd" d="M22 18C22 19.6569 20.6569 21 19 21H5C3.34315 21 2 19.6569 2 18V13C2 12.4477 2.44772 12 3 12C3.55228 12 4 12.4477 4 13V18C4 18.5523 4.44772 19 5 19H19C19.5523 19 20 18.5523 20 18V6C20 5.44771 19.5523 5 19 5H15C14.4477 5 14 4.55228 14 4C14 3.44772 14.4477 3 15 3H19C20.6569 3 22 4.34315 22 6V18ZM13 8.99988C13 10.1044 12.1046 10.9999 11 10.9999H4C2.89543 10.9999 2 10.1044 2 8.99988V4.99988C2 3.89531 2.89543 2.99988 4 2.99988H11C12.1046 2.99988 13 3.89531 13 4.99988V8.99988ZM4 8.99988H11V4.99988H4V8.99988ZM13.2929 12.2929C13.6834 11.9024 14.3166 11.9024 14.7071 12.2929L16.2071 13.7929L18 12V15.9992V16.0008V17H17.0008H16.9992H13L14.7929 15.2071L13.2929 13.7071C12.9024 13.3166 12.9024 12.6834 13.2929 12.2929Z" fill="#05080D"/>
</svg>
