<svg width="24" height="24" viewBox="0 0 24 24" fill="none" xmlns="http://www.w3.org/2000/svg">
<path fill-rule="evenodd" clip-rule="evenodd" d="M11.5309 1.41484C11.8541 1.15576 12.3261 1.20774 12.5852 1.53093L14.4999 3.91942C14.6454 4.05965 14.7313 4.25591 14.73 4.46386C14.7317 4.68553 14.6355 4.90577 14.4491 5.05519C14.2294 5.2313 13.9409 5.26368 13.6973 5.16484C13.14 5.04133 12.5749 4.96997 11.9999 4.96997C7.50409 4.96997 3.85986 8.6142 3.85986 13.11C3.85986 17.6058 7.50409 21.25 11.9999 21.25C16.4957 21.25 20.1399 17.6058 20.1399 13.11C20.1399 11.2865 19.5114 9.61204 18.4899 8.24999C18.2414 7.91862 18.3085 7.44852 18.6399 7.19999C18.9713 6.95146 19.4414 7.01862 19.6899 7.34999C20.8884 8.94793 21.6399 10.9335 21.6399 13.11C21.6399 18.4342 17.3241 22.75 11.9999 22.75C6.67566 22.75 2.35986 18.4342 2.35986 13.11C2.35986 7.78577 6.67566 3.46997 11.9999 3.46997C12.0733 3.46997 12.1465 3.47093 12.2194 3.47281L11.4148 2.46913C11.1558 2.14594 11.2077 1.67392 11.5309 1.41484ZM14.852 14.8528C14.852 16.2151 13.6717 17.1199 11.9298 17.1199C10.4999 17.1199 9.62112 16.5011 9.26754 15.7628C9.18435 15.5912 9.14795 15.4248 9.14795 15.2688C9.14795 14.8632 9.40793 14.6084 9.83951 14.6084C10.1515 14.6084 10.3491 14.7332 10.5051 15.0192C10.7703 15.5444 11.1758 15.8563 11.9558 15.8563C12.7253 15.8563 13.2557 15.4092 13.2557 14.7852C13.2609 14.0573 12.7253 13.6517 11.8154 13.6517H11.4878C11.1082 13.6517 10.8898 13.4281 10.8898 13.0901C10.8898 12.7625 11.1082 12.5337 11.4878 12.5337H11.7946C12.5797 12.5337 13.0893 12.1074 13.0893 11.4938C13.0893 10.8906 12.6837 10.4903 11.9246 10.4903C11.2902 10.4903 10.9054 10.7554 10.6611 11.2858C10.4895 11.6394 10.3075 11.7694 9.9539 11.7694C9.51713 11.7694 9.29354 11.5146 9.29354 11.135C9.29354 10.9582 9.32994 10.8074 9.40793 10.6307C9.74071 9.8975 10.5935 9.28394 11.9194 9.28394C13.5053 9.28394 14.5764 10.0691 14.5764 11.2702C14.5764 12.2218 13.8953 12.8457 13.0113 13.0277V13.0589C14.1293 13.1629 14.852 13.8181 14.852 14.8528Z" fill="#3089F0"/>
</svg>
