<svg width="24" height="24" viewBox="0 0 24 24" fill="none" xmlns="http://www.w3.org/2000/svg">
<path fill-rule="evenodd" clip-rule="evenodd" d="M10.875 2H7.7587H7.75868C6.95372 1.99999 6.28937 1.99998 5.74817 2.04419C5.18608 2.09012 4.66937 2.18868 4.18404 2.43597C3.43139 2.81947 2.81947 3.43139 2.43597 4.18404C2.18868 4.66937 2.09012 5.18608 2.04419 5.74817C1.99998 6.28937 1.99999 6.95372 2 7.75869V7.7587V16.2413V16.2413C1.99999 17.0463 1.99998 17.7106 2.04419 18.2518C2.09012 18.8139 2.18868 19.3306 2.43597 19.816C2.81947 20.5686 3.43139 21.1805 4.18404 21.564C4.66937 21.8113 5.18608 21.9099 5.74817 21.9558C6.28936 22 6.95372 22 7.75868 22H16.2413C17.0463 22 17.7106 22 18.2518 21.9558C18.8139 21.9099 19.3306 21.8113 19.816 21.564C20.5686 21.1805 21.1805 20.5686 21.564 19.816C21.8113 19.3306 21.9099 18.8139 21.9558 18.2518C22 17.7106 22 17.0463 22 16.2413V9.75C22 9.19772 21.5523 8.75 21 8.75C20.4477 8.75 20 9.19772 20 9.75V16.2C20 17.0566 19.9992 17.6389 19.9624 18.089C19.9266 18.5274 19.8617 18.7516 19.782 18.908C19.5903 19.2843 19.2843 19.5903 18.908 19.782C18.7516 19.8617 18.5274 19.9266 18.089 19.9624C17.6389 19.9992 17.0566 20 16.2 20H7.8C6.94342 20 6.36113 19.9992 5.91104 19.9624C5.47262 19.9266 5.24842 19.8617 5.09202 19.782C4.7157 19.5903 4.40973 19.2843 4.21799 18.908C4.1383 18.7516 4.07337 18.5274 4.03755 18.089C4.00078 17.6389 4 17.0566 4 16.2V7.8C4 6.94342 4.00078 6.36113 4.03755 5.91104C4.07337 5.47262 4.1383 5.24842 4.21799 5.09202C4.40973 4.7157 4.7157 4.40973 5.09202 4.21799C5.24842 4.1383 5.47262 4.07337 5.91104 4.03755C6.36113 4.00078 6.94342 4 7.8 4H10.875C11.4273 4 11.875 3.55229 11.875 3C11.875 2.44772 11.4273 2 10.875 2ZM14.8337 7.16689C15.5472 5.99679 16.365 4.88608 17.2342 4H16C15.4477 4 15 3.55228 15 3C15 2.44772 15.4477 2 16 2H21C21.5523 2 22 2.44772 22 3C22 3.55228 21.5523 4 21 4C20.5096 4 19.8104 4.31762 18.9551 5.11449C18.1292 5.88389 17.2932 6.97495 16.5413 8.20811C15.7925 9.43617 15.1492 10.7687 14.6958 11.9952C14.2347 13.2424 14 14.2996 14 15C14 15.5523 13.5523 16 13 16C12.4477 16 12 15.5523 12 15C12 13.9504 12.3278 12.6326 12.8199 11.3017C13.3196 9.95003 14.02 8.50133 14.8337 7.16689Z" fill="#181F26"/>
</svg>
