<svg width="24" height="24" viewBox="0 0 24 24" fill="none" xmlns="http://www.w3.org/2000/svg">
<path fill-rule="evenodd" clip-rule="evenodd" d="M17 3C17 2.44772 16.5523 2 16 2C15.4477 2 15 2.44772 15 3V4H9V3C9 2.44772 8.55228 2 8 2C7.44772 2 7 2.44772 7 3V4.00163C6.52454 4.00489 6.10898 4.01472 5.74817 4.04419C5.18608 4.09012 4.66937 4.18868 4.18404 4.43597C3.43139 4.81947 2.81947 5.43139 2.43597 6.18404C2.18868 6.66937 2.09012 7.18608 2.04419 7.74817C1.99998 8.28937 1.99999 8.95372 2 9.75869V9.7587V16.2413V16.2413C1.99999 17.0463 1.99998 17.7106 2.04419 18.2518C2.09012 18.8139 2.18868 19.3306 2.43597 19.816C2.81947 20.5686 3.43139 21.1805 4.18404 21.564C4.66937 21.8113 5.18608 21.9099 5.74817 21.9558C6.28936 22 6.95372 22 7.75868 22H11.5C12.0523 22 12.5 21.5523 12.5 21C12.5 20.4477 12.0523 20 11.5 20H7.8C6.94342 20 6.36113 19.9992 5.91104 19.9624C5.47262 19.9266 5.24842 19.8617 5.09202 19.782C4.7157 19.5903 4.40973 19.2843 4.21799 18.908C4.1383 18.7516 4.07337 18.5274 4.03755 18.089C4.00078 17.6389 4 17.0566 4 16.2V9.8C4 8.94342 4.00078 8.36113 4.03755 7.91104C4.07337 7.47262 4.1383 7.24842 4.21799 7.09202C4.40973 6.7157 4.7157 6.40973 5.09202 6.21799C5.24842 6.1383 5.47262 6.07337 5.91104 6.03755C6.20463 6.01357 6.55447 6.00489 7 6.00176V7C7 7.55228 7.44772 8 8 8C8.55228 8 9 7.55228 9 7V6H15V7C15 7.55228 15.4477 8 16 8C16.5523 8 17 7.55228 17 7V6.00176C17.4455 6.00489 17.7954 6.01357 18.089 6.03755C18.5274 6.07337 18.7516 6.1383 18.908 6.21799C19.2843 6.40973 19.5903 6.7157 19.782 7.09202C19.8617 7.24842 19.9266 7.47262 19.9624 7.91104C19.9992 8.36113 20 8.94342 20 9.8V11C20 11.5523 20.4477 12 21 12C21.5523 12 22 11.5523 22 11V9.75868C22 8.95372 22 8.28936 21.9558 7.74817C21.9099 7.18608 21.8113 6.66937 21.564 6.18404C21.1805 5.43139 20.5686 4.81947 19.816 4.43597C19.3306 4.18868 18.8139 4.09012 18.2518 4.04419C17.891 4.01472 17.4755 4.00489 17 4.00163V3ZM7 10C6.44772 10 6 10.4477 6 11C6 11.5523 6.44772 12 7 12L17 12C17.5523 12 18 11.5523 18 11C18 10.4477 17.5523 10 17 10L7 10ZM6 15C6 14.4477 6.44772 14 7 14L12 14C12.5523 14 13 14.4477 13 15C13 15.5523 12.5523 16 12 16L7 16C6.44772 16 6 15.5523 6 15ZM22.7071 15.2929L20.7071 13.2929C20.3166 12.9024 19.6834 12.9024 19.2929 13.2929L14.2929 18.2929C14.1054 18.4804 14 18.7348 14 19V21C14 21.5523 14.4477 22 15 22H17C17.2652 22 17.5196 21.8946 17.7071 21.7071L22.7071 16.7071C23.0976 16.3166 23.0976 15.6834 22.7071 15.2929ZM16 20V19.4142L20 15.4142L20.5858 16L16.5858 20H16Z" fill="#181F26"/>
</svg>
