<svg width="24" height="24" viewBox="0 0 24 24" fill="none" xmlns="http://www.w3.org/2000/svg">
<path d="M5.43003 8.25882C5.57297 7.72536 5.25639 7.17702 4.72292 7.03408C4.18946 6.89114 3.64112 7.20772 3.49818 7.74118L2.0485 13.1515C2.02063 13.2376 2.00482 13.3267 2.00095 13.4161C1.97839 13.8763 2.27806 14.3059 2.74118 14.43L8.20529 15.8941C8.73875 16.0371 9.28709 15.7205 9.43003 15.187C9.57297 14.6536 9.25639 14.1052 8.72292 13.9623L4.92358 12.9443C8.00535 10.1009 10.9153 9.34616 13.4261 9.62704C16.3174 9.95049 18.892 11.6705 20.7689 13.6821C21.1456 14.0859 21.7784 14.1078 22.1822 13.731C22.586 13.3543 22.6079 12.7215 22.2312 12.3177C20.1584 10.0961 17.1741 8.03385 13.6484 7.63944C10.8644 7.32799 7.86893 8.07003 4.86108 10.3822L5.43003 8.25882Z" fill="#181F26"/>
</svg>
