<svg width="24" height="24" viewBox="0 0 24 24" fill="none" xmlns="http://www.w3.org/2000/svg">
<path fill-rule="evenodd" clip-rule="evenodd" d="M11.6122 9.33555C11.8439 9.14561 12.1486 9.06956 12.4423 9.12831L14.9423 9.62831C15.4839 9.73663 15.8351 10.2635 15.7268 10.805C15.6185 11.3466 15.0917 11.6978 14.5501 11.5895L13.2462 11.3287V15.6089L13.2462 15.6121C13.2445 17.1294 12.0139 18.3589 10.4962 18.3589H9.49622C7.97743 18.3589 6.74622 17.1277 6.74622 15.6089C6.74622 14.0901 7.97743 12.8589 9.49622 12.8589H10.4962C10.7562 12.8589 11.0078 12.895 11.2462 12.9624V10.1089C11.2462 9.8093 11.3805 9.52549 11.6122 9.33555ZM10.4962 14.8589C10.9104 14.8589 11.2462 15.1947 11.2462 15.6089C11.2462 16.0231 10.9104 16.3589 10.4962 16.3589H9.49622C9.082 16.3589 8.74622 16.0231 8.74622 15.6089C8.74622 15.1947 9.082 14.8589 9.49622 14.8589H10.4962Z" fill="#181F26"/>
<path fill-rule="evenodd" clip-rule="evenodd" d="M3 5C3 3.34315 4.34315 2 6 2H15.1716C15.9672 2 16.7303 2.31607 17.2929 2.87868L20.1213 5.70711C20.6839 6.26972 21 7.03278 21 7.82843V19C21 20.6569 19.6569 22 18 22H6C4.34315 22 3 20.6569 3 19V5ZM6 4C5.44772 4 5 4.44772 5 5V19C5 19.5523 5.44772 20 6 20H18C18.5523 20 19 19.5523 19 19V9H18C16.3431 9 15 7.65685 15 6V4H6ZM17 5.41421L18.5858 7H18C17.4477 7 17 6.55228 17 6V5.41421Z" fill="#181F26"/>
</svg>
