<svg width="24" height="24" viewBox="0 0 24 24" fill="none" xmlns="http://www.w3.org/2000/svg">
<path fill-rule="evenodd" clip-rule="evenodd" d="M11.6116 1C7.47794 1 4.24446 4.56309 4.64446 8.67736C4.99317 12.2641 8.00798 15 11.6116 15H12.3884C15.992 15 19.0068 12.2641 19.3555 8.67736C19.7555 4.56309 16.522 1 12.3884 1H11.6116ZM6.63507 8.48383C6.34936 5.54506 8.65899 3 11.6116 3H12.3884C15.341 3 17.6506 5.54506 17.3649 8.48383C17.1158 11.0458 14.9624 13 12.3884 13H11.6116C9.03759 13 6.88415 11.0458 6.63507 8.48383ZM9 16C5.13401 16 2 19.134 2 23C2 23.5523 2.44772 24 3 24C3.55228 24 4 23.5523 4 23C4 20.2386 6.23858 18 9 18H15C17.7614 18 20 20.2386 20 23C20 23.5523 20.4477 24 21 24C21.5523 24 22 23.5523 22 23C22 19.134 18.866 16 15 16H9ZM12 6.5C12.5523 6.5 13 6.94772 13 7.5V8.5C13 9.05228 12.5523 9.5 12 9.5C11.4477 9.5 11 9.05228 11 8.5V7.5C11 6.94772 11.4477 6.5 12 6.5ZM16 7.5C16 6.94772 15.5523 6.5 15 6.5C14.4477 6.5 14 6.94772 14 7.5V8.5C14 9.05228 14.4477 9.5 15 9.5C15.5523 9.5 16 9.05228 16 8.5V7.5Z" fill="black"/>
</svg>
