<svg width="24" height="24" viewBox="0 0 24 24" fill="none" xmlns="http://www.w3.org/2000/svg">
<path d="M16.6725 4.26679C16.3796 3.9739 15.9047 3.9739 15.6118 4.26679L12.3272 7.55144L8.55469 5.03646C7.89014 4.59342 6.99999 5.06982 6.99999 5.86851V12.8786L2.53034 17.3483C2.23745 17.6412 2.23745 18.116 2.53034 18.4089C2.82323 18.7018 3.29811 18.7018 3.591 18.4089L16.6725 5.32745C16.9654 5.03456 16.9654 4.55968 16.6725 4.26679Z" fill="#05080D"/>
<path d="M6.99999 18.1315V17.1212L14.8727 9.24849L17.7519 11.1679C18.3457 11.5638 18.3456 12.4362 17.7519 12.832L8.55469 18.9635C7.89014 19.4066 6.99999 18.9302 6.99999 18.1315Z" fill="#05080D"/>
</svg>
