<svg width="24" height="24" viewBox="0 0 24 24" fill="none" xmlns="http://www.w3.org/2000/svg">
<path fill-rule="evenodd" clip-rule="evenodd" d="M8.7587 2H15.2413H15.2413C16.0463 1.99999 16.7106 1.99998 17.2518 2.04419C17.8139 2.09012 18.3306 2.18868 18.816 2.43597C19.5686 2.81947 20.1805 3.43139 20.564 4.18404C20.8113 4.66937 20.9099 5.18608 20.9558 5.74817C21 6.28936 21 6.95372 21 7.75868V12C21 12.5523 20.5523 13 20 13C19.4477 13 19 12.5523 19 12V7.8C19 6.94342 18.9992 6.36113 18.9625 5.91104C18.9266 5.47262 18.8617 5.24842 18.782 5.09202C18.5903 4.7157 18.2843 4.40973 17.908 4.21799C17.7516 4.1383 17.5274 4.07337 17.089 4.03755C16.6389 4.00078 16.0566 4 15.2 4H8.8C7.94342 4 7.36113 4.00078 6.91104 4.03755C6.47262 4.07337 6.24842 4.1383 6.09202 4.21799C5.7157 4.40973 5.40974 4.7157 5.21799 5.09202C5.1383 5.24842 5.07337 5.47262 5.03755 5.91104C5.00078 6.36113 5 6.94342 5 7.8V18.5212C5 19.0997 5.00075 19.4731 5.02162 19.738C5.02396 19.7678 5.02646 19.794 5.02898 19.8171C5.05719 19.8034 5.08967 19.787 5.12687 19.7672C5.38451 19.6306 5.73244 19.4129 6.25988 19.0816C6.69435 18.8088 7.15281 18.5494 7.59329 18.3551C8.01154 18.1707 8.51157 18 9 18C10.145 18 11.1384 18.7295 11.7269 19.2526C12.0475 19.5376 12.3114 19.8195 12.4948 20.029C12.5871 20.1345 12.6605 20.2234 12.7121 20.2877C12.738 20.3198 12.7585 20.3459 12.7732 20.365L12.791 20.3881L12.7966 20.3955L12.7986 20.3981L12.7994 20.3992C12.7995 20.3994 12.8 20.4 12 21L12.8 20.4C13.1314 20.8418 13.0418 21.4686 12.6 21.8C12.1587 22.131 11.5327 22.042 11.2011 21.6015L11.2003 21.6004L11.1924 21.5901C11.1844 21.5798 11.1712 21.563 11.1531 21.5405C11.1168 21.4953 11.0614 21.428 10.9896 21.346C10.8448 21.1805 10.64 20.9624 10.3981 20.7474C9.86158 20.2705 9.35497 20 9 20C8.93334 20 8.74131 20.0347 8.40024 20.1851C8.08141 20.3257 7.71328 20.5306 7.3236 20.7753L7.29003 20.7964C6.80526 21.1009 6.39439 21.3589 6.06369 21.5343C5.76747 21.6913 5.32513 21.9047 4.8428 21.8667C4.24675 21.8197 3.75199 21.5462 3.39519 21.0665C3.11259 20.6865 3.05361 20.2229 3.02779 19.895C2.99997 19.5417 2.99998 19.0881 3 18.5621V18.5621V7.7587V7.75864C2.99999 6.9537 2.99998 6.28936 3.0442 5.74818C3.09012 5.18608 3.18868 4.66937 3.43598 4.18404C3.81947 3.43139 4.43139 2.81947 5.18404 2.43597C5.66938 2.18868 6.18608 2.09012 6.74818 2.04419C7.28937 1.99998 7.95372 1.99999 8.75869 2H8.7587ZM14 18C14 17.4477 14.4477 17 15 17H17V15C17 14.4477 17.4477 14 18 14C18.5523 14 19 14.4477 19 15V17H21C21.5523 17 22 17.4477 22 18C22 18.5523 21.5523 19 21 19H19V21C19 21.5523 18.5523 22 18 22C17.4477 22 17 21.5523 17 21V19H15C14.4477 19 14 18.5523 14 18ZM8 7C7.44772 7 7 7.44772 7 8C7 8.55228 7.44772 9 8 9H16C16.5523 9 17 8.55228 17 8C17 7.44772 16.5523 7 16 7H8ZM8 12C8 11.4477 8.44772 11 9 11H15C15.5523 11 16 11.4477 16 12C16 12.5523 15.5523 13 15 13H9C8.44772 13 8 12.5523 8 12Z" fill="#0F1A26"/>
</svg>
