<svg width="24" height="24" viewBox="0 0 24 24" fill="none" xmlns="http://www.w3.org/2000/svg">
<path fill-rule="evenodd" clip-rule="evenodd" d="M14.6126 5L14.5072 4.68377C14.3711 4.27543 13.9889 4 13.5585 4H10.4415C10.0111 4 9.62895 4.27543 9.49284 4.68377L9.38743 5H14.6126ZM7.97693 7C7.99244 7.00036 8.00792 7.00036 8.02336 7H15.9767C15.9921 7.00036 16.0076 7.00036 16.023 7H18V19C18 19.5523 17.5523 20 17 20H7C6.44772 20 6 19.5523 6 19V7H7.97693ZM7.27924 5L7.59547 4.05132C8.00381 2.82629 9.15023 2 10.4415 2H13.5585C14.8498 2 15.9962 2.82629 16.4045 4.05132L16.7208 5H18H21C21.5523 5 22 5.44772 22 6C22 6.55228 21.5523 7 21 7H20V19C20 20.6569 18.6569 22 17 22H7C5.34315 22 4 20.6569 4 19V7H3C2.44772 7 2 6.55229 2 6C2 5.44772 2.44772 5 3 5H6H7.27924ZM10 10C10.5523 10 11 10.4477 11 11V16C11 16.5523 10.5523 17 10 17C9.44772 17 9 16.5523 9 16V11C9 10.4477 9.44772 10 10 10ZM15 11C15 10.4477 14.5523 10 14 10C13.4477 10 13 10.4477 13 11V16C13 16.5523 13.4477 17 14 17C14.5523 17 15 16.5523 15 16V11Z" fill="#181F26"/>
</svg>
