<svg width="24" height="24" viewBox="0 0 24 24" fill="none" xmlns="http://www.w3.org/2000/svg">
<path fill-rule="evenodd" clip-rule="evenodd" d="M11.03 8.652C10.7217 8.45933 10.3332 8.44913 10.0152 8.62536C9.69728 8.80158 9.5 9.13648 9.5 9.5V14.5C9.5 14.8635 9.69728 15.1984 10.0152 15.3746C10.3332 15.5509 10.7217 15.5407 11.03 15.348L15.03 12.848C15.3224 12.6653 15.5 12.3448 15.5 12C15.5 11.6552 15.3224 11.3347 15.03 11.152L11.03 8.652ZM12.6132 12L11.5 12.6958V11.3042L12.6132 12Z" fill="#05080D"/>
<path fill-rule="evenodd" clip-rule="evenodd" d="M2.99951 3C1.89494 3 0.999512 3.89543 0.999512 5V19C0.999512 20.1046 1.89495 21 2.99951 21H20.9995C22.1041 21 22.9995 20.1046 22.9995 19V16.0446C22.9997 16.0401 22.9999 16.0355 23 16.031C23.0003 16.0207 23.0005 16.0104 23.0005 16V14C23.0005 13.9851 23.0002 13.9702 22.9995 13.9554V10.0446C23.0002 10.0298 23.0005 10.0149 23.0005 10V8C23.0005 7.98506 23.0002 7.97019 22.9995 7.95541V5C22.9995 3.89544 22.1041 3 20.9995 3H2.99951ZM2.99951 19V16H4.99951L5 19H2.99951ZM4.99951 14H2.99951V10H4.99951V14ZM17 19H7V5H17V19ZM19 19V16H20.9995V19H19ZM19 5V8H20.9995V5H19ZM2.99951 5V8H4.99951L5 5H2.99951ZM20.9995 10V14H19.0005L19 10H20.9995Z" fill="#05080D"/>
</svg>
