<svg width="24" height="24" viewBox="0 0 24 24" fill="none" xmlns="http://www.w3.org/2000/svg">
<path d="M9 14C9.55228 14 10 14.4477 10 15V20C10 20.5523 9.55228 21 9 21C8.44772 21 8 20.5523 8 20V16H4C3.44772 16 3 15.5523 3 15C3 14.4477 3.44772 14 4 14H9ZM16 8H20C20.5523 8 21 8.44772 21 9C21 9.55228 20.5523 10 20 10H15C14.4477 10 14 9.55228 14 9V4C14 3.44772 14.4477 3 15 3C15.5523 3 16 3.44772 16 4V8Z" fill="#05080D"/>
<path d="M15 14C14.4477 14 14 14.4477 14 15V20C14 20.5523 14.4477 21 15 21C15.5523 21 16 20.5523 16 20V16H20C20.5523 16 21 15.5523 21 15C21 14.4477 20.5523 14 20 14H15ZM8 8H4C3.44772 8 3 8.44772 3 9C3 9.55228 3.44772 10 4 10H9C9.55228 10 10 9.55228 10 9V4C10 3.44772 9.55228 3 9 3C8.44772 3 8 3.44772 8 4V8Z" fill="#05080D"/>
</svg>
