<svg width="24" height="24" viewBox="0 0 24 24" fill="none" xmlns="http://www.w3.org/2000/svg">
<path fill-rule="evenodd" clip-rule="evenodd" d="M16.2413 2H11.7587H11.7587C10.9537 1.99999 10.2894 1.99998 9.74817 2.04419C9.18608 2.09012 8.66937 2.18868 8.18404 2.43597C7.43139 2.81947 6.81947 3.43139 6.43598 4.18404C6.18868 4.66937 6.09012 5.18608 6.04419 5.74818C5.99998 6.28937 5.99999 6.95373 6 7.7587V12.2413C5.99999 13.0463 5.99998 13.7106 6.04419 14.2518C6.09012 14.8139 6.18868 15.3306 6.43598 15.816C6.81947 16.5686 7.43139 17.1805 8.18404 17.564C8.66937 17.8113 9.18608 17.9099 9.74818 17.9558C10.2894 18 10.9537 18 11.7587 18H11.7587H11.7587H11.7587H16.2413H16.2413H16.2413H16.2413C17.0463 18 17.7106 18 18.2518 17.9558C18.8139 17.9099 19.3306 17.8113 19.816 17.564C20.5686 17.1805 21.1805 16.5686 21.564 15.816C21.8113 15.3306 21.9099 14.8139 21.9558 14.2518C22 13.7106 22 13.0463 22 12.2413V12.2413V12.2413V12.2413V7.75873V7.7587V7.75868V7.75866C22 6.95371 22 6.28936 21.9558 5.74817C21.9099 5.18608 21.8113 4.66937 21.564 4.18404C21.1805 3.43139 20.5686 2.81947 19.816 2.43597C19.3306 2.18868 18.8139 2.09012 18.2518 2.04419C17.7106 1.99998 17.0463 1.99999 16.2413 2H16.2413ZM9.09202 4.21799C9.24842 4.1383 9.47262 4.07337 9.91104 4.03755C10.3611 4.00078 10.9434 4 11.8 4H16.2C17.0566 4 17.6389 4.00078 18.089 4.03755C18.5274 4.07337 18.7516 4.1383 18.908 4.21799C19.2843 4.40973 19.5903 4.7157 19.782 5.09202C19.8617 5.24842 19.9266 5.47262 19.9624 5.91104C19.9992 6.36113 20 6.94342 20 7.8V12.2C20 13.0566 19.9992 13.6389 19.9624 14.089C19.9266 14.5274 19.8617 14.7516 19.782 14.908C19.5903 15.2843 19.2843 15.5903 18.908 15.782C18.7516 15.8617 18.5274 15.9266 18.089 15.9624C17.6389 15.9992 17.0566 16 16.2 16H11.8C10.9434 16 10.3611 15.9992 9.91104 15.9624C9.47262 15.9266 9.24842 15.8617 9.09202 15.782C8.7157 15.5903 8.40973 15.2843 8.21799 14.908C8.1383 14.7516 8.07337 14.5274 8.03755 14.089C8.00078 13.6389 8 13.0566 8 12.2V7.8C8 6.94342 8.00078 6.36113 8.03755 5.91104C8.07337 5.47262 8.1383 5.24842 8.21799 5.09202C8.40973 4.7157 8.7157 4.40973 9.09202 4.21799ZM4 9C4 8.44772 3.55229 8 3 8C2.44772 8 2 8.44772 2 9V16.2413V16.2413C1.99999 17.0463 1.99998 17.7106 2.04419 18.2518C2.09012 18.8139 2.18868 19.3306 2.43597 19.816C2.81947 20.5686 3.43139 21.1805 4.18404 21.564C4.66937 21.8113 5.18608 21.9099 5.74818 21.9558C6.28938 22 6.95374 22 7.75873 22H15C15.5523 22 16 21.5523 16 21C16 20.4477 15.5523 20 15 20H7.8C6.94342 20 6.36113 19.9992 5.91104 19.9624C5.47262 19.9266 5.24842 19.8617 5.09202 19.782C4.7157 19.5903 4.40973 19.2843 4.21799 18.908C4.1383 18.7516 4.07337 18.5274 4.03755 18.089C4.00078 17.6389 4 17.0566 4 16.2V9ZM10 7C10 6.44772 10.4477 6 11 6H16C16.5523 6 17 6.44772 17 7C17 7.55228 16.5523 8 16 8H11C10.4477 8 10 7.55228 10 7ZM11 10C10.4477 10 10 10.4477 10 11C10 11.5523 10.4477 12 11 12H15C15.5523 12 16 11.5523 16 11C16 10.4477 15.5523 10 15 10H11Z" fill="#0F1A26"/>
</svg>
