<svg width="24" height="24" viewBox="0 0 24 24" fill="none" xmlns="http://www.w3.org/2000/svg">
<path d="M11.2365 2.34927C11.4199 2.13546 11.6921 2 11.9958 2L11.998 2C12.2546 1.99948 12.5113 2.09711 12.7071 2.29289L17.2071 6.79289C17.5976 7.18342 17.5976 7.81658 17.2071 8.20711C16.8166 8.59763 16.1834 8.59763 15.7929 8.20711L12.9958 5.41006V16C12.9958 16.5523 12.5481 17 11.9958 17C11.4436 17 10.9958 16.5523 10.9958 16V5.41836L8.20711 8.20711C7.81658 8.59763 7.18342 8.59763 6.79289 8.20711C6.40237 7.81658 6.40237 7.18342 6.79289 6.79289L11.2365 2.34927Z" fill="#05080D"/>
<path d="M21 12C21.5523 12 22 12.4477 22 13V19C22 20.6569 20.6569 22 19 22H5C3.34315 22 2 20.6569 2 19V13.0042C2 12.4519 2.44772 12.0042 3 12.0042C3.55228 12.0042 4 12.4519 4 13.0042V19C4 19.5523 4.44772 20 5 20H19C19.5523 20 20 19.5523 20 19V13C20 12.4477 20.4477 12 21 12Z" fill="#05080D"/>
</svg>
