<svg width="24" height="24" viewBox="0 0 24 24" fill="none" xmlns="http://www.w3.org/2000/svg">
<path fill-rule="evenodd" clip-rule="evenodd" d="M7 4C5.89543 4 5 4.89543 5 6V20L10.2 16.1C11.2667 15.3 12.7333 15.3 13.8 16.1L19 20V11.5C19 10.9477 19.4477 10.5 20 10.5C20.5523 10.5 21 10.9477 21 11.5V20C21 21.6481 19.1185 22.5889 17.8 21.6L12.6 17.7C12.2444 17.4333 11.7556 17.4333 11.4 17.7L6.2 21.6C4.88153 22.5889 3 21.6481 3 20V6C3 3.79086 4.79086 2 7 2H13C13.5523 2 14 2.44772 14 3C14 3.55228 13.5523 4 13 4H7ZM14 6C14 5.44772 14.4477 5 15 5H17V3C17 2.44772 17.4477 2 18 2C18.5523 2 19 2.44772 19 3V5H21C21.5523 5 22 5.44772 22 6C22 6.55228 21.5523 7 21 7H19V9C19 9.55228 18.5523 10 18 10C17.4477 10 17 9.55228 17 9V7H15C14.4477 7 14 6.55228 14 6Z" fill="#05080D"/>
</svg>
