<svg width="24" height="24" viewBox="0 0 24 24" fill="none" xmlns="http://www.w3.org/2000/svg">
<path fill-rule="evenodd" clip-rule="evenodd" d="M3 5C1.34315 5 0 6.34315 0 8V14C0 16.7614 2.23858 19 5 19H12C13.6569 19 15 17.6569 15 16V10C15 7.23858 12.7614 5 10 5H3ZM2 8C2 7.44772 2.44772 7 3 7H10C11.6569 7 13 8.34315 13 10V16C13 16.5523 12.5523 17 12 17H5C3.34315 17 2 15.6569 2 14V8Z" fill="#181F26"/>
<path fill-rule="evenodd" clip-rule="evenodd" d="M22.4188 5.18627C22.7236 4.96855 23.1245 4.93943 23.4576 5.11084C23.7907 5.28224 24 5.62542 24 6V18C24 18.3565 23.8102 18.686 23.5019 18.8649C23.1936 19.0438 22.8134 19.0451 22.5039 18.8682L16.5039 15.4397C16.1923 15.2616 16 14.9303 16 14.5714V10.2857C16 9.96277 16.156 9.6597 16.4188 9.47198L22.4188 5.18627ZM22 16.2768V7.94319L18 10.8003V13.9911L22 16.2768Z" fill="#181F26"/>
</svg>
