<svg width="24" height="24" viewBox="0 0 24 24" fill="none" xmlns="http://www.w3.org/2000/svg">
<path fill-rule="evenodd" clip-rule="evenodd" d="M2 6C2 3.79086 3.79086 2 6 2H18C20.2091 2 22 3.79086 22 6V18C22 20.2091 20.2091 22 18 22H6C3.79086 22 2 20.2091 2 18V6ZM6 4C4.89543 4 4 4.89543 4 6V18C4 19.1046 4.89543 20 6 20H18C19.1046 20 20 19.1046 20 18V6C20 4.89543 19.1046 4 18 4H6ZM12 6.5C12.3952 6.5 12.7533 6.73273 12.9138 7.09386L16.9138 16.0939C17.1381 16.5985 16.9108 17.1895 16.4061 17.4138C15.9015 17.6381 15.3105 17.4108 15.0862 16.9061L14.239 15H9.76099L8.91382 16.9061C8.68951 17.4108 8.09855 17.6381 7.59387 17.4138C7.08918 17.1895 6.86189 16.5985 7.08619 16.0939L11.0862 7.09386C11.2467 6.73273 11.6048 6.5 12 6.5ZM10.6499 13H13.3501L12 9.96221L10.6499 13Z" fill="#181F26"/>
</svg>
