<svg width="24" height="24" viewBox="0 0 24 24" fill="none" xmlns="http://www.w3.org/2000/svg">
<path fill-rule="evenodd" clip-rule="evenodd" d="M12 2C9.23858 2 7 4.23858 7 7V13C7 15.7614 9.23858 18 12 18C14.7614 18 17 15.7614 17 13V7C17 4.23858 14.7614 2 12 2ZM9 7C9 5.34315 10.3431 4 12 4C13.6569 4 15 5.34315 15 7V13C15 14.6569 13.6569 16 12 16C10.3431 16 9 14.6569 9 13V7ZM4.19821 14.7787C4.07599 14.2401 3.5403 13.9026 3.00171 14.0248C2.46312 14.147 2.12557 14.6827 2.24779 15.2213C3.25833 19.6747 7.23963 23 12 23C16.7603 23 20.7416 19.6747 21.7522 15.2213C21.8744 14.6827 21.5368 14.147 20.9982 14.0248C20.4597 13.9026 19.924 14.2401 19.8018 14.7787C18.9934 18.3412 15.806 21 12 21C8.19398 21 5.00658 18.3412 4.19821 14.7787Z" fill="#181F26"/>
</svg>
