<svg width="24" height="24" viewBox="0 0 24 24" fill="none" xmlns="http://www.w3.org/2000/svg">
<path fill-rule="evenodd" clip-rule="evenodd" d="M7.38851 1C5.43315 1 3.76439 2.41365 3.44293 4.3424L1.2173 17.6962C1.07647 18.1049 1 18.5435 1 19C1 21.2091 2.79086 23 5 23H19C21.2091 23 23 21.2091 23 19C23 18.5435 22.9235 18.1049 22.7827 17.6962L20.5571 4.3424C20.2356 2.41365 18.5668 1 16.6115 1H7.38851ZM20.3443 15.2315L18.5843 4.6712C18.4235 3.70683 17.5892 3 16.6115 3H7.38851C6.41083 3 5.57645 3.70683 5.41572 4.6712L3.65567 15.2315C4.07581 15.0816 4.52837 15 5 15H19C19.4716 15 19.9242 15.0816 20.3443 15.2315ZM5 17H19C20.1046 17 21 17.8954 21 19C21 20.1046 20.1046 21 19 21H5C3.89543 21 3 20.1046 3 19C3 17.8954 3.89543 17 5 17ZM19 19C19 19.5523 18.5523 20 18 20C17.4477 20 17 19.5523 17 19C17 18.4477 17.4477 18 18 18C18.5523 18 19 18.4477 19 19ZM13.6921 6.62662C13.2261 6.22303 12.6239 6.00003 12 6C11.376 5.99995 10.7737 6.22293 10.3078 6.62653C9.84181 7.03013 9.54465 7.58619 9.4728 8.18895C9.02061 8.30889 8.62615 8.57955 8.35836 8.95362C8.09057 9.3277 7.96648 9.7814 8.00778 10.2354C8.04908 10.6894 8.25315 11.1149 8.58431 11.4375C8.91548 11.76 9.35268 11.9591 9.8195 12H14.1808C14.6476 11.9591 15.0847 11.7599 15.4158 11.4373C15.747 11.1147 15.951 10.6893 15.9922 10.2353C16.0335 9.78126 15.9094 9.32758 15.6416 8.95354C15.3738 8.57949 14.9793 8.30886 14.5271 8.18895C14.4552 7.58622 14.158 7.0302 13.6921 6.62662Z" fill="#05080D"/>
</svg>
