<svg width="24" height="24" viewBox="0 0 24 24" fill="none" xmlns="http://www.w3.org/2000/svg">
<path fill-rule="evenodd" clip-rule="evenodd" d="M21.6864 12.4347C22.0883 12.0328 22.0976 11.3904 21.7071 10.9998C21.3166 10.6093 20.6741 10.6186 20.2722 11.0205L11.0091 20.2836C10.6072 20.6855 10.5979 21.328 10.9884 21.7185C11.3789 22.109 12.0214 22.0998 12.4233 21.6978L21.6864 12.4347ZM21.7071 18.707C22.0976 18.3165 22.0976 17.6833 21.7071 17.2928C21.3166 16.9023 20.6834 16.9023 20.2929 17.2928L17.2929 20.2928C16.9023 20.6833 16.9023 21.3165 17.2929 21.707C17.6834 22.0975 18.3166 22.0975 18.7071 21.707L21.7071 18.707Z" fill="#05080D"/>
</svg>
