<svg width="24" height="24" viewBox="0 0 24 24" fill="none" xmlns="http://www.w3.org/2000/svg">
<path fill-rule="evenodd" clip-rule="evenodd" d="M14 4H17C18.1046 4 19 4.89543 19 6V16H6C5.64936 16 5.31278 16.0602 5 16.1707V6C5 4.89543 5.89543 4 7 4V9C7 9.38441 7.22035 9.73478 7.56681 9.9013C7.91328 10.0678 8.32452 10.021 8.62469 9.78087L10.5 8.28062L12.3753 9.78087C12.6755 10.021 13.0867 10.0678 13.4332 9.9013C13.7797 9.73478 14 9.38441 14 9V4ZM21 6V16V19C21 20.6569 19.6569 22 18 22H6C4.34315 22 3 20.6569 3 19V6C3 3.79086 4.79086 2 7 2H8H13H17C19.2091 2 21 3.79086 21 6ZM6 18H19V19C19 19.5523 18.5523 20 18 20H6C5.44772 20 5 19.5523 5 19C5 18.4477 5.44772 18 6 18ZM12 4V6.91938L11.1247 6.21913C10.7595 5.92696 10.2405 5.92696 9.87531 6.21913L9 6.91938V4H12ZM13 12C12.4477 12 12 12.4477 12 13C12 13.5523 12.4477 14 13 14H17C17.5523 14 18 13.5523 18 13C18 12.4477 17.5523 12 17 12H13Z" fill="black"/>
</svg>
