<svg width="24" height="24" viewBox="0 0 24 24" fill="none" xmlns="http://www.w3.org/2000/svg">
<path fill-rule="evenodd" clip-rule="evenodd" d="M7.7587 2H16.2413H16.2413C17.0463 1.99999 17.7106 1.99998 18.2518 2.04419C18.8139 2.09012 19.3306 2.18868 19.816 2.43598C20.5686 2.81947 21.1805 3.43139 21.564 4.18404C21.8113 4.66937 21.9099 5.18608 21.9558 5.74818C22 6.28937 22 6.95372 22 7.75868V11.5C22 12.0523 21.5523 12.5 21 12.5C20.4477 12.5 20 12.0523 20 11.5V7.8C20 6.94342 19.9992 6.36113 19.9624 5.91104C19.9266 5.47262 19.8617 5.24842 19.782 5.09202C19.5903 4.7157 19.2843 4.40973 18.908 4.21799C18.7516 4.1383 18.5274 4.07337 18.089 4.03755C17.6389 4.00078 17.0566 4 16.2 4H7.8C6.94342 4 6.36113 4.00078 5.91104 4.03755C5.47262 4.07337 5.24842 4.1383 5.09202 4.21799C4.7157 4.40973 4.40974 4.7157 4.21799 5.09202C4.1383 5.24842 4.07337 5.47262 4.03755 5.91104C4.00078 6.36113 4 6.94342 4 7.8V16.2001C4 17.0566 4.00078 17.6389 4.03755 18.089C4.07337 18.5274 4.1383 18.7517 4.21799 18.9081C4.40974 19.2844 4.7157 19.5903 5.09202 19.7821C5.24842 19.8618 5.47262 19.9267 5.91104 19.9625C6.36113 19.9993 6.94342 20.0001 7.8 20.0001H11.5C12.0523 20.0001 12.5 20.4478 12.5 21.0001C12.5 21.5524 12.0523 22.0001 11.5 22.0001H7.75868C6.95372 22.0001 6.28937 22.0001 5.74818 21.9559C5.18608 21.91 4.66938 21.8114 4.18404 21.5641C3.43139 21.1806 2.81947 20.5687 2.43598 19.816C2.18869 19.3307 2.09012 18.814 2.0442 18.2519C1.99998 17.7107 1.99999 17.0464 2 16.2414V16.2414V16.2414V7.7587V7.75865V7.75864C1.99999 6.9537 1.99998 6.28936 2.0442 5.74818C2.09012 5.18608 2.18869 4.66937 2.43598 4.18404C2.81947 3.43139 3.43139 2.81947 4.18404 2.43598C4.66938 2.18868 5.18608 2.09012 5.74818 2.04419C6.28937 1.99998 6.95372 1.99999 7.75869 2H7.7587ZM6 15C6 14.4477 6.44772 14 7 14L12 14C12.5523 14 13 14.4477 13 15C13 15.5523 12.5523 16 12 16L7 16C6.44772 16 6 15.5523 6 15ZM7 10C6.44772 10 6 10.4477 6 11C6 11.5523 6.44772 12 7 12L16 12C16.5523 12 17 11.5523 17 11C17 10.4477 16.5523 10 16 10L7 10ZM6 7C6 6.44772 6.44772 6 7 6H16C16.5523 6 17 6.44772 17 7C17 7.55229 16.5523 8 16 8H7C6.44772 8 6 7.55229 6 7ZM22.7682 15.6402C23.1218 15.2159 23.0645 14.5853 22.6402 14.2318C22.2159 13.8782 21.5853 13.9355 21.2318 14.3598L16.9328 19.5186L14.7071 17.2929C14.3166 16.9024 13.6834 16.9024 13.2929 17.2929C12.9024 17.6834 12.9024 18.3166 13.2929 18.7071L16.2929 21.7071C16.4916 21.9058 16.7646 22.0117 17.0453 21.999C17.326 21.9862 17.5884 21.856 17.7682 21.6402L22.7682 15.6402Z" fill="#05080D"/>
</svg>
