<svg width="24" height="24" viewBox="0 0 24 24" fill="none" xmlns="http://www.w3.org/2000/svg">
<path fill-rule="evenodd" clip-rule="evenodd" d="M2 6C2 4.34315 3.34315 3 5 3H19C20.6569 3 22 4.34315 22 6V11C22 11.5523 21.5523 12 21 12C20.4477 12 20 11.5523 20 11V6C20 5.44772 19.5523 5 19 5H5C4.44772 5 4 5.44772 4 6V18C4 18.5523 4.44772 19 5 19H9C9.55228 19 10 19.4477 10 20C10 20.5523 9.55228 21 9 21H5C3.34315 21 2 19.6569 2 18V6ZM11 15C11 13.8954 11.8954 13 13 13H20C21.1046 13 22 13.8954 22 15V19C22 20.1046 21.1046 21 20 21H13C11.8954 21 11 20.1046 11 19V15ZM20 15H13V19H20V15ZM10.7071 11.7071C10.3166 12.0976 9.68342 12.0976 9.29289 11.7071L7.79289 10.2071L6 12V8.00085V7.99915V7H6.99915H7.00085H11L9.20711 8.79289L10.7071 10.2929C11.0976 10.6834 11.0976 11.3166 10.7071 11.7071Z" fill="#05080D"/>
</svg>
