<svg width="24" height="24" viewBox="0 0 24 24" fill="none" xmlns="http://www.w3.org/2000/svg">
<path d="M5 8C5 7.44772 5.44772 7 6 7C6.55228 7 7 7.44772 7 8V16C7 16.5523 6.55228 17 6 17C5.44772 17 5 16.5523 5 16V8ZM1 11C1 10.4477 1.44772 10 2 10C2.55228 10 3 10.4477 3 11V13C3 13.5523 2.55228 14 2 14C1.44772 14 1 13.5523 1 13V11ZM9 4C9 3.44772 9.44772 3 10 3C10.5523 3 11 3.44772 11 4V19C11 19.5523 10.5523 20 10 20C9.44772 20 9 19.5523 9 19V4ZM13 5C13 4.44772 13.4477 4 14 4C14.5523 4 15 4.44772 15 5V20C15 20.5523 14.5523 21 14 21C13.4477 21 13 20.5523 13 20V5ZM17 8C17 7.44772 17.4477 7 18 7C18.5523 7 19 7.44772 19 8V16C19 16.5523 18.5523 17 18 17C17.4477 17 17 16.5523 17 16V8ZM21 11C21 10.4477 21.4477 10 22 10C22.5523 10 23 10.4477 23 11V13C23 13.5523 22.5523 14 22 14C21.4477 14 21 13.5523 21 13V11Z" fill="#181F26"/>
</svg>
