<svg width="24" height="24" viewBox="0 0 24 24" fill="none" xmlns="http://www.w3.org/2000/svg">
<path fill-rule="evenodd" clip-rule="evenodd" d="M11.993 2C12.5795 2 13.2134 2.07806 13.7467 2.26627L13.7549 2.26914L18.396 3.95214C19.1558 4.22711 19.7959 4.77524 20.2426 5.40003C20.6884 6.02362 21 6.80549 21 7.61081V14.2986C21 15.0351 20.7561 15.8087 20.414 16.4667C20.0711 17.1263 19.5769 17.7713 18.9767 18.2053L14.9789 21.0931L14.9777 21.094C14.1191 21.718 13.035 22 12 22C10.965 22 9.88083 21.718 9.02227 21.094L9.02105 21.0931L5.02376 18.2057C4.42354 17.7716 3.92888 17.1263 3.58599 16.4667C3.24395 15.8088 3 15.0351 3 14.2986V7.61081C3 6.80549 3.31162 6.02362 3.75744 5.40003C4.20404 4.77536 4.84366 4.22741 5.60329 3.95238L10.2462 2.26881C10.7748 2.07774 11.4077 2 11.993 2ZM10.9259 4.14974L6.28508 5.83258C5.97523 5.94469 5.64234 6.20244 5.38441 6.5632C5.12559 6.92522 5 7.309 5 7.61081V14.2986C5 14.6243 5.11885 15.0793 5.36054 15.5442C5.60124 16.0073 5.91149 16.3793 6.19487 16.5844L10.1976 19.4757C10.6504 19.8052 11.3006 20 12 20C12.6994 20 13.3496 19.8052 13.8024 19.4757L13.8051 19.4738L17.8047 16.5847C18.0881 16.3796 18.3988 16.0073 18.6395 15.5442C18.8812 15.0793 19 14.6243 19 14.2986V7.61081C19 7.309 18.8744 6.92522 18.6156 6.5632C18.3577 6.20244 18.0254 5.94493 17.7156 5.83283L13.0776 4.15103C12.8202 4.06089 12.4278 4 11.993 4C11.5554 4 11.1694 4.06186 10.9259 4.14974ZM12 7C12.5523 7 13 7.44772 13 8V13C13 13.5523 12.5523 14 12 14C11.4477 14 11 13.5523 11 13V8C11 7.44772 11.4477 7 12 7ZM12 17C12.5523 17 13 16.5523 13 16C13 15.4477 12.5523 15 12 15C11.4477 15 11 15.4477 11 16C11 16.5523 11.4477 17 12 17Z" fill="#181F26"/>
</svg>
