<svg width="24" height="24" viewBox="0 0 24 24" fill="none" xmlns="http://www.w3.org/2000/svg">
<path fill-rule="evenodd" clip-rule="evenodd" d="M7.5 6.5C7.5 4.01472 9.51472 2 12 2C14.4853 2 16.5 4.01472 16.5 6.5V13.5C16.5 15.9853 14.4853 18 12 18C9.51472 18 7.5 15.9853 7.5 13.5V6.5ZM12.375 8.89079C12.375 9.00125 12.4646 9.09079 12.575 9.09079H14.6555C14.809 9.09079 14.9053 9.25665 14.8291 9.38999L11.9987 14.3456C11.897 14.5238 11.625 14.4516 11.625 14.2465V11.109C11.625 10.9985 11.5355 10.909 11.425 10.909H9.34458C9.19104 10.909 9.09476 10.7431 9.17091 10.6098L12.0014 5.65412C12.1031 5.47601 12.375 5.5482 12.375 5.75331V8.89079ZM4.83104 16.5549C4.58525 16.0604 3.98507 15.8587 3.49049 16.1045C2.99591 16.3502 2.79422 16.9504 3.04001 17.445C4.67514 20.7353 8.07218 23 12 23C15.9278 23 19.3249 20.7353 20.96 17.445C21.2058 16.9504 21.0041 16.3502 20.5095 16.1045C20.0149 15.8587 19.4148 16.0604 19.169 16.5549C17.8587 19.1915 15.1396 21 12 21C8.86038 21 6.14131 19.1915 4.83104 16.5549Z" fill="#181F26"/>
</svg>
