<svg width="24" height="24" viewBox="0 0 24 24" fill="none" xmlns="http://www.w3.org/2000/svg">
<path fill-rule="evenodd" clip-rule="evenodd" d="M11.1 1.76367C5.57068 1.76367 1.19995 5.79111 1.19995 10.6963C1.19995 12.5642 1.65339 14.497 2.90082 16.0454L2.90089 16.0455C3.53206 16.8288 3.82957 17.3608 3.77216 18.08C3.77005 18.1065 3.76899 18.133 3.76899 18.1596V20.3715C3.76593 20.5572 3.81451 20.7459 3.91992 20.9153C4.21168 21.3842 4.82834 21.5279 5.29727 21.2361L7.71755 19.7303L7.71758 19.7303L7.72637 19.7247C8.09081 19.4927 8.59885 19.3948 9.2896 19.3948C9.73101 19.3948 10.1697 19.3854 10.6036 19.365C10.6489 19.3962 10.6974 19.424 10.7489 19.4479C12.2255 20.1351 13.392 20.4442 14.5281 20.5424C15.4996 20.6263 16.4288 20.5509 17.4136 20.4711H17.4136H17.4136H17.4136H17.4136H17.4136H17.4137H17.4137H17.4137L17.5811 20.4575L19.6086 21.2755C19.9168 21.3999 20.2666 21.363 20.5421 21.1771C20.8176 20.9911 20.9827 20.6805 20.9827 20.3482V18.5409C21.9736 17.039 22.3852 15.02 22.2701 13.0497C22.1507 11.0084 21.4587 8.87762 20.0816 7.26184C18.6175 3.96611 15.098 1.76367 11.1 1.76367ZM18.2529 8.08928C18.2705 8.1427 18.2927 8.195 18.3196 8.24555C18.6337 9.0079 18.8042 9.83401 18.8042 10.6963C18.8042 13.3805 17.7858 14.9664 16.2094 15.9423C14.5481 16.9707 12.1457 17.3948 9.2896 17.3948C8.47062 17.3948 7.50199 17.4985 6.65698 18.0346L5.76899 18.5871V18.1968C5.87461 16.6846 5.1377 15.6339 4.45829 14.7907L5.76899 18.5871L4.45823 14.7906C3.58147 13.7022 3.19995 12.263 3.19995 10.6963C3.19995 7.06731 6.49544 3.76367 11.1 3.76367C14.4052 3.76367 17.1307 5.55516 18.2529 8.08928ZM20.2857 13.9397C20.2457 15.4099 19.8431 16.7376 19.1801 17.6299C19.0519 17.8023 18.9827 18.0114 18.9827 18.2263V18.8664L18.1109 18.5146C17.9676 18.4568 17.8129 18.433 17.6589 18.445C17.5207 18.4558 17.3873 18.4665 17.2581 18.4769L17.2541 18.4772C16.4769 18.5395 15.8512 18.5897 15.2412 18.5779C15.9654 18.3335 16.6438 18.0256 17.2621 17.6428C18.6639 16.775 19.7068 15.5538 20.2857 13.9397ZM10.032 5.97477C9.87483 5.50322 9.36514 5.24838 8.89359 5.40556C8.44728 5.55433 8.19509 6.0189 8.30266 6.46802H6.67527C6.17821 6.46802 5.77527 6.87096 5.77527 7.36802C5.77527 7.86507 6.17821 8.26802 6.67527 8.26802H6.92125C6.91932 8.32099 6.92205 8.37487 6.92981 8.42919C6.98994 8.85034 7.19823 9.29529 7.42989 9.68382C7.58241 9.9396 7.76479 10.2034 7.96904 10.4637C7.50535 10.8459 7.04666 11.126 6.68448 11.2602C6.21836 11.4328 5.98044 11.9506 6.15307 12.4167C6.32569 12.8828 6.8435 13.1208 7.30962 12.9481C7.93575 12.7162 8.60901 12.2844 9.22657 11.7582C9.68845 12.1381 10.207 12.4687 10.7498 12.664L9.56669 14.7304C9.31973 15.1617 9.4692 15.7116 9.90056 15.9586C10.3319 16.2056 10.8818 16.0561 11.1288 15.6247L11.5219 14.9382L14.2444 14.9382L14.5045 15.5305C14.7043 15.9856 15.2352 16.1925 15.6903 15.9927C16.1455 15.7929 16.3524 15.2619 16.1526 14.8068L13.9986 9.90099C13.9247 9.72505 13.7945 9.5711 13.6161 9.46896C13.4753 9.38833 13.3218 9.34996 13.1704 9.34986C13.0769 9.34965 12.9822 9.36409 12.8896 9.39444C12.7495 9.44013 12.6203 9.52012 12.5156 9.63068C12.4639 9.68528 12.4196 9.74583 12.3834 9.81062L11.664 11.0673C11.6185 11.0477 11.5708 11.0317 11.5211 11.0195C11.2136 10.9444 10.8516 10.7451 10.4813 10.4571C11.0001 9.79677 11.4327 9.03923 11.6044 8.26802H12.0956C12.5926 8.26802 12.9956 7.86507 12.9956 7.36802C12.9956 6.87096 12.5926 6.46802 12.0956 6.46802H10.1964L10.032 5.97477ZM8.97593 8.76199C8.84188 8.53717 8.77 8.37058 8.73604 8.26802H9.72096C9.60789 8.54132 9.43889 8.83621 9.22282 9.13661C9.13011 9.00759 9.04728 8.88165 8.97593 8.76199ZM13.0627 12.2469L13.4541 13.1382L12.5524 13.1382L13.0627 12.2469Z" fill="#05080D"/>
</svg>
