<svg width="24" height="24" viewBox="0 0 24 24" fill="none" xmlns="http://www.w3.org/2000/svg">
<path fill-rule="evenodd" clip-rule="evenodd" d="M3 5C3 3.34315 4.34315 2 6 2H14.6284V6C14.6284 7.65685 15.9715 9 17.6284 9H21V19C21 20.6569 19.6569 22 18 22H6C4.34315 22 3 20.6569 3 19V5ZM15.9592 2.51974C15.9592 2.05446 16.4874 1.82344 16.79 2.15917C17.4905 2.93558 18.5254 4.08415 19.4596 5.12097L20.8637 6.67915C21.1592 7.00732 20.9426 7.55033 20.5166 7.55141C19.6849 7.55356 18.7054 7.5514 17.9991 7.54277C16.881 7.54277 15.9592 6.5604 15.9592 5.36645V2.51974ZM11.8823 9.55528C11.5605 9.48999 11.2268 9.5745 10.9731 9.78554C10.7193 9.99659 10.5722 10.3119 10.5722 10.6448V13.8154C10.3111 13.7404 10.0355 13.7004 9.75076 13.7004H8.65551C6.99205 13.7004 5.64355 15.0684 5.64355 16.7559C5.64355 18.4435 6.99205 19.8115 8.65551 19.8115H9.75076C11.413 19.8115 12.7608 18.4454 12.7627 16.7595L12.7627 16.7559V12.0001L14.1908 12.2899C14.7839 12.4102 15.361 12.02 15.4796 11.4183C15.5982 10.8165 15.2135 10.2312 14.6204 10.1108L11.8823 9.55528ZM10.5722 16.7559C10.5722 16.2957 10.2044 15.9226 9.75076 15.9226H8.65551C8.20184 15.9226 7.83406 16.2957 7.83406 16.7559C7.83406 17.2162 8.20184 17.5892 8.65551 17.5892H9.75076C10.2044 17.5892 10.5722 17.2162 10.5722 16.7559Z" fill="#181F26"/>
</svg>
