<svg width="24" height="24" viewBox="0 0 24 24" fill="none" xmlns="http://www.w3.org/2000/svg">
<path fill-rule="evenodd" clip-rule="evenodd" d="M2 5C2 3.34315 3.34315 2 5 2H11H13H19C20.6569 2 22 3.34315 22 5V19C22 20.6569 20.6569 22 19 22H13V22L11 22V22H5C3.34315 22 2 20.6569 2 19V5ZM11 4V5.82843L10.5858 5.41423C10.1953 5.02371 9.56211 5.02371 9.17158 5.41423C8.78106 5.80476 8.78106 6.43792 9.17158 6.82844L11.2929 8.94977C11.6834 9.34029 12.3166 9.34029 12.7071 8.94977L14.8284 6.82844C15.219 6.43792 15.219 5.80476 14.8284 5.41423C14.4379 5.02371 13.8047 5.02371 13.4142 5.41423L13 5.82846V4H19C19.5523 4 20 4.44772 20 5V11H18.0001V13H20V19C20 19.5523 19.5523 20 19 20H13V18.1728L13.4142 18.587C13.8047 18.9775 14.4379 18.9775 14.8284 18.587C15.219 18.1965 15.219 17.5633 14.8284 17.1728L12.7071 15.0515C12.3166 14.6609 11.6834 14.6609 11.2929 15.0515L9.17158 17.1728C8.78106 17.5633 8.78106 18.1965 9.17158 18.587C9.56211 18.9775 10.1953 18.9775 10.5858 18.587L11 18.1728V20H5C4.44772 20 4 19.5523 4 19V13H6V11H4V5C4 4.44772 4.44772 4 5 4H11ZM8.66669 11V13H10.6667V11H8.66669ZM13.3334 13V11H15.3334V13H13.3334Z" fill="#181F26"/>
</svg>
