<svg width="24" height="24" viewBox="0 0 24 24" fill="none" xmlns="http://www.w3.org/2000/svg">
<path fill-rule="evenodd" clip-rule="evenodd" d="M8.5 8C8.5 6.89543 9.39543 6 10.5 6H13.5C14.6046 6 15.5 6.89543 15.5 8V11C15.5 12.1046 14.6046 13 13.5 13H10.5C9.39543 13 8.5 12.1046 8.5 11V8ZM13.5 8H10.5V11H13.5V8Z" fill="#181F26"/>
<path d="M9.5 16C8.94772 16 8.5 16.4477 8.5 17C8.5 17.5523 8.94772 18 9.5 18H14.5C15.0523 18 15.5 17.5523 15.5 17C15.5 16.4477 15.0523 16 14.5 16H9.5Z" fill="#181F26"/>
<path fill-rule="evenodd" clip-rule="evenodd" d="M3.5 5C3.5 3.34315 4.84315 2 6.5 2H17.5C19.1569 2 20.5 3.34315 20.5 5V19C20.5 20.6569 19.1569 22 17.5 22H6.5C4.84315 22 3.5 20.6569 3.5 19V5ZM6.5 4C5.94772 4 5.5 4.44772 5.5 5V19C5.5 19.5523 5.94772 20 6.5 20H17.5C18.0523 20 18.5 19.5523 18.5 19V5C18.5 4.44772 18.0523 4 17.5 4H6.5Z" fill="#181F26"/>
</svg>
