<svg width="24" height="24" viewBox="0 0 24 24" fill="none" xmlns="http://www.w3.org/2000/svg">
<path d="M15.7071 12.7071C16.0976 12.3166 16.0976 11.6834 15.7071 11.2929C15.3166 10.9024 14.6834 10.9024 14.2929 11.2929L11 14.5858L9.70711 13.2929C9.31658 12.9024 8.68342 12.9024 8.29289 13.2929C7.90237 13.6834 7.90237 14.3166 8.29289 14.7071L10.2929 16.7071C10.6834 17.0976 11.3166 17.0976 11.7071 16.7071L15.7071 12.7071Z" fill="#0F1A26"/>
<path fill-rule="evenodd" clip-rule="evenodd" d="M12 2C8.24452 2 5.17977 4.95739 5.00763 8.67032C2.63959 9.79176 1 12.2033 1 15C1 18.866 4.13401 22 8 22H16.5C20.0898 22 23 19.0899 23 15.5C23 12.7886 21.3406 10.4668 18.983 9.49142C18.9943 9.32896 19 9.16509 19 9C19 5.13401 15.866 2 12 2ZM7 9C7 6.23858 9.23858 4 12 4C14.7614 4 17 6.23858 17 9C17 9.33664 16.9669 9.66454 16.904 9.98094C16.8007 10.5007 17.1208 11.0107 17.6338 11.1438C19.5708 11.6462 21 13.4075 21 15.5C21 17.9853 18.9853 20 16.5 20H8C5.23858 20 3 17.7614 3 15C3 12.8216 4.39365 10.9662 6.34104 10.2815C6.76075 10.1339 7.0325 9.72686 7.00783 9.28265C7.00264 9.18919 7 9.09496 7 9Z" fill="#0F1A26"/>
</svg>
