<svg width="24" height="24" viewBox="0 0 24 24" fill="none" xmlns="http://www.w3.org/2000/svg">
<path fill-rule="evenodd" clip-rule="evenodd" d="M4 11C4 7.13401 7.13401 4 11 4C14.866 4 18 7.13401 18 11C18 14.866 14.866 18 11 18C7.13401 18 4 14.866 4 11ZM11 2C6.02944 2 2 6.02944 2 11C2 15.9706 6.02944 20 11 20C15.9706 20 20 15.9706 20 11C20 6.02944 15.9706 2 11 2ZM19.7071 18.2929C19.3166 17.9024 18.6834 17.9024 18.2929 18.2929C17.9024 18.6834 17.9024 19.3166 18.2929 19.7071L20.2929 21.7071C20.6834 22.0976 21.3166 22.0976 21.7071 21.7071C22.0976 21.3166 22.0976 20.6834 21.7071 20.2929L19.7071 18.2929Z" fill="#0F1A26"/>
</svg>
