<svg width="24" height="24" viewBox="0 0 24 24" fill="none" xmlns="http://www.w3.org/2000/svg">
<path d="M15 13C15.5523 13 16 12.5523 16 12C16 11.4477 15.5523 11 15 11C14.4477 11 14 11.4477 14 12C14 12.5523 14.4477 13 15 13Z" fill="#181F26"/>
<path d="M10 12C10 12.5523 9.55228 13 9 13C8.44772 13 8 12.5523 8 12C8 11.4477 8.44772 11 9 11C9.55228 11 10 11.4477 10 12Z" fill="#181F26"/>
<path fill-rule="evenodd" clip-rule="evenodd" d="M8.5 8.5C6.567 8.5 5 10.067 5 12C5 13.933 6.567 15.5 8.5 15.5H15.5C17.433 15.5 19 13.933 19 12C19 10.067 17.433 8.5 15.5 8.5H8.5ZM7 12C7 11.1716 7.67157 10.5 8.5 10.5H15.5C16.3284 10.5 17 11.1716 17 12C17 12.8284 16.3284 13.5 15.5 13.5H8.5C7.67157 13.5 7 12.8284 7 12Z" fill="#181F26"/>
<path fill-rule="evenodd" clip-rule="evenodd" d="M12.6 3.84684C12.9874 3.63449 13.25 3.22291 13.25 2.75C13.25 2.05964 12.6904 1.5 12 1.5C11.3096 1.5 10.75 2.05964 10.75 2.75C10.75 3.22293 11.0126 3.63452 11.4 3.84687V4.05938C10.1939 4.08593 9.0078 4.19197 7.94653 4.37614C6.04694 4.7058 4.47817 5.96023 3.59673 7.65741C3.21219 7.72491 2.86949 7.90269 2.58642 8.17216C2.17194 8.56673 1.94991 9.09523 1.82049 9.54655C1.56003 10.4548 1.55261 11.508 1.55261 12.0001C1.55261 12.4949 1.56264 13.5177 1.82154 14.4043C1.95062 14.8463 2.17021 15.3596 2.57427 15.7478C2.84611 16.0089 3.17519 16.1874 3.54663 16.2637C4.41811 18.0109 6.01033 19.3074 7.94653 19.6434C8.62012 19.7603 9.30176 19.7774 9.93703 19.7697C10.2439 19.7661 10.515 19.7578 10.775 19.7499C10.9865 19.7435 11.1907 19.7373 11.4007 19.7339C11.4014 19.7848 11.3994 19.8423 11.394 19.9059C11.351 20.4068 11.121 21.0051 10.7958 21.3663C10.5021 21.6927 10.4711 22.1781 10.7209 22.5391C10.9707 22.9002 11.4359 23.0423 11.8448 22.8825C13.4625 22.2503 15.3166 21.3412 16.9383 20.1645C18.3787 19.1194 19.7001 17.8166 20.4676 16.2501C20.8258 16.1646 21.1387 15.9797 21.394 15.7267C21.7789 15.3452 21.9995 14.8455 22.1347 14.4098C22.4072 13.5317 22.4474 12.5247 22.4474 12.0001C22.4474 11.4611 22.3903 10.4317 22.1073 9.53761C21.9675 9.09595 21.743 8.58937 21.3587 8.20549C21.1022 7.94934 20.7847 7.76039 20.4201 7.67772C19.5406 5.97024 17.9669 4.70712 16.0597 4.37614C14.9897 4.19045 13.8021 4.08524 12.6 4.05918V3.84684ZM15.7358 6.24298C13.4504 5.84637 10.5259 5.85157 8.27051 6.24298C6.87316 6.48548 5.66979 7.50171 5.08362 8.95364L4.793 9.67349L4.03007 9.53003C3.92168 9.50965 3.90642 9.52826 3.89663 9.54022L3.89284 9.54449C3.83224 9.60218 3.73155 9.75593 3.64182 10.0688C3.46397 10.689 3.44735 11.4922 3.44735 12.0001C3.44735 12.5053 3.46627 13.2771 3.64032 13.8732C3.7277 14.1724 3.82558 14.3225 3.88686 14.3813L3.89164 14.3862C3.9071 14.4023 3.92507 14.4211 4.03016 14.405L4.78254 14.2895L5.05732 14.9994C5.63292 16.4865 6.85194 17.5304 8.27051 17.7766C8.77307 17.8638 9.31862 17.8823 9.91431 17.8751C10.1367 17.8725 10.3909 17.8652 10.6535 17.8577C11.0264 17.847 11.4164 17.8358 11.7565 17.8367C12.4537 17.8377 12.9023 18.2857 13.1079 18.7534C13.2924 19.1732 13.3174 19.6526 13.2818 20.0678C13.2788 20.1024 13.2754 20.1373 13.2714 20.1724C14.1493 19.7276 15.0245 19.2121 15.8255 18.631C17.2916 17.5672 18.4293 16.3412 18.9487 15.0002L19.2217 14.2951L19.9698 14.405C20.028 14.4135 20.0316 14.4098 20.0538 14.3874L20.0601 14.3811C20.1289 14.3129 20.2312 14.1507 20.3251 13.8483C20.5107 13.2501 20.5526 12.4755 20.5526 12.0001C20.5526 11.5392 20.4984 10.7334 20.3009 10.1093C20.2004 9.79193 20.0924 9.6187 20.0197 9.54605C20.0145 9.54084 20.0107 9.53677 20.0077 9.53363C20.0022 9.52775 19.9998 9.52512 19.9969 9.52448C19.9958 9.52422 19.9945 9.52427 19.993 9.52456L19.9877 9.5259C19.9837 9.527 19.9782 9.52853 19.9699 9.53003L19.2111 9.66778L18.9223 8.95273C18.336 7.50129 17.1328 6.48543 15.7358 6.24298Z" fill="#181F26"/>
</svg>
