<svg width="24" height="24" viewBox="0 0 24 24" fill="none" xmlns="http://www.w3.org/2000/svg">
<path fill-rule="evenodd" clip-rule="evenodd" d="M20 17V7C20 5.89543 19.1046 5 18 5V19C19.1046 19 20 18.1046 20 17ZM18 3C16.8954 3 16 3.89543 16 5V19C16 20.1046 16.8954 21 18 21C20.2091 21 22 19.2091 22 17V7C22 4.79086 20.2091 3 18 3Z" fill="black"/>
<path fill-rule="evenodd" clip-rule="evenodd" d="M6 19V12V5C4.89543 5 4 5.89543 4 7V17C4 18.1046 4.89543 19 6 19ZM6 3C3.79086 3 2 4.79086 2 7V17C2 19.2091 3.79086 21 6 21C7.10457 21 8 20.1046 8 19V5C8 3.89543 7.10457 3 6 3Z" fill="black"/>
<path fill-rule="evenodd" clip-rule="evenodd" d="M16 5L8 5V19H16V5ZM6 3V21H18V3H6Z" fill="black"/>
</svg>
