<svg width="24" height="24" viewBox="0 0 24 24" fill="none" xmlns="http://www.w3.org/2000/svg">
<path d="M10.735 13.9902H13.535L13.5785 13.5757C13.6594 12.8068 13.0981 12.1835 12.3249 12.1835C11.5517 12.1835 10.8594 12.8068 10.7786 13.5757L10.735 13.9902Z" fill="#05080D"/>
<path d="M11.9718 15.5427C12.2234 15.5427 12.406 15.7455 12.3797 15.9957L12.2369 17.3549C12.2106 17.6051 11.9853 17.808 11.7337 17.808C11.4821 17.808 11.2995 17.6051 11.3258 17.3549L11.4686 15.9957C11.4949 15.7455 11.7202 15.5427 11.9718 15.5427Z" fill="#05080D"/>
<path fill-rule="evenodd" clip-rule="evenodd" d="M21.7014 8.10275L21.6392 8.9925C22.7789 9.10424 23.5372 10.176 23.2449 11.3349L20.9807 20.313C20.7415 21.2617 19.865 21.9512 18.8984 21.9512H16.7507L16.733 21.9513H4.733L4.71534 21.9512H4.21779C3.10752 21.9512 2.20356 21.3578 1.745 20.4953C1.2245 19.8061 0.944728 18.9234 1.01202 17.961L1.8491 5.99026C2.0032 3.7865 3.91899 2 6.12812 2H9.39491C10.105 2 10.7745 2.25128 11.2844 2.70913L12.3206 3.63973C12.6605 3.94497 13.1068 4.11249 13.5802 4.11249H17.9804C20.1895 4.11249 21.8555 5.89899 21.7014 8.10275ZM3.8491 5.99026C3.92615 4.88838 4.88404 3.99513 5.98861 3.99513H9.2554C9.4921 3.99513 9.71527 4.07889 9.88521 4.23151L10.9215 5.16211C11.6012 5.77258 12.4939 6.10762 13.4407 6.10762H17.8409C18.9455 6.10762 19.7784 7.00087 19.7014 8.10275L19.6398 8.98291H5.85098C4.9111 8.98291 4.05237 9.63576 3.78748 10.5517L3.44807 11.7253L3.8491 5.99026ZM9.73186 14.0201C9.03265 14.1582 8.45404 14.7604 8.37819 15.482L8.12734 17.8687C8.04072 18.6928 8.64211 19.3605 9.47054 19.3605H13.6706C14.499 19.3605 15.2407 18.6928 15.3273 17.8687L15.5782 15.482C15.6541 14.7604 15.202 14.1582 14.5318 14.0201L14.5785 13.5757C14.7171 12.2575 13.7549 11.189 12.4294 11.189C11.1039 11.189 9.91711 12.2575 9.77856 13.5757L9.73186 14.0201Z" fill="#05080D"/>
</svg>
