<svg width="24" height="24" viewBox="0 0 24 24" fill="none" xmlns="http://www.w3.org/2000/svg">
<path fill-rule="evenodd" clip-rule="evenodd" d="M8 2C8.55228 2 9 2.44772 9 3V4H15V3C15 2.44772 15.4477 2 16 2C16.5523 2 17 2.44772 17 3V4H17.8385C18.3657 3.99998 18.8205 3.99997 19.195 4.03057C19.5904 4.06287 19.9836 4.13419 20.362 4.32698C20.9265 4.6146 21.3854 5.07354 21.673 5.63803C21.8658 6.01641 21.9371 6.40963 21.9694 6.80497C22 7.17954 22 7.6343 22 8.16144V17.8386C22 18.3657 22 18.8205 21.9694 19.195C21.9371 19.5904 21.8658 19.9836 21.673 20.362C21.3854 20.9265 20.9265 21.3854 20.362 21.673C19.9836 21.8658 19.5904 21.9371 19.195 21.9694C18.8205 22 18.3657 22 17.8386 22H6.16144C5.6343 22 5.17954 22 4.80497 21.9694C4.40963 21.9371 4.01641 21.8658 3.63803 21.673C3.07354 21.3854 2.6146 20.9265 2.32698 20.362C2.13419 19.9836 2.06287 19.5904 2.03057 19.195C1.99997 18.8205 1.99998 18.3657 2 17.8386V17.8385V8.16146V8.16142C1.99998 7.63429 1.99997 7.17954 2.03057 6.80497C2.06287 6.40963 2.13419 6.01641 2.32698 5.63803C2.6146 5.07354 3.07354 4.6146 3.63803 4.32698C4.01641 4.13419 4.40963 4.06287 4.80497 4.03057C5.17955 3.99997 5.63431 3.99998 6.16146 4H7V3C7 2.44772 7.44772 2 8 2ZM15 6C15 6.55228 15.4477 7 16 7C16.5523 7 17 6.55228 17 6L17.8 6C18.3766 6 18.7488 6.00078 19.0322 6.02393C19.3038 6.04612 19.4045 6.0838 19.454 6.109C19.6422 6.20487 19.7951 6.35785 19.891 6.54601C19.9162 6.59546 19.9539 6.69617 19.9761 6.96784C19.9992 7.25117 20 7.62345 20 8.2L20 10H4L4 8.2C4 7.62345 4.00078 7.25117 4.02393 6.96784C4.04612 6.69617 4.0838 6.59546 4.109 6.54601C4.20487 6.35785 4.35785 6.20487 4.54601 6.109C4.59546 6.0838 4.69617 6.04612 4.96784 6.02393C5.25117 6.00078 5.62345 6 6.2 6L7 6C7 6.55228 7.44772 7 8 7C8.55228 7 9 6.55228 9 6H15ZM20 12H4L4 17.8C4 18.3766 4.00078 18.7488 4.02393 19.0322C4.04612 19.3038 4.0838 19.4045 4.109 19.454C4.20487 19.6422 4.35785 19.7951 4.54601 19.891C4.59546 19.9162 4.69617 19.9539 4.96784 19.9761C5.25117 19.9992 5.62345 20 6.2 20H17.8C18.3766 20 18.7488 19.9992 19.0322 19.9761C19.3038 19.9539 19.4045 19.9162 19.454 19.891C19.6422 19.7951 19.7951 19.6422 19.891 19.454C19.9162 19.4045 19.9539 19.3038 19.9761 19.0322C19.9992 18.7488 20 18.3766 20 17.8L20 12ZM12 16C12 16.5523 11.5523 17 11 17H9C8.44772 17 8 16.5523 8 16C8 15.4477 8.44772 15 9 15H11C11.5523 15 12 15.4477 12 16Z" fill="#181F26"/>
</svg>
