<svg width="24" height="24" viewBox="0 0 24 24" fill="none" xmlns="http://www.w3.org/2000/svg">
<path d="M13.4 10.8202V11.2368H10.6V10.8202C10.6 10.047 11.2268 9.42017 12 9.42017C12.7732 9.42017 13.4 10.047 13.4 10.8202Z" fill="#05080D"/>
<path d="M12.4556 13.2534C12.4556 13.0018 12.2516 12.7979 12 12.7979C11.7484 12.7979 11.5445 13.0018 11.5445 13.2534V14.6201C11.5445 14.8717 11.7484 15.0756 12 15.0756C12.2516 15.0756 12.4556 14.8717 12.4556 14.6201V13.2534Z" fill="#05080D"/>
<path fill-rule="evenodd" clip-rule="evenodd" d="M1 6.5C1 4.29086 2.79086 2.5 5 2.5H9.13268C9.76182 2.5 10.375 2.69779 10.8856 3.0654L12.3546 4.12307C12.695 4.36814 13.1038 4.5 13.5232 4.5H19C21.2091 4.5 23 6.29086 23 8.5V17.5C23 19.7091 21.2091 21.5 19 21.5H5C2.79086 21.5 1 19.7091 1 17.5V6.5ZM8.40002 12.7368C8.40002 12.0111 8.91536 11.4058 9.60004 11.2668V10.8202C9.60004 9.49468 10.6746 8.42017 12 8.42017C13.3255 8.42017 14.4 9.49468 14.4 10.8202V11.2668C15.0847 11.4058 15.6 12.0111 15.6 12.7368V15.1368C15.6 15.9652 14.9285 16.6368 14.1 16.6368H9.90003C9.0716 16.6368 8.40002 15.9652 8.40002 15.1368V12.7368Z" fill="#05080D"/>
</svg>
