<svg width="24" height="24" viewBox="0 0 24 24" fill="none" xmlns="http://www.w3.org/2000/svg">
<path fill-rule="evenodd" clip-rule="evenodd" d="M12.4903 4.4231C12.1858 4.25187 11.8142 4.25187 11.5097 4.4231L5.50974 7.7981C5.19486 7.97522 5 8.3084 5 8.66968V19C5 19.5523 5.44772 20 6 20H7.89333C8.13634 20 8.33333 19.803 8.33333 19.56V16.4666C8.33333 14.4416 9.97496 12.8 12 12.8C14.025 12.8 15.6667 14.4416 15.6667 16.4667V19.56C15.6667 19.803 15.8637 20 16.1067 20H18C18.5523 20 19 19.5523 19 19V8.66968C19 8.3084 18.8051 7.97522 18.4903 7.7981L12.4903 4.4231ZM10.5292 2.67995C11.4425 2.16625 12.5575 2.16625 13.4708 2.67995L19.4708 6.05495C20.4154 6.58631 21 7.58586 21 8.66968V19C21 20.6568 19.6569 22 18 22H16.1067C14.7591 22 13.6667 20.9076 13.6667 19.56V16.4667C13.6667 15.5462 12.9205 14.8 12 14.8C11.0795 14.8 10.3333 15.5462 10.3333 16.4666V19.56C10.3333 20.9076 9.24091 22 7.89333 22H6C4.34315 22 3 20.6568 3 19V8.66968C3 7.58586 3.58459 6.58631 4.52922 6.05495L10.5292 2.67995Z" fill="#0F1A26"/>
</svg>
