<svg width="24" height="24" viewBox="0 0 24 24" fill="none" xmlns="http://www.w3.org/2000/svg">
<path d="M12 10.3923C12 11.3243 11.2445 12.0798 10.3125 12.0798C9.38052 12.0798 8.625 11.3243 8.625 10.3923C8.625 9.46035 9.38052 8.70483 10.3125 8.70483C11.2445 8.70483 12 9.46035 12 10.3923Z" fill="#181F26"/>
<path d="M7.5 14.6111C7.5 13.6791 8.25552 12.9236 9.1875 12.9236H11.4375C12.3695 12.9236 13.125 13.6791 13.125 14.6111V15.7361C13.125 16.0467 12.8732 16.2986 12.5625 16.2986H8.0625C7.75184 16.2986 7.5 16.0467 7.5 15.7361V14.6111Z" fill="#181F26"/>
<path d="M15.375 10.9548C15.375 11.7315 14.7454 12.3611 13.9688 12.3611C13.1921 12.3611 12.5625 11.7315 12.5625 10.9548C12.5625 10.1782 13.1921 9.54858 13.9688 9.54858C14.7454 9.54858 15.375 10.1782 15.375 10.9548Z" fill="#181F26"/>
<path d="M15.9375 16.0173H13.6521C13.6752 15.9274 13.6875 15.8332 13.6875 15.7361V14.6111C13.6875 14.079 13.5028 13.59 13.194 13.2048H15.375C15.9963 13.2048 16.5 13.7085 16.5 14.3298V15.4548C16.5 15.7655 16.2482 16.0173 15.9375 16.0173Z" fill="#181F26"/>
<path fill-rule="evenodd" clip-rule="evenodd" d="M6 2.5C3.79086 2.5 2 4.29086 2 6.5V17.5C2 19.7091 3.79086 21.5 6 21.5H18C20.2091 21.5 22 19.7091 22 17.5V8.5C22 6.29086 20.2091 4.5 18 4.5H13.5523C13.0982 4.5 12.6576 4.34544 12.303 4.06174L11.1725 3.15739C10.6406 2.73184 9.97965 2.5 9.29844 2.5H6ZM4 6.5C4 5.39543 4.89543 4.5 6 4.5H9.29844C9.52551 4.5 9.74582 4.57728 9.92313 4.71913L11.0536 5.62347C11.7628 6.19088 12.6441 6.5 13.5523 6.5H18C19.1046 6.5 20 7.39543 20 8.5V17.5C20 18.6046 19.1046 19.5 18 19.5H6C4.89543 19.5 4 18.6046 4 17.5V6.5Z" fill="#181F26"/>
</svg>
