<svg width="24" height="24" viewBox="0 0 24 24" fill="none" xmlns="http://www.w3.org/2000/svg">
<path fill-rule="evenodd" clip-rule="evenodd" d="M16.8175 5.29026L16.6325 4.73509C16.088 3.10172 14.5594 2 12.8377 2H11.1623C9.44056 2 7.912 3.10172 7.36755 4.73509L7.18249 5.29026C6.58462 5.35956 6.03052 5.43552 5.53178 5.51137C4.69191 5.63908 4.00549 5.76699 3.52691 5.86347C3.28754 5.91173 3.09994 5.95217 2.97088 5.98086C2.90635 5.9952 2.85643 6.00662 2.82198 6.0146L2.78201 6.02395L2.77091 6.02658L2.76585 6.0278C2.22892 6.1571 1.89847 6.6972 2.02778 7.23413C2.15707 7.771 2.69705 8.10143 3.23391 7.97225L3.23511 7.97197L3.24208 7.97031L3.27362 7.96294C3.30237 7.95628 3.34639 7.9462 3.40487 7.9332C3.52183 7.9072 3.6965 7.86952 3.92216 7.82403C4.37363 7.73301 5.02827 7.61092 5.83245 7.48864C7.44365 7.24363 9.6411 7 12 7C14.3589 7 16.5563 7.24363 18.1675 7.48864C18.9717 7.61092 19.6263 7.73301 20.0778 7.82403C20.3035 7.86952 20.4781 7.9072 20.5951 7.9332C20.6536 7.9462 20.6976 7.95628 20.7263 7.96294L20.7579 7.97031L20.7649 7.97197L20.7659 7.9722C21.3027 8.10138 21.8429 7.771 21.9722 7.23413C22.1015 6.6972 21.7711 6.1571 21.2341 6.0278L21.2291 6.02658L21.218 6.02395L21.178 6.0146C21.1435 6.00662 21.0936 5.9952 21.0291 5.98086C20.9 5.95217 20.7124 5.91173 20.4731 5.86347C19.9945 5.76699 19.3081 5.63908 18.4682 5.51137C17.9695 5.43553 17.4154 5.35956 16.8175 5.29026ZM21.2341 6.0278C21.2342 6.02781 21.2342 6.02781 21.2057 6.14619C21.1772 6.26413 21.1205 6.49957 21.0073 6.9696L21.2341 6.0278ZM2.99999 7L2.76585 6.0278C2.76569 6.02783 2.76585 6.0278 2.99999 7ZM9.3816 5.0892C10.2157 5.03386 11.0956 5 12 5C12.9044 5 13.7843 5.03386 14.6184 5.0892C14.2806 4.42818 13.5967 4 12.8377 4H11.1623C10.4033 4 9.71942 4.42818 9.3816 5.0892ZM4.91695 8.00351C5.46733 7.95764 5.95068 8.36663 5.99654 8.91701L6.84371 19.0831C6.88691 19.6014 7.32017 20.0001 7.84026 20.0001H16.1597C16.6798 20.0001 17.1131 19.6014 17.1563 19.0831L18.0034 8.91701C18.0493 8.36663 18.5327 7.95764 19.083 8.00351C19.6334 8.04937 20.0424 8.53272 19.9965 9.0831L19.1494 19.2492C19.0198 20.8041 17.72 22.0001 16.1597 22.0001H7.84026C6.27999 22.0001 4.9802 20.8041 4.85062 19.2492L4.00345 9.0831C3.95758 8.53272 4.36657 8.04937 4.91695 8.00351ZM14.5 16C14.5 16.5523 14.0523 17 13.5 17H10.5C9.94772 17 9.5 16.5523 9.5 16C9.5 15.4477 9.94772 15 10.5 15H13.5C14.0523 15 14.5 15.4477 14.5 16ZM14.5 13C15.0523 13 15.5 12.5523 15.5 12C15.5 11.4477 15.0523 11 14.5 11H9.5C8.94772 11 8.5 11.4477 8.5 12C8.5 12.5523 8.94772 13 9.5 13H14.5Z" fill="#181F26"/>
</svg>
