<svg width="24" height="24" viewBox="0 0 24 24" fill="none" xmlns="http://www.w3.org/2000/svg">
<path fill-rule="evenodd" clip-rule="evenodd" d="M17.3862 12C17.9383 12.0002 18.3853 12.4483 18.3853 13.0005V13.8281C18.9167 13.9864 19.396 14.267 19.7886 14.6382L20.5063 14.2236C20.9846 13.9476 21.5969 14.1116 21.873 14.5898C22.149 15.068 21.9849 15.6804 21.5068 15.9565L20.7891 16.3696C20.8507 16.6295 20.8828 16.901 20.8828 17.1797C20.8828 17.4583 20.8506 17.7299 20.7891 17.9897L21.5068 18.4043C21.9848 18.6806 22.1476 19.2929 21.8716 19.771C21.5952 20.2487 20.9844 20.4117 20.5063 20.1357L19.7886 19.7227C19.396 20.0938 18.9167 20.3744 18.3853 20.5327V21.3618C18.385 21.9138 17.9382 22.3606 17.3862 22.3608C16.8341 22.3608 16.386 21.9139 16.3857 21.3618V20.5327C15.8542 20.3744 15.375 20.0939 14.9824 19.7227L14.2646 20.1357C13.7866 20.4116 13.1757 20.2488 12.8994 19.771C12.6233 19.2927 12.7873 18.6804 13.2656 18.4043L13.9819 17.9897C13.9204 17.73 13.8882 17.4583 13.8882 17.1797C13.8882 16.901 13.9203 16.6295 13.9819 16.3696L13.2656 15.9565C12.7873 15.6804 12.6233 15.0681 12.8994 14.5898C13.1755 14.1119 13.7865 13.948 14.2646 14.2236L14.9824 14.6382C15.375 14.267 15.8543 13.9864 16.3857 13.8281V13.0005C16.3857 12.4482 16.8339 12 17.3862 12ZM17.3862 15.6826C16.5593 15.6826 15.888 16.3528 15.8877 17.1797C15.8877 18.0068 16.5591 18.6782 17.3862 18.6782C18.2132 18.678 18.8833 18.0067 18.8833 17.1797C18.883 16.353 18.213 15.6828 17.3862 15.6826Z" fill="#05080D"/>
<path d="M9.29883 2.49902C9.98004 2.49902 10.6419 2.73265 11.1738 3.1582L12.3032 4.06201C12.6576 4.34541 13.099 4.49987 13.5527 4.5H18.0015C20.2104 4.50026 22.0005 6.29151 22.0005 8.50049V10.9995C22.0005 11.5514 21.5533 11.9996 21.0015 12C20.4496 12 20.0014 11.5528 20.001 11.001V8.50049C20.001 7.39608 19.1058 6.50124 18.0015 6.50098H13.5527C12.6449 6.50084 11.7642 6.19054 11.0552 5.62354L9.92432 4.71973C9.747 4.57788 9.5259 4.5 9.29883 4.5H6.00146C4.8969 4.5 4.00049 5.39641 4.00049 6.50098V10.0005H10.9995C11.5518 10.0005 12 10.4487 12 11.001C11.9995 11.5528 11.5515 12 10.9995 12L4.00049 12.0015V17.5005C4.00089 18.6047 4.89714 19.5 6.00146 19.5H10.9995C11.5521 19.5 12 19.9479 12 20.5005C12 21.053 11.5521 21.501 10.9995 21.501H6.00146C3.79257 21.501 2.00137 19.7093 2.00098 17.5005V6.50098C2.00098 4.29184 3.79233 2.49902 6.00146 2.49902H9.29883Z" fill="#05080D"/>
</svg>
