<svg width="24" height="24" viewBox="0 0 24 24" fill="none" xmlns="http://www.w3.org/2000/svg">
<path fill-rule="evenodd" clip-rule="evenodd" d="M5 4C3.89543 4 3 4.89543 3 6V11.7491L3.25735 10.5726C3.4582 9.65444 4.27127 9 5.21115 9H19V8.11765C19 7.01308 18.1046 6.11765 17 6.11765H12.5998C11.653 6.11765 10.7369 5.78179 10.0144 5.16983L8.91313 4.23695C8.73252 4.08396 8.50349 4 8.26679 4H5ZM21 9.00961V8.11765C21 5.90851 19.2091 4.11765 17 4.11765H12.5998C12.1264 4.11765 11.6684 3.94972 11.3071 3.64374L10.2058 2.71086C9.66398 2.25189 8.97689 2 8.26679 2H5C2.79086 2 1 3.79086 1 6V18C1 18.9647 1.34147 19.8495 1.91014 20.5404C2.42899 21.405 3.37448 22 4.4848 22H5H17H19.1654C20.132 22 20.9603 21.3088 21.1332 20.3578L22.7695 11.3578C22.9808 10.196 22.1475 9.12162 21 9.00961Z" fill="#181F26"/>
</svg>
