<svg width="24" height="24" viewBox="0 0 24 24" fill="none" xmlns="http://www.w3.org/2000/svg">
<path fill-rule="evenodd" clip-rule="evenodd" d="M8.40002 12.7368C8.40002 12.0111 8.91536 11.4058 9.60004 11.2668V10.8202C9.60004 9.49468 10.6746 8.42017 12 8.42017C13.3255 8.42017 14.4 9.49468 14.4 10.8202V11.2668C15.0847 11.4058 15.6 12.0111 15.6 12.7368V15.1368C15.6 15.9652 14.9285 16.6368 14.1 16.6368H9.90003C9.0716 16.6368 8.40002 15.9652 8.40002 15.1368V12.7368ZM13.4 10.8202V11.2368H10.6V10.8202C10.6 10.047 11.2268 9.42017 12 9.42017C12.7732 9.42017 13.4 10.047 13.4 10.8202ZM12.4556 13.2534C12.4556 13.0018 12.2516 12.7979 12 12.7979C11.7484 12.7979 11.5445 13.0018 11.5445 13.2534V14.6201C11.5445 14.8717 11.7484 15.0756 12 15.0756C12.2516 15.0756 12.4556 14.8717 12.4556 14.6201V13.2534Z" fill="black"/>
<path fill-rule="evenodd" clip-rule="evenodd" d="M1.99921 6.5C1.99921 4.29086 3.79007 2.5 5.99921 2.5H9.29765C9.97886 2.5 10.6398 2.73184 11.1717 3.15739L12.3022 4.06174C12.6568 4.34544 13.0974 4.5 13.5516 4.5H17.9992C20.2083 4.5 21.9992 6.29086 21.9992 8.5V17.5C21.9992 19.7091 20.2083 21.5 17.9992 21.5H5.99921C3.79007 21.5 1.99921 19.7091 1.99921 17.5V6.5ZM5.99921 4.5C4.89464 4.5 3.99921 5.39543 3.99921 6.5V17.5C3.99921 18.6046 4.89464 19.5 5.99921 19.5H17.9992C19.1038 19.5 19.9992 18.6046 19.9992 17.5V8.5C19.9992 7.39543 19.1038 6.5 17.9992 6.5H13.5516C12.6433 6.5 11.762 6.19088 11.0528 5.62347L9.92234 4.71913C9.74503 4.57728 9.52472 4.5 9.29765 4.5H5.99921Z" fill="black"/>
</svg>
