<svg width="24" height="24" viewBox="0 0 24 24" fill="none" xmlns="http://www.w3.org/2000/svg">
<path fill-rule="evenodd" clip-rule="evenodd" d="M8 2C8.55228 2 9 2.44772 9 3V4H15V3C15 2.44772 15.4477 2 16 2C16.5523 2 17 2.44772 17 3V4.00163C17.4755 4.00489 17.891 4.01472 18.2518 4.04419C18.8139 4.09012 19.3306 4.18868 19.816 4.43597C20.5686 4.81947 21.1805 5.43139 21.564 6.18404C21.8113 6.66937 21.9099 7.18608 21.9558 7.74817C22 8.28936 22 8.95372 22 9.75868V16.2413C22 17.0463 22 17.7106 21.9558 18.2518C21.9099 18.8139 21.8113 19.3306 21.564 19.816C21.1805 20.5686 20.5686 21.1805 19.816 21.564C19.3306 21.8113 18.8139 21.9099 18.2518 21.9558C17.7106 22 17.0463 22 16.2413 22H7.75868C6.95372 22 6.28936 22 5.74817 21.9558C5.18608 21.9099 4.66937 21.8113 4.18404 21.564C3.43139 21.1805 2.81947 20.5686 2.43597 19.816C2.18868 19.3306 2.09012 18.8139 2.04419 18.2518C1.99998 17.7106 1.99999 17.0463 2 16.2413V16.2413V9.7587V9.75869C1.99999 8.95372 1.99998 8.28937 2.04419 7.74817C2.09012 7.18608 2.18868 6.66937 2.43597 6.18404C2.81947 5.43139 3.43139 4.81947 4.18404 4.43597C4.66937 4.18868 5.18608 4.09012 5.74817 4.04419C6.10898 4.01472 6.52454 4.00489 7 4.00163V3C7 2.44772 7.44772 2 8 2ZM15 6C15 6.55228 15.4477 7 16 7C16.5517 7 16.999 6.55324 17 6.00176C17.4455 6.00489 17.7954 6.01357 18.089 6.03755C18.5274 6.07337 18.7516 6.1383 18.908 6.21799C19.2843 6.40973 19.5903 6.7157 19.782 7.09202C19.8617 7.24842 19.9266 7.47262 19.9624 7.91104C19.9992 8.36113 20 8.94342 20 9.8V10H4L4 9.8C4 8.94342 4.00078 8.36113 4.03755 7.91104C4.07337 7.47262 4.1383 7.24842 4.21799 7.09202C4.40973 6.7157 4.7157 6.40973 5.09202 6.21799C5.24842 6.1383 5.47262 6.07337 5.91104 6.03755C6.20463 6.01357 6.55447 6.00489 7 6.00176C7.00095 6.55324 7.4483 7 8 7C8.55228 7 9 6.55228 9 6H15ZM20 12H4L4 16.2C4 17.0566 4.00078 17.6389 4.03755 18.089C4.07337 18.5274 4.1383 18.7516 4.21799 18.908C4.40973 19.2843 4.7157 19.5903 5.09202 19.782C5.24842 19.8617 5.47262 19.9266 5.91104 19.9624C6.36113 19.9992 6.94342 20 7.8 20H16.2C17.0566 20 17.6389 19.9992 18.089 19.9624C18.5274 19.9266 18.7516 19.8617 18.908 19.782C19.2843 19.5903 19.5903 19.2843 19.782 18.908C19.8617 18.7516 19.9266 18.5274 19.9624 18.089C19.9992 17.6389 20 17.0566 20 16.2V12ZM12 16C12 16.5523 11.5523 17 11 17H9C8.44772 17 8 16.5523 8 16C8 15.4477 8.44772 15 9 15H11C11.5523 15 12 15.4477 12 16Z" fill="#181F26"/>
</svg>
