<svg width="24" height="24" viewBox="0 0 24 24" fill="none" xmlns="http://www.w3.org/2000/svg">
<path fill-rule="evenodd" clip-rule="evenodd" d="M4 6C4 5.44772 4.44772 5 5 5H10.1716C10.4368 5 10.6911 5.10536 10.8787 5.29289L11.7071 6.12132C12.2697 6.68393 13.0328 7 13.8284 7H19C19.5523 7 20 7.44772 20 8V10H4V6ZM4 12V19C4 19.5523 4.44772 20 5 20H19C19.5523 20 20 19.5523 20 19V12H4ZM5 3C3.34315 3 2 4.34315 2 6V19C2 20.6569 3.34315 22 5 22H19C20.6569 22 22 20.6569 22 19V8C22 6.34315 20.6569 5 19 5H13.8284C13.5632 5 13.3089 4.89464 13.1213 4.70711L12.2929 3.87868C11.7303 3.31607 10.9672 3 10.1716 3H5Z" fill="#0F1A26"/>
</svg>
