<svg width="24" height="24" viewBox="0 0 24 24" fill="none" xmlns="http://www.w3.org/2000/svg">
<path fill-rule="evenodd" clip-rule="evenodd" d="M7 2C4.79086 2 3 3.79086 3 6V18C3 20.2091 4.79086 22 7 22H17C19.2091 22 21 20.2091 21 18V6C21 3.79086 19.2091 2 17 2H7ZM5 6C5 4.89543 5.89543 4 7 4H17C18.1046 4 19 4.89543 19 6V18C19 19.1046 18.1046 20 17 20H7C5.89543 20 5 19.1046 5 18V6ZM8 8C8 7.44772 8.44772 7 9 7H15C15.5523 7 16 7.44772 16 8C16 8.55228 15.5523 9 15 9H9C8.44772 9 8 8.55228 8 8ZM9 12C8.44772 12 8 12.4477 8 13C8 13.5523 8.44772 14 9 14H11C11.5523 14 12 13.5523 12 13C12 12.4477 11.5523 12 11 12H9ZM14 12C13.4477 12 13 12.4477 13 13C13 13.5523 13.4477 14 14 14H15C15.5523 14 16 13.5523 16 13C16 12.4477 15.5523 12 15 12H14ZM9 16C8.44772 16 8 16.4477 8 17C8 17.5523 8.44772 18 9 18H10C10.5523 18 11 17.5523 11 17C11 16.4477 10.5523 16 10 16H9ZM12 17C12 16.4477 12.4477 16 13 16H15C15.5523 16 16 16.4477 16 17C16 17.5523 15.5523 18 15 18H13C12.4477 18 12 17.5523 12 17Z" fill="#181F26"/>
</svg>
