<svg width="24" height="24" viewBox="0 0 24 24" fill="none" xmlns="http://www.w3.org/2000/svg">
<path fill-rule="evenodd" clip-rule="evenodd" d="M21.0988 8.11765V9.00961C22.2463 9.12162 23.0796 10.196 22.8683 11.3578L21.232 20.3578C21.0591 21.3088 20.2308 22 19.2642 22H4.58361C3.4733 22 2.5278 21.405 2.00895 20.5404C1.44029 19.8495 1.09882 18.9647 1.09882 18V6C1.09882 3.79086 2.88968 2 5.09882 2H8.3656C9.07571 2 9.76279 2.25189 10.3046 2.71086L11.4059 3.64374C11.7672 3.94972 12.2252 4.11765 12.6986 4.11765H17.0988C19.308 4.11765 21.0988 5.90851 21.0988 8.11765ZM3.09882 6C3.09882 4.89543 3.99425 4 5.09882 4H8.3656C8.6023 4 8.83133 4.08396 9.01195 4.23695L10.1133 5.16983C10.8357 5.78179 11.7518 6.11765 12.6986 6.11765H17.0988C18.2034 6.11765 19.0988 7.01308 19.0988 8.11765V9H5.30997C4.37009 9 3.55702 9.65444 3.35617 10.5726L3.09882 11.7491V6ZM12.544 13.2925C12.4517 14.2199 11.6214 14.9717 10.6894 14.9717C9.75745 14.9717 9.07671 14.2199 9.16895 13.2925C9.26119 12.3651 10.0915 11.6133 11.0235 11.6133C11.9554 11.6133 12.6362 12.3651 12.544 13.2925ZM7.62641 17.4905C7.71865 16.5631 8.54895 15.8113 9.48093 15.8113H11.7309C12.6629 15.8113 13.3437 16.5631 13.2514 17.4905L13.1401 18.61C13.1093 18.9191 12.8326 19.1697 12.5219 19.1697H8.02189C7.71124 19.1697 7.48432 18.9191 7.51507 18.61L7.62641 17.4905ZM15.8633 13.8522C15.7864 14.625 15.0945 15.2516 14.3178 15.2516C13.5412 15.2516 12.9739 14.625 13.0508 13.8522C13.1276 13.0794 13.8196 12.4529 14.5962 12.4529C15.3729 12.4529 15.9401 13.0794 15.8633 13.8522ZM15.9247 18.8899H13.6393C13.6713 18.8004 13.693 18.7066 13.7026 18.61L13.8139 17.4905C13.8666 16.961 13.7303 16.4745 13.4596 16.0912H15.6406C16.2619 16.0912 16.7157 16.5924 16.6542 17.2106L16.5429 18.3301C16.5122 18.6392 16.2354 18.8899 15.9247 18.8899Z" fill="#181F26"/>
</svg>
