<svg width="24" height="24" viewBox="0 0 24 24" fill="none" xmlns="http://www.w3.org/2000/svg">
<path fill-rule="evenodd" clip-rule="evenodd" d="M6 2C4.34315 2 3 3.34315 3 5V19C3 20.6569 4.34315 22 6 22H18C19.6569 22 21 20.6569 21 19V5C21 3.34315 19.6569 2 18 2H6ZM5 5C5 4.44772 5.44772 4 6 4H18C18.5523 4 19 4.44772 19 5V19C19 19.5523 18.5523 20 18 20H6C5.44772 20 5 19.5523 5 19V5ZM8 8C8 7.44772 8.44772 7 9 7H15C15.5523 7 16 7.44772 16 8C16 8.55228 15.5523 9 15 9H9C8.44772 9 8 8.55228 8 8ZM9 12C8.44772 12 8 12.4477 8 13C8 13.5523 8.44772 14 9 14H11C11.5523 14 12 13.5523 12 13C12 12.4477 11.5523 12 11 12H9ZM14 12C13.4477 12 13 12.4477 13 13C13 13.5523 13.4477 14 14 14H15C15.5523 14 16 13.5523 16 13C16 12.4477 15.5523 12 15 12H14ZM9 16C8.44772 16 8 16.4477 8 17C8 17.5523 8.44772 18 9 18H10C10.5523 18 11 17.5523 11 17C11 16.4477 10.5523 16 10 16H9ZM12 17C12 16.4477 12.4477 16 13 16H15C15.5523 16 16 16.4477 16 17C16 17.5523 15.5523 18 15 18H13C12.4477 18 12 17.5523 12 17Z" fill="#181F26"/>
</svg>
