<svg width="24" height="24" viewBox="0 0 24 24" fill="none" xmlns="http://www.w3.org/2000/svg">
<path fill-rule="evenodd" clip-rule="evenodd" d="M1 6.5C1 4.29086 2.79086 2.5 5 2.5H9.13268C9.76182 2.5 10.375 2.69779 10.8856 3.0654L12.3546 4.12307C12.695 4.36814 13.1038 4.5 13.5232 4.5H19C21.2091 4.5 23 6.29086 23 8.5V17.5C23 19.7091 21.2091 21.5 19 21.5H5C2.79086 21.5 1 19.7091 1 17.5V6.5ZM10.3125 12.0798C11.2445 12.0798 12 11.3243 12 10.3923C12 9.46035 11.2445 8.70483 10.3125 8.70483C9.38052 8.70483 8.625 9.46035 8.625 10.3923C8.625 11.3243 9.38052 12.0798 10.3125 12.0798ZM9.1875 12.9236C8.25552 12.9236 7.5 13.6791 7.5 14.6111V15.7361C7.5 16.0467 7.75184 16.2986 8.0625 16.2986H12.5625C12.8732 16.2986 13.125 16.0467 13.125 15.7361V14.6111C13.125 13.6791 12.3695 12.9236 11.4375 12.9236H9.1875ZM15.375 10.9548C15.375 11.7315 14.7454 12.3611 13.9688 12.3611C13.1921 12.3611 12.5625 11.7315 12.5625 10.9548C12.5625 10.1782 13.1921 9.54858 13.9688 9.54858C14.7454 9.54858 15.375 10.1782 15.375 10.9548ZM13.6521 16.0173H15.9375C16.2482 16.0173 16.5 15.7655 16.5 15.4548V14.3298C16.5 13.7085 15.9963 13.2048 15.375 13.2048H13.194C13.5028 13.59 13.6875 14.079 13.6875 14.6111V15.7361C13.6875 15.8332 13.6752 15.9274 13.6521 16.0173Z" fill="#05080D"/>
</svg>
