<svg width="24" height="24" viewBox="0 0 24 24" fill="none" xmlns="http://www.w3.org/2000/svg">
<path d="M17.9864 11.4405C17.9954 11.2948 18 11.1479 18 11C18 7.13401 14.866 4 11 4C7.13401 4 4 7.13401 4 11C4 14.6124 6.73639 17.5858 10.2495 17.9602L9.1783 19.8155C5.08108 18.9733 2 15.3465 2 11C2 6.02944 6.02944 2 11 2C15.9706 2 20 6.02944 20 11C20 12.0614 19.8163 13.08 19.4788 14.0255L17.9864 11.4405Z" fill="#05080D"/>
<path d="M11 6C11.5523 6 12 6.44772 12 7V11C12 11.2652 11.8946 11.5196 11.7071 11.7071L9.70711 13.7071C9.31658 14.0976 8.68342 14.0976 8.29289 13.7071C7.90237 13.3166 7.90237 12.6834 8.29289 12.2929L10 10.5858V7C10 6.44772 10.4477 6 11 6Z" fill="#05080D"/>
<path fill-rule="evenodd" clip-rule="evenodd" d="M16.866 11.5C16.4811 10.8333 15.5189 10.8333 15.134 11.5L9.93782 20.5C9.55292 21.1667 10.034 22 10.8038 22H21.1962C21.966 22 22.4471 21.1667 22.0622 20.5L16.866 11.5ZM16 21C16.5523 21 17 20.5523 17 20C17 19.4477 16.5523 19 16 19C15.4477 19 15 19.4477 15 20C15 20.5523 15.4477 21 16 21ZM15.25 14.25C15.25 13.8358 15.5858 13.5 16 13.5C16.4142 13.5 16.75 13.8358 16.75 14.25V17.25C16.75 17.6642 16.4142 18 16 18C15.5858 18 15.25 17.6642 15.25 17.25V14.25Z" fill="#05080D"/>
</svg>
