<svg width="24" height="24" viewBox="0 0 24 24" fill="none" xmlns="http://www.w3.org/2000/svg">
<path fill-rule="evenodd" clip-rule="evenodd" d="M4.99986 1C3.89529 1 2.99986 1.89543 2.99986 3V21C2.99986 22.1046 3.8953 23 4.99986 23H10.9999C11.5521 23 11.9999 22.5523 11.9999 22C11.9999 21.4477 11.5521 21 10.9999 21H4.99986V3H14V7C14 7.55228 14.4477 8 15 8H18.9999V11.5C18.9999 12.0523 19.4476 12.5 19.9999 12.5C20.5521 12.5 20.9999 12.0523 20.9999 11.5V7.01686C21 7.01125 21 7.00563 21 7C21 6.73748 20.8988 6.49859 20.7334 6.32018L16.2432 1.33104C16.0535 1.12032 15.7833 1 15.4999 1H4.99986ZM16 4.05056V6H17.7545L16 4.05056Z" fill="#181F26"/>
<path d="M17.5 14.5C17.5 13.9477 17.0523 13.5 16.5 13.5C15.9477 13.5 15.5 13.9477 15.5 14.5V17H12.9999C12.4476 17 11.9999 17.4477 11.9999 18C11.9999 18.5523 12.4476 19 12.9999 19H15.5V21.5C15.5 22.0523 15.9477 22.5 16.5 22.5C17.0523 22.5 17.5 22.0523 17.5 21.5V19H19.9999C20.5521 19 20.9999 18.5523 20.9999 18C20.9999 17.4477 20.5521 17 19.9999 17H17.5V14.5Z" fill="#181F26"/>
</svg>
